<svg width="1000" height="1000" viewBox="0 0 1000 1000" fill="none" xmlns="http://www.w3.org/2000/svg">
  <g clip-path="url(#clip0_18_2)">
    <mask id="mask0_18_2" style="mask-type:luminance" maskUnits="userSpaceOnUse" x="0" y="0" width="1000" height="1000">
      <path d="M1000 0H0V1000H1000V0Z" fill="white"/>
    </mask>
    <g mask="url(#mask0_18_2)">
      <mask id="mask1_18_2" style="mask-type:luminance" maskUnits="userSpaceOnUse" x="0" y="0" width="1000" height="1000">
        <path d="M1000 0H0V1000H1000V0Z" fill="white"/>
      </mask>
      <g mask="url(#mask1_18_2)">
        <mask id="mask2_18_2" style="mask-type:alpha" maskUnits="userSpaceOnUse" x="1" y="109" width="839" height="842">
          <path d="M420.621 950.425C651.822 950.425 839.246 762.116 839.246 529.826C839.246 297.536 651.822 109.228 420.621 109.228C189.421 109.228 1.99601 297.536 1.99601 529.826C1.99601 762.116 189.421 950.425 420.621 950.425Z" fill="white"/>
        </mask>
        <g mask="url(#mask2_18_2)">
          <mask id="mask3_18_2" style="mask-type:luminance" maskUnits="userSpaceOnUse" x="1" y="109" width="1199" height="841">
            <path d="M1199.36 109H1.99601V950H1199.36V109Z" fill="white"/>
          </mask>
          <g mask="url(#mask3_18_2)">
            <path d="M530.372 107.985L69.4925 951.013H294.269L755.149 107.985H530.372Z" fill="url(#paint0_linear_18_2)"/>
            <path d="M1.48169 107.985V951.013H69.4924L530.372 107.985H1.48169Z" fill="url(#paint1_linear_18_2)"/>
            <path d="M755.149 107.985L294.269 951.013H546.167L1007.05 107.985H755.149Z" fill="url(#paint2_linear_18_2)"/>
            <path d="M1199.36 107.985H1007.05L546.167 951.013H872.271L1199.36 352.711V107.985Z" fill="url(#paint3_linear_18_2)"/>
            <path opacity="0.73" d="M37.1002 153.95H119.58L160.819 229.354L119.58 304.758H37.1002L-4.13873 229.354L37.1002 153.95Z" fill="#72EFDD"/>
            <path opacity="0.73" d="M-4.19785 229.354H78.2817L119.521 304.758L78.2817 380.162H-4.19785L-45.4368 304.758L-4.19785 229.354Z" fill="#5390D9"/>
            <path opacity="0.73" d="M102.433 413.711H48.6686L21.7866 462.863L48.6686 512.015H102.433L129.315 462.863L102.433 413.711Z" fill="#80FFDB"/>
            <path opacity="0.73" d="M183.55 459.369H73.9502L19.1512 559.568L73.9502 659.766H183.55L238.35 559.568L183.55 459.369Z" fill="#56CFE1"/>
            <path opacity="0.73" d="M382.642 507.37H295.847L252.45 586.719L295.847 666.07H382.642L426.04 586.719L382.642 507.37Z" fill="#64DFDF"/>
            <path opacity="0.73" d="M360.689 466.813H273.894L230.497 546.164L273.894 625.513H360.689L404.087 546.164L360.689 466.813Z" fill="#80FFDB"/>
            <path opacity="0.73" d="M291.985 265.687H184.832L131.257 363.647L184.832 461.607H291.985L345.56 363.647L291.985 265.687Z" fill="#72EFDD"/>
            <path opacity="0.73" d="M238.395 363.647H131.244L77.6668 461.607L131.244 559.568H238.395L291.97 461.607L238.395 363.647Z" fill="#80FFDB"/>
            <path opacity="0.73" d="M57.2023 281.858H-87.0239L-159.136 413.711L-87.0239 545.566H57.2023L129.315 413.711L57.2023 281.858Z" fill="#56CFE1"/>
            <path opacity="0.73" d="M-19.593 380.162H-163.819L-235.931 512.015L-163.819 643.868H-19.593L52.5193 512.015L-19.593 380.162Z" fill="#4EA8DE"/>
            <path opacity="0.73" d="M206.036 524.898H288.514L329.753 600.302L288.514 675.706H206.036L164.797 600.302L206.036 524.898Z" fill="#72EFDD"/>
            <path opacity="0.73" d="M164.738 600.302H247.216L288.457 675.705L247.216 751.109H164.738L123.499 675.705L164.738 600.302Z" fill="#48BFE3"/>
            <path opacity="0.73" d="M271.369 784.659H217.605L190.723 833.81L217.605 882.962H271.369L298.249 833.81L271.369 784.659Z" fill="#56CFE1"/>
            <path opacity="0.73" d="M352.486 830.317H242.886L188.086 930.516L242.886 1030.71H352.486L407.285 930.516L352.486 830.317Z" fill="#C6FFDB"/>
            <path opacity="0.73" d="M551.578 878.317H464.783L421.384 957.666L464.783 1037.02H551.578L594.976 957.666L551.578 878.317Z" fill="#C6FFDB"/>
            <path opacity="0.73" d="M529.625 837.761H442.83L399.431 917.112L442.83 996.461H529.625L573.023 917.112L529.625 837.761Z" fill="#72EFDD"/>
            <path opacity="0.73" d="M460.919 636.635H353.768L300.191 734.594L353.768 832.556H460.919L514.495 734.594L460.919 636.635Z" fill="#80FFDB"/>
            <path opacity="0.73" d="M407.331 734.594H300.178L246.603 832.556L300.178 930.516H407.331L460.906 832.556L407.331 734.594Z" fill="#80FFDB"/>
            <path opacity="0.73" d="M226.137 652.805H81.9121L9.79982 784.659L81.9121 916.513H226.137L298.249 784.659L226.137 652.805Z" fill="#4EA8DE"/>
            <path opacity="0.73" d="M149.341 751.109H5.11685L-66.997 882.962L5.11685 1014.82H149.341L221.454 882.962L149.341 751.109Z" fill="#72EFDD"/>
            <path opacity="0.73" d="M621.349 449.049H686.981L719.797 509.051L686.981 569.052H621.349L588.533 509.051L621.349 449.049Z" fill="#80FFDB"/>
            <path opacity="0.73" d="M588.487 509.051H654.118L686.935 569.052L654.118 629.054H588.487L555.671 569.052L588.487 509.051Z" fill="#48BFE3"/>
            <path opacity="0.73" d="M673.337 655.751H630.555L609.164 694.862L630.555 733.974H673.337L694.728 694.862L673.337 655.751Z" fill="#80FFDB"/>
            <path opacity="0.73" d="M737.885 692.084H650.673L607.067 771.814L650.673 851.546H737.885L781.491 771.814L737.885 692.084Z" fill="#80FFDB"/>
            <path opacity="0.73" d="M825.145 776.83H737.931L694.325 856.562L737.931 936.294H825.145L868.751 856.562L825.145 776.83Z" fill="#C6FFDB"/>
            <path opacity="0.73" d="M867.767 856.562H780.553L736.947 936.294L780.553 1016.02H867.767L911.373 936.294L867.767 856.562Z" fill="#72EFDD"/>
            <path opacity="0.73" d="M607.286 856.562H520.072L476.466 936.294L520.072 1016.02H607.286L650.892 936.294L607.286 856.562Z" fill="#56CFE1"/>
            <path opacity="0.73" d="M896.31 730.278H827.245L792.711 793.419L827.245 856.562H896.31L930.844 793.419L896.31 730.278Z" fill="#64DFDF"/>
            <path opacity="0.73" d="M878.841 698.005H809.775L775.243 761.148L809.775 824.289H878.841L913.376 761.148L878.841 698.005Z" fill="#72EFDD"/>
            <path opacity="0.73" d="M824.17 537.961H738.905L696.272 615.913L738.905 693.864H824.17L866.802 615.913L824.17 537.961Z" fill="#64DFDF"/>
            <path opacity="0.73" d="M762.887 149.966H725.588L706.938 184.067L725.588 218.167H762.887L781.537 184.067L762.887 149.966Z" fill="#72EFDD"/>
            <path opacity="0.73" d="M935.977 21.3959H867.409L833.126 84.0818L867.409 146.768H935.977L970.262 84.0818L935.977 21.3959Z" fill="#56CFE1"/>
            <path opacity="0.73" d="M666.531 58.6931H597.963L563.68 121.379L597.963 184.067H666.531L700.816 121.379L666.531 58.6931Z" fill="#80FFDB"/>
            <path opacity="0.73" d="M829.661 281.858H818.659L813.158 291.917L818.659 301.976H829.661L835.162 291.917L829.661 281.858Z" fill="#48BFE3"/>
            <path opacity="0.73" d="M781.527 615.913H696.262L653.629 693.864L696.262 771.814H781.527L824.159 693.864L781.527 615.913Z" fill="#C6FFDB"/>
            <path opacity="0.73" d="M637.344 550.829H522.58L465.196 655.751L522.58 760.673H637.344L694.728 655.751L637.344 550.829Z" fill="#48BFE3"/>
            <path opacity="0.73" d="M532.594 441.243H417.829L360.446 546.164L417.829 651.084H532.594L589.977 546.164L532.594 441.243Z" fill="#80FFDB"/>
            <path opacity="0.73" d="M509.44 171.659H563.718L590.857 221.28L563.718 270.902H509.44L482.301 221.28L509.44 171.659Z" fill="#64DFDF"/>
            <path opacity="0.73" d="M552.434 342.603H517.052L499.362 374.95L517.052 407.295H552.434L570.124 374.95L552.434 342.603Z" fill="#80FFDB"/>
            <path opacity="0.73" d="M605.816 372.65H533.69L497.627 438.59L533.69 504.529H605.816L641.879 438.59L605.816 372.65Z" fill="#72EFDD"/>
            <path opacity="0.73" d="M736.835 404.239H679.717L651.158 456.458L679.717 508.676H736.835L765.394 456.458L736.835 404.239Z" fill="#80FFDB"/>
            <path opacity="0.73" d="M722.389 377.548H665.269L636.71 429.769L665.269 481.988H722.389L750.948 429.769L722.389 377.548Z" fill="#C6FFDB"/>
            <path opacity="0.73" d="M641.909 309.658H571.394L536.136 374.124L571.394 438.59H641.909L677.167 374.124L641.909 309.658Z" fill="#80FFDB"/>
            <path opacity="0.73" d="M522.667 255.832H427.756L380.299 342.603L427.756 429.374H522.667L570.124 342.603L522.667 255.832Z" fill="#C6FFDB"/>
            <path opacity="0.73" d="M472.13 320.524H377.218L329.761 407.295L377.218 494.067H472.13L519.587 407.295L472.13 320.524Z" fill="#C6FFDB"/>
            <path opacity="0.73" d="M345.691 413.699H291.415L264.275 364.077L291.415 314.456H345.691L372.83 364.077L345.691 413.699Z" fill="#5390D9"/>
            <path opacity="0.73" d="M372.869 364.077H318.591L291.453 314.456L318.591 264.834H372.869L400.008 314.456L372.869 364.077Z" fill="#5390D9"/>
            <path opacity="0.73" d="M302.697 242.755H338.079L355.77 210.408L338.079 178.063H302.697L285.007 210.408L302.697 242.755Z" fill="#5390D9"/>
            <path opacity="0.73" d="M249.315 212.708H321.441L357.504 146.768L321.441 80.8293H249.315L213.252 146.768L249.315 212.708Z" fill="#5390D9"/>
            <path opacity="0.73" d="M118.296 181.119H175.414L203.974 128.901L175.414 76.6817H118.296L89.7366 128.901L118.296 181.119Z" fill="#80FFDB"/>
            <path opacity="0.73" d="M132.742 207.808H189.862L218.421 155.589L189.862 103.37H132.742L104.183 155.589L132.742 207.808Z" fill="#72EFDD"/>
            <path opacity="0.73" d="M177.956 340.167H248.472L283.729 275.7L248.472 211.234H177.956L142.699 275.7L177.956 340.167Z" fill="#5390D9"/>
            <path opacity="0.73" d="M213.224 275.7H283.739L318.996 211.234L283.739 146.768H213.224L177.964 211.234L213.224 275.7Z" fill="#64DFDF"/>
            <path opacity="0.73" d="M332.464 329.526H427.375L474.832 242.755L427.375 155.984H332.464L285.007 242.755L332.464 329.526Z" fill="#C6FFDB"/>
            <path opacity="0.73" d="M383.001 264.834H477.915L525.37 178.063L477.915 91.2913H383.001L335.545 178.063L383.001 264.834Z" fill="#4EA8DE"/>
            <path opacity="0.73" d="M593.813 504.529H548.272L525.501 546.164L548.272 587.798H593.813L616.583 546.164L593.813 504.529Z" fill="#48BFE3"/>
            <path opacity="0.73" d="M59.903 819.066H-55.9126L-113.82 924.947L-55.9126 1030.83H59.903L117.812 924.947L59.903 819.066Z" fill="#48BFE3"/>
          </g>
        </g>
        <path d="M658.676 794.756C658.676 796.801 658.45 798.77 658.016 800.664C654.342 817.458 638.361 820.487 628.806 822.324C620.213 823.952 609.547 825.997 597.806 834.082C591.097 838.74 585.576 843.075 580.713 846.9C572.968 852.997 565.976 858.507 557.553 862.634L567.164 872.442L557.835 872.726C562.452 881.019 566.372 890.562 568.2 900.938C568.879 904.82 569.255 908.72 569.331 912.885V913.681C569.105 922.845 567.71 931.478 566.353 939.828L565.826 943.047C564.827 949.409 563.847 956.13 564.035 961.962L564.054 962.454V962.947C563.979 967.529 564.488 971.183 565.656 974.155L575.324 999.072L548.733 999.962C548.073 1000 547.301 1000 546.377 1000C536.126 1000 509.384 997.841 482.379 977.847C450.55 954.218 429.556 914.892 419.87 860.797C410.881 859.283 398.179 856.765 383.028 852.751C390.321 871.665 389.36 883.329 381.219 892.076C374.095 899.745 363.203 903.645 348.843 903.645C324.815 903.645 296.114 893.061 279.059 877.895C264.605 865.039 259.611 839.932 263.927 801.307C246.062 789.833 229.723 777.072 215.061 763.155C215.891 775.595 217.926 783.699 217.963 783.85L227.631 821.339L192.259 806.04C129.938 778.965 89.1947 724.075 74.4201 647.317C65.1105 598.941 67.9561 552.855 71.1034 526.424H49.8461L60.9837 500.086C67.6926 484.22 80.6958 465.57 99.6351 444.629C104.29 439.517 109.284 434.253 114.541 428.951L93.3783 412.1C75.0987 397.54 69.0868 372.452 78.7733 351.095L143.977 207.462C145.655 203.732 147.822 200.096 150.404 196.707C154.041 191.879 158.488 187.676 163.558 184.249C163.991 183.965 164.406 183.699 164.82 183.434L165.065 183.188L167.308 181.92C173.489 178.417 180.179 176.164 187.208 175.198L258.631 165.447C260.817 165.144 263.041 164.993 265.246 164.993C274.103 164.993 282.621 167.359 290.065 171.79L292.138 168.874L292.835 168.079C294.55 166.167 295.982 164.614 297.377 163.194C297.905 162.645 298.564 161.982 299.205 161.339L299.695 160.828L299.884 160.676C300.618 159.976 301.335 159.256 302.069 158.593C302.861 157.855 303.653 157.117 304.444 156.416L304.651 156.246C305.499 155.507 306.234 154.863 306.988 154.22C308.401 153.027 309.796 151.872 311.19 150.774L312.566 149.714C313.263 149.202 313.942 148.691 314.639 148.18L314.79 148.066C315.675 147.422 316.561 146.779 317.466 146.154L317.956 145.813C318.502 145.434 319.068 145.074 319.614 144.696C338.798 132.029 360.791 124.986 381.37 124.986C387.626 124.986 393.543 125.667 398.952 126.993L400.29 127.315L400.874 127.561C404.756 128.829 408.487 130.533 411.974 132.597C416.327 135.172 420.115 138.334 423.262 141.969C441.41 162.607 434.268 192.125 424.506 214.051C425.279 214.108 426.032 214.165 426.748 214.24C431.422 214.619 436.001 215.055 440.449 215.452C453.207 216.645 465.249 217.743 475.501 217.743C482.247 217.743 487.788 217.27 492.424 216.305C494.949 215.774 497.776 212.669 502.185 207.633C509.95 198.772 521.671 185.404 543.701 182.848C544.342 182.773 545.02 182.716 545.718 182.64H545.906C547.734 182.508 549.581 182.432 551.39 182.432H551.805L552.239 182.451C556.253 182.64 560.267 183.341 564.224 184.59C564.865 184.78 565.392 184.969 565.807 185.121C582.692 191.426 597.995 208.542 606.739 230.903L606.89 231.301C609.264 237.34 616.463 255.707 614.069 280.018C612.901 291.965 609.81 302.436 605.909 311.335C614.145 313.607 620.741 315.879 624.133 317.677L626.658 319.003L628.939 321.313L629.24 321.635C631.501 324.115 633.405 326.879 634.894 329.852C635.12 330.325 635.365 330.874 635.61 331.423L635.647 331.518C635.779 331.802 635.911 332.105 636.043 332.408C636.439 333.241 637.004 333.847 637.494 334.396L637.815 334.737C641.961 339.224 643.921 344.052 646.389 350.13L646.484 350.358C652.08 364.123 650.592 383.151 642.658 398.791C636.873 410.189 628.656 417.857 621.137 422.894C629.485 466.612 626.715 536.441 556.63 604.925C557.365 610.567 558.1 618.235 558.194 626.964C558.402 645.103 555.952 668.656 545.116 689.578C545.361 689.919 545.587 690.279 545.813 690.639C551.504 699.935 556.913 722.05 554.953 741.893C559.005 741.4 563.075 741.135 567.146 741.135C615.049 741.135 658.676 766.696 658.676 794.756Z" fill="white"/>
        <path d="M288.31 769.586C288.31 769.586 270.541 845.052 291.54 863.715C312.539 882.379 356.152 891.305 367.459 879.133C378.766 866.961 324.374 788.25 324.374 788.25L288.31 769.586Z" fill="#FE9572"/>
        <path d="M446.07 704.67V737.128C446.07 737.128 518.489 767.964 529.797 757.415C541.104 746.866 536.258 711.162 529.797 700.613C523.335 690.064 446.07 704.67 446.07 704.67Z" fill="#FE9572"/>
        <path d="M500.413 712.277C500.413 712.277 475.819 712.775 446.07 722.112C446.07 722.112 482.134 724.145 500.413 732.665" fill="#FE9572"/>
        <path d="M521.402 764.497C513.897 764.497 501.94 762.341 482.186 755.874C462.695 749.492 444.355 741.706 444.173 741.628C442.374 740.863 441.206 739.091 441.206 737.129V704.67C441.206 702.319 442.872 700.303 445.171 699.867C445.365 699.831 464.889 696.157 484.952 693.832C523.031 689.417 530.999 693.25 533.939 698.05C540.77 709.202 547.055 747.981 533.108 760.994C531.118 762.851 527.958 764.497 521.402 764.497ZM450.934 733.863C456.835 736.286 470.727 741.845 485.253 746.599C521.107 758.329 526.281 754.023 526.488 753.832C535.385 745.531 531.525 713.111 525.772 703.369C520.41 699.325 483.707 702.807 450.934 708.741V733.863Z" fill="#390075"/>
        <path d="M500.445 713.861C495.958 714.293 491.394 714.999 486.909 715.812C482.413 716.641 477.942 717.575 473.518 718.683C469.095 719.788 464.7 720.976 460.369 722.349C456.026 723.673 451.756 725.203 447.522 726.775H447.52L446.343 717.232C451.124 717.868 455.707 718.652 460.351 719.519C464.975 720.394 469.579 721.356 474.15 722.491C478.717 723.629 483.265 724.846 487.733 726.376C492.195 727.901 496.615 729.609 500.776 731.877C501.197 732.107 501.353 732.634 501.124 733.057C500.917 733.442 500.461 733.606 500.064 733.458L500.049 733.453C495.765 731.866 491.292 730.844 486.802 730.003C482.309 729.158 477.746 728.622 473.189 728.164C468.63 727.711 464.047 727.428 459.468 727.232C454.908 727.047 450.264 726.936 445.798 726.99L445.784 726.991C443.126 727.024 440.944 724.885 440.912 722.213C440.884 719.905 442.473 717.955 444.62 717.447H444.621C449.219 716.337 453.815 715.288 458.448 714.46C463.069 713.582 467.718 712.905 472.365 712.317C477.012 711.729 481.676 711.322 486.338 711.028C491.014 710.747 495.645 710.585 500.381 710.694C501.252 710.714 501.942 711.439 501.922 712.314C501.903 713.126 501.281 713.781 500.496 713.856L500.445 713.861Z" fill="#390075"/>
        <path d="M348.881 889.515C329.032 889.515 302.778 880.23 288.317 867.376C265.788 847.351 281.689 776.477 283.577 768.46C283.921 766.997 284.916 765.776 286.276 765.146C287.632 764.519 289.204 764.551 290.537 765.241L326.601 783.905C327.307 784.271 327.915 784.806 328.369 785.463C328.506 785.661 342.223 805.551 354.369 826.683C377.43 866.804 375.725 877.396 371.015 882.466C366.455 887.376 358.404 889.515 348.881 889.515ZM291.705 776.839C286.9 800.386 280.703 847.557 294.763 860.054C314.568 877.658 355.276 885.085 363.904 875.799C364.041 875.578 367.671 869.157 345.399 830.622C335.14 812.877 323.902 796.204 321.059 792.032L291.705 776.839Z" fill="#390075"/>
        <path d="M312.83 851.109C310.688 845.274 308.924 839.452 307.333 833.509C305.76 827.575 304.431 821.566 303.335 815.492C302.208 809.424 301.423 803.272 300.894 797.066C300.319 790.861 300.276 784.579 300.427 778.26V778.258C300.478 775.181 303.002 772.727 306.066 772.778C308.661 772.822 310.809 774.649 311.375 777.077L311.42 777.277C312.881 783.547 314.567 789.944 316.325 796.237C318.102 802.544 319.981 808.827 322.018 815.05C326.122 827.475 330.711 839.778 336.721 851.272L336.743 851.315C337.391 852.554 336.917 854.087 335.684 854.738C334.511 855.356 333.07 854.949 332.374 853.844C325.21 842.404 319.569 830.225 314.406 817.905C311.839 811.736 309.434 805.507 307.131 799.237C304.834 792.945 302.652 786.695 300.6 780.216L311.594 779.236V779.238C310.912 784.993 310.379 790.828 310.367 796.724C310.306 802.613 310.488 808.545 311.015 814.47C311.51 820.397 312.236 826.328 313.213 832.228C314.195 838.111 315.397 844.039 316.893 849.747L316.911 849.817C317.213 850.967 316.53 852.144 315.386 852.447C314.311 852.73 313.209 852.133 312.83 851.109Z" fill="#390075"/>
        <path d="M199.745 788.65C132.299 759.34 103.805 700.209 92.9313 643.71C79.4194 573.579 93.0633 507.481 93.0633 507.481H78.3263C85.1482 491.349 99.2067 473.248 113.585 457.362C121.501 448.634 129.528 440.568 136.482 433.865C148.317 422.486 157.099 415.064 157.099 415.064C156.119 422.202 155.309 429.227 154.687 436.156C140.666 588.972 208.64 690.742 208.64 690.742C186.629 739.119 199.745 788.65 199.745 788.65Z" fill="#FE9572"/>
        <path d="M199.74 793.543C199.088 793.543 198.432 793.411 197.812 793.141C134.34 765.54 95.2919 707.065 84.8886 624.033C78.4975 573.025 84.5755 528.093 87.2164 512.373H78.3216C76.6894 512.373 75.167 511.552 74.2659 510.185C73.3649 508.818 73.2063 507.086 73.8432 505.578C91.0606 464.802 151.409 413.48 153.97 411.315C155.508 410.013 157.688 409.798 159.452 410.777C161.216 411.755 162.197 413.723 161.919 415.726C150.329 499.605 164.731 569.14 178.855 612.704C194.179 659.977 212.498 687.746 212.682 688.021C213.621 689.431 213.768 691.232 213.064 692.774C192.074 738.895 204.319 786.923 204.446 787.403C204.921 789.212 204.327 791.138 202.915 792.358C202.014 793.137 200.883 793.543 199.74 793.543ZM86.0408 502.6H93.0536C94.516 502.6 95.9014 503.262 96.8252 504.401C97.7493 505.542 98.1132 507.039 97.8156 508.477C97.706 509.01 86.9323 562.473 94.5713 623.064C104.224 699.614 137.35 752.417 193.082 780.169C190.374 763.37 187.483 727.395 203.131 691.161C198.371 683.497 183.11 657.268 169.725 616.102C155.947 573.738 141.906 507.394 150.688 427.264C134.207 442.299 100.773 474.694 86.0408 502.6Z" fill="#390075"/>
        <path d="M157.552 502.739C152.604 506.866 147.598 511.448 142.82 516.047C138.023 520.678 133.373 525.466 128.881 530.395C124.422 535.349 120.166 540.47 116.136 545.76C112.192 551.098 108.526 556.624 105.329 562.402L105.293 562.468C104.463 563.967 102.581 564.508 101.088 563.674C99.6762 562.886 99.1245 561.138 99.7719 559.683C102.634 553.298 105.996 547.185 109.646 541.272C113.373 535.422 117.344 529.741 121.526 524.232C125.739 518.753 130.124 513.413 134.674 508.217C139.261 503.006 143.866 498.004 148.938 492.997C151.496 490.473 155.607 490.509 158.12 493.079C160.633 495.649 160.597 499.78 158.04 502.304C157.912 502.43 157.781 502.549 157.646 502.663L157.552 502.739Z" fill="#390075"/>
        <path d="M166.708 578.663C166.62 578.738 166.528 578.808 166.431 578.873C166.319 578.961 166.273 578.938 166.066 579.138L165.013 580.064C164.291 580.741 163.538 581.512 162.798 582.248L160.595 584.646L158.445 587.168C157.008 588.85 155.655 590.649 154.27 592.408C152.954 594.235 151.571 596.012 150.302 597.887C145.148 605.324 140.366 613.122 136.09 621.224C131.833 629.331 127.778 637.6 124.281 646.13C122.411 650.347 120.853 654.691 119.16 658.991C117.528 663.313 116.087 667.708 114.537 672.072L114.501 672.174C114.057 673.422 112.69 674.073 111.448 673.628C110.264 673.203 109.622 671.928 109.947 670.729C111.187 666.21 112.321 661.65 113.654 657.146C115.048 652.661 116.312 648.125 117.899 643.693C120.824 634.74 124.346 625.975 128.122 617.297C131.918 608.623 136.274 600.165 141.132 591.923C142.325 589.851 143.655 587.846 144.915 585.801C146.262 583.798 147.567 581.775 149.008 579.807L151.176 576.851L153.484 573.933C154.32 572.96 155.126 572.004 156.029 571.022L157.489 569.534C157.684 569.313 158.122 568.962 158.455 568.677L159.54 567.801C162.312 565.563 166.364 566.006 168.592 568.79C170.776 571.52 170.395 575.487 167.768 577.751L166.708 578.663Z" fill="#390075"/>
        <path d="M190.408 644.143C187.196 652.373 184.21 660.968 181.428 669.503C178.661 678.071 176.053 686.701 173.818 695.413C171.603 704.121 169.514 712.888 168.112 721.731C166.696 730.563 165.677 739.473 165.81 748.327L165.811 748.38C165.834 749.874 164.647 751.103 163.16 751.126C161.74 751.147 160.559 750.051 160.438 748.651C159.644 739.305 160.068 730.004 160.893 720.789C161.707 711.56 163.216 702.463 164.863 693.396C166.53 684.331 168.573 675.36 170.785 666.429C173.033 657.478 175.411 648.68 178.203 639.735C179.275 636.299 182.917 634.387 186.338 635.465C189.758 636.542 191.662 640.201 190.589 643.638C190.545 643.778 190.497 643.916 190.445 644.052L190.408 644.143Z" fill="#390075"/>
        <g opacity="0.3">
          <path d="M199.904 788.65C132.457 759.34 103.963 700.209 93.0899 643.71C95.502 648.671 98.0649 653.556 100.76 658.384C104.699 665.447 109.843 673.002 117.758 674.497C127.972 676.428 137.32 666.507 138.997 656.188C140.655 645.869 136.961 635.55 133.682 625.609C123.412 594.387 117.005 561.859 114.536 529.065C112.972 508.332 109.862 480.045 113.744 457.362C114.517 452.837 115.553 448.558 116.948 444.582C119.737 436.63 127.388 433.941 136.641 433.865C142.37 433.827 148.702 434.793 154.845 436.156C140.825 588.972 208.799 690.742 208.799 690.742C186.788 739.119 199.904 788.65 199.904 788.65Z" fill="#390075"/>
        </g>
        <path d="M639.836 794.747C639.836 807.527 616.223 798.401 587.145 818.471C558.067 838.56 552.62 851.34 519.905 851.34C519.905 851.34 544.819 873.247 549.624 900.645C551.904 913.614 549.304 927.02 547.231 940.027C544.932 954.493 543.273 968.485 549.624 980.962C549.624 980.962 521.997 983.67 493.579 962.596C469.777 944.95 445.43 910.623 436.309 844.032C436.309 844.032 292.011 829.604 205.531 725.354C135.352 640.776 112.568 530.296 134.353 436.099C134.504 435.494 134.636 434.869 134.787 434.263C146.998 382.838 172.552 336.374 210.977 301.782C293.576 227.39 367.807 228.204 425.171 233.089C453.232 235.456 477.259 238.807 496.274 234.831C515.911 230.723 518.983 204.688 545.988 201.64C547.908 201.423 549.338 201.256 551.396 201.356C574.482 202.47 593.795 232.705 598.011 257.583C604.001 292.938 579.928 320.002 576.361 323.886C589.544 323.768 611.584 325.359 618.033 338.305C618.208 338.657 618.371 339.017 618.523 339.384C618.542 339.46 618.579 339.536 618.617 339.611C622.216 348.397 622.254 362.37 610.231 373.712C610.231 373.712 610.231 373.731 610.212 373.731C605.312 378.35 598.415 382.554 588.954 385.773L588.973 385.792C589.256 386.303 594.815 396.281 599.432 412.773C610.438 452.212 615.959 528.971 530.799 603.04C409.059 708.938 479.917 794.746 479.917 794.746C479.917 794.746 479.935 794.727 479.954 794.727C481.33 793.667 526.012 760.059 567.151 760.059C608.949 760.06 639.836 781.966 639.836 794.747Z" fill="#FFC57F"/>
        <g opacity="0.6">
          <path d="M134.337 457.452C134.488 456.846 134.619 456.221 134.77 455.615C146.982 404.191 172.536 357.727 210.961 323.134C293.559 248.743 367.79 249.557 425.155 254.442C453.215 256.808 477.243 260.16 496.258 256.184C515.895 252.075 518.966 226.041 545.971 222.992C547.667 222.803 549.476 222.708 551.38 222.708C569.794 222.746 591.341 249.009 594.977 283.135C599.591 239.813 573.27 202.712 551.38 202.667C549.476 202.667 547.667 202.761 545.971 202.951C518.966 205.999 515.895 232.034 496.258 236.143C477.243 240.118 453.215 236.767 425.155 234.4C367.791 229.516 293.56 228.701 210.961 303.093C172.536 337.685 146.982 384.149 134.77 435.574C134.62 436.18 134.488 436.805 134.337 437.41C128.31 463.471 125.711 490.778 126.566 518.438C127.191 497.654 129.771 477.193 134.337 457.452Z" fill="white"/>
        </g>
        <g opacity="0.2">
          <path d="M425.171 233.09C419.31 246.381 404.291 256.284 392.023 261.888C374.478 269.916 354.973 274.366 339.746 286.237C323.784 298.696 314.607 317.686 303.375 334.576C265.949 390.866 201.97 425.118 134.787 434.263C146.998 382.838 172.552 336.374 210.978 301.782C293.576 227.391 367.806 228.205 425.171 233.09Z" fill="#510000"/>
        </g>
        <g opacity="0.3">
          <path d="M567.15 760.06C526.011 760.06 481.33 793.668 479.954 794.728C479.935 794.728 479.916 794.747 479.916 794.747C479.916 794.747 409.058 708.938 530.798 603.041C615.959 528.971 610.437 452.213 599.432 412.773C624.269 404.31 625.796 374.773 622.573 354.835C620.199 362.333 616.355 369.112 610.23 373.713C610.23 373.713 610.23 373.732 610.211 373.732C608.383 375.114 606.367 376.307 604.105 377.253C572.596 390.64 505.979 431.424 424.794 423.206C424.794 423.206 433.104 428.167 448.067 433.544C468.194 440.758 500.363 448.748 540.484 446.438C556.483 445.51 567.112 462.873 559.272 476.903C535.452 519.523 486.888 584.94 415.691 578.219C314.211 568.657 297.382 510 296.421 506.327C296.892 510.549 308.519 595.411 446.07 622.316C446.07 622.316 412.695 708.314 424.793 748.492C436.911 788.651 320.806 774.848 267.305 732.663C213.841 690.516 148.316 566.934 134.352 436.1C112.568 530.297 135.351 640.777 205.53 725.355C292.011 829.605 436.308 844.033 436.308 844.033C445.429 910.624 469.777 944.951 493.578 962.597L547.23 940.028C549.303 927.02 551.904 913.615 549.623 900.646C544.818 873.248 519.905 851.341 519.905 851.341C552.62 851.341 558.066 838.561 587.144 818.472C616.222 798.402 639.835 807.528 639.835 794.748C639.836 781.966 608.949 760.06 567.15 760.06ZM459.092 813.264C455.323 821.084 441.661 822.277 428.582 815.915C415.484 809.553 407.909 798.079 411.659 790.26C415.409 782.459 429.072 781.266 442.169 787.628C455.267 793.97 462.843 805.464 459.092 813.264Z" fill="#390075"/>
        </g>
        <path d="M546.302 985.968C538.331 985.968 518.937 984.437 497.915 971.438C473.855 956.559 443.097 923.152 432.023 848.44C421.493 847.051 390.422 842.125 351.729 828.395C308.378 813.01 247.175 783.188 201.795 728.484C92.3996 596.652 95.1179 399.58 207.729 298.144C298.505 216.377 379.739 223.918 439.066 229.423C461.08 231.467 480.091 233.23 495.28 230.048C502.747 228.491 507.573 223.281 513.163 217.248C521.059 208.722 530.889 198.111 551.005 196.485C566.316 195.259 582.643 207.983 592.621 228.926C604.393 253.632 607.298 290.086 582.963 322.172C594.685 322.456 612.569 324.717 621.676 335.07C627.258 341.414 639.862 358.291 636.326 377.901C633.754 392.166 623.336 404.655 605.336 415.067C608.08 423.943 613.663 446.485 610.842 475.888C607.532 510.354 591.484 561.056 533.816 606.873C490.811 641.04 466.993 677.636 463.02 715.65C459.272 751.507 474.63 778.499 481.005 787.957C493.204 779.457 531.21 755.173 567.151 755.173C608.915 755.173 644.7 776.934 644.7 794.747C644.7 804.979 635.299 806.771 626.206 808.504C616.859 810.285 604.06 812.724 589.899 822.5C582.815 827.394 577.119 831.877 572.095 835.832C558.896 846.221 549.486 853.628 530.991 855.665C539.142 864.806 551.107 880.941 554.415 899.797C556.636 912.455 554.579 925.135 552.591 937.396C550.146 952.468 547.838 966.704 553.956 978.739C554.687 980.179 554.664 981.888 553.892 983.307C553.119 984.726 551.698 985.669 550.097 985.825C549.873 985.847 548.536 985.968 546.302 985.968ZM387.272 236.133C337.528 236.133 278.234 247.761 214.224 305.421C105.398 403.446 103.129 594.318 209.267 722.225C293.499 823.765 435.367 839.027 436.789 839.169C439.028 839.392 440.82 841.127 441.127 843.365C449.055 901.279 470.278 942.578 502.506 962.797C518.691 972.952 534.008 975.482 542.437 976.036C538.563 963.108 540.808 949.274 542.989 935.825C544.848 924.368 546.769 912.521 544.834 901.495C540.393 876.169 516.936 855.225 516.698 855.016C515.177 853.673 514.642 851.522 515.354 849.619C516.069 847.715 517.88 846.454 519.905 846.454C542.829 846.454 551.093 839.949 566.095 828.138C571.23 824.096 577.052 819.513 584.389 814.445C600.237 803.505 614.773 800.734 624.393 798.902C633.726 797.123 634.971 796.455 634.971 794.747C634.971 786.153 607.94 764.946 567.15 764.946C527.706 764.946 483.35 798.27 482.914 798.606C482.639 798.817 482.344 798.996 482.037 799.144C481.285 799.511 480.444 799.686 479.592 799.623C478.26 799.534 477.024 798.899 476.171 797.867C475.029 796.483 448.246 763.412 453.344 714.629C457.601 673.9 482.645 635.066 527.78 599.208C571.766 564.262 596.437 522.615 601.111 475.425C604.602 440.163 594.989 414.798 594.891 414.545C593.998 412.236 594.962 409.615 597.139 408.453C614.608 399.127 624.57 388.261 626.753 376.158C629.53 360.758 619.031 346.82 614.387 341.542C605.532 331.477 581.262 331.391 572.657 332.208C570.639 332.404 568.712 331.312 567.827 329.483C566.938 327.652 567.271 325.461 568.666 323.982C597.294 293.607 595.28 257.143 583.846 233.146C575.745 216.148 562.844 205.314 551.785 206.227C535.434 207.549 528.074 215.494 520.283 223.906C514.124 230.554 507.756 237.427 497.262 239.616C480.647 243.099 460.963 241.269 438.171 239.155C422.669 237.716 405.616 236.133 387.272 236.133Z" fill="#390075"/>
        <path d="M599.432 412.773C576.649 420.428 556.674 425.081 541.026 428.024C529.973 430.102 514.175 433.016 492.971 434.178C487.469 434.479 470.387 435.277 448.068 433.544C415.182 430.99 401.192 425.222 394.755 422.354C387.236 419.002 383.127 416.2 383.127 416.2C384.315 415.67 385.483 415.159 386.633 414.628C452.798 385.186 484.533 367.843 502.342 263.232C510.445 215.614 539.787 203.666 545.987 201.64C547.683 201.451 549.492 201.356 551.396 201.356C565.171 201.375 580.719 216.106 589.199 237.823C591.104 242.7 597.312 257.84 595.325 278.168C593.038 301.557 581.527 317.52 576.36 323.887C599.18 328.305 615.12 333.653 615.997 334.879C616.031 334.927 616.937 336.222 617.574 337.408C617.733 337.702 617.885 338.002 618.032 338.306C618.202 338.646 618.352 339.006 618.522 339.385C618.543 339.437 618.576 339.517 618.616 339.612C620.447 343.964 623.083 346.615 623.944 347.554C625.82 349.599 626.893 352.24 629.04 357.521C632.386 365.751 631.482 379.116 625.86 390.194C617.756 406.166 602.759 411.647 599.432 412.773Z" fill="#FE9572"/>
        <g opacity="0.6">
          <path d="M592.637 235.062C590.174 231.363 582.163 220.374 567.88 216.91C567.88 216.91 557.079 214.291 546.737 217.791C523.927 225.512 522.87 261.611 505.542 310.833C488.317 359.758 456.77 409.592 381.767 414.628C399.009 410.857 432.434 400.693 458.737 371.329C484.773 342.265 493.108 306.361 494.112 301.82C495.041 297.616 497.297 286.46 502.342 263.232C507.23 240.728 508.774 234.344 513.229 226.85C517.771 219.212 525.9 209.477 541.121 201.64C542.18 201.502 544.119 201.3 546.53 201.356C570.412 201.916 587.223 226.415 592.637 235.062Z" fill="white"/>
        </g>
        <path d="M462.005 439.294C401.535 439.294 381.977 419.716 380.776 418.443C380.049 417.674 379.741 416.599 379.948 415.56C380.154 414.521 380.851 413.648 381.817 413.219C447.856 383.911 481.005 369.2 499.146 262.684C507.577 213.136 538.809 200.561 544.984 198.542C545.194 198.474 545.41 198.427 545.629 198.403C546.652 198.289 547.673 198.259 548.662 198.23C549.458 198.207 550.276 198.185 551.109 198.111C566.465 196.756 583.352 208.934 593.189 228.443C598.915 239.8 614.123 279.027 579.763 323.28C590.249 322.76 608.458 323.893 620.343 336.021C631.724 347.633 636.423 364.893 632.605 381.062C628.716 397.534 617.001 410.215 600.465 415.855C600.418 415.87 600.371 415.885 600.325 415.899C539.753 433.517 494.842 439.294 462.005 439.294ZM389.407 416.972C394.985 420.659 406.968 426.822 428.252 430.219C457.558 434.894 510.866 435.127 598.449 409.66C612.79 404.746 622.937 393.777 626.294 379.557C629.602 365.551 625.55 350.62 615.721 340.592C600.969 325.539 573.065 330.497 572.786 330.546C571.432 330.8 570.06 330.158 569.377 328.95C568.697 327.742 568.851 326.234 569.764 325.191C607.997 281.514 592.932 242.35 587.404 231.388C578.889 214.501 564.226 203.473 551.683 204.602C550.717 204.688 549.771 204.716 548.849 204.744C548.078 204.766 547.342 204.787 546.668 204.847C540.429 206.976 513.2 218.756 505.539 263.782C496.64 316.037 484.232 347.925 464.054 370.406C445.05 391.578 419.262 403.688 389.407 416.972Z" fill="#390075"/>
        <path d="M401.976 420.007C394.536 420.007 388.512 419.847 384.728 419.71C384.302 419.695 383.896 419.597 383.529 419.433C383.525 419.433 383.52 419.434 383.515 419.435C381.72 419.637 380.122 418.377 379.907 416.591C379.693 414.805 380.959 413.182 382.738 412.966C383.43 412.882 452.473 404.168 484.739 372.59C487.687 369.703 490.268 366.68 492.412 363.606C504.303 346.538 512.451 323.026 519.64 302.281C529.775 273.037 538.526 247.781 555.335 246.205C562.825 245.505 569.156 249.358 573.14 257.075C582.608 275.406 578.316 311.496 565.111 331.02C573.111 333.604 588.556 339.692 592.579 349.185C594.154 352.9 593.876 356.84 591.778 360.581C587.788 367.698 581.322 369.206 573.137 371.115C565.078 372.994 555.051 375.333 542.037 383.656C530.316 391.161 511.267 401.813 487.088 409.937C461.66 418.469 425.034 420.007 401.976 420.007ZM557.096 252.637C556.718 252.637 556.333 252.656 555.94 252.693C543.281 253.88 534.774 278.431 525.764 304.423C518.437 325.568 510.131 349.534 497.724 367.345C495.348 370.751 492.503 374.085 489.267 377.257C469.685 396.42 438.349 407.407 414.843 413.335C436.715 412.78 464.694 410.582 485.032 403.756C508.585 395.844 527.137 385.47 538.553 378.16C552.504 369.238 563.582 366.654 571.67 364.768C579.686 362.898 583.649 361.804 586.13 357.382C587.246 355.39 587.401 353.598 586.614 351.74C583.274 343.852 565.458 337.681 558.876 335.969C557.792 335.688 556.93 334.865 556.594 333.794C556.259 332.722 556.495 331.552 557.222 330.698C570.782 314.759 576.196 277.139 567.383 260.076C564.804 255.081 561.43 252.637 557.096 252.637Z" fill="#390075"/>
        <path d="M384.519 416.454C415.368 417.899 470.021 413.763 485.733 406.847C509.403 398.895 527.965 388.595 539.97 380.907C566.617 363.867 583.027 369.808 588.628 358.982C597.173 342.463 559.361 332.815 559.361 332.815C579.545 309.091 581.165 247.006 555.31 249.449C529.473 251.872 523.009 324.9 494.742 365.476C492.405 368.827 489.691 371.97 486.676 374.924C479.37 381.539 470.225 388.617 459.042 395.047C429.983 411.756 401.87 415.635 384.519 416.454Z" fill="#390075"/>
        <path d="M588.954 358.982C583.101 371.567 566.943 363.867 540.296 380.907C528.291 388.594 509.729 398.895 486.059 406.847C486.041 406.847 486.041 406.828 486.041 406.828C486.041 406.828 478.71 389.882 487.002 374.924C488.83 371.611 491.449 368.392 495.068 365.476C513.988 350.272 532.023 350.461 532.023 350.461C544.744 330.997 559.688 332.815 559.688 332.815C559.688 332.815 596.797 342.115 588.954 358.982Z" fill="#FF67A0"/>
        <path d="M486.06 409.29C485.06 409.29 484.19 408.674 483.812 407.802H483.811C483.491 407.065 476.102 389.567 484.878 373.735C486.973 369.938 489.89 366.516 493.547 363.57C510.167 350.214 526.033 348.322 530.7 348.059C543.943 328.68 559.325 330.31 559.979 330.389C560.084 330.401 560.189 330.421 560.291 330.448C561.357 330.722 586.469 337.307 591.713 349.386C593.248 352.924 593.04 356.544 591.091 360.147C587.733 366.361 581.525 367.889 573.667 369.823C565.77 371.767 554.955 374.429 541.603 382.968C529.919 390.449 510.932 401.066 486.832 409.163C486.583 409.247 486.322 409.29 486.06 409.29ZM531.994 352.905C531.648 352.905 514.44 353.038 496.587 367.384C493.429 369.929 490.919 372.865 489.13 376.108C483.166 386.867 486.004 398.988 487.527 403.765C510.096 395.931 527.899 385.947 538.99 378.846C553.018 369.874 564.284 367.101 572.508 365.077C579.978 363.239 584.485 362.129 586.818 357.815C588.029 355.574 588.172 353.456 587.253 351.34C583.714 343.187 566.031 336.998 559.266 335.228C557.781 335.118 545.224 334.715 534.056 351.802C533.603 352.498 532.822 352.866 531.998 352.904L531.994 352.905Z" fill="#390075"/>
        <path d="M533.623 345.975C533.404 345.91 533.731 346.03 533.937 346.092L534.67 346.321L536.172 346.804C537.175 347.131 538.172 347.483 539.162 347.845C541.142 348.576 543.089 349.384 545 350.261C548.829 352.001 552.495 354.078 555.952 356.425C556.64 356.893 556.821 357.833 556.356 358.525C555.931 359.155 555.115 359.362 554.453 359.039L554.431 359.028C550.845 357.281 547.135 355.832 543.333 354.724C541.435 354.162 539.52 353.673 537.592 353.261C536.627 353.059 535.662 352.866 534.691 352.697L533.229 352.45L532.477 352.328C532.188 352.27 532.019 352.278 531.313 352.064C529.639 351.423 528.8 349.54 529.438 347.859C530.075 346.177 531.949 345.334 533.623 345.975Z" fill="#390075"/>
        <path d="M290.823 484.403C294.297 494.827 299.176 505.147 305.022 514.578C307.903 519.342 311.078 523.914 314.51 528.257C317.942 532.595 321.541 536.798 325.496 540.625C333.362 548.302 342.139 555.011 351.831 560.017C356.607 562.649 361.665 564.71 366.778 566.578C371.953 568.281 377.205 569.778 382.584 570.751C383.927 571.002 385.264 571.284 386.611 571.513L390.684 572.038C393.374 572.465 396.164 572.589 398.939 572.759L407.262 573.284C410.035 573.435 412.803 573.292 415.576 573.314C426.676 573.43 437.694 572.035 448.467 569.785C459.249 567.503 469.689 563.736 479.375 558.552C481.766 557.214 484.142 555.828 486.476 554.381C488.714 552.803 491.068 551.355 493.167 549.591C495.363 547.939 497.388 546.096 499.392 544.237C500.339 543.268 501.381 542.353 502.261 541.339C503.171 540.371 504.108 539.285 504.81 538.37L504.929 538.214C505.887 536.966 507.67 536.734 508.912 537.696C510.093 538.611 510.354 540.284 509.554 541.519C508.624 542.946 507.758 544.075 506.803 545.266C505.889 546.475 504.857 547.529 503.886 548.669C501.839 550.821 499.732 552.921 497.471 554.828C495.296 556.852 492.874 558.539 490.541 560.365C488.123 562.054 485.651 563.677 483.152 565.251C472.993 571.264 461.928 575.73 450.499 578.434C439.099 581.203 427.395 582.789 415.729 582.864L411.351 582.956C409.892 582.97 408.427 583.072 406.978 582.936L398.26 582.425C395.354 582.255 392.455 582.135 389.514 581.689L385.118 581.137C383.66 580.896 382.209 580.599 380.753 580.333C379.303 580.036 377.835 579.834 376.401 579.458L372.095 578.344L369.944 577.782L367.827 577.092L363.596 575.708C358.034 573.634 352.536 571.33 347.347 568.423C336.906 562.735 327.444 555.326 319.286 546.788C311.129 538.233 304.229 528.589 298.612 518.314C295.834 513.157 293.349 507.858 291.182 502.436C289.013 496.982 287.142 491.543 285.796 485.669C285.475 484.268 286.345 482.872 287.739 482.549C289.047 482.247 290.351 482.997 290.772 484.248L290.823 484.403Z" fill="#390075"/>
        <path d="M393.455 231.064V231.083C393.417 231.121 393.398 231.14 393.379 231.177C393.342 231.215 393.342 231.234 393.323 231.253C393.304 231.272 393.304 231.272 393.304 231.272C374.025 230.231 350.017 233.734 336.071 236.195C329.023 237.445 324.538 238.43 324.538 238.43C312.175 283.436 289.825 315.377 269.83 336.489C253.454 353.756 238.642 363.791 232.14 367.768C229.898 369.15 228.654 369.812 228.654 369.812C225.299 372.596 221.945 375.284 218.59 377.84C218.534 377.897 218.458 377.935 218.402 377.992C215.123 380.491 211.863 382.877 208.64 385.149L208.49 385.244L208.471 385.263C170.799 411.827 137.651 423.206 137.651 423.206L126.099 413.986L105.086 397.248C93.6282 388.122 89.8595 372.331 95.9276 358.944L97.228 356.066L161.132 215.311C162.281 212.755 163.713 210.388 165.372 208.211C167.803 204.993 170.743 202.209 174.059 199.975C174.851 199.445 175.661 198.934 176.49 198.46C176.528 198.441 176.547 198.422 176.566 198.403C180.58 196.132 185.046 194.598 189.757 193.954L261.18 184.203C270.282 182.954 279.441 185.945 286.056 192.344L291.144 197.249L293.519 199.559C297.401 192.629 301.905 186.343 306.88 180.7C308.161 179.262 309.462 177.841 310.8 176.478C311.403 175.853 312.006 175.247 312.609 174.641C312.741 174.528 312.854 174.414 312.967 174.301C313.607 173.676 314.248 173.051 314.889 172.464C315.586 171.801 316.302 171.158 317 170.533C317.716 169.908 318.432 169.283 319.167 168.658C320.599 167.409 322.05 166.235 323.52 165.137C323.576 165.099 323.633 165.061 323.671 165.023C324.387 164.474 325.103 163.944 325.819 163.414C326.573 162.865 327.326 162.316 328.099 161.786C328.683 161.388 329.249 160.99 329.833 160.611C353.522 144.953 378.68 141.488 394.472 145.37C394.566 145.407 394.642 145.426 394.717 145.445C398.976 146.506 402.519 148.096 405.176 150.141C406.684 151.315 408.041 152.546 409.228 153.833C432.766 179.298 396.244 227.485 393.455 231.064Z" fill="white"/>
        <path d="M208.641 385.148L208.471 385.262C170.8 411.826 137.651 423.206 137.651 423.206L105.087 397.247C93.6286 388.121 89.8598 372.33 95.9279 358.944L161.132 215.311C164.411 208.097 169.838 202.246 176.491 198.459C174.342 200.637 150.503 246.476 157.061 295.704L208.641 385.148Z" fill="#0096F0"/>
        <g opacity="0.6">
          <path d="M120.446 405.025C108.988 395.899 105.219 380.108 111.287 366.722L156.34 267.477C159.035 230.201 174.777 200.211 176.505 198.459C169.853 202.246 164.425 208.097 161.146 215.311L95.9421 358.944C89.874 372.33 93.6431 388.121 105.101 397.247L137.665 423.206C137.665 423.206 139.025 422.737 141.473 421.786L120.446 405.025Z" fill="white"/>
        </g>
        <path d="M393.455 231.064C393.436 231.083 393.455 231.083 393.455 231.083C393.379 231.159 393.342 231.216 393.323 231.253C393.304 231.272 393.304 231.272 393.304 231.272C374.025 230.231 350.017 233.734 336.071 236.195C329.023 237.445 324.538 238.43 324.538 238.43C312.175 283.436 289.825 315.377 269.83 336.489C253.454 353.756 238.642 363.791 232.14 367.767C229.898 369.15 228.654 369.812 228.654 369.812C225.299 372.596 221.945 375.284 218.59 377.84C218.534 377.897 218.458 377.935 218.402 377.992C215.123 380.491 211.863 382.877 208.64 385.149L208.471 385.263C208.471 385.263 208.584 385.111 208.791 384.827C208.81 384.808 208.81 384.808 208.81 384.808C213.069 378.787 258.033 314.942 266.495 277.85C274.975 240.702 291.841 203.212 293.405 199.804L293.462 199.672L293.518 199.558L306.88 180.7C308.161 179.261 309.461 177.841 310.799 176.478C311.402 175.853 312.006 175.247 312.608 174.641C312.74 174.528 312.854 174.414 312.966 174.3C313.607 173.676 314.248 173.051 314.888 172.464C315.586 171.801 316.302 171.157 316.999 170.532C317.715 169.908 318.431 169.283 319.166 168.658C320.598 167.446 322.049 166.272 323.519 165.136C323.576 165.098 323.633 165.061 323.67 165.023C324.386 164.474 325.102 163.944 325.819 163.413C326.572 162.864 327.326 162.315 328.099 161.785C350.204 146.354 375.834 139.538 394.471 145.369C394.565 145.407 394.641 145.426 394.716 145.445C397.449 146.316 400.012 147.471 402.405 148.891C405.081 150.481 407.286 152.337 409.058 154.382C429.637 177.822 395.923 227.485 393.455 231.064Z" fill="#0096F0"/>
        <path d="M137.652 428.093C136.569 428.093 135.501 427.729 134.628 427.034L102.063 401.075C88.8349 390.539 84.4924 372.38 91.502 356.917L156.707 213.282C160.353 205.259 166.286 198.711 173.878 194.331C173.977 194.265 174.077 194.203 174.178 194.145C178.806 191.525 183.828 189.831 189.102 189.111L260.525 179.358C271.166 177.899 281.702 181.347 289.429 188.822L292.49 191.781C295.695 186.729 299.296 181.93 303.239 177.458C319.289 159.238 340.165 146.41 362.02 141.338C380.851 136.969 398.522 138.852 408.134 146.255C415.903 152.237 420.449 160.223 421.645 169.991C425.141 198.549 398.256 232.867 397.109 234.315C396.13 235.551 394.623 236.228 393.041 236.151C369.422 234.868 337.935 240.705 328.417 242.615C302.468 332.967 238.058 370.233 231.381 373.887C225.025 379.161 218.318 384.293 211.436 389.148L211.16 389.333C173.463 415.919 140.604 427.356 139.224 427.829C138.711 428.007 138.179 428.093 137.652 428.093ZM178.888 202.711V202.712C172.991 206.069 168.379 211.128 165.557 217.34L100.354 360.971C95.201 372.334 98.3897 385.677 108.108 393.417L138.537 417.673C146.815 414.513 174.853 402.999 205.678 381.261L205.953 381.077C212.654 376.347 219.282 371.266 225.55 366.049C225.811 365.832 226.093 365.643 226.393 365.485C227.07 365.127 294.809 328.297 319.851 237.129C320.33 235.38 321.736 234.042 323.501 233.655C325.1 233.304 361.977 225.291 390.962 226.278C396.348 218.909 414.569 192.176 411.989 171.17C411.109 164.01 407.913 158.398 402.217 154.013C388.494 143.446 343.256 146.779 310.523 183.938C305.658 189.456 301.364 195.516 297.759 201.954C297.02 203.271 295.716 204.172 294.228 204.392C292.734 204.608 291.232 204.127 290.147 203.079L282.684 195.865C277.114 190.476 269.516 187.991 261.84 189.044L190.414 198.796C186.431 199.34 182.637 200.606 179.135 202.559C179.052 202.612 178.97 202.664 178.888 202.711Z" fill="#390075"/>
        <path d="M208.473 390.149C207.187 390.149 205.912 389.637 204.967 388.649C203.336 386.947 203.152 384.319 204.527 382.403C205.013 381.726 253.2 314.289 261.754 276.758C270.495 238.467 287.899 200.138 288.964 197.815C289.011 197.701 289.079 197.549 289.118 197.474C289.229 197.253 289.413 196.926 289.556 196.723L302.917 177.866C303.017 177.725 303.123 177.59 303.238 177.461C332.995 143.676 378.599 128.978 404.894 144.69C412.827 149.432 417.81 156.399 419.706 165.396C425.63 193.522 398.432 232.456 397.27 234.1C396.304 235.467 394.724 236.236 393.041 236.152C369.402 234.868 337.93 240.705 328.417 242.616C302.468 332.967 238.058 370.234 231.381 373.888C225.026 379.161 218.318 384.294 211.436 389.148L211.16 389.333C210.34 389.881 209.403 390.149 208.473 390.149ZM297.747 202.016C296.308 205.173 279.642 242.116 271.236 278.942C265.499 304.115 243.966 340.456 228.602 364.203C240.528 356.992 297.38 318.939 319.851 237.129C320.33 235.381 321.736 234.042 323.501 233.655C325.097 233.304 361.809 225.341 390.794 226.272C396.198 218.006 414.529 187.983 410.186 167.41C408.857 161.109 405.498 156.425 399.92 153.091C377.871 139.913 337.057 153.951 310.692 183.747L297.747 202.016Z" fill="#390075"/>
        <path d="M208.473 390.149C207.187 390.149 205.912 389.637 204.967 388.649C203.336 386.947 203.152 384.319 204.527 382.403C205.011 381.726 253.2 314.289 261.754 276.758C270.493 238.473 287.896 200.147 288.962 197.816C289.011 197.702 289.079 197.55 289.118 197.474C289.229 197.252 289.413 196.926 289.556 196.723L302.917 177.866C303.017 177.725 303.123 177.59 303.238 177.461C330.817 146.151 374.246 131.925 404.263 144.374C406.564 145.328 407.777 147.876 407.072 150.276C406.366 152.676 403.984 154.156 401.52 153.696C350.935 144.271 329.499 238.535 329.287 239.488C329.27 239.569 329.25 239.649 329.227 239.73C303.837 332.172 238.129 370.195 231.382 373.888C225.026 379.161 218.319 384.294 211.437 389.148L211.161 389.333C210.34 389.881 209.403 390.149 208.473 390.149ZM297.748 202.016C296.308 205.172 279.642 242.117 271.236 278.942C265.499 304.115 243.966 340.456 228.602 364.203C240.522 356.996 297.326 318.973 319.818 237.246C320.824 232.749 334.915 172.311 368.944 150.777C349.454 153.865 327.694 164.54 310.692 183.747L297.748 202.016Z" fill="#390075"/>
        <path d="M137.652 427.279C136.749 427.279 135.859 426.976 135.133 426.397L102.567 400.438C89.6323 390.134 85.3836 372.377 92.2394 357.256L157.444 213.621C161.054 205.678 166.948 199.211 174.493 194.917C176.257 193.914 178.483 194.372 179.712 195.987C180.898 197.546 180.803 199.724 179.515 201.173C176.699 205.012 155.181 248.504 160.975 294.369L212.148 383.108C213.223 384.97 212.668 387.351 210.883 388.543L210.713 388.656C173.089 415.187 140.338 426.588 138.963 427.06C138.534 427.206 138.091 427.279 137.652 427.279ZM159.522 228.673L99.6162 360.633C94.3094 372.338 97.5938 386.082 107.604 394.056L138.394 418.599C145.899 415.76 172.96 404.808 203.259 383.938L153.555 297.746C153.288 297.284 153.114 296.774 153.044 296.244C149.686 271.041 153.984 246.966 159.522 228.673ZM179.477 201.213C179.442 201.251 179.406 201.289 179.369 201.327C179.4 201.296 179.437 201.259 179.477 201.213Z" fill="#390075"/>
        <g opacity="0.3">
          <path d="M413.481 155.735C413.425 155.925 413.368 156.114 413.312 156.284C405.114 182.016 388.304 205.096 366.237 220.49C357.7 226.435 348.202 231.471 340.325 238.098C336.65 241.185 333.314 244.612 330.601 248.625C325.286 256.483 322.817 265.855 319.444 274.735C310.003 299.482 293.457 320.12 274.084 338.391C262.249 349.581 249.359 359.881 236.394 369.67C234.453 371.147 232.512 372.605 230.571 374.044C228.008 375.956 225.426 377.869 222.844 379.743C222.788 379.8 222.712 379.838 222.656 379.895C219.49 382.205 216.305 384.477 213.064 386.711C213.064 386.711 213.064 386.711 213.045 386.73C198.534 396.746 183.326 405.702 166.611 411.098C155.021 414.847 142.508 416.664 130.353 415.888L109.341 399.151C97.8826 390.025 94.1138 374.233 100.182 360.847L101.482 357.969C102.651 358.745 103.819 359.484 105.025 360.184C115.296 366.186 128.337 369.481 139.022 364.217C145.863 360.847 150.762 354.39 154.136 347.498C165.443 324.38 161.316 297.096 159.413 271.403C157.848 250.462 158.847 227.268 169.627 210.114C172.095 206.194 175.054 202.597 178.616 199.416C178.503 200.23 178.39 201.044 178.314 201.877C175.94 225.091 188.038 250.575 209.936 258.187C231.439 265.647 255.655 254.4 271.013 237.549C281.265 226.283 288.596 212.878 295.399 199.151L297.774 201.461C301.656 194.531 306.16 188.245 311.135 182.603C312.416 181.164 313.717 179.744 315.055 178.38C315.658 177.755 316.261 177.149 316.864 176.544C316.996 176.43 317.109 176.317 317.222 176.203C317.862 175.578 318.503 174.954 319.144 174.366C319.841 173.703 320.557 173.06 321.255 172.435C321.971 171.81 322.687 171.186 323.422 170.561C324.854 169.311 326.305 168.137 327.775 167.039C327.831 167.001 327.888 166.963 327.926 166.926C328.642 166.376 329.358 165.846 330.074 165.316C330.828 164.767 331.581 164.218 332.354 163.688C332.938 163.29 333.504 162.893 334.088 162.514C355.798 147.916 380.579 141.592 398.727 147.272C398.821 147.31 398.897 147.328 398.972 147.348C403.231 148.408 406.774 149.998 409.431 152.043C410.937 153.217 412.294 154.448 413.481 155.735Z" fill="#390075"/>
        </g>
        <path d="M639.855 798.326C639.855 799.802 639.534 800.976 638.913 801.942C634.352 809.383 612.888 804.289 587.164 822.05C558.086 842.139 552.64 854.919 519.924 854.919C519.924 854.919 544.838 876.826 549.643 904.223C554.449 931.602 537.582 960.817 549.643 984.541C549.643 984.541 456.322 993.686 436.327 847.611C436.327 847.611 442.188 849.22 449.877 849.485C459.809 849.845 472.755 847.913 479.935 837.273C487.473 826.083 486.079 814.476 483.685 806.884C482.046 801.658 479.935 798.326 479.935 798.326C479.935 798.326 479.954 798.307 479.973 798.307C481.348 797.246 526.03 763.638 567.169 763.638C603.861 763.638 632.128 780.508 638.498 793.289C639.384 795.069 639.855 796.773 639.855 798.326Z" fill="#FE9572"/>
        <g opacity="0.6">
          <path d="M639.855 798.326C639.855 799.802 639.534 800.976 638.913 801.942C632.223 797.379 625.476 792.91 617.938 789.389C602.41 782.174 585.129 777.952 568.112 779.846C548.607 782.023 530.93 791.926 512.518 798.78C503.152 802.264 493.503 804.971 483.685 806.884C482.046 801.658 479.935 798.326 479.935 798.326C479.935 798.326 479.954 798.307 479.973 798.307C481.348 797.246 526.03 763.638 567.169 763.638C603.86 763.638 632.128 780.508 638.498 793.289C639.384 795.069 639.855 796.773 639.855 798.326Z" fill="white"/>
        </g>
        <path d="M548.218 989.454C542.132 989.454 520.958 988.265 497.822 973.16C473.401 957.216 442.07 921.986 431.489 844.698C431.274 843.128 431.831 841.552 432.982 840.467C434.133 839.385 435.734 838.926 437.281 839.244C445.308 840.885 469.634 843.532 475.946 834.467C486.816 818.853 477.187 799.254 476.694 798.276C475.578 796.199 476.096 793.561 478.017 792.081C478.017 792.081 478.018 792.079 478.02 792.079C478.044 792.059 478.071 792.041 478.095 792.022L478.793 791.507C478.942 791.397 479.095 791.296 479.251 791.205C486.833 785.938 527.964 758.747 567.166 758.747C608.931 758.747 644.716 780.506 644.716 798.319C644.716 808.552 635.314 810.343 626.223 812.076C616.876 813.857 604.077 816.297 589.914 826.072C582.83 830.967 577.136 835.449 572.112 839.404C558.913 849.795 549.506 857.202 531.006 859.237C539.158 868.38 551.122 884.515 554.43 903.369C556.651 916.029 554.595 928.709 552.607 940.972C550.163 956.043 547.854 970.278 553.972 982.313C554.718 983.782 554.677 985.53 553.862 986.963C553.046 988.393 551.567 989.315 549.928 989.413C549.787 989.423 549.199 989.454 548.218 989.454ZM442.09 849.915C450.696 904.488 471.551 944.071 502.611 964.629C518.67 975.257 533.868 978.405 542.367 979.315C538.615 966.472 540.841 952.746 543.005 939.401C544.864 927.943 546.785 916.094 544.85 905.068C540.409 879.744 516.951 858.796 516.714 858.589C515.193 857.247 514.657 855.095 515.37 853.192C516.084 851.289 517.895 850.027 519.921 850.027C542.846 850.027 551.11 843.522 566.112 831.711C571.248 827.667 577.07 823.086 584.404 818.018C600.254 807.078 614.791 804.307 624.409 802.475C633.744 800.696 634.988 800.028 634.988 798.32C634.988 789.726 607.958 768.521 567.166 768.521C533.369 768.521 497.65 790.59 487.056 797.681C490.158 805.632 495.158 823.921 483.918 840.068C475.382 852.331 453.481 851.367 442.09 849.915Z" fill="#390075"/>
        <path d="M487.072 807.348C495.682 807.711 504.501 805.994 513.183 803.347C521.888 800.705 530.501 797.171 539.319 793.87C548.17 790.566 557.305 787.619 566.815 786.144C576.274 784.665 586.264 784.801 595.462 787.95C596.308 788.237 596.762 789.158 596.477 790.008C596.201 790.826 595.333 791.277 594.514 791.054C585.783 788.628 576.536 789.032 567.685 790.944C558.794 792.856 550.201 796.174 541.753 799.903C533.264 803.652 524.776 807.74 515.757 811.067C506.771 814.382 497.113 816.943 486.986 817.121H486.953C484.266 817.169 482.05 815.018 482.003 812.318C481.956 809.618 484.096 807.391 486.783 807.344C486.876 807.343 486.982 807.344 487.072 807.348Z" fill="#390075"/>
        <path d="M468.59 845.311C472.225 848.774 475.651 852.634 478.467 856.945C481.322 861.231 483.477 865.888 485.211 870.531C488.592 879.874 490.69 889.108 493.371 898.121C496.023 907.098 499.159 915.851 504.151 923.52C509.078 931.157 515.824 937.825 524.275 941.159L524.3 941.169C525.146 941.502 525.561 942.462 525.23 943.312C524.906 944.139 523.988 944.556 523.159 944.269C520.823 943.454 518.546 942.459 516.381 941.249C514.239 940.009 512.171 938.629 510.253 937.065C506.416 933.942 503.054 930.272 500.166 926.29C494.33 918.312 490.502 909.151 487.288 900.119C484.05 891.095 481.442 881.874 477.803 873.558C475.958 869.418 473.846 865.528 471.215 862.064C468.619 858.575 465.519 855.477 462.116 852.606C460.056 850.873 459.785 847.789 461.511 845.719C463.237 843.649 466.306 843.377 468.366 845.111C468.438 845.172 468.522 845.248 468.59 845.311Z" fill="#390075"/>
        <path d="M487.501 819.283C496.385 820.789 505.422 821.501 514.511 821.242C523.597 820.989 532.719 819.76 541.718 817.7C542.304 817.566 542.889 817.934 543.022 818.523C543.144 819.064 542.846 819.601 542.344 819.791C533.589 823.097 524.462 825.64 515.089 827.192C505.72 828.752 496.127 829.315 486.558 829.01H486.535C483.843 828.924 481.731 826.663 481.816 823.959C481.901 821.255 484.153 819.131 486.844 819.217C487.058 819.224 487.295 819.249 487.501 819.283Z" fill="#390075"/>
        <path d="M483.695 834.546C489.434 838.993 494.888 844.155 499.148 850.242C503.432 856.316 506.329 863.167 508.154 870.074C508.448 871.188 507.788 872.33 506.679 872.625C505.663 872.896 504.621 872.357 504.228 871.407C501.633 865.138 498.176 859.378 493.74 854.606C489.314 849.815 483.991 845.974 478.26 842.652C475.927 841.3 475.127 838.305 476.472 835.961C477.817 833.618 480.799 832.813 483.132 834.165C483.314 834.271 483.488 834.387 483.652 834.512L483.695 834.546Z" fill="#390075"/>
        <path d="M745.934 27.6183C744.916 30.9884 741.43 32.9009 738.076 31.9921L737.906 31.9353C735.268 31.2157 732.252 30.4964 729.35 29.8717C726.429 29.228 723.489 28.622 720.531 28.0729C714.632 26.9559 708.677 26.009 702.703 25.1948C690.755 23.5474 678.732 22.4494 666.69 21.8434C642.587 20.6128 618.428 21.3511 594.494 23.8695C570.58 26.4258 546.892 30.9697 523.806 37.4832C500.702 43.9964 478.201 52.4789 456.567 62.7412C413.261 83.3035 373.856 111.629 339.614 145.218C335.261 149.364 331.153 153.757 326.95 158.017C322.861 162.296 318.922 166.727 315.078 171.233C307.408 180.265 300.19 189.712 293.519 199.558C280.158 219.193 268.775 240.247 259.334 262.173C240.47 306.081 229.22 353.302 224.697 401.053C220.249 448.805 222.228 497.276 231.349 544.213C240.489 591.056 256.771 636.668 281.911 676.259C292.577 692.921 304.864 708.428 318.866 721.927C321.41 724.408 324.01 726.793 326.687 729.122C343.949 744.213 363.585 756.217 384.805 763.961C392.701 766.839 396.772 775.605 393.907 783.539C391.042 791.472 382.317 795.562 374.421 792.684L374.365 792.665H374.346C349.432 783.463 326.536 769.262 306.88 751.919C300.341 746.182 294.16 740.104 288.336 733.761C276.483 720.924 266.005 706.969 256.752 692.39C249.855 681.466 243.636 670.181 238.02 658.631C232.461 647.062 227.485 635.267 223.094 623.263C214.294 599.273 207.755 574.583 203.1 549.628C198.464 524.654 195.75 499.397 194.827 474.101C193.903 448.786 194.752 423.433 197.465 398.27C202.855 347.982 215.33 298.28 235.966 251.835C246.293 228.66 258.693 206.336 273.298 185.453C280.572 175.02 288.431 164.966 296.817 155.347C301.02 150.557 305.316 145.843 309.783 141.298C314.249 136.83 318.64 132.343 323.276 128.082C359.873 93.509 401.917 64.4455 447.785 43.7126C493.598 22.7906 543.048 10.5213 592.874 6.39381C617.807 4.32993 642.852 4.38675 667.727 6.48841C680.146 7.52987 692.546 9.06334 704.852 11.165C710.996 12.2252 717.139 13.3993 723.245 14.7624C726.298 15.4251 729.351 16.1635 732.404 16.9208C735.476 17.716 738.415 18.4924 741.657 19.4958C745.067 20.556 746.989 24.1914 745.934 27.6183Z" fill="#994E31"/>
        <path d="M393.907 783.538C391.042 791.471 382.317 795.561 374.421 792.683L374.364 792.664H374.345C349.432 783.462 326.535 769.262 306.88 751.918C300.341 746.181 294.159 740.103 288.336 733.76C297.891 732.189 307.162 728.913 315.586 724.161C316.661 723.555 317.753 722.798 318.865 721.926C321.409 724.407 324.01 726.793 326.686 729.121C343.948 744.212 363.585 756.216 384.805 763.96C392.701 766.838 396.771 775.605 393.907 783.538Z" fill="#9E3221"/>
        <path d="M379.591 798.49C377.322 798.49 375.016 798.1 372.762 797.278C347.822 788.079 324.607 774.067 303.671 755.593C284.822 739.023 267.655 718.64 252.657 695.016C245.843 684.226 239.452 672.712 233.654 660.782C228.034 649.096 222.948 637.045 218.528 624.946C209.996 601.697 203.199 576.657 198.328 550.528C193.728 525.789 190.914 500.134 189.966 474.275C189.023 448.62 189.916 422.872 192.62 397.746C198.299 344.906 211.385 295.146 231.52 249.85C242.237 225.798 254.953 203.189 269.316 182.648C276.631 172.154 284.652 161.885 293.152 152.13C297.778 146.847 302.079 142.183 306.307 137.864L309.129 135.049C312.631 131.548 316.251 127.928 319.998 124.477C358.164 88.4115 400.503 59.7212 445.797 39.2468C491.192 18.5121 540.546 5.81959 592.472 1.53184C617.458 -0.539666 642.913 -0.51015 668.128 1.62008C680.953 2.69646 693.583 4.28834 705.665 6.35191C712.293 7.48257 718.39 8.67227 724.3 9.98799C727.291 10.646 730.421 11.3885 733.591 12.1919C736.49 12.9327 739.638 13.7628 743.091 14.829C745.981 15.7226 748.356 17.6941 749.773 20.3817C751.191 23.0684 751.481 26.1496 750.592 29.0559C748.786 34.9549 742.725 38.3113 736.803 36.7017L736.636 36.656L736.632 36.6553C734.361 36.0345 731.563 35.3574 728.318 34.6435C725.367 33.9963 722.45 33.4043 719.653 32.8844C714.071 31.8289 708.316 30.8982 702.049 30.038C690.582 28.4595 678.602 27.3418 666.441 26.7181C643.055 25.5208 619.023 26.1972 595.009 28.7252C571.4 31.2477 547.879 35.7758 525.109 42.183C502.379 48.6067 480.017 57.0127 458.648 67.1677C416.889 86.9904 377.98 114.429 343.002 148.723C340.057 151.528 337.188 154.489 334.414 157.351C333.081 158.726 331.75 160.1 330.409 161.46C326.735 165.306 322.909 169.562 318.764 174.415C311.182 183.342 304.039 192.728 297.543 202.304C284.679 221.201 273.327 241.997 263.799 264.121C245.718 306.192 234.191 352.417 229.542 401.508C225.028 449.936 227.245 497.635 236.13 543.273C245.79 592.849 262.571 636.706 286.005 673.622C299.045 693.988 313.81 711.423 329.881 725.428C347.19 740.57 366.223 751.989 386.458 759.368C396.86 763.162 402.251 774.752 398.477 785.205C395.519 793.391 387.798 798.489 379.591 798.49ZM629.682 9.77309C617.487 9.77309 605.325 10.2721 593.269 11.2726C542.463 15.4683 494.196 27.8761 449.806 48.1521C405.481 68.1885 364.039 96.2747 326.616 131.64C322.971 134.998 319.422 138.546 315.99 141.976L313.197 144.764C309.141 148.906 304.961 153.44 300.462 158.577C292.201 168.058 284.4 178.049 277.281 188.26C263.269 208.298 250.863 230.36 240.401 253.839C220.683 298.198 207.86 346.97 202.293 398.796C199.638 423.455 198.762 448.728 199.687 473.914C200.619 499.293 203.379 524.464 207.89 548.731C212.659 574.32 219.311 598.828 227.657 621.571C231.97 633.377 236.93 645.13 242.403 656.51C248.035 668.097 254.251 679.293 260.864 689.769C275.36 712.601 291.922 732.279 310.084 748.243C330.121 765.923 352.305 779.32 376.024 788.07C381.436 790.048 387.387 787.253 389.333 781.869C391.278 776.483 388.5 770.509 383.139 768.555C361.773 760.762 341.708 748.734 323.501 732.805C306.74 718.196 291.366 700.056 277.815 678.894C253.713 640.924 236.48 595.931 226.586 545.15C217.521 498.592 215.258 449.955 219.858 400.588C224.605 350.473 236.385 303.256 254.87 260.242C264.645 237.544 276.3 216.197 289.511 196.792C296.199 186.933 303.556 177.264 311.372 168.06C315.645 163.058 319.591 158.67 323.445 154.636C324.82 153.241 326.132 151.888 327.445 150.532C330.286 147.601 333.224 144.57 336.26 141.678C371.959 106.676 411.757 78.6168 454.491 58.3306C476.349 47.9439 499.225 39.3449 522.48 32.7723C545.777 26.2169 569.835 21.5857 593.99 19.0044C618.508 16.4253 643.047 15.7356 666.937 16.9561C679.374 17.5947 691.63 18.7378 703.368 20.3534C709.797 21.2362 715.708 22.1923 721.439 23.276C724.324 23.8115 727.341 24.4244 730.397 25.0948C733.801 25.8442 736.759 26.5603 739.185 27.2234L739.347 27.2676C740.18 27.4907 741.038 27.0187 741.294 26.1842C741.464 25.63 741.294 25.1777 741.178 24.9574C741.061 24.7364 740.785 24.3419 740.233 24.1714C737.161 23.222 734.401 22.4837 731.202 21.665C728.141 20.8893 725.112 20.1709 722.208 19.5323C716.445 18.2489 710.504 17.0903 704.035 15.987C692.222 13.9691 679.869 12.4122 667.316 11.3589C654.802 10.3016 642.225 9.77309 629.682 9.77309Z" fill="#390075"/>
        <path d="M296.388 694.148C295.358 694.148 294.344 693.655 293.715 692.738C250.379 629.52 232.101 520.632 243.571 393.993C249.102 332.924 265.679 277.413 292.842 229.003C316.855 186.208 349.29 148.615 389.249 117.269C452.083 67.9774 520.888 43.9196 567.544 32.4168C621.047 19.2269 676.569 15.0338 716.054 21.2016C772.875 30.0764 807.353 67.4007 826.27 97.1483C849.279 133.329 861.635 178.502 859.323 217.988C856.524 265.803 822.022 318.497 785.493 374.285C758.508 415.499 730.603 458.116 716.188 498.957C700.681 542.892 703.017 583.915 722.764 614.47C737.734 637.632 761.402 652.618 786.073 654.56C812.388 656.64 832.877 651.027 846.989 637.906C867.17 619.139 867.382 590.949 867.382 590.666C867.38 588.868 868.828 587.408 870.618 587.403C870.62 587.403 870.624 587.403 870.624 587.403C872.411 587.403 873.861 588.854 873.867 590.649C873.872 591.915 873.713 621.882 851.451 642.634C835.955 657.08 813.793 663.275 785.568 661.057C758.897 658.957 733.386 642.869 717.326 618.019C696.455 585.725 693.88 542.668 710.077 496.779C724.753 455.195 752.878 412.242 780.076 370.704C816.114 315.665 850.152 263.679 852.851 217.605C856.948 147.627 811.342 42.6794 715.058 27.6396C650.251 17.5185 505.564 34.2925 393.24 122.404C308.552 188.839 260.369 280.413 250.029 394.583C238.695 519.731 256.565 627.057 299.056 689.042C300.072 690.524 299.699 692.553 298.224 693.573C297.663 693.962 297.022 694.148 296.388 694.148Z" fill="#390075"/>
        <path d="M864.347 574.485C863.174 580.008 866.471 585.491 871.713 586.729C876.952 587.966 882.153 584.489 883.326 578.966C884.5 573.439 881.203 567.956 875.963 566.719C870.721 565.482 865.521 568.958 864.347 574.485ZM879.483 578.058C878.784 581.345 875.691 583.413 872.573 582.677C869.456 581.941 867.495 578.68 868.193 575.393C868.891 572.105 871.985 570.035 875.102 570.771C878.22 571.507 880.181 574.771 879.483 578.058Z" fill="#8B8E8C"/>
        <path d="M929.443 424.756C933.238 425.781 936.844 427.596 939.983 430.064C938.414 432.744 937.038 435.542 935.828 438.428C919.663 454.52 905.157 472.581 894.628 493.179C889.379 503.437 885.16 514.369 882.302 525.642C878.857 539.202 877.38 553.252 878.451 567.205C876.689 568.129 874.899 568.981 873.078 569.762C870.421 570.902 867.703 571.892 864.941 572.712C855.814 552.755 857.667 528.598 865.69 508.073C873.852 487.197 887.765 469.443 902.212 452.775C910.764 442.91 919.667 433.224 929.443 424.756Z" fill="#1876E2"/>
        <path d="M891.137 525.695C898.238 527.519 904.161 534.347 904.429 542.052C904.479 543.513 904.339 544.967 904.035 546.395C898.739 552.797 892.539 558.383 885.718 562.911C883.364 564.473 880.94 565.907 878.451 567.205C877.381 553.252 878.857 539.201 882.302 525.643C885.21 524.978 888.233 524.948 891.137 525.695Z" fill="#F3FB84" fill-opacity="0.75"/>
        <path d="M935.828 438.428C931.45 448.841 929.184 460.406 927.597 471.756C925.21 488.823 924.007 506.331 917.997 522.376C914.705 531.164 909.925 539.282 904.035 546.394C904.338 544.967 904.478 543.513 904.429 542.052C904.161 534.347 898.238 527.519 891.137 525.694C888.232 524.948 885.21 524.978 882.302 525.642C885.161 514.369 889.379 503.436 894.628 493.179C905.157 472.581 919.663 454.52 935.828 438.428Z" fill="#FFFF1B" fill-opacity="0.75"/>
        <path d="M885.718 562.911C889.415 585.274 892.029 607.834 893.558 630.474C893.635 631.619 893.637 632.948 892.807 633.685C891.572 634.79 889.685 633.646 888.649 632.335C885.984 628.955 884.973 624.501 884.044 620.218C880.39 603.401 876.732 586.583 873.078 569.762C874.9 568.981 876.689 568.129 878.451 567.205C880.94 565.907 883.364 564.473 885.718 562.911Z" fill="#E3E5E4"/>
        <path d="M983.041 449.314L984.524 448.458L984.57 448.546C986.161 451.61 985.942 455.583 983.636 458.208C982.655 459.324 981.492 460.089 980.24 460.517C979.147 460.894 977.985 461.014 976.816 460.89C975.945 460.797 975.07 460.571 974.216 460.213C970.665 458.722 968.078 455.444 965.93 452.243C965.219 451.183 964.521 450.113 963.836 449.032C963.424 448.389 963.017 447.74 962.615 447.091C965.894 444.072 966.863 438.956 964.685 434.763C963.594 432.662 961.889 431.133 959.935 430.3C958.231 429.57 956.334 429.364 954.487 429.759C953.572 429.954 952.67 430.295 951.807 430.792C951.027 431.243 950.331 431.791 949.727 432.416C947.367 434.848 946.373 438.43 947.119 441.819C947.309 442.689 947.615 443.546 948.042 444.369C948.514 445.278 949.101 446.079 949.771 446.762C951.127 448.142 952.829 449.048 954.637 449.401C955.931 449.655 957.282 449.626 958.599 449.288C959.194 450.672 959.772 452.065 960.337 453.466C960.79 454.598 961.244 455.752 961.646 456.925C962.585 459.659 963.25 462.5 963.044 465.423C962.794 469.037 960.952 472.411 957.591 473.661C957.376 473.742 957.161 473.811 956.946 473.87C953.838 474.72 950.623 473.442 948.698 470.812C948.417 470.429 948.16 470.015 947.94 469.575L949.425 468.718L949.299 468.649L944.444 465.967L941.272 464.214L943.658 468.803L945.018 471.422C945.678 472.694 946.561 473.836 947.596 474.788C949.665 476.684 952.35 477.824 955.134 477.739C955.387 477.733 955.639 477.715 955.887 477.69C959.911 477.287 963.543 474.659 965.226 470.739C967.055 466.48 966.668 461.673 965.351 457.318C967.831 460.434 970.914 463.142 974.717 464.153C975.089 464.252 975.468 464.333 975.845 464.391C976.947 464.571 978.061 464.585 979.151 464.441C981.79 464.091 984.288 462.808 986.125 460.645C989.369 456.828 989.889 451.191 987.51 446.735L987.514 446.732L983.835 439.646L983.041 449.314ZM955.653 445.737C953.832 445.504 952.14 444.377 951.191 442.551C951.135 442.442 951.082 442.331 951.031 442.218C949.756 439.378 950.701 435.971 953.226 434.302C953.327 434.236 953.428 434.173 953.532 434.113C955.264 433.113 957.265 433.125 958.919 433.963C959.992 434.506 960.919 435.395 961.535 436.58C962.795 439.007 962.36 441.931 960.648 443.836C960.497 444.005 960.34 444.164 960.169 444.314C959.874 444.578 959.547 444.815 959.195 445.019C958.687 445.312 958.155 445.518 957.616 445.641C957.424 445.685 957.233 445.72 957.039 445.741C956.574 445.798 956.11 445.796 955.653 445.737Z" fill="#8B8E8C"/>
        <path opacity="0.39" d="M941.272 464.214L944.444 465.968L943.657 468.803L941.272 464.214Z" fill="white"/>
        <path opacity="0.39" d="M954.487 429.759L953.226 434.303C950.7 435.971 949.755 439.378 951.031 442.218L949.771 446.762C949.1 446.08 948.513 445.278 948.041 444.37C947.614 443.547 947.308 442.689 947.119 441.82L949.727 432.417C950.331 431.792 951.027 431.243 951.807 430.793C952.669 430.295 953.571 429.954 954.487 429.759Z" fill="white"/>
        <path opacity="0.39" d="M949.426 468.718L949.252 468.818L949.299 468.649L949.426 468.718Z" fill="white"/>
        <path opacity="0.39" d="M956.946 473.87L955.886 477.69C955.638 477.716 955.386 477.733 955.134 477.74C952.35 477.825 949.664 476.685 947.595 474.788L948.698 470.812C950.622 473.442 953.837 474.72 956.946 473.87Z" fill="white"/>
        <path opacity="0.39" d="M962.615 447.091C963.017 447.74 963.423 448.389 963.835 449.032L961.646 456.925C961.244 455.752 960.79 454.598 960.336 453.466C959.772 452.065 959.193 450.672 958.599 449.288C957.282 449.626 955.931 449.656 954.637 449.401L955.653 445.737C956.11 445.795 956.574 445.797 957.04 445.741C957.233 445.72 957.425 445.685 957.616 445.641C958.155 445.517 958.687 445.312 959.195 445.019C959.547 444.815 959.874 444.578 960.169 444.314C960.34 444.164 960.498 444.005 960.648 443.836C962.36 441.931 962.795 439.007 961.535 436.58C960.919 435.395 959.992 434.506 958.919 433.963L959.935 430.299C961.889 431.133 963.594 432.662 964.685 434.762C966.862 438.956 965.893 444.072 962.615 447.091Z" fill="white"/>
        <path opacity="0.39" d="M976.815 460.89C977.985 461.014 979.146 460.894 980.239 460.517L979.151 464.441C978.061 464.584 976.946 464.57 975.844 464.391L976.815 460.89Z" fill="white"/>
        <path opacity="0.39" d="M983.834 439.646L985.264 442.4L983.405 449.104L983.041 449.314L983.834 439.646Z" fill="white"/>
        <path d="M928.978 418.41C927.805 423.934 931.102 429.417 936.344 430.655C941.583 431.892 946.784 428.415 947.957 422.891C949.131 417.365 945.834 411.882 940.594 410.645C935.352 409.407 930.152 412.883 928.978 418.41ZM944.114 421.984C943.415 425.271 940.322 427.339 937.204 426.603C934.087 425.867 932.125 422.605 932.824 419.318C933.522 416.031 936.616 413.961 939.733 414.697C942.851 415.433 944.812 418.697 944.114 421.984Z" fill="#8B8E8C"/>
        <path d="M872.444 535.986C871.072 542.447 874.928 548.86 881.057 550.307C887.188 551.755 893.268 547.688 894.641 541.226C896.014 534.762 892.159 528.353 886.028 526.905C879.899 525.458 873.817 529.521 872.444 535.986ZM890.66 541.83C889.552 547.047 884.639 550.329 879.691 549.161C874.743 547.992 871.628 542.815 872.736 537.598C873.844 532.379 878.757 529.097 883.705 530.265C888.653 531.434 891.768 536.611 890.66 541.83Z" fill="#2E1F00"/>
        <path d="M883.704 530.265C888.653 531.434 891.768 536.611 890.659 541.83C889.551 547.047 884.639 550.329 879.691 549.161C874.743 547.992 871.627 542.815 872.736 537.598C873.844 532.379 878.756 529.097 883.704 530.265Z" fill="#FFD7FA"/>
        <path d="M883.704 530.265C888.653 531.434 891.768 536.611 890.659 541.83C889.551 547.047 884.639 550.329 879.691 549.161C874.743 547.992 871.627 542.815 872.736 537.598C873.844 532.379 878.756 529.097 883.704 530.265Z" fill="#9D0700"/>
        <path d="M882.025 534.496C885.076 535.216 886.997 538.408 886.314 541.626C885.63 544.843 882.602 546.866 879.551 546.146C876.5 545.425 874.579 542.233 875.262 539.017C875.946 535.799 878.975 533.775 882.025 534.496Z" fill="#2E1F00"/>
        <path d="M879.962 532.654C881.722 533.07 882.831 534.912 882.437 536.769C882.042 538.625 880.295 539.793 878.534 539.377C876.774 538.961 875.665 537.119 876.059 535.263C876.454 533.406 878.202 532.238 879.962 532.654Z" fill="#FFECE7"/>
        <path d="M885.544 545.249C886.232 545.411 886.665 546.131 886.511 546.856C886.357 547.581 885.674 548.038 884.986 547.875C884.299 547.713 883.866 546.993 884.02 546.268C884.174 545.542 884.856 545.086 885.544 545.249Z" fill="#FFECE7"/>
        <path d="M957.524 435.518L957.439 435.64C956.595 436.844 954.971 437.101 953.829 436.212L940.445 425.785C939.303 424.895 939.059 423.182 939.903 421.978L939.988 421.857C940.832 420.653 942.457 420.395 943.599 421.285L956.982 431.712C958.124 432.602 958.368 434.315 957.524 435.518Z" fill="#D9DBDA"/>
        <path opacity="0.38" d="M880.758 576.578C880.484 576.709 880.154 576.723 879.852 576.642C878.653 576.335 877.257 577.217 877.037 578.523C876.554 582.137 881.103 582.211 883.211 580.811C885.769 579.108 883.39 575.022 880.758 576.578Z" fill="white"/>
        <path opacity="0.38" d="M881.644 583.157C876.936 583.147 877.595 589.888 881.907 588.119C884.957 587.901 884.698 583.019 881.644 583.157Z" fill="white"/>
        <path opacity="0.38" d="M880.996 592.872C880.334 595.992 884.932 597.083 885.596 593.958C886.259 590.838 881.66 589.747 880.996 592.872Z" fill="white"/>
        <path opacity="0.38" d="M863.348 521.694C859.231 533.807 860.732 546.934 863.357 559.207C864.024 562.325 868.513 560.803 867.848 557.697C865.394 546.221 864.103 534.088 867.948 522.78C868.378 521.515 867.296 520.08 866.163 519.813C864.793 519.489 863.78 520.425 863.348 521.694Z" fill="white"/>
        <path opacity="0.38" d="M869.023 509.251C867.739 511.266 864.479 514.696 867.462 516.642C870.235 518.007 871.082 514.335 872.475 512.636C874.491 510.148 871.152 506.914 869.023 509.251Z" fill="white"/>
        <path opacity="0.38" d="M889.994 518.779C886.965 518.692 887.2 523.656 890.223 523.743C894.082 523.854 897.541 525.738 900.093 528.742C902.12 531.128 905.312 527.467 903.303 525.103C899.892 521.087 895.069 518.924 889.994 518.779Z" fill="white"/>
        <path opacity="0.38" d="M898.377 516.969C897.486 518.898 898.911 520.198 900.407 521.035C901.54 522.249 903.421 523.399 904.757 521.805C905.58 520.788 905.609 519.229 904.637 518.293C903.031 516.768 899.995 514.058 898.377 516.969Z" fill="white"/>
        <path opacity="0.38" d="M909.404 480.136C909.104 481.546 909.972 482.691 911.188 483.104C912.854 483.669 914.325 484.637 915.608 485.879C917.846 488.046 921.055 484.405 918.819 482.24C916.898 480.38 914.693 479.094 912.218 478.255C911.005 477.843 909.664 478.911 909.404 480.136Z" fill="white"/>
        <path opacity="0.38" d="M914.71 474.659C912.978 475.734 913.459 478.781 915.457 479.182C916.276 479.513 917.153 480.147 918.081 479.741C922.204 477.8 917.725 472.89 914.71 474.659Z" fill="white"/>
        <path opacity="0.38" d="M913.938 442.736C911.679 445.023 909.617 447.486 907.747 450.134C906.982 451.218 906.875 452.65 907.868 453.646C908.713 454.493 910.44 454.593 911.199 453.519C913.069 450.871 915.131 448.408 917.39 446.122C919.584 443.901 916.119 440.529 913.938 442.736Z" fill="white"/>
        <path opacity="0.38" d="M919.664 437.377C919.128 437.978 918.592 438.578 918.057 439.178C917.211 440.125 917.213 441.822 918.177 442.69C919.154 443.568 920.606 443.574 921.508 442.563C922.044 441.963 922.58 441.362 923.115 440.763C923.961 439.815 923.959 438.118 922.995 437.25C922.018 436.372 920.566 436.366 919.664 437.377Z" fill="white"/>
        <path d="M876.243 585.679C877.18 581.69 874.722 577.694 870.752 576.752C866.783 575.811 862.805 578.28 861.868 582.268C860.931 586.257 863.389 590.253 867.358 591.195C871.328 592.136 875.305 589.667 876.243 585.679Z" fill="#390075"/>
        <path d="M484.778 715.622C412.074 735.711 330.305 707.102 330.305 707.102C330.305 707.102 308.501 735.294 276.389 728.194C260.031 724.578 244.503 713.122 235.438 698.032C226.694 683.509 223.943 665.598 232.178 648.065C242.373 626.366 266.703 603.646 310.932 599.386C355.143 595.125 464.803 624.965 513.856 618.869L536.584 598.969C536.584 598.969 539.166 610.86 539.354 627.181C539.712 657.343 531.947 702.576 484.778 715.622Z" fill="#FFC57F"/>
        <g opacity="0.6">
          <path d="M229.393 665.548C239.588 643.85 263.917 621.129 308.146 616.869C349.269 612.906 447.017 638.446 499.948 637.127C506.839 636.955 513.433 634.283 518.63 629.733L533.799 616.452C533.799 616.452 535.64 624.973 536.324 637.47C536.538 633.735 536.609 630.117 536.569 626.7C536.38 610.379 533.799 598.488 533.799 598.488L511.071 618.388C462.017 624.485 352.358 594.645 308.147 598.905C263.917 603.165 239.588 625.886 229.393 647.584C224.53 657.938 223.521 668.419 225.292 678.261C226.07 674.036 227.404 669.781 229.393 665.548Z" fill="white"/>
        </g>
        <path d="M286.9 734.252C283.214 734.252 279.362 733.858 275.351 732.972C255.932 728.679 237.552 713.976 228.526 695.513C220.627 679.357 220.362 661.767 227.779 645.984C234.217 632.285 255.16 599.846 310.459 594.518C332.034 592.444 367.595 598.067 405.25 604.026C445.22 610.35 486.521 616.897 511.797 614.188L533.382 595.282C534.679 594.146 536.476 593.781 538.109 594.327C539.741 594.871 540.966 596.239 541.331 597.929C541.552 598.95 546.693 623.251 542.746 650.468C537.387 687.41 517.786 711.571 486.06 720.337C419.954 738.601 347.876 717.883 331.865 712.765C326.078 719.077 309.785 734.252 286.9 734.252ZM236.575 650.157C228.723 666.868 232.612 681.702 237.257 691.205C245.029 707.101 260.803 719.748 277.443 723.428C306.061 729.751 325.651 705.148 326.472 704.097C327.755 702.452 329.942 701.806 331.905 702.488C332.71 702.769 413.153 730.343 483.481 710.913C511.52 703.165 528.208 682.438 533.083 649.304C535.476 633.052 534.326 617.581 533.166 608.438L517.05 622.554C516.319 623.194 515.413 623.601 514.451 623.72C487.967 627.009 445.147 620.234 403.736 613.681C366.708 607.822 331.732 602.281 311.387 604.248C261.059 609.096 242.303 637.968 236.575 650.157Z" fill="#390075"/>
        <path d="M326.722 703.802C326.712 703.832 326.846 703.683 326.939 703.586C327.037 703.492 327.146 703.352 327.253 703.226C327.472 702.981 327.685 702.705 327.896 702.417C328.334 701.867 328.72 701.233 329.119 700.621C329.865 699.35 330.588 698.025 331.127 696.607C332.273 693.799 332.98 690.768 333.317 687.646C333.529 684.517 333.479 681.303 332.935 678.097C332.75 676.483 332.255 674.91 331.933 673.298C331.479 671.716 330.932 670.148 330.437 668.558L330.36 668.311C329.947 666.989 330.681 665.58 331.998 665.166C333.219 664.781 334.514 665.387 335.024 666.534C335.762 668.186 336.548 669.827 337.245 671.516C337.815 673.254 338.551 674.95 338.98 676.756C340.006 680.322 340.523 684.069 340.683 687.879C340.717 691.695 340.285 695.572 339.229 699.349C338.736 701.247 338.012 703.091 337.198 704.913C336.756 705.816 336.33 706.719 335.792 707.604C335.539 708.047 335.27 708.492 334.966 708.939C334.817 709.162 334.68 709.379 334.5 709.618C334.322 709.859 334.192 710.054 333.894 710.407C332.078 712.397 329.001 712.531 327.021 710.707C325.04 708.883 324.906 705.791 326.722 703.802Z" fill="#390075"/>
        <path d="M250.544 710.436C253.009 710.538 255.914 710.427 258.619 710.223C261.371 710.01 264.121 709.666 266.848 709.199C272.304 708.273 277.652 706.782 282.74 704.696C287.798 702.564 292.59 699.789 296.704 696.182C300.845 692.604 304.218 688.165 306.681 683.184L306.696 683.151C307.184 682.164 308.376 681.762 309.358 682.252C310.286 682.716 310.692 683.82 310.32 684.772C308.094 690.431 304.736 695.725 300.428 700.123C296.148 704.554 291.044 708.104 285.638 710.93C280.204 713.71 274.468 715.829 268.6 717.338C265.665 718.096 262.699 718.723 259.702 719.207C256.659 719.683 253.783 720.062 250.455 720.209C247.769 720.327 245.495 718.234 245.377 715.534C245.259 712.834 247.342 710.55 250.029 710.432C250.165 710.425 250.3 710.425 250.434 710.43L250.544 710.436Z" fill="#390075"/>
        <path d="M229.129 677.124C231.886 677.403 235.093 677.479 238.11 677.446C241.173 677.398 244.243 677.219 247.298 676.903C253.41 676.283 259.457 675.073 265.283 673.213C271.092 671.322 276.685 668.747 281.696 665.282C286.73 661.848 291.101 657.475 294.614 652.421L294.635 652.392C295.299 651.437 296.607 651.204 297.556 651.87C298.462 652.506 298.712 653.735 298.159 654.676C294.758 660.425 290.291 665.6 285.023 669.78C279.781 673.997 273.844 677.268 267.661 679.786C261.462 682.276 255.009 684.055 248.464 685.205C245.191 685.786 241.894 686.219 238.576 686.513C235.211 686.784 232.019 686.967 228.395 686.869C225.707 686.797 223.586 684.549 223.658 681.848C223.73 679.148 225.968 677.016 228.656 677.089C228.772 677.092 228.888 677.099 229.002 677.11L229.129 677.124Z" fill="#390075"/>
        <path d="M281.288 671.392C280.44 684.741 155.082 712.403 124.572 660.997C121.745 656.245 119.729 650.811 118.711 644.62C118.127 641.06 117.75 637.614 117.58 634.262C114.584 576.363 170.234 546.087 183.67 539.649C185.498 538.759 186.554 538.324 186.554 538.324L183.897 565.721L180.09 604.858L159.417 614.097C165.108 612.413 170.799 611.579 175.529 611.182C182.445 610.614 187.345 610.955 187.345 610.955C187.703 607.225 189.305 603.835 191.397 600.901C193.47 597.985 196.014 595.523 198.294 593.668C201.573 590.961 204.306 589.445 204.306 589.445C227.316 581.361 247.028 578.615 257.939 580.925C262.368 581.853 265.327 583.614 266.495 586.189C270.547 595.126 255.188 614.609 255.188 614.609C255.188 614.609 256.338 614.779 258.165 615.234C262.707 616.313 271.432 619.021 277.086 624.606C278.876 626.386 280.346 628.45 281.289 630.836C286.377 643.805 263.668 657.817 263.668 657.817C263.668 657.817 282.042 659.634 281.288 671.392Z" fill="#FFC57F"/>
        <g opacity="0.6">
          <path d="M184.424 539.934C178.092 548.871 168.312 556.293 160.943 564.567C153.254 573.182 146.075 582.289 140.063 592.173C127.531 612.697 120.144 637.444 124.78 661.073C124.704 661.054 124.648 661.017 124.572 660.997C121.746 656.245 119.729 650.811 118.712 644.62C118.127 641.06 117.75 637.614 117.581 634.262C114.584 576.363 170.234 546.087 183.671 539.649C183.935 539.725 184.179 539.82 184.424 539.934Z" fill="white"/>
        </g>
        <g opacity="0.6">
          <path d="M255.5 597.658C242.832 601.087 229.586 601.96 216.921 605.401C204.256 608.842 191.608 615.495 185.225 627.011C170.177 626.294 155.053 627.186 140.192 629.667C143.986 621.953 151.642 616.726 159.766 614.003C167.889 611.279 176.555 610.751 185.103 610.246C186.504 610.163 192.298 601.929 193.803 600.555C197.14 597.506 200.788 594.808 204.649 592.467C212.553 587.676 221.374 584.416 230.467 582.839C239.291 581.307 248.634 581.238 257.397 583.229C270.869 586.29 266.92 594.567 255.5 597.658Z" fill="white"/>
        </g>
        <path d="M186.968 539.347C174.456 546.329 162.726 554.791 152.455 564.519C142.236 574.273 133.418 585.535 127.934 598.323C122.417 611.074 120.501 625.183 122.211 638.963C122.391 640.685 122.69 642.411 122.961 644.11C123.252 645.758 123.642 647.377 124.103 648.967C125.019 652.15 126.325 655.181 127.952 658.014C131.216 663.682 135.919 668.45 141.466 672.157C152.642 679.574 166.45 683.191 180.308 684.853C194.246 686.489 208.508 686.234 222.606 684.78C236.666 683.231 250.819 680.741 264.006 676.338C267.262 675.222 270.484 673.956 273.253 672.466C274.597 671.752 275.927 670.849 276.447 670.281C276.771 670.008 276.475 669.955 276.334 671.062C276.331 670.572 276.351 670.101 276.236 669.707C276.061 668.903 275.688 668.183 274.942 667.397C274.218 666.62 273.134 665.862 271.872 665.225C270.615 664.579 269.179 664.041 267.68 663.613C266.931 663.397 266.164 663.207 265.392 663.046C264.655 662.89 263.766 662.74 263.196 662.671L263.097 662.659C260.43 662.337 258.528 659.902 258.849 657.222C259.033 655.691 259.923 654.399 261.131 653.642C263.118 652.372 265.317 650.752 267.247 649.131C269.211 647.489 271.048 645.737 272.644 643.898C274.223 642.063 275.571 640.116 276.359 638.242C277.189 636.344 277.317 634.704 276.977 633.277C276.799 632.631 276.344 631.616 275.844 630.802C275.339 629.948 274.678 629.142 273.936 628.368C272.457 626.812 270.54 625.455 268.452 624.275C266.343 623.112 264.049 622.121 261.66 621.313C260.467 620.909 259.251 620.543 258.025 620.225C256.835 619.915 255.486 619.613 254.458 619.442C251.788 618.995 249.983 616.459 250.428 613.776C250.564 612.955 250.911 612.196 251.38 611.579C253.615 608.662 255.84 605.347 257.704 602.094C259.569 598.832 261.206 595.399 261.961 592.282C262.325 590.767 262.406 589.306 262.189 588.603C262.073 588.218 262.049 588.111 261.848 587.878C261.655 587.648 261.3 587.344 260.788 587.051C259.766 586.454 258.238 585.956 256.6 585.638C254.949 585.314 253.158 585.142 251.333 585.067C243.968 584.814 236.178 585.949 228.568 587.569C220.932 589.214 213.362 591.445 205.92 594.056L206.661 593.723C205.944 594.134 204.951 594.775 204.112 595.363C203.24 595.97 202.389 596.614 201.566 597.282C199.92 598.62 198.388 600.064 197.046 601.595C195.703 603.124 194.567 604.747 193.717 606.405C192.879 608.066 192.361 609.75 192.194 611.41L191.966 612.384C191.434 614.653 189.262 616.111 187.01 615.822C185.528 615.626 183.724 615.494 182.049 615.413C180.342 615.332 178.624 615.298 176.905 615.313C173.468 615.342 170.026 615.559 166.62 616.003C159.825 616.9 153.093 618.663 147.145 621.988L147.119 622.002C146.046 622.602 144.692 622.214 144.096 621.136C143.544 620.139 143.832 618.901 144.728 618.246C150.872 613.74 158.019 610.904 165.261 609.019C168.895 608.079 172.58 607.383 176.297 606.89C178.155 606.644 180.021 606.448 181.899 606.305C183.809 606.166 185.594 606.062 187.692 606.072L182.51 610.483C182.808 607.424 183.751 604.531 185.046 601.974C186.352 599.419 187.971 597.16 189.741 595.139C191.514 593.119 193.435 591.319 195.451 589.679C196.461 588.861 197.492 588.081 198.556 587.339C199.654 586.58 200.633 585.925 201.964 585.164C202.18 585.041 202.402 584.938 202.628 584.857L202.705 584.83C210.478 582.105 218.405 579.762 226.531 578.012C234.669 576.298 242.955 575.018 251.724 575.301C253.923 575.394 256.157 575.595 258.464 576.045C260.767 576.514 263.163 577.171 265.65 578.585C266.882 579.299 268.152 580.242 269.265 581.557C270.405 582.85 271.241 584.631 271.618 586.202C272.401 589.451 271.946 592.14 271.424 594.543C270.237 599.305 268.253 603.207 266.137 606.965C263.97 610.722 261.688 614.142 259.009 617.643L255.931 609.78C257.63 610.065 258.978 610.384 260.464 610.763C261.915 611.14 263.35 611.571 264.775 612.054C267.624 613.02 270.434 614.218 273.171 615.728C275.893 617.268 278.569 619.113 280.926 621.57C282.099 622.793 283.206 624.145 284.125 625.675C285.053 627.235 285.805 628.742 286.38 630.773C287.423 634.754 286.715 638.907 285.309 642.07C283.922 645.314 282.009 647.94 279.989 650.305C277.95 652.653 275.756 654.729 273.473 656.64C271.155 658.57 268.899 660.26 266.221 661.972L266.218 661.973L264.153 652.945C265.384 653.08 266.282 653.238 267.32 653.439C268.324 653.637 269.319 653.873 270.313 654.147C272.302 654.698 274.289 655.4 276.271 656.386C278.241 657.37 280.241 658.631 282.037 660.475C283.83 662.269 285.364 664.823 285.93 667.585C286.259 668.964 286.286 670.333 286.243 671.656C286.234 671.876 286.175 672.336 286.116 672.66C286.051 673.008 285.959 673.299 285.862 673.615C285.665 674.193 285.418 674.722 285.172 675.137C284.667 676.009 284.141 676.637 283.642 677.162C281.628 679.208 279.814 680.217 277.993 681.249C274.373 683.198 270.813 684.569 267.224 685.817C260.055 688.262 252.836 690.041 245.561 691.498C238.291 692.959 230.96 693.994 223.598 694.714C208.878 696.123 193.987 696.3 179.139 694.454C171.721 693.514 164.316 692.044 157.063 689.75C149.823 687.454 142.707 684.291 136.273 679.791C129.842 675.341 124.15 669.425 120.27 662.402C118.333 658.901 116.813 655.171 115.779 651.344C115.259 649.432 114.831 647.5 114.521 645.559C114.247 643.661 113.961 641.793 113.791 639.892C112.156 624.752 114.558 609.045 120.855 595.184C127.094 581.274 136.769 569.265 148.082 559.625C153.733 554.777 159.809 550.489 166.163 546.738C172.527 542.988 179.117 539.728 186.121 537.296C186.698 537.096 187.327 537.403 187.527 537.983C187.705 538.501 187.48 539.06 187.019 539.317L186.968 539.347Z" fill="#390075"/>
        <path d="M191.953 612.535C191.888 612.661 191.717 613.159 191.609 613.532C191.478 613.922 191.376 614.359 191.264 614.783C191.053 615.639 190.855 616.528 190.711 617.431C190.391 619.235 190.201 621.098 190.112 622.975C189.921 626.736 190.159 630.566 190.687 634.387C191.289 638.197 192.155 642.006 193.372 645.738C193.916 647.625 194.708 649.431 195.366 651.295C196.122 653.118 196.961 654.912 197.758 656.734L197.825 656.885C198.314 658.002 197.808 659.306 196.696 659.797C195.66 660.255 194.462 659.845 193.909 658.882C192.87 657.083 191.786 655.299 190.78 653.467C189.87 651.586 188.826 649.757 188.022 647.811C186.288 643.971 184.889 639.956 183.768 635.826C182.72 631.678 181.974 627.41 181.715 623.04C181.58 620.855 181.56 618.649 181.705 616.415C181.762 615.299 181.88 614.176 182.031 613.036C182.116 612.463 182.186 611.898 182.308 611.303C182.426 610.686 182.514 610.201 182.754 609.358L182.881 608.908C183.626 606.29 186.343 604.775 188.948 605.524C191.554 606.273 193.062 609.002 192.317 611.619C192.227 611.933 192.096 612.255 191.953 612.535Z" fill="#390075"/>
        <g opacity="0.2">
          <path d="M639.855 798.325C639.855 811.106 616.242 801.98 587.164 822.05C558.086 842.139 552.639 854.919 519.924 854.919C519.924 854.919 544.837 876.825 549.643 904.223C554.448 931.602 537.582 960.817 549.643 984.541C549.643 984.541 456.322 993.686 436.327 847.61C436.327 847.61 442.188 849.22 449.877 849.485C454.4 891.14 485.909 938.569 506.186 930.143C531.853 919.502 493.579 838.598 493.579 838.598C524.805 837.423 524.145 815.441 557.03 799.783C578.815 789.426 613.603 791.622 638.498 793.288C639.384 795.069 639.855 796.773 639.855 798.325Z" fill="#510000"/>
        </g>
        <g opacity="0.3">
          <path d="M482.894 712.768C410.189 732.857 328.42 704.247 328.42 704.247C328.42 704.247 306.616 732.44 274.504 725.34C258.147 721.724 242.618 710.268 233.554 695.178C272.139 697.085 296.297 677.722 308.481 663.934C316.578 654.772 328.424 649.754 340.611 650.198C380.22 651.642 400.171 665.776 458.056 668.538C496.142 670.375 522.054 646.026 537.469 624.327C537.827 654.489 530.063 699.722 482.894 712.768Z" fill="#390075"/>
        </g>
        <g opacity="0.2">
          <path d="M281.288 671.392C280.365 685.971 130.81 717.648 118.711 644.62C118.127 641.06 117.75 637.614 117.58 634.262C121.293 626.878 125.91 619.892 131.073 613.454C143.454 597.985 158.851 585.299 174.135 572.708C177.225 570.171 180.391 567.577 183.896 565.721C185.328 564.945 186.798 564.301 188.363 563.828C193.752 562.181 200.311 563.052 203.891 567.425C208.866 573.484 205.945 582.743 201.573 589.256C200.555 590.771 199.462 592.248 198.294 593.668C196.202 596.262 193.884 598.686 191.397 600.901C186.666 605.104 181.295 608.607 175.529 611.182C173.965 611.883 172.382 612.507 170.761 613.075C159.398 617.051 144.661 619.607 141.363 631.233C138.423 641.533 148.732 652.25 159.398 652.25C170.064 652.25 179.392 644.184 184.141 634.584C188.891 624.985 189.927 614.022 190.907 603.343C189.644 623.243 194.789 644.619 209.356 658.157C223.942 671.695 249.176 674.213 263.197 660.107C254.848 657.873 246.5 655.639 238.151 653.405C249.006 646.021 259.88 638.655 270.753 631.29C273.335 629.529 276.105 627.484 277.085 624.606C278.876 626.386 280.346 628.45 281.288 630.836C286.376 643.805 263.668 657.817 263.668 657.817C263.668 657.817 282.042 659.634 281.288 671.392Z" fill="#510000"/>
        </g>
        <g opacity="0.2">
          <path d="M599.432 412.773C569.522 421.15 544.72 426.486 526.502 429.925C510.081 433.024 498.347 434.708 484.12 435.16C480.968 435.26 466.947 435.642 448.068 433.544C434.215 432.004 415.869 428.921 394.755 422.354C476.128 437.311 551.772 396.982 588.954 385.773C614.131 378.181 617.504 353.794 615.996 334.879C616.769 335.958 617.447 337.094 618.032 338.306C618.201 338.647 618.352 339.006 618.522 339.385C618.543 339.438 618.576 339.517 618.616 339.613C621.459 346.412 625.253 350.327 626.771 352.289C630.276 356.817 630.458 362.31 630.656 368.31C631.043 379.988 625.872 388.63 623.473 392.523C615.686 405.159 604.275 410.745 599.432 412.773Z" fill="#510000"/>
        </g>
        <path d="M198.76 526.044C196.661 526.044 194.883 524.415 194.723 522.276C194.555 520.033 196.229 518.079 198.461 517.91L245.154 514.378C247.385 514.204 249.332 515.89 249.5 518.133C249.668 520.376 247.994 522.33 245.762 522.499L199.069 526.031C198.966 526.039 198.862 526.044 198.76 526.044Z" fill="#390075"/>
        <path d="M246.374 403.317C246.181 403.317 245.987 403.303 245.791 403.274L197.566 396.284C195.351 395.963 193.813 393.898 194.132 391.672C194.452 389.446 196.519 387.905 198.723 388.223L246.948 395.213C249.163 395.534 250.701 397.599 250.382 399.825C250.09 401.854 248.357 403.317 246.374 403.317Z" fill="#390075"/>
        <path d="M285.838 253.452C285.246 253.452 284.646 253.321 284.077 253.045L244.605 233.862C242.59 232.882 241.746 230.447 242.721 228.422C243.695 226.397 246.118 225.551 248.134 226.529L287.606 245.713C289.621 246.692 290.465 249.128 289.49 251.152C288.791 252.606 287.344 253.452 285.838 253.452Z" fill="#390075"/>
        <path d="M369.228 142.517C368.081 142.517 366.943 142.032 366.142 141.086L341.35 111.869C339.897 110.158 340.101 107.588 341.804 106.129C343.509 104.671 346.068 104.873 347.518 106.586L372.31 135.802C373.763 137.513 373.559 140.084 371.856 141.543C371.093 142.197 370.158 142.517 369.228 142.517Z" fill="#390075"/>
        <path d="M470.348 74.8372C468.734 74.8372 467.21 73.864 466.579 72.2658L454.139 40.7584C453.314 38.6675 454.33 36.3002 456.411 35.4707C458.496 34.6416 460.848 35.6644 461.673 37.7546L474.113 69.262C474.938 71.3529 473.922 73.7202 471.841 74.5497C471.351 74.7449 470.845 74.8372 470.348 74.8372Z" fill="#390075"/>
        <path d="M614.902 30.4691C612.663 30.4691 610.848 28.6455 610.848 26.3966V5.14412C610.848 2.89518 612.663 1.0719 614.902 1.0719C617.14 1.0719 618.956 2.8955 618.956 5.14412V26.3966C618.956 28.6458 617.14 30.4691 614.902 30.4691Z" fill="#390075"/>
        <path d="M317.032 338.247C328.605 327.487 350.254 334.163 365.388 353.157C380.521 372.151 383.408 396.272 371.835 407.032C360.263 417.791 338.613 411.116 323.48 392.121C308.347 373.127 305.46 349.006 317.032 338.247Z" fill="#390075"/>
        <path d="M323.522 346.091C328.736 344.975 335.012 350.601 337.539 358.657C340.067 366.713 337.889 374.148 332.674 375.264C327.46 376.38 321.185 370.754 318.658 362.698C316.13 354.642 318.308 347.207 323.522 346.091Z" fill="white"/>
        <path d="M365.736 379.704C368.654 379.856 371.397 383.492 371.864 387.826C372.33 392.16 370.343 395.551 367.426 395.399C364.509 395.247 361.766 391.61 361.3 387.277C360.833 382.943 362.82 379.553 365.736 379.704Z" fill="#B199C5"/>
        <path d="M446.291 722.124H446.065V722.106C446.065 722.106 446.14 722.106 446.291 722.124Z" fill="#FE9572"/>
        <path d="M446.065 722.106C446.065 722.106 446.141 722.106 446.291 722.124H446.065V722.106Z" fill="#FFC57F"/>
        <path d="M545.209 962.605C545.436 968.986 546.642 975.14 549.619 980.971C549.619 980.971 549.092 981.028 548.093 981.047C545.813 975.177 545.096 968.986 545.209 962.605Z" fill="#FFC57F"/>
        <path d="M549.619 900.654C550.354 904.819 550.58 909.022 550.486 913.244C550.43 910.215 550.166 907.224 549.638 904.232C544.833 876.834 519.919 854.928 519.919 854.928C521.163 854.928 522.369 854.909 523.538 854.871C530.661 862.123 545.963 879.807 549.619 900.654Z" fill="#FFC57F"/>
        <path d="M551.391 201.365C549.959 201.365 548.583 201.422 547.283 201.517C548.621 201.365 549.827 201.271 551.391 201.365Z" fill="#FFC57F"/>
        <path d="M615.332 334.415C612.015 332.654 597.014 327.882 576.36 323.887C588.082 323.793 606.795 325.023 615.332 334.415Z" fill="#FFC57F"/>
        <path d="M551.391 201.365C553.822 201.365 556.309 201.82 558.816 202.729C556.404 201.952 553.916 201.479 551.391 201.365Z" fill="#FE9572"/>
        <path d="M618.027 338.315C617.311 336.876 616.406 335.588 615.351 334.433C615.69 334.622 615.916 334.774 615.992 334.888C616.029 334.926 616.934 336.213 617.574 337.406C617.725 337.709 617.876 337.993 618.027 338.315Z" fill="#FE9572"/>
        <path d="M293.514 199.566C297.396 192.637 301.9 186.351 306.875 180.708L293.514 199.566Z" fill="white"/>
        <path d="M319.162 168.666C320.594 167.417 322.045 166.243 323.515 165.144C322.045 166.281 320.594 167.455 319.162 168.666Z" fill="white"/>
        <path d="M393.45 231.073C395.918 227.494 429.632 177.83 409.053 154.39C407.282 152.345 405.077 150.49 402.401 148.899C400.008 147.479 397.445 146.324 394.712 145.453C398.971 146.514 402.514 148.104 405.171 150.149C406.679 151.323 408.035 152.554 409.223 153.841C432.76 179.307 396.239 227.494 393.45 231.073Z" fill="white"/>
        <path d="M550.486 913.244C550.92 929.849 545.511 946.834 545.209 962.605C544.964 955.316 546.001 947.742 547.226 940.036C548.639 931.194 550.279 922.181 550.486 913.244Z" fill="#FE9572"/>
        <path d="M446.291 722.124H446.065V722.106C446.065 722.106 446.14 722.106 446.291 722.124Z" fill="#FFC57F"/>
      </g>
    </g>
  </g>
  <defs>
    <linearGradient id="paint0_linear_18_2" x1="265.651" y1="797.676" x2="824.102" y2="-118.597" gradientUnits="userSpaceOnUse">
      <stop stop-color="#5390D9"/>
      <stop offset="1" stop-color="#80F6DA"/>
    </linearGradient>
    <linearGradient id="paint1_linear_18_2" x1="6.81335" y1="581.927" x2="604.764" y2="-399.155" gradientUnits="userSpaceOnUse">
      <stop stop-color="#5390D9"/>
      <stop offset="1" stop-color="#80F6DA"/>
    </linearGradient>
    <linearGradient id="paint2_linear_18_2" x1="399.021" y1="989.603" x2="951.71" y2="82.7838" gradientUnits="userSpaceOnUse">
      <stop stop-color="#5390D9"/>
      <stop offset="1" stop-color="#80F6DA"/>
    </linearGradient>
    <linearGradient id="paint3_linear_18_2" x1="563.798" y1="1216.74" x2="1129.51" y2="288.545" gradientUnits="userSpaceOnUse">
      <stop stop-color="#5390D9"/>
      <stop offset="1" stop-color="#80F6DA"/>
    </linearGradient>
    <clipPath id="clip0_18_2">
      <rect width="1000" height="1000" fill="white"/>
    </clipPath>
  </defs>
</svg>
