<?xml version="1.0" encoding="utf-8"?>
<svg version="1.1" id="Layer_1"
     xmlns="http://www.w3.org/2000/svg" xmlns:xlink="http://www.w3.org/1999/xlink"
     width="256" height="256"
     viewBox="350 350 3300 3300"
     xml:space="preserve">
<g>
	<g>
		<g>
		</g>
	</g>
	<g>
		<g>
			<g>
				<circle style="fill:#5ECCFF;" cx="1836.667" cy="2103.779" r="1325.04" />
			</g>
		</g>
		<g>
			<g>
				<path style="fill:#FFFFFF;" d="M2590.162,2938.406c0,6.442-0.716,12.646-2.087,18.611
					c-11.632,52.908-62.214,62.452-92.456,68.238c-27.2,5.13-60.961,11.572-98.123,37.042
					c-21.235,14.674-38.712,28.333-54.102,40.383c-24.516,19.207-46.646,36.565-73.309,49.568l30.421,30.898l-29.526,0.895
					c14.614,26.126,27.021,56.189,32.807,88.877c2.147,12.229,3.34,24.516,3.579,37.639v2.505c-0.716,28.87-5.13,56.07-9.425,82.375
					l-1.67,10.14c-3.162,20.042-6.263,41.217-5.667,59.589l0.06,1.551v1.551c-0.239,14.435,1.372,25.948,5.07,35.312l30.6,78.498
					l-84.165,2.803c-2.088,0.119-4.533,0.119-7.456,0.119c-32.449,0-117.091-6.8-202.568-69.789
					c-100.747-74.442-167.196-198.333-197.855-368.75c-28.453-4.772-68.656-12.705-116.614-25.351
					c23.084,59.589,20.042,96.333-5.726,123.891c-22.547,24.158-57.024,36.446-102.477,36.446
					c-76.052,0-166.898-33.344-220.88-81.123c-45.751-40.501-61.557-119.596-47.898-241.28
					c-56.547-36.147-108.263-76.35-154.67-120.192c2.625,39.189,9.066,64.719,9.186,65.196l30.6,118.105l-111.961-48.197
					c-197.259-85.298-326.22-258.22-372.985-500.037c-29.467-152.403-20.46-297.589-10.498-380.859h-67.284l35.253-82.972
					c21.235-49.986,62.393-108.74,122.34-174.712c14.733-16.105,30.54-32.688,47.182-49.389l-66.986-53.088
					c-57.859-45.87-76.888-124.905-46.228-192.189l206.385-452.497c5.309-11.751,12.169-23.204,20.341-33.881
					c11.512-15.21,25.589-28.452,41.635-39.249c1.372-0.895,2.684-1.73,3.996-2.565l0.776-0.775l7.098-3.997
					c19.565-11.035,40.74-18.133,62.989-21.175l226.07-30.719c6.919-0.955,13.958-1.432,20.937-1.432
					c28.035,0,54.996,7.456,78.557,21.414l6.561-9.186l2.207-2.505c5.428-6.024,9.962-10.916,14.376-15.389
					c1.67-1.73,3.758-3.818,5.786-5.846l1.551-1.61l0.597-0.477c2.326-2.207,4.593-4.474,6.919-6.561
					c2.505-2.326,5.011-4.653,7.516-6.86l0.656-0.537c2.684-2.326,5.01-4.354,7.396-6.382c4.474-3.758,8.888-7.397,13.302-10.856
					l4.354-3.34c2.207-1.611,4.354-3.221,6.561-4.832l0.477-0.358c2.804-2.028,5.607-4.056,8.47-6.025l1.551-1.074
					c1.73-1.193,3.52-2.326,5.249-3.519c60.723-39.905,130.333-62.094,195.47-62.094c19.803,0,38.533,2.147,55.652,6.323
					l4.235,1.014l1.849,0.775c12.288,3.996,24.098,9.365,35.133,15.867c13.779,8.112,25.768,18.074,35.73,29.526
					c57.442,65.017,34.835,158.01,3.937,227.084c2.446,0.179,4.832,0.358,7.098,0.596c14.793,1.193,29.288,2.565,43.365,3.818
					c40.383,3.758,78.498,7.218,110.947,7.218c21.354,0,38.891-1.491,53.565-4.533c7.993-1.67,16.94-11.453,30.898-27.319
					c24.575-27.916,61.677-70.028,131.407-78.08c2.028-0.239,4.175-0.417,6.382-0.656h0.597c5.786-0.418,11.632-0.656,17.358-0.656
					h1.313l1.372,0.06c12.705,0.596,25.411,2.803,37.937,6.74c2.028,0.596,3.698,1.193,5.011,1.67
					c53.445,19.863,101.88,73.786,129.557,144.232l0.477,1.252c7.516,19.028,30.302,76.888,22.726,153.477
					c-3.698,37.639-13.481,70.625-25.828,98.66c26.067,7.158,46.944,14.316,57.681,19.982l7.993,4.176l7.218,7.277l0.954,1.014
					c7.158,7.814,13.183,16.522,17.895,25.887c0.716,1.491,1.491,3.221,2.267,4.951l0.119,0.298
					c0.418,0.895,0.835,1.849,1.253,2.804c1.252,2.625,3.042,4.533,4.593,6.263l1.014,1.074
					c13.123,14.137,19.327,29.347,27.141,48.495l0.298,0.716c17.715,43.365,13.003,103.312-12.109,152.582
					c-18.312,35.908-44.319,60.067-68.119,75.933c26.425,137.73,17.656,357.715-204.178,573.465
					c2.326,17.775,4.652,41.933,4.951,69.431c0.656,57.144-7.098,131.347-41.396,197.259c0.775,1.074,1.491,2.207,2.207,3.34
					c18.014,29.288,35.133,98.958,28.93,161.469c12.825-1.551,25.708-2.386,38.593-2.386
					C2452.075,2769.48,2590.162,2850.006,2590.162,2938.406z" />
			</g>
		</g>
		<g>
			<g>
				<path style="fill:#FC5520;" d="M1417.872,2859.112c0,0-56.24,237.744,10.225,296.541c66.466,58.797,204.511,86.917,240.3,48.571
					c35.789-38.346-136.373-286.315-136.373-286.315L1417.872,2859.112z" />
			</g>
		</g>
		<g>
			<g>
				<g>
					<path style="fill:#FC5520;" d="M1917.219,2654.602v102.255c0,0,229.222,97.143,265.012,63.91
						c35.789-33.233,20.451-145.714,0-178.947C2161.78,2608.587,1917.219,2654.602,1917.219,2654.602z" />
				</g>
			</g>
			<g>
				<g>
					<path style="fill:#FC5520;" d="M2089.225,2678.568c0,0-77.846,1.568-172.006,30.981c0,0,114.15,6.406,172.006,33.248" />
				</g>
			</g>
		</g>
		<g>
			<g>
				<g>
					<path style="fill:#390075;" d="M2155.66,2843.08c-23.755,0-61.602-6.792-124.126-27.168
						c-61.694-20.103-119.746-44.634-120.322-44.878c-5.693-2.412-9.39-7.993-9.39-14.175v-102.256
						c0-7.407,5.273-13.76,12.549-15.132c0.615-0.113,62.412-11.689,125.918-19.014c120.527-13.906,145.747-1.831,155.054,13.291
						c21.621,35.132,41.514,157.3-2.632,198.296C2186.412,2837.894,2176.412,2843.08,2155.66,2843.08z M1932.613,2746.571
						c18.677,7.632,62.651,25.146,108.628,40.122c113.486,36.953,129.863,23.389,130.518,22.788
						c28.159-26.152,15.942-128.286-2.266-158.979c-16.973-12.739-133.145-1.768-236.88,16.924V2746.571z M2169.801,2650.75
						L2169.801,2650.75L2169.801,2650.75z" />
				</g>
			</g>
			<g>
				<g>
					<path style="fill:#390075;" d="M2089.326,2683.557c-14.202,1.362-28.647,3.584-42.844,6.147
						c-14.229,2.612-28.381,5.554-42.385,9.045c-13.999,3.481-27.91,7.222-41.619,11.548c-13.748,4.17-27.263,8.992-40.664,13.945
						h-0.005l-3.728-30.066c15.134,2.004,29.639,4.473,44.341,7.205c14.636,2.756,29.207,5.789,43.674,9.363
						c14.458,3.586,28.853,7.419,42.996,12.241c14.121,4.802,28.113,10.183,41.284,17.329c1.331,0.723,1.824,2.385,1.101,3.716
						c-0.657,1.213-2.1,1.731-3.357,1.265l-0.046-0.017c-13.56-5-27.717-8.218-41.931-10.867
						c-14.221-2.664-28.665-4.353-43.088-5.793c-14.431-1.428-28.936-2.319-43.428-2.937c-14.436-0.583-29.133-0.933-43.269-0.762
						l-0.044,0.002c-8.413,0.103-15.32-6.636-15.422-15.051c-0.088-7.273,4.941-13.416,11.738-15.017h0.002
						c14.553-3.496,29.102-6.802,43.765-9.409c14.626-2.766,29.341-4.9,44.05-6.75c14.709-1.855,29.473-3.135,44.229-4.063
						c14.8-0.884,29.458-1.396,44.448-1.052c2.756,0.063,4.941,2.349,4.878,5.105c-0.059,2.556-2.029,4.622-4.514,4.856
						L2089.326,2683.557z" />
				</g>
			</g>
		</g>
		<g>
			<g>
				<path style="fill:#390075;" d="M1609.595,3236.932c-62.827,0-145.928-29.253-191.699-69.746
					c-71.309-63.086-20.981-286.367-15.005-311.621c1.089-4.609,4.238-8.457,8.545-10.44c4.292-1.977,9.268-1.875,13.486,0.298
					l114.15,58.799c2.236,1.152,4.16,2.837,5.596,4.907c0.434,0.625,43.853,63.286,82.295,129.858
					c72.993,126.396,67.598,159.766,52.69,175.737C1665.22,3230.194,1639.737,3236.932,1609.595,3236.932z M1428.619,2881.962
					c-15.21,74.18-34.824,222.788,9.678,262.158c62.69,55.459,191.538,78.857,218.848,49.6
					c0.435-0.694,11.924-20.923-58.574-142.324c-32.471-55.903-68.042-108.428-77.041-121.572L1428.619,2881.962z" />
			</g>
		</g>
		<g>
			<g>
				<path style="fill:#390075;" d="M1495.483,3115.94c-6.78-18.384-12.363-36.724-17.397-55.449
					c-4.98-18.694-9.185-37.625-12.656-56.758c-3.567-19.119-6.05-38.499-7.725-58.049c-1.821-19.548-1.956-39.338-1.479-59.246
					v-0.007c0.161-9.695,8.152-17.424,17.849-17.263c8.213,0.139,15.012,5.894,16.804,13.542l0.144,0.632
					c4.622,19.751,9.958,39.905,15.525,59.729c5.623,19.871,11.57,39.663,18.02,59.268c12.988,39.143,27.515,77.903,46.536,114.114
					l0.071,0.134c2.051,3.904,0.549,8.733-3.354,10.784c-3.711,1.948-8.271,0.664-10.474-2.817
					c-22.676-36.038-40.532-74.409-56.875-113.22c-8.125-19.436-15.735-39.06-23.027-58.811
					c-7.271-19.822-14.177-39.512-20.671-59.924l34.797-3.088v0.007c-2.156,18.132-3.843,36.514-3.884,55.088
					c-0.19,18.552,0.386,37.241,2.051,55.906c1.567,18.672,3.867,37.356,6.958,55.945c3.108,18.533,6.914,37.207,11.648,55.19
					l0.059,0.222c0.955,3.621-1.208,7.329-4.829,8.284C1500.171,3121.045,1496.685,3119.165,1495.483,3115.94z" />
			</g>
		</g>
		<g>
			<g>
				<path style="fill:#FC5520;" d="M1137.547,2919.17c-213.483-92.337-303.673-278.621-338.09-456.613
					c-42.768-220.939,0.418-429.174,0.418-429.174h-46.646c21.593-50.821,66.091-107.845,111.603-157.891
					c25.053-27.497,50.463-52.908,72.473-74.024c37.46-35.849,65.256-59.232,65.256-59.232c-3.102,22.488-5.666,44.618-7.635,66.449
					c-44.379,481.427,170.775,802.04,170.775,802.04C1096.032,2763.128,1137.547,2919.17,1137.547,2919.17z" />
			</g>
		</g>
		<g>
			<g>
				<path style="fill:#390075;" d="M1137.53,2934.584c-2.065,0-4.141-0.415-6.104-1.265
					C930.523,2846.366,806.929,2662.147,774,2400.565c-20.229-160.694-0.991-302.246,7.368-351.768h-28.154
					c-5.166,0-9.985-2.588-12.837-6.895c-2.852-4.307-3.354-9.761-1.338-14.512c54.497-128.462,245.513-290.144,253.618-296.963
					c4.868-4.102,11.768-4.78,17.354-1.697c5.581,3.081,8.687,9.282,7.808,15.593c-36.685,264.25,8.901,483.311,53.604,620.552
					c48.506,148.926,106.489,236.411,107.07,237.275c2.974,4.443,3.438,10.117,1.211,14.976
					c-66.44,145.298-27.681,296.602-27.28,298.115c1.504,5.698-0.376,11.768-4.844,15.61
					C1144.727,2933.304,1141.148,2934.584,1137.53,2934.584z M777.647,2018.006h22.197c4.629,0,9.014,2.085,11.938,5.674
					c2.925,3.594,4.077,8.311,3.135,12.842c-0.347,1.68-34.448,170.108-10.269,360.991
					c30.552,241.162,135.405,407.51,311.807,494.937c-8.569-52.92-17.72-166.255,31.807-280.405
					c-15.064-24.146-63.369-106.777-105.737-236.465c-43.608-133.462-88.052-342.471-60.254-594.91
					C930.103,1828.038,824.278,1930.094,777.647,2018.006z" />
			</g>
		</g>
		<g>
			<g>
				<path style="fill:#390075;" d="M1003.997,2018.445c-15.664,13.003-31.509,27.437-46.631,41.924
					c-15.183,14.592-29.902,29.675-44.121,45.203c-14.114,15.605-27.583,31.738-40.339,48.406
					c-12.485,16.816-24.089,34.226-34.207,52.427l-0.115,0.208c-2.625,4.724-8.584,6.426-13.308,3.799
					c-4.47-2.483-6.216-7.988-4.167-12.571c9.058-20.117,19.7-39.375,31.255-58.003c11.797-18.43,24.365-36.328,37.603-53.682
					c13.335-17.261,27.212-34.084,41.616-50.452c14.517-16.418,29.092-32.175,45.147-47.949c8.098-7.954,21.108-7.839,29.065,0.256
					c7.954,8.098,7.839,21.111-0.256,29.065c-0.405,0.396-0.82,0.771-1.245,1.128L1003.997,2018.445z" />
			</g>
		</g>
		<g>
			<g>
				<path style="fill:#390075;" d="M1032.976,2257.632c-0.278,0.239-0.569,0.459-0.876,0.662c-0.356,0.278-0.5,0.205-1.157,0.837
					l-3.333,2.915c-2.285,2.134-4.668,4.563-7.009,6.88l-6.973,7.556l-6.807,7.944c-4.546,5.3-8.831,10.967-13.213,16.509
					c-4.165,5.757-8.542,11.355-12.561,17.261c-16.314,23.43-31.45,47.996-44.983,73.521c-13.474,25.54-26.311,51.589-37.378,78.462
					c-5.918,13.284-10.852,26.97-16.208,40.518c-5.168,13.616-9.729,27.461-14.634,41.208l-0.115,0.322
					c-1.404,3.933-5.73,5.984-9.663,4.58c-3.748-1.338-5.779-5.356-4.749-9.131c3.923-14.238,7.512-28.604,11.733-42.793
					c4.412-14.128,8.413-28.418,13.435-42.38c9.26-28.208,20.405-55.818,32.358-83.159c12.014-27.327,25.803-53.97,41.179-79.937
					c3.777-6.526,7.988-12.844,11.975-19.287c4.263-6.311,8.394-12.683,12.954-18.884l6.863-9.312l7.307-9.192
					c2.646-3.064,5.195-6.077,8.054-9.17l4.622-4.69c0.615-0.696,2.002-1.802,3.057-2.698l3.435-2.759
					c8.772-7.051,21.599-5.657,28.65,3.115c6.912,8.601,5.708,21.099-2.607,28.23L1032.976,2257.632z" />
			</g>
		</g>
		<g>
			<g>
				<path style="fill:#390075;" d="M1107.993,2463.921c-10.168,25.925-19.619,53.005-28.425,79.893
					c-8.757,26.99-17.012,54.18-24.087,81.624c-7.012,27.434-13.623,55.054-18.059,82.913c-4.482,27.822-7.71,55.894-7.288,83.787
					l0.002,0.166c0.073,4.707-3.684,8.579-8.389,8.65c-4.495,0.068-8.232-3.386-8.618-7.795
					c-2.512-29.443-1.169-58.745,1.443-87.776c2.576-29.075,7.353-57.734,12.566-86.299c5.276-28.557,11.741-56.819,18.743-84.956
					c7.114-28.198,14.641-55.916,23.479-84.094c3.394-10.825,14.922-16.851,25.75-13.455c10.825,3.394,16.851,14.922,13.455,25.75
					c-0.139,0.442-0.291,0.876-0.457,1.304L1107.993,2463.921z" />
			</g>
		</g>
		<g style="opacity:0.3;">
			<g>
				<path style="fill:#390075;" d="M1138.049,2919.17c-213.483-92.337-303.673-278.621-338.09-456.613
					c7.635,15.628,15.747,31.018,24.277,46.228c12.467,22.25,28.751,46.05,53.804,50.761c32.33,6.084,61.916-25.172,67.224-57.681
					c5.249-32.508-6.442-65.017-16.821-96.333c-32.509-98.361-52.789-200.838-60.603-304.15
					c-4.951-65.316-14.793-154.432-2.505-225.891c2.445-14.255,5.726-27.736,10.14-40.263c8.828-25.052,33.045-33.522,62.333-33.761
					c18.133-0.119,38.175,2.923,57.621,7.217c-44.379,481.427,170.775,802.04,170.775,802.04
					C1096.533,2763.128,1138.049,2919.17,1138.049,2919.17z" />
			</g>
		</g>
		<g>
			<g>
				<path style="fill:#FA9B27;" d="M2530.529,2938.377c0,40.263-74.74,11.512-166.779,74.74
					c-92.038,63.287-109.277,103.551-212.827,103.551c0,0,78.856,69.014,94.067,155.326c7.217,40.859-1.014,83.091-7.576,124.069
					c-7.277,45.572-12.526,89.653,7.576,128.961c0,0-87.446,8.53-177.396-57.859c-75.337-55.593-152.403-163.736-181.273-373.522
					c0,0-456.732-45.452-730.461-373.88c-222.133-266.451-294.248-614.504-225.294-911.257c0.477-1.908,0.894-3.877,1.372-5.786
					c38.652-162.006,119.536-308.385,241.161-417.364c261.442-234.361,496.398-231.796,677.97-216.407
					c88.817,7.456,164.87,18.014,225.056,5.488c62.154-12.944,71.877-94.961,157.354-104.565c6.078-0.683,10.606-1.208,17.119-0.895
					c73.073,3.509,134.202,98.761,147.545,177.135c18.962,111.384-57.234,196.645-68.526,208.881
					c41.727-0.373,111.49,4.639,131.9,45.424c0.555,1.109,1.072,2.242,1.551,3.4c0.06,0.238,0.179,0.477,0.298,0.716
					c11.393,27.677,11.512,71.698-26.544,107.428c0,0,0,0.06-0.06,0.06c-15.509,14.554-37.34,27.796-67.284,37.937l0.06,0.06
					c0.895,1.611,18.491,33.045,33.105,85c34.835,124.249,52.312,366.066-217.241,599.412
					c-385.332,333.617-161.052,603.946-161.052,603.946s0.059-0.06,0.119-0.06c4.355-3.34,145.782-109.217,275.996-109.217
					C2432.765,2829.101,2530.529,2898.114,2530.529,2938.377z" />
			</g>
		</g>
		<g style="opacity:0.6;">
			<g>
				<g>
					<path style="fill:#FFFFFF;" d="M930.515,1875.774c0.477-1.908,0.894-3.877,1.372-5.786
						c38.652-162.006,119.536-308.385,241.161-417.364c261.441-234.361,496.398-231.796,677.97-216.407
						c88.817,7.456,164.87,18.014,225.056,5.488c62.154-12.944,71.877-94.961,157.354-104.565
						c5.368-0.596,11.094-0.895,17.119-0.895c58.284,0.118,126.484,82.858,137.995,190.367
						c14.604-136.48-68.708-253.364-137.995-253.505c-6.025,0-11.751,0.298-17.119,0.896c-85.477,9.603-95.2,91.62-157.354,104.565
						c-60.186,12.525-136.239,1.967-225.056-5.489c-181.571-15.388-416.528-17.954-677.97,216.407
						c-121.624,108.979-202.508,255.357-241.161,417.364c-0.477,1.909-0.895,3.878-1.372,5.786
						c-19.077,82.099-27.303,168.128-24.596,255.266C907.896,2002.426,916.064,1937.966,930.515,1875.774z" />
				</g>
			</g>
		</g>
		<g style="opacity:0.2;">
			<g>
				<path style="fill:#510000;" d="M1851.068,1168.95c-18.551,41.874-66.091,73.07-104.922,90.726
					c-55.533,25.291-117.27,39.309-165.466,76.709c-50.523,39.249-79.572,99.076-115.122,152.284
					c-118.463,177.336-320.971,285.241-533.62,314.051c38.652-162.006,119.536-308.385,241.161-417.364
					C1434.54,1150.996,1669.496,1153.561,1851.068,1168.95z" />
			</g>
		</g>
		<g style="opacity:0.3;">
			<g>
				<path style="fill:#390075;" d="M2300.463,2829.101c-130.214,0-271.641,105.877-275.996,109.217c-0.06,0-0.119,0.06-0.119,0.06
					s-224.28-270.329,161.052-603.946c269.553-233.347,252.076-475.164,217.241-599.412
					c78.617-26.664,83.449-119.715,73.249-182.526c-7.515,23.621-19.684,44.976-39.07,59.47c0,0,0,0.06-0.06,0.06
					c-5.786,4.354-12.168,8.112-19.326,11.095c-99.733,42.172-310.592,170.656-567.56,144.768c0,0,26.305,15.628,73.666,32.568
					c63.705,22.726,165.526,47.898,292.518,40.621c50.642-2.923,84.284,51.776,59.47,95.976
					c-75.396,134.27-229.112,340.357-454.465,319.182c-321.209-30.123-374.476-214.915-377.518-226.487
					c1.491,13.302,38.294,280.648,473.672,365.409c0,0-105.638,270.925-67.344,397.5c38.354,126.516-329.143,83.032-498.486-49.865
					c-169.224-132.779-376.624-522.108-420.823-934.282c-68.954,296.754,3.161,644.806,225.294,911.257
					c273.729,328.427,730.461,373.88,730.461,373.88c28.87,209.786,105.937,317.928,181.273,373.522l169.82-71.102
					c6.562-40.979,14.793-83.21,7.575-124.069c-15.21-86.312-94.066-155.326-94.066-155.326
					c103.551,0,120.789-40.263,212.827-103.551c92.038-63.228,166.779-34.477,166.779-74.74
					C2530.529,2898.114,2432.765,2829.101,2300.463,2829.101z M1958.436,2996.714c-11.93,24.635-55.175,28.392-96.572,8.351
					c-41.456-20.043-65.435-56.189-53.565-80.824c11.87-24.575,55.116-28.333,96.572-8.291
					C1946.328,2935.931,1970.307,2972.139,1958.436,2996.714z" />
			</g>
		</g>
		<g>
			<g>
				<path style="fill:#390075;" d="M2234.473,3540.795c-25.229,0-86.616-4.824-153.154-45.776
					c-76.157-46.875-173.511-152.119-208.564-387.49c-33.33-4.375-131.675-19.893-254.146-63.149
					c-137.217-48.467-330.938-142.417-474.575-314.756c-346.26-415.317-337.656-1036.167,18.784-1355.728
					c287.324-257.598,544.448-233.84,732.231-216.497c69.678,6.438,129.853,11.992,177.93,1.97
					c23.633-4.907,38.911-21.321,56.602-40.325c24.995-26.86,56.108-60.288,119.78-65.413
					c48.462-3.862,100.142,36.223,131.724,102.202c37.261,77.834,46.455,192.678-30.571,293.76
					c37.104,0.894,93.711,8.018,122.534,40.632c17.671,19.988,57.563,73.154,46.372,134.934
					c-8.14,44.939-41.118,84.285-98.091,117.087c8.687,27.964,26.357,98.977,17.427,191.609
					c-10.474,108.579-61.27,268.311-243.804,412.651c-136.118,107.637-211.509,222.93-224.082,342.686
					c-11.865,112.964,36.748,197.998,56.924,227.793c38.613-26.777,158.911-103.281,272.671-103.281
					c132.192,0,245.459,68.555,245.459,124.673c0,32.236-29.756,37.881-58.535,43.34c-29.585,5.611-70.098,13.296-114.922,44.092
					c-22.422,15.42-40.449,29.541-56.353,42.002c-41.777,32.729-71.563,56.064-130.103,62.48
					c25.801,28.799,63.672,79.629,74.141,139.033c7.031,39.878,0.522,79.824-5.771,118.452
					c-7.739,47.48-15.044,92.329,4.321,130.244c2.314,4.536,2.241,9.922-0.205,14.39c-2.446,4.473-6.943,7.441-12.012,7.935
					C2245.777,3540.414,2241.544,3540.795,2234.473,3540.795z M1731.109,1178.539c-157.451,0-345.127,36.633-547.734,218.281
					c-344.458,308.814-351.641,910.132-15.689,1313.086c266.611,319.888,715.654,367.969,720.156,368.418
					c7.085,0.703,12.759,6.167,13.73,13.218c25.093,182.451,92.271,312.559,194.277,376.255
					c51.23,31.992,99.712,39.961,126.392,41.709c-12.261-40.728-5.156-84.312,1.748-126.68c5.884-36.094,11.963-73.418,5.84-108.154
					c-14.058-79.785-88.306-145.767-89.058-146.426c-4.814-4.229-6.509-11.006-4.253-17.002c2.261-5.996,7.993-9.971,14.404-9.971
					c72.559,0,98.716-20.493,146.201-57.7c16.255-12.735,34.683-27.173,57.905-43.14c50.161-34.463,96.172-43.193,126.621-48.965
					c29.541-5.605,33.481-7.71,33.481-13.091c0-27.075-85.557-93.882-214.668-93.882c-124.849,0-265.244,104.98-266.626,106.04
					c-0.869,0.664-1.802,1.23-2.773,1.694c-2.383,1.157-5.044,1.709-7.739,1.509c-4.219-0.278-8.13-2.28-10.83-5.532
					c-3.613-4.36-88.389-108.545-72.251-262.231c13.472-128.311,92.744-250.65,235.606-363.618
					c139.224-110.093,217.314-241.294,232.109-389.961c11.05-111.087-19.38-190.999-19.688-191.795
					c-2.827-7.273,0.225-15.53,7.114-19.192c55.293-29.38,86.826-63.611,93.735-101.741c8.789-48.516-24.443-92.424-39.141-109.053
					c-28.027-31.707-104.849-31.98-132.085-29.407c-6.387,0.62-12.485-2.822-15.288-8.584c-2.813-5.767-1.758-12.671,2.656-17.329
					c90.615-95.693,84.238-210.569,48.047-286.167c-25.64-53.55-66.475-87.681-101.479-84.805
					c-51.753,4.165-75.049,29.194-99.712,55.696c-19.492,20.942-39.648,42.595-72.866,49.492
					c-52.588,10.972-114.893,5.208-187.036-1.453C1843.15,1183.526,1789.171,1178.539,1731.109,1178.539z" />
			</g>
		</g>
		<g>
			<g>
				<path style="fill:#FC5520;" d="M2402.642,1735.019c-72.112,24.117-135.339,38.775-184.868,48.046
					c-34.986,6.548-84.99,15.726-152.105,19.386c-17.414,0.95-71.482,3.464-142.127-1.997
					c-104.09-8.046-148.373-26.215-168.747-35.253c-23.8-10.558-36.804-19.386-36.804-19.386c3.758-1.67,7.456-3.28,11.095-4.951
					c209.427-92.754,309.876-147.392,366.245-476.953c25.649-150.017,118.522-187.656,138.147-194.038
					c5.368-0.596,11.094-0.895,17.119-0.895c43.603,0.06,92.814,46.467,119.656,114.884c6.028,15.364,25.68,63.062,19.39,127.101
					c-7.238,73.686-43.673,123.974-60.028,144.032c72.23,13.918,122.683,30.766,125.458,34.628c0.109,0.152,2.977,4.231,4.994,7.967
					c0.501,0.929,0.984,1.872,1.448,2.829c0.537,1.073,1.014,2.206,1.551,3.4c0.068,0.165,0.171,0.415,0.298,0.716
					c5.795,13.711,14.139,22.063,16.865,25.021c5.936,6.443,9.334,14.761,16.129,31.398c10.591,25.928,7.729,68.033-10.064,102.934
					C2460.643,1714.206,2413.174,1731.47,2402.642,1735.019z" />
			</g>
		</g>
		<g style="opacity:0.6;">
			<g>
				<path style="fill:#FFFFFF;" d="M2381.135,1175.163c-7.797-11.651-33.153-46.271-78.361-57.184c0,0-34.187-8.253-66.923,2.775
					c-72.2,24.324-75.543,138.049-130.392,293.115c-54.519,154.133-154.372,311.128-391.774,326.995
					c54.574-11.881,160.371-43.902,243.628-136.408c82.41-91.564,108.792-204.673,111.969-218.981
					c2.94-13.242,10.08-48.387,26.049-121.564c15.471-70.898,20.358-91.01,34.461-114.617
					c14.376-24.064,40.106-54.733,88.284-79.421c3.35-0.436,9.49-1.073,17.119-0.895
					C2310.787,1070.741,2363.999,1147.922,2381.135,1175.163z" />
			</g>
		</g>
		<g>
			<g>
				<path style="fill:#390075;" d="M1967.657,1818.571c-191.401,0-253.306-61.68-257.109-65.689c-2.3-2.422-3.276-5.81-2.622-9.084
					c0.654-3.271,2.861-6.023,5.918-7.373c209.028-92.332,313.95-138.677,371.372-474.243
					c26.685-156.094,125.542-195.71,145.088-202.068c0.664-0.215,1.348-0.364,2.041-0.439c3.237-0.361,6.47-0.454,9.6-0.544
					c2.52-0.073,5.107-0.142,7.744-0.376c48.604-4.268,102.056,34.097,133.193,95.557c18.125,35.779,66.26,159.358-42.495,298.772
					c33.188-1.638,90.825,1.931,128.442,40.137c36.025,36.584,50.898,90.957,38.813,141.897
					c-12.31,51.892-49.39,91.843-101.729,109.609c-0.151,0.049-0.298,0.095-0.444,0.139
					C2213.746,1800.37,2071.593,1818.571,1967.657,1818.571z M1737.867,1748.248c17.656,11.614,55.586,31.03,122.954,41.733
					c92.759,14.727,261.489,15.461,538.711-64.768c45.391-15.483,77.51-50.037,88.135-94.836
					c10.469-44.124-2.354-91.162-33.467-122.754c-46.694-47.424-135.015-31.804-135.898-31.648
					c-4.287,0.798-8.628-1.223-10.791-5.029c-2.153-3.806-1.665-8.557,1.226-11.841c121.016-137.6,73.33-260.981,55.835-295.517
					c-26.953-53.198-73.364-87.942-113.066-84.385c-3.057,0.271-6.05,0.361-8.97,0.447c-2.441,0.071-4.771,0.137-6.904,0.325
					c-19.746,6.707-105.933,43.818-130.181,185.667c-28.169,164.624-67.441,265.081-131.309,335.906
					C1913.99,1668.248,1832.364,1706.398,1737.867,1748.248z M2402.613,1735.006h0.049H2402.613z" />
			</g>
		</g>
		<g>
			<g>
				<path style="fill:#390075;" d="M1777.652,1757.809c-23.55,0-42.617-0.503-54.595-0.935c-1.348-0.049-2.632-0.356-3.794-0.872
					c-0.015,0-0.029,0.003-0.044,0.005c-5.683,0.637-10.742-3.332-11.421-8.96c-0.679-5.627,3.33-10.74,8.96-11.421
					c2.192-0.264,220.727-27.715,322.856-127.197c9.331-9.097,17.5-18.621,24.287-28.303
					c37.637-53.772,63.428-127.844,86.182-193.198c32.08-92.129,59.78-171.694,112.983-176.66
					c23.706-2.205,43.745,9.934,56.357,34.246c29.966,57.749,16.382,171.445-25.415,232.954
					c25.322,8.14,74.209,27.319,86.943,57.226c4.985,11.702,4.106,24.116-2.534,35.901c-12.632,22.422-33.096,27.173-59.004,33.186
					c-25.508,5.92-57.246,13.289-98.438,39.509c-37.1,23.643-97.393,57.202-173.926,82.793
					C1966.563,1752.965,1850.635,1757.809,1777.652,1757.809z M2268.638,1230.531c-1.196,0-2.412,0.059-3.657,0.176
					c-40.068,3.74-66.997,81.084-95.513,162.971c-23.193,66.614-49.482,142.114-88.755,198.225
					c-7.52,10.73-16.523,21.235-26.768,31.226c-61.982,60.371-161.167,94.985-235.566,113.66
					c69.229-1.748,157.788-8.674,222.163-30.176c74.551-24.927,133.271-57.61,169.404-80.637
					c44.16-28.108,79.224-36.248,104.824-42.19c25.371-5.891,37.915-9.338,45.767-23.269c3.535-6.274,4.023-11.922,1.533-17.774
					c-10.571-24.851-66.963-44.292-87.798-49.685c-3.428-0.886-6.157-3.477-7.222-6.853c-1.06-3.377-0.313-7.063,1.987-9.754
					c42.92-50.212,60.059-168.73,32.163-222.485C2293.038,1238.231,2282.359,1230.531,2268.638,1230.531z" />
			</g>
		</g>
		<g>
			<g>
				<path style="fill:#390075;" d="M1722.396,1746.617c97.643,4.551,270.631-8.479,320.365-30.268
					c74.919-25.052,133.673-57.501,171.67-81.719c84.344-53.684,136.287-34.966,154.014-69.074
					c27.046-52.041-92.635-82.435-92.635-82.435c63.884-74.74,69.014-270.329-12.824-262.634
					c-81.779,7.635-102.238,237.701-191.712,365.529c-7.396,10.558-15.986,20.46-25.53,29.765
					c-23.123,20.84-52.07,43.139-87.466,63.395C1866.299,1731.814,1777.316,1744.035,1722.396,1746.617z" />
			</g>
		</g>
		<g>
			<g>
				<path style="fill:#FF67A0;" d="M2369.477,1565.556c-18.525,39.65-69.67,15.39-154.014,69.074
					c-37.996,24.217-96.75,56.667-171.67,81.719c-0.059,0-0.059-0.06-0.059-0.06s-23.203-53.385,3.042-100.508
					c5.786-10.439,14.077-20.579,25.53-29.765c59.888-47.898,116.972-47.302,116.972-47.302
					c40.263-61.319,87.565-55.593,87.565-55.593S2394.303,1512.421,2369.477,1565.556z" />
			</g>
		</g>
		<g>
			<g>
				<path style="fill:#390075;" d="M2043.795,1724.047c-3.164,0-5.918-1.943-7.114-4.69l-0.005,0.002
					c-1.011-2.322-24.399-57.449,3.379-107.324c6.631-11.963,15.864-22.742,27.437-32.024
					c52.607-42.075,102.827-48.035,117.598-48.865c41.919-61.05,90.605-55.916,92.676-55.667c0.332,0.039,0.664,0.102,0.986,0.185
					c3.374,0.864,82.861,21.609,99.458,59.663c4.858,11.145,4.199,22.551-1.968,33.901c-10.63,19.575-30.278,24.39-55.151,30.483
					c-24.995,6.123-59.229,14.509-101.489,41.411c-36.982,23.567-97.08,57.017-173.364,82.524
					C2045.45,1723.912,2044.625,1724.047,2043.795,1724.047z M2189.185,1546.412c-1.094,0-55.562,0.42-112.07,45.615
					c-9.995,8.018-17.939,17.266-23.604,27.485c-18.877,33.892-9.893,72.08-5.073,87.129
					c71.436-24.68,127.788-56.133,162.891-78.504c44.404-28.267,80.063-37.002,106.094-43.379
					c23.643-5.791,37.91-9.287,45.293-22.878l0,0c3.833-7.06,4.287-13.733,1.377-20.398c-11.201-25.686-67.173-45.181-88.584-50.757
					c-4.702-0.349-44.448-1.619-79.795,52.214c-1.436,2.19-3.906,3.35-6.514,3.472
					C2189.195,1546.412,2189.19,1546.412,2189.185,1546.412z" />
			</g>
		</g>
		<g>
			<g>
				<path style="fill:#390075;" d="M2194.341,1524.58c-0.693-0.203,0.342,0.173,0.994,0.369l2.322,0.723l4.753,1.519
					c3.176,1.03,6.331,2.141,9.465,3.281c6.267,2.302,12.429,4.849,18.479,7.612c12.117,5.481,23.721,12.024,34.663,19.419
					c2.18,1.472,2.751,4.434,1.279,6.614c-1.343,1.987-3.926,2.639-6.023,1.619l-0.068-0.032
					c-11.353-5.505-23.093-10.071-35.129-13.562c-6.008-1.768-12.07-3.311-18.171-4.607c-3.054-0.637-6.108-1.245-9.182-1.777
					l-4.629-0.779l-2.38-0.383c-0.913-0.183-1.45-0.159-3.684-0.833c-5.298-2.019-7.954-7.952-5.935-13.247
					C2183.113,1525.217,2189.045,1522.561,2194.341,1524.58z" />
			</g>
		</g>
		<g>
			<g>
				<path style="fill:#390075;" d="M1425.828,1960.679c10.996,32.839,26.438,65.352,44.941,95.063
					c9.119,15.01,19.17,29.412,30.034,43.093c10.862,13.667,22.253,26.909,34.773,38.965c24.895,24.185,52.678,45.322,83.354,61.091
					c15.117,8.293,31.128,14.785,47.312,20.669c16.379,5.366,33.003,10.083,50.029,13.149c4.25,0.791,8.484,1.677,12.747,2.4
					l12.891,1.653c8.516,1.345,17.346,1.736,26.128,2.273l26.345,1.653c8.779,0.474,17.539,0.024,26.316,0.095
					c35.134,0.366,70.007-4.031,104.106-11.118c34.128-7.19,67.173-19.058,97.832-35.388c7.568-4.216,15.088-8.582,22.476-13.14
					c7.083-4.973,14.536-9.534,21.177-15.09c6.953-5.205,13.362-11.013,19.705-16.868c2.998-3.052,6.296-5.935,9.082-9.131
					c2.878-3.049,5.845-6.47,8.066-9.353l0.378-0.491c3.032-3.933,8.677-4.661,12.607-1.631c3.738,2.883,4.563,8.154,2.031,12.043
					c-2.942,4.497-5.684,8.054-8.708,11.804c-2.891,3.809-6.157,7.129-9.233,10.72c-6.479,6.782-13.147,13.396-20.303,19.404
					c-6.885,6.377-14.551,11.692-21.934,17.444c-7.654,5.32-15.479,10.435-23.389,15.393
					c-32.156,18.943-67.18,33.013-103.354,41.531c-36.084,8.723-73.13,13.721-110.056,13.955l-13.857,0.291
					c-4.617,0.044-9.253,0.364-13.84-0.063l-27.595-1.609c-9.197-0.535-18.374-0.916-27.683-2.319l-13.914-1.741
					c-4.614-0.759-9.209-1.692-13.816-2.532c-4.59-0.935-9.236-1.572-13.777-2.756l-13.628-3.511l-6.809-1.77l-6.699-2.173
					l-13.394-4.36c-17.605-6.533-35.005-13.792-51.431-22.949c-33.049-17.922-62.996-41.262-88.818-68.159
					c-25.82-26.953-47.661-57.334-65.439-89.705c-8.792-16.245-16.658-32.939-23.518-50.022
					c-6.865-17.18-12.788-34.316-17.048-52.82c-1.016-4.414,1.738-8.813,6.15-9.829c4.141-0.952,8.269,1.411,9.602,5.352
					L1425.828,1960.679z" />
			</g>
		</g>
		<g>
			<g>
				<path style="fill:#FFFFFF;" d="M1750.679,1162.568v0.06c-0.119,0.119-0.179,0.179-0.239,0.298
					c-0.119,0.119-0.119,0.179-0.179,0.239s-0.06,0.06-0.06,0.06c-61.021-3.281-137.013,7.755-181.154,15.509
					c-22.309,3.937-36.505,7.039-36.505,7.039c-39.13,141.786-109.873,242.413-173.161,308.922
					c-51.835,54.4-98.719,86.014-119.298,98.54c-7.098,4.354-11.035,6.442-11.035,6.442c-10.618,8.768-21.235,17.239-31.853,25.291
					c-0.179,0.179-0.418,0.298-0.596,0.478c-10.379,7.874-20.698,15.389-30.898,22.547l-0.477,0.298l-0.06,0.06
					c-119.238,83.688-224.16,119.537-224.16,119.537l-36.565-29.049l-66.509-52.73c-36.267-28.75-48.196-78.497-28.989-120.67
					l4.116-9.067l202.269-443.43c3.639-8.052,8.172-15.509,13.421-22.368c7.695-10.14,17-18.909,27.498-25.947
					c2.505-1.67,5.07-3.281,7.695-4.772c0.119-0.06,0.179-0.12,0.238-0.179c12.705-7.157,26.842-11.989,41.754-14.017l226.07-30.72
					c28.81-3.936,57.8,5.489,78.737,25.649l16.105,15.45l7.516,7.277c12.288-21.832,26.544-41.635,42.291-59.41
					c4.056-4.533,8.172-9.007,12.407-13.302c1.909-1.969,3.818-3.878,5.726-5.786c0.418-0.357,0.776-0.716,1.133-1.074
					c2.028-1.968,4.056-3.936,6.084-5.786c2.207-2.088,4.474-4.115,6.681-6.084c2.267-1.968,4.533-3.936,6.859-5.905
					c4.533-3.936,9.126-7.635,13.779-11.095c0.179-0.119,0.358-0.238,0.477-0.357c2.267-1.73,4.533-3.4,6.8-5.071
					c2.386-1.729,4.772-3.459,7.218-5.129c1.849-1.253,3.639-2.505,5.488-3.699c74.979-49.33,154.61-60.245,204.596-48.017
					c0.298,0.119,0.537,0.178,0.776,0.238c13.481,3.341,24.695,8.351,33.105,14.793c4.772,3.699,9.067,7.576,12.825,11.632
					C1875.107,999.488,1759.507,1151.295,1750.679,1162.568z" />
			</g>
		</g>
		<g>
			<g>
				<path style="fill:#0096F0;" d="M1165.702,1647.991l-0.537,0.358c-119.238,83.688-224.16,119.537-224.16,119.537l-103.074-81.779
					c-36.267-28.75-48.196-78.497-28.989-120.67l206.385-452.497c10.379-22.726,27.558-41.158,48.614-53.088
					c-6.8,6.86-82.256,151.27-61.498,306.358L1165.702,1647.991z" />
			</g>
		</g>
		<g style="opacity:0.6;">
			<g>
				<path style="fill:#FFFFFF;" d="M886.547,1710.61c-36.267-28.751-48.196-78.497-28.989-120.67l142.603-312.656
					c8.529-117.434,58.356-211.915,63.825-217.432c-21.056,11.93-38.235,30.362-48.614,53.088l-206.385,452.497
					c-19.207,42.172-7.277,91.919,28.989,120.67l103.074,81.779c0,0,4.304-1.477,12.051-4.473L886.547,1710.61z" />
			</g>
		</g>
		<g>
			<g>
				<path style="fill:#0096F0;" d="M1750.679,1162.568c-0.06,0.06,0,0.06,0,0.06c-0.239,0.239-0.358,0.418-0.418,0.537
					c-0.06,0.06-0.06,0.06-0.06,0.06c-61.021-3.281-137.013,7.755-181.154,15.509c-22.309,3.937-36.505,7.039-36.505,7.039
					c-39.13,141.786-109.873,242.413-173.161,308.922c-51.835,54.4-98.719,86.014-119.298,98.54
					c-7.098,4.354-11.035,6.442-11.035,6.442c-10.618,8.768-21.235,17.239-31.853,25.291c-0.179,0.179-0.418,0.298-0.596,0.478
					c-10.379,7.874-20.698,15.389-30.898,22.547l-0.537,0.358c0,0,0.358-0.477,1.014-1.372c0.059-0.06,0.059-0.06,0.059-0.06
					c13.481-18.969,155.803-220.105,182.586-336.957c26.842-117.031,80.228-235.136,85.178-245.873l0.179-0.417l0.179-0.358
					l42.291-59.41c4.056-4.533,8.172-9.007,12.407-13.302c1.909-1.969,3.818-3.878,5.726-5.786c0.418-0.357,0.776-0.716,1.133-1.074
					c2.028-1.968,4.056-3.936,6.084-5.786c2.207-2.088,4.474-4.115,6.681-6.084c2.267-1.968,4.533-3.936,6.859-5.905
					c4.533-3.817,9.126-7.516,13.779-11.095c0.179-0.119,0.358-0.238,0.477-0.357c2.267-1.73,4.533-3.4,6.8-5.071
					c2.386-1.729,4.772-3.459,7.218-5.129c69.968-48.615,151.091-70.087,210.083-51.716c0.298,0.119,0.537,0.178,0.776,0.238
					c8.649,2.744,16.761,6.383,24.337,10.857c8.47,5.01,15.449,10.857,21.056,17.298
					C1865.205,994.836,1758.493,1151.295,1750.679,1162.568z" />
			</g>
		</g>
		<g>
			<g>
				<path style="fill:#390075;" d="M941.007,1783.282c-3.428,0-6.807-1.145-9.57-3.335l-103.076-81.78
					c-41.87-33.193-55.615-90.4-33.428-139.114l206.387-452.503c11.543-25.278,30.322-45.906,54.35-59.705
					c0.313-0.208,0.63-0.403,0.952-0.586c14.648-8.252,30.542-13.589,47.236-15.859l226.069-30.723
					c33.682-4.597,67.031,6.265,91.489,29.814l9.688,9.321c10.146-15.915,21.543-31.033,34.023-45.122
					c50.801-57.4,116.88-97.813,186.055-113.792c59.604-13.762,115.537-7.832,145.962,15.491
					c24.59,18.845,38.979,44.004,42.764,74.778c11.064,89.968-74.033,198.083-77.661,202.642c-3.101,3.894-7.871,6.028-12.876,5.786
					c-74.761-4.043-174.424,14.346-204.551,20.364c-82.134,284.641-286.006,402.044-307.139,413.555
					c-20.117,16.614-41.348,32.783-63.13,48.076l-0.874,0.583c-119.321,83.757-223.325,119.788-227.695,121.279
					C944.361,1783.011,942.677,1783.282,941.007,1783.282z M1071.529,1073.246v0.002c-18.667,10.576-33.262,26.514-42.197,46.086
					l-206.382,452.49c-16.309,35.796-6.216,77.832,24.546,102.217l96.314,76.416c26.201-9.956,114.946-46.23,212.515-114.712
					l0.869-0.581c21.211-14.9,42.192-30.906,62.031-47.344c0.825-0.681,1.719-1.277,2.666-1.775
					c2.144-1.13,216.553-117.156,295.816-404.368c1.518-5.51,5.967-9.727,11.553-10.947c5.063-1.106,121.787-26.348,213.53-23.24
					c17.046-23.213,74.722-107.434,66.553-173.608c-2.783-22.559-12.901-40.239-30.928-54.053
					c-43.438-33.289-186.626-22.788-290.234,94.275c-15.396,17.383-28.989,36.475-40.4,56.758c-2.339,4.15-6.465,6.987-11.177,7.681
					c-4.727,0.679-9.483-0.837-12.915-4.138l-23.623-22.727c-17.632-16.978-41.68-24.805-65.977-21.489l-226.079,30.723
					c-12.607,1.714-24.614,5.703-35.698,11.856C1072.047,1072.936,1071.788,1073.097,1071.529,1073.246z" />
			</g>
		</g>
		<g>
			<g>
				<path style="fill:#390075;" d="M1165.172,1663.744c-4.072,0-8.106-1.611-11.099-4.724c-5.161-5.361-5.742-13.643-1.392-19.678
					c1.538-2.131,154.063-214.583,181.138-332.82c27.666-120.63,82.754-241.382,86.123-248.699c0.151-0.359,0.366-0.84,0.488-1.074
					c0.351-0.698,0.933-1.728,1.387-2.366l42.29-59.409c0.318-0.442,0.654-0.869,1.016-1.274
					c94.189-106.436,238.535-152.739,321.763-103.24c25.112,14.937,40.884,36.885,46.885,65.229
					c18.75,88.608-67.339,211.265-71.016,216.443c-3.057,4.307-8.057,6.729-13.384,6.465
					c-74.824-4.043-174.439,14.343-204.551,20.364c-82.134,284.639-286.006,402.044-307.139,413.555
					c-20.117,16.614-41.348,32.783-63.13,48.076l-0.874,0.583C1171.08,1662.901,1168.116,1663.744,1165.172,1663.744z
					 M1447.745,1071.058c-4.556,9.944-57.309,126.33-83.916,242.344c-18.159,79.304-86.314,193.792-134.946,268.604
					c37.749-22.717,217.7-142.6,288.823-400.33c1.518-5.508,5.967-9.724,11.553-10.945c5.054-1.104,121.255-26.191,212.998-23.259
					c17.104-26.042,75.127-120.625,61.382-185.437c-4.209-19.851-14.839-34.607-32.495-45.11
					c-69.79-41.516-198.975,2.708-282.427,96.577L1447.745,1071.058z" />
			</g>
		</g>
		<g>
			<g>
				<path style="fill:#390075;" d="M1165.172,1663.744c-4.072,0-8.106-1.611-11.099-4.724c-5.161-5.361-5.742-13.643-1.392-19.678
					c1.533-2.131,154.063-214.583,181.138-332.82c27.661-120.613,82.744-241.353,86.118-248.696c0.156-0.359,0.371-0.84,0.493-1.077
					c0.351-0.701,0.933-1.728,1.387-2.366l42.29-59.409c0.318-0.442,0.654-0.869,1.016-1.274
					c87.295-98.638,224.756-143.457,319.766-104.238c7.285,3.008,11.123,11.035,8.892,18.594
					c-2.236,7.561-9.775,12.224-17.573,10.774c-160.112-29.692-227.964,267.275-228.633,270.278
					c-0.054,0.256-0.117,0.508-0.19,0.762c-80.366,291.226-288.345,411.013-309.702,422.646
					c-20.117,16.614-41.348,32.783-63.13,48.076l-0.874,0.583C1171.08,1662.901,1168.116,1663.744,1165.172,1663.744z
					 M1447.745,1071.056c-4.556,9.944-57.309,126.333-83.916,242.346c-18.159,79.304-86.314,193.792-134.946,268.604
					c37.73-22.705,217.529-142.49,288.721-399.963c3.184-14.167,47.783-204.568,155.493-272.407
					c-61.69,9.727-130.566,43.357-184.38,103.867L1447.745,1071.056z" />
			</g>
		</g>
		<g>
			<g>
				<path style="fill:#390075;" d="M941.007,1780.717c-2.857,0-5.674-0.955-7.974-2.778l-103.076-81.78
					c-40.942-32.461-54.39-88.403-32.69-136.04l206.387-452.502c11.426-25.022,30.083-45.398,53.965-58.926
					c5.581-3.159,12.627-1.716,16.518,3.372c3.755,4.912,3.452,11.772-0.625,16.338c-8.911,12.095-77.021,149.109-58.682,293.603
					l161.973,279.558c3.403,5.867,1.646,13.369-4.004,17.122l-0.537,0.356c-119.087,83.584-222.754,119.5-227.104,120.989
					C943.799,1780.489,942.398,1780.717,941.007,1780.717z M1010.23,1155.035L820.616,1570.76
					c-16.797,36.873-6.401,80.173,25.283,105.293l97.456,77.319c23.755-8.943,109.409-43.445,205.313-109.194L991.344,1372.64
					c-0.845-1.455-1.396-3.061-1.616-4.729C979.097,1288.512,992.701,1212.665,1010.23,1155.035z M1073.394,1068.526
					c-0.112,0.122-0.225,0.242-0.342,0.359C1073.15,1068.788,1073.267,1068.671,1073.394,1068.526z" />
			</g>
		</g>
		<g style="opacity:0.3;">
			<g>
				<path style="fill:#390075;" d="M1814.068,925.256c-0.179,0.596-0.358,1.193-0.537,1.729
					c-25.947,81.063-79.154,153.775-149.003,202.271c-27.021,18.729-57.084,34.596-82.017,55.473
					c-11.632,9.723-22.19,20.52-30.779,33.164c-16.821,24.755-24.635,54.281-35.312,82.256
					c-29.884,77.962-82.256,142.978-143.575,200.54c-37.459,35.253-78.259,67.701-119.298,98.54
					c-6.144,4.653-12.288,9.245-18.431,13.779c-8.112,6.025-16.284,12.049-24.456,17.954c-0.179,0.179-0.418,0.299-0.596,0.478
					c-10.021,7.277-20.102,14.435-30.361,21.474c0,0,0,0-0.059,0.06c-45.93,31.554-94.067,59.768-146.975,76.768
					c-36.684,11.81-76.291,17.536-114.764,15.091l-66.509-52.73c-36.267-28.75-48.196-78.498-28.989-120.67l4.116-9.067
					c3.698,2.446,7.396,4.772,11.214,6.979c32.508,18.909,73.786,29.288,107.607,12.705c21.653-10.618,37.161-30.958,47.839-52.67
					c35.789-72.832,22.726-158.786,16.702-239.729c-4.951-65.971-1.789-139.041,32.33-193.084
					c7.814-12.347,17.179-23.681,28.453-33.702c-0.358,2.565-0.716,5.13-0.955,7.755c-7.516,73.13,30.779,153.417,100.091,177.396
					c68.059,23.501,144.708-11.93,193.322-65.017c32.449-35.492,55.653-77.723,77.186-120.968l7.516,7.277
					c12.288-21.832,26.544-41.635,42.291-59.41c4.056-4.533,8.172-9.007,12.407-13.302c1.909-1.969,3.818-3.878,5.726-5.786
					c0.418-0.357,0.776-0.716,1.133-1.074c2.028-1.968,4.056-3.936,6.084-5.786c2.207-2.088,4.474-4.115,6.681-6.084
					c2.267-1.968,4.533-3.936,6.859-5.905c4.533-3.936,9.126-7.635,13.779-11.095c0.179-0.119,0.358-0.238,0.477-0.357
					c2.267-1.73,4.533-3.4,6.8-5.071c2.386-1.729,4.772-3.459,7.218-5.129c1.849-1.253,3.639-2.505,5.488-3.699
					c68.716-45.989,147.154-65.912,204.596-48.017c0.298,0.119,0.537,0.178,0.775,0.238c13.481,3.341,24.695,8.351,33.105,14.793
					C1806.015,917.323,1810.31,921.199,1814.068,925.256z" />
			</g>
		</g>
		<g>
			<g>
				<path style="fill:#FC5520;" d="M2530.589,2949.651c0,4.653-1.014,8.35-2.982,11.392c-14.435,23.442-82.375,7.396-163.796,63.348
					c-92.038,63.288-109.277,103.551-212.828,103.551c0,0,78.856,69.013,94.067,155.325c15.21,86.253-38.176,178.292,0,253.031
					c0,0-295.382,28.81-358.669-431.381c0,0,18.551,5.07,42.888,5.905c31.435,1.133,72.414-4.951,95.14-38.473
					c23.859-35.253,19.446-71.818,11.87-95.737c-5.189-16.463-11.87-26.961-11.87-26.961s0.06-0.06,0.119-0.06
					c4.354-3.341,145.782-109.218,275.996-109.218c116.136,0,205.61,53.147,225.771,93.411
					C2529.098,2939.391,2530.589,2944.759,2530.589,2949.651z" />
			</g>
		</g>
		<g style="opacity:0.6;">
			<g>
				<path style="fill:#FFFFFF;" d="M2530.589,2949.651c0,4.653-1.014,8.35-2.982,11.392c-21.175-14.375-42.53-28.452-66.389-39.547
					c-49.151-22.727-103.849-36.028-157.712-30.063c-61.737,6.86-117.688,38.056-175.965,59.649
					c-29.646,10.975-60.186,19.505-91.263,25.53c-5.189-16.463-11.87-26.961-11.87-26.961s0.06-0.06,0.119-0.06
					c4.354-3.341,145.782-109.218,275.996-109.218c116.136,0,205.61,53.147,225.771,93.411
					C2529.098,2939.391,2530.589,2944.759,2530.589,2949.651z" />
			</g>
		</g>
		<g>
			<g>
				<path style="fill:#390075;" d="M2240.538,3551.776c-19.263,0-86.284-3.745-159.512-51.333
					c-77.3-50.23-176.47-161.216-209.961-404.702c-0.679-4.946,1.084-9.912,4.727-13.33c3.643-3.408,8.711-4.854,13.608-3.853
					c25.405,5.171,102.402,13.511,122.383-15.049c34.404-49.189,3.926-110.933,2.368-114.014
					c-3.535-6.543-1.895-14.854,4.185-19.517c0.005,0,0.005-0.005,0.01-0.005c0.078-0.063,0.161-0.122,0.239-0.181l2.207-1.621
					c0.474-0.347,0.957-0.664,1.45-0.952c23.999-16.592,154.189-102.256,278.271-102.256c132.197,0,245.464,68.55,245.464,124.668
					c0,32.236-29.761,37.881-58.535,43.34c-29.585,5.61-70.098,13.296-114.927,44.092c-22.422,15.42-40.444,29.541-56.348,42.002
					c-41.777,32.734-71.553,56.069-130.107,62.48c25.801,28.804,63.672,79.634,74.141,139.033
					c7.031,39.883,0.522,79.829-5.771,118.462c-7.734,47.48-15.044,92.324,4.321,130.239c2.363,4.629,2.231,10.136-0.347,14.648
					c-2.583,4.507-7.266,7.412-12.451,7.72C2245.504,3551.678,2243.643,3551.776,2240.538,3551.776z M1904.62,3112.177
					c27.241,171.924,93.252,296.626,191.563,361.392c50.83,33.481,98.936,43.398,125.835,46.265
					c-11.875-40.459-4.829-83.701,2.021-125.742c5.884-36.099,11.963-73.428,5.84-108.164
					c-14.058-79.78-88.306-145.772-89.058-146.426c-4.814-4.228-6.509-11.006-4.253-17.002c2.261-5.996,7.993-9.971,14.404-9.971
					c72.563,0,98.721-20.493,146.206-57.7c16.255-12.74,34.683-27.173,57.896-43.14c50.171-34.463,96.182-43.193,126.626-48.965
					c29.546-5.605,33.486-7.71,33.486-13.091c0-27.075-85.557-93.877-214.673-93.877c-106.973,0-220.034,69.526-253.565,91.865
					c9.819,25.049,25.645,82.666-9.932,133.535C2009.996,3119.789,1940.675,3116.752,1904.62,3112.177z" />
			</g>
		</g>
		<g>
			<g>
				<path style="fill:#390075;" d="M2047,2978.076c27.251,1.143,55.166-4.265,82.646-12.605
					c27.554-8.323,54.814-19.456,82.727-29.856c28.015-10.41,56.929-19.695,87.029-24.341c29.939-4.658,61.56-4.231,90.676,5.691
					c2.678,0.903,4.114,3.806,3.21,6.484c-0.872,2.576-3.621,3.997-6.211,3.293c-27.637-7.642-56.904-6.37-84.922-0.347
					c-28.14,6.025-55.339,16.479-82.078,28.225c-26.87,11.812-53.738,24.69-82.283,35.171
					c-28.445,10.444-59.014,18.513-91.067,19.072l-0.105,0.002c-8.506,0.149-15.52-6.626-15.669-15.132s6.626-15.522,15.132-15.671
					C2046.377,2978.059,2046.714,2978.064,2047,2978.076z" />
			</g>
		</g>
		<g>
			<g>
				<path style="fill:#390075;" d="M1988.499,3097.673c11.504,10.908,22.351,23.069,31.262,36.65
					c9.036,13.503,15.859,28.176,21.348,42.803c10.701,29.434,17.341,58.525,25.828,86.917c8.394,28.281,18.32,55.857,34.121,80.017
					c15.593,24.058,36.948,45.066,63.696,55.569l0.078,0.032c2.678,1.05,3.994,4.072,2.944,6.75
					c-1.025,2.607-3.931,3.921-6.555,3.015c-7.393-2.568-14.602-5.701-21.453-9.514c-6.78-3.906-13.325-8.252-19.397-13.179
					c-12.146-9.841-22.786-21.401-31.926-33.948c-18.474-25.132-30.591-53.992-40.764-82.446
					c-10.249-28.43-18.503-57.478-30.02-83.677c-5.84-13.042-12.527-25.298-20.852-36.211c-8.218-10.991-18.03-20.75-28.801-29.795
					c-6.521-5.461-7.378-15.176-1.917-21.697c5.464-6.521,15.178-7.38,21.699-1.917
					C1988.018,3097.234,1988.284,3097.473,1988.499,3097.673z" />
			</g>
		</g>
		<g>
			<g>
				<path style="fill:#390075;" d="M2048.357,3015.674c28.118,4.746,56.724,6.99,85.491,6.172
					c28.76-0.796,57.634-4.668,86.118-11.157c1.855-0.422,3.704,0.737,4.126,2.593c0.388,1.702-0.557,3.396-2.146,3.992
					c-27.71,10.417-56.599,18.428-86.267,23.318c-29.656,4.915-60.02,6.687-90.308,5.728l-0.071-0.002
					c-8.521-0.269-15.208-7.393-14.937-15.913c0.269-8.518,7.395-15.208,15.913-14.937
					C2046.953,3015.488,2047.705,3015.569,2048.357,3015.674z" />
			</g>
		</g>
		<g>
			<g>
				<path style="fill:#390075;" d="M2036.309,3063.76c18.167,14.009,35.43,30.271,48.914,49.448
					c13.557,19.133,22.729,40.718,28.503,62.478c0.933,3.508-1.157,7.107-4.666,8.037c-3.218,0.854-6.516-0.845-7.759-3.838
					c-8.213-19.751-19.155-37.896-33.196-52.93c-14.009-15.093-30.857-27.195-48.999-37.659c-7.383-4.258-9.917-13.694-5.659-21.079
					c4.258-7.383,13.696-9.917,21.079-5.657c0.579,0.332,1.128,0.698,1.646,1.091L2036.309,3063.76z" />
			</g>
		</g>
		<g>
			<g>
				<path style="fill:#994E31;" d="M2866.353,521.64c-3.221,10.617-14.256,16.642-24.873,13.779l-0.537-0.179
					c-8.351-2.267-17.895-4.533-27.081-6.501c-9.245-2.028-18.551-3.937-27.916-5.667c-18.67-3.519-37.52-6.502-56.428-9.067
					c-37.817-5.19-75.873-8.649-113.989-10.558c-76.291-3.877-152.761-1.551-228.515,6.383
					c-75.694,8.053-150.673,22.368-223.743,42.888c-73.13,20.519-144.351,47.242-212.827,79.572
					c-137.073,64.779-261.799,154.014-370.182,259.831c-13.779,13.063-26.782,26.902-40.084,40.323
					c-12.944,13.48-25.41,27.438-37.579,41.635c-24.277,28.453-47.122,58.217-68.238,89.235
					c-42.291,61.856-78.319,128.186-108.203,197.259c-59.708,138.326-95.319,287.091-109.634,437.525
					c-14.078,150.435-7.814,303.136,21.056,451.006c28.929,147.571,80.466,291.266,160.038,415.992
					c33.761,52.491,72.652,101.344,116.971,143.873c8.052,7.814,16.284,15.33,24.755,22.667
					c54.638,47.54,116.792,85.358,183.957,109.754c24.993,9.067,37.877,36.684,28.81,61.677
					c-9.067,24.993-36.684,37.878-61.677,28.811l-0.179-0.06h-0.06c-78.856-28.99-151.329-73.727-213.543-128.365
					c-20.698-18.074-40.263-37.221-58.695-57.204c-37.519-40.441-70.684-84.403-99.972-130.332
					c-21.831-34.417-41.515-69.968-59.291-106.354c-17.596-36.446-33.344-73.607-47.242-111.424
					c-27.856-75.576-48.554-153.358-63.287-231.976c-14.674-78.677-23.263-158.248-26.186-237.939
					c-2.923-79.751-0.238-159.621,8.351-238.894c17.06-158.428,56.547-315.006,121.863-461.325
					c32.688-73.01,71.937-143.337,118.165-209.129c23.024-32.867,47.898-64.541,74.442-94.843
					c13.302-15.091,26.902-29.943,41.039-44.259c14.137-14.077,28.035-28.214,42.709-41.635
					c115.838-108.919,248.915-200.48,394.1-265.796c145.007-65.912,301.526-104.565,459.238-117.568
					c78.916-6.502,158.189-6.323,236.926,0.298c39.309,3.281,78.557,8.112,117.509,14.733c19.446,3.34,38.891,7.039,58.217,11.333
					c9.663,2.088,19.326,4.414,28.989,6.8c9.723,2.505,19.028,4.951,29.288,8.112
					C2863.609,499.391,2869.693,510.844,2866.353,521.64z" />
			</g>
		</g>
		<g>
			<g>
				<path style="fill:#9E3221;" d="M1752.11,2903.065c-9.067,24.993-36.684,37.878-61.677,28.811l-0.179-0.06h-0.06
					c-78.856-28.99-151.329-73.727-213.543-128.365c-20.698-18.074-40.263-37.221-58.695-57.204
					c30.242-4.95,59.589-15.27,86.253-30.242c3.4-1.908,6.859-4.294,10.379-7.039c8.052,7.814,16.284,15.33,24.755,22.667
					c54.638,47.54,116.792,85.358,183.957,109.754C1748.293,2850.455,1761.177,2878.072,1752.11,2903.065z" />
			</g>
		</g>
		<g>
			<g>
				<path style="fill:#390075;" d="M1706.798,2950.17c-7.183,0-14.482-1.23-21.616-3.818
					c-78.941-28.98-152.422-73.125-218.687-131.323c-59.663-52.202-113.999-116.416-161.47-190.84
					c-21.568-33.994-41.797-70.268-60.151-107.851c-17.788-36.816-33.887-74.78-47.876-112.896
					c-27.007-73.242-48.521-152.129-63.936-234.443c-14.561-77.939-23.467-158.762-26.47-240.227
					c-2.983-80.823-0.156-161.939,8.403-241.094c17.974-166.465,59.394-323.228,123.125-465.928
					c33.921-75.771,74.17-146.997,119.634-211.711c23.154-33.059,48.54-65.41,75.444-96.14
					c14.644-16.646,28.257-31.338,41.641-44.944l8.931-8.87c11.084-11.028,22.544-22.432,34.404-33.303
					c120.801-113.621,254.814-204.006,398.179-268.508c143.687-65.322,299.902-105.308,464.258-118.816
					c79.087-6.526,159.658-6.433,239.468,0.278c40.596,3.391,80.571,8.406,118.813,14.907c20.981,3.562,40.278,7.31,58.984,11.455
					c9.468,2.073,19.375,4.412,29.409,6.943c9.175,2.334,19.141,4.949,30.068,8.308c9.15,2.815,16.665,9.026,21.152,17.493
					c4.487,8.464,5.405,18.171,2.593,27.327c-5.718,18.584-24.902,29.158-43.647,24.087l-0.527-0.144
					c-0.005,0-0.01-0.002-0.015-0.002c-7.188-1.956-16.045-4.089-26.313-6.338c-9.341-2.039-18.574-3.904-27.427-5.542
					c-17.671-3.325-35.884-6.257-55.723-8.967c-36.294-4.973-74.214-8.494-112.705-10.459
					c-74.023-3.772-150.088-1.641-226.099,6.323c-74.727,7.947-149.175,22.212-221.25,42.397
					c-71.943,20.237-142.725,46.719-210.361,78.711c-132.178,62.449-255.332,148.892-366.045,256.929
					c-9.321,8.838-18.403,18.164-27.183,27.183c-4.219,4.331-8.433,8.66-12.676,12.942c-11.631,12.119-23.74,25.527-36.86,40.815
					c-23.999,28.123-46.607,57.693-67.168,87.859c-40.718,59.534-76.65,125.049-106.807,194.746
					c-57.231,132.542-93.716,278.167-108.433,432.82c-14.287,152.566-7.271,302.835,20.854,446.614
					c30.576,156.182,83.691,294.346,157.866,410.645c41.274,64.16,88.008,119.087,138.877,163.208
					c54.785,47.705,115.029,83.677,179.077,106.924c32.925,11.953,49.99,48.467,38.042,81.397
					C1757.213,2934.105,1732.774,2950.165,1706.798,2950.17z M2498.389,465.421c-38.599,0-77.095,1.572-115.254,4.724
					c-160.811,13.218-313.589,52.307-454.092,116.184c-140.298,63.122-271.47,151.604-389.922,263.018
					c-11.538,10.579-22.773,21.755-33.633,32.563l-8.843,8.782c-12.837,13.049-26.069,27.332-40.308,43.516
					c-26.148,29.868-50.84,61.343-73.374,93.513c-44.351,63.127-83.618,132.629-116.733,206.597
					c-62.412,139.749-102.998,293.398-120.62,456.667c-8.403,77.686-11.177,157.307-8.247,236.65
					c2.949,79.954,11.684,159.253,25.962,235.703c15.098,80.615,36.152,157.823,62.568,229.473
					c13.652,37.192,29.35,74.219,46.675,110.068c17.827,36.504,37.5,71.777,58.433,104.78
					c45.884,71.928,98.306,133.921,155.791,184.214c63.423,55.698,133.638,97.905,208.716,125.469
					c17.129,6.231,35.967-2.573,42.124-19.536c6.157-16.968-2.637-35.786-19.604-41.943
					c-67.627-24.551-131.138-62.442-188.769-112.627c-53.052-46.021-101.714-103.169-144.604-169.839
					c-76.289-119.619-130.835-261.362-162.153-421.343c-28.691-146.672-35.854-299.898-21.294-455.422
					c15.024-157.881,52.31-306.631,110.82-442.141c30.942-71.509,67.832-138.76,109.648-199.893
					c21.167-31.057,44.453-61.518,69.194-90.515c13.525-15.759,26.016-29.583,38.213-42.292c4.351-4.392,8.506-8.657,12.661-12.927
					c8.994-9.236,18.291-18.784,27.9-27.893c112.998-110.271,238.965-198.667,374.229-262.576
					c69.184-32.722,141.592-59.812,215.2-80.518c73.74-20.652,149.888-35.242,226.343-43.374
					c77.607-8.125,155.278-10.298,230.894-6.453c39.365,2.012,78.159,5.613,115.313,10.703c20.347,2.781,39.058,5.793,57.197,9.207
					c9.131,1.687,18.682,3.618,28.354,5.73c10.776,2.361,20.137,4.617,27.817,6.706l0.513,0.139
					c2.637,0.703,5.352-0.784,6.162-3.413c0.537-1.746,0-3.171-0.366-3.865c-0.371-0.696-1.245-1.939-2.993-2.476
					c-9.722-2.991-18.457-5.317-28.584-7.896c-9.688-2.444-19.277-4.707-28.467-6.719c-18.242-4.043-37.046-7.693-57.524-11.169
					c-37.388-6.357-76.489-11.262-116.221-14.58C2577.901,467.086,2538.092,465.421,2498.389,465.421z" />
			</g>
		</g>
		<g>
			<g>
				<path style="fill:#9DA9B9;" d="M3482.825,2106.095c-27.379,55.295-92.992,88.698-154.61,84.582
					c-3.161,7.635-6.561,15.747-9.782,23.442c-1.252-0.239-2.565-0.477-3.817-0.715c19.147,15.567,31.435,39.367,31.435,66.031
					c0,46.944-38.056,85-85,85c-46.944,0-85-38.056-85-85c0-40.621,28.512-74.621,66.688-82.972
					c-2.863-18.372-3.877-39.368,9.902-51.417c12.884-11.274,32.21-8.828,49.389-9.185c33.165-0.776,67.94-17.656,80.765-48.197
					c10.916-26.126,3.042-58.576-17.895-77.663s-53.147-24.098-79.393-13.54c-26.305,10.558-45.81,35.73-50.761,63.586
					c-26.186-25.828-36.803-66.569-23.084-100.688c13.779-34.179,44.796-59.709,79.691-71.579
					c58.396-19.923,128.007-1.312,168.747,45.095C3500.779,1979.282,3510.144,2050.741,3482.825,2106.095z" />
			</g>
		</g>
		<g style="opacity:0.6;">
			<g>
				<g>
					<path style="fill:#FFFFFF;" d="M3333.433,2244.119c-1.252-0.239-2.566-0.476-3.818-0.715c4.985,4.055,9.492,8.677,13.452,13.75
						c-1.755-6.475-4.241-12.646-7.385-18.408C3334.929,2240.54,3334.17,2242.358,3333.433,2244.119z" />
				</g>
			</g>
			<g>
				<g>
					<path style="fill:#FFFFFF;" d="M3226.66,1989.358c13.779-34.177,44.797-59.707,79.692-71.577
						c58.396-19.924,128.005-1.313,168.745,45.095c4.707,5.369,8.948,11.104,12.808,17.08c-6.418-17.183-15.688-33.257-27.808-47.08
						c-40.74-46.409-110.349-65.02-168.745-45.095c-34.895,11.87-65.913,37.4-79.692,71.577
						c-11.814,29.382-5.547,63.65,13.132,89.099C3218.958,2029.163,3219.065,2008.25,3226.66,1989.358z" />
				</g>
			</g>
			<g>
				<g>
					<path style="fill:#FFFFFF;" d="M3191.05,2309.436c0-40.623,28.513-74.622,66.687-82.974
						c-2.861-18.372-3.877-39.368,9.902-51.416c12.883-11.274,32.212-8.828,49.39-9.187c33.164-0.776,67.939-17.656,80.764-48.196
						c9.814-23.491,4.402-52.063-12.002-71.467c3.22,13.762,2.461,28.406-2.998,41.467c-12.825,30.54-47.6,47.419-80.764,48.196
						c-17.178,0.359-36.506-2.087-49.39,9.187c-13.779,12.048-12.764,33.044-9.902,51.416
						c-38.174,8.352-66.687,42.351-66.687,82.974c0,19.714,6.775,37.815,18.04,52.234
						C3192.168,2324.573,3191.05,2317.141,3191.05,2309.436z" />
				</g>
			</g>
		</g>
		<g>
			<g>
				<path style="fill:#390075;" d="M1443.443,2621.454c-3.262,0-6.47-1.553-8.462-4.443
					c-137.168-199.16-195.02-542.198-158.716-941.155c17.505-192.392,69.976-367.271,155.952-519.78
					c76.006-134.819,178.672-253.252,305.151-352.004c198.882-155.286,416.665-231.077,564.341-267.315
					c169.351-41.553,345.088-54.763,470.068-35.332c179.849,27.959,288.979,145.544,348.857,239.26
					c72.827,113.982,111.938,256.294,104.619,380.688c-8.857,150.635-118.066,316.641-233.687,492.395
					c-85.415,129.839-173.74,264.099-219.365,392.761c-49.082,138.411-41.689,267.649,20.815,363.908
					c47.383,72.969,122.295,120.181,200.386,126.299c83.291,6.553,148.145-11.128,192.813-52.466
					c63.877-59.121,64.546-147.93,64.546-148.823c-0.005-5.664,4.58-10.264,10.244-10.278c0.005,0,0.015,0,0.02,0
					c5.654,0,10.244,4.57,10.264,10.225c0.015,3.989-0.488,98.394-70.952,163.77c-49.048,45.513-119.194,65.029-208.535,58.042
					c-84.419-6.616-165.166-57.3-216.001-135.586c-66.06-101.738-74.209-237.383-22.944-381.951
					c46.455-131.006,135.474-266.323,221.563-397.183c114.067-173.394,221.807-337.168,230.347-482.319
					c12.969-220.457-131.382-551.079-436.143-598.46c-205.127-31.885-663.096,20.959-1018.623,298.542
					c-268.057,209.294-420.566,497.788-453.296,857.466c-35.874,394.26,20.688,732.376,155.181,927.654
					c3.218,4.668,2.036,11.06-2.632,14.272C1447.476,2620.868,1445.45,2621.454,1443.443,2621.454z" />
			</g>
		</g>
		<g>
			<g>
				<path style="fill:#390075;" d="M3261.051,2379.833c-55.356,0-100.396-45.039-100.396-100.396
					c0-42.041,26.733-79.575,65.259-94.019c-1.411-18.364,0.894-38.237,16.587-51.958c15.103-13.208,34.878-13.071,50.762-12.974
					c2.837,0.02,5.669,0.034,8.447-0.015c25.42-0.596,55.991-12.818,66.89-38.77c8.32-19.917,2.407-45.298-14.072-60.327
					c-16.172-14.734-42.188-19.111-63.271-10.632c-21.011,8.43-37.236,28.84-41.353,52c-1.001,5.63-5.039,10.239-10.488,11.973
					c-5.444,1.733-11.406,0.313-15.479-3.706c-31.592-31.162-42.266-78.34-26.558-117.395c14.668-36.384,47.944-66.44,89.019-80.41
					c64.229-21.924,140.435-1.56,185.269,49.514c44.766,51.067,55.029,129.273,24.961,190.191c0,0.01-0.005,0.015-0.005,0.02
					c-27.837,56.221-91.553,93.501-157.764,93.501c-0.171,0-0.347-0.005-0.518-0.005c-0.835,1.997-1.67,3.994-2.505,5.986
					c16.426,18.301,25.61,42.002,25.61,67.026C3361.446,2334.794,3316.407,2379.833,3261.051,2379.833z M3288.614,2151.259
					c-10.63,0-20.298,0.527-25.84,5.376c-6.489,5.678-7.979,17.227-4.824,37.456c1.255,8.042-3.97,15.674-11.919,17.412
					c-31.631,6.919-54.585,35.488-54.585,67.935c0,38.379,31.226,69.604,69.604,69.604s69.604-31.226,69.604-69.604
					c0-21.064-9.385-40.781-25.752-54.092c-5.474-4.448-7.222-12.051-4.243-18.442c1.523-3.276,4.092-5.811,7.168-7.319
					c2.075-4.971,4.165-9.976,6.157-14.79c2.524-6.104,8.662-9.902,15.254-9.478c57.329,3.779,116.06-28.154,139.78-76.04
					c24.697-50.053,16.27-114.307-20.498-156.252c-36.831-41.951-99.419-58.679-152.197-40.674
					c-32.72,11.13-59.028,34.592-70.386,62.766c-7.842,19.502-5.933,42.749,4.048,62.529c10.962-20.413,28.716-37.017,49.79-45.471
					c32.129-12.939,70.518-6.323,95.493,16.45c26.187,23.875,35.122,62.927,21.729,94.978
					c-16.24,38.682-59.219,56.821-94.609,57.651c-3.091,0.073-6.201,0.049-9.336,0.024
					C3291.563,2151.268,3290.079,2151.259,3288.614,2151.259z M3482.823,2106.097h0.049H3482.823z" />
			</g>
		</g>
		<g>
			<g>

					<ellipse transform="matrix(0.2298 -0.9732 0.9732 0.2298 297.3664 4927.5537)" style="fill:#390075;" cx="3261.8" cy="2275.907" rx="32.73" ry="32.73" />
			</g>
		</g>
		<g>
			<g>
				<path style="fill:#FA9B27;" d="M2039.738,2689.104c-230.125,63.287-488.942-26.842-488.942-26.842
					s-69.014,88.817-170.656,66.448c-51.775-11.392-100.926-47.48-129.617-95.021c-27.677-45.751-36.386-102.179-10.319-157.414
					c32.27-68.358,109.277-139.937,249.273-153.358c139.937-13.421,487.034,80.586,642.3,61.379l71.937-62.691
					c0,0,8.172,37.46,8.768,88.877C2213.615,2505.505,2189.039,2648.006,2039.738,2689.104z" />
			</g>
		</g>
		<g style="opacity:0.6;">
			<g>
				<path style="fill:#FFFFFF;" d="M1231.387,2531.352c32.27-68.357,109.277-139.936,249.273-153.357
					c130.162-12.484,439.557,67.978,607.094,63.822c21.812-0.541,42.683-8.959,59.133-23.294l48.011-41.84
					c0,0,5.83,26.845,7.994,66.215c0.676-11.768,0.903-23.165,0.774-33.93c-0.596-51.417-8.768-88.877-8.768-88.877l-71.937,62.691
					c-155.266,19.207-502.363-74.8-642.3-61.379c-139.996,13.421-217.003,85-249.273,153.358
					c-15.393,32.618-18.585,65.636-12.979,96.644C1220.87,2558.094,1225.093,2544.69,1231.387,2531.352z" />
			</g>
		</g>
		<g>
			<g>
				<path style="fill:#390075;" d="M1413.409,2747.796c-11.665,0-23.857-1.24-36.553-4.033
					c-61.465-13.525-119.644-59.844-148.213-118.008c-25-50.898-25.84-106.313-2.363-156.035l0,0
					c20.376-43.159,86.665-145.352,261.699-162.139c68.291-6.533,180.85,11.181,300.034,29.956
					c126.514,19.922,257.241,40.547,337.246,32.012l68.32-59.561c4.106-3.579,9.795-4.727,14.961-3.008
					c5.166,1.714,9.043,6.025,10.2,11.348c0.698,3.218,16.973,79.775,4.478,165.518c-16.963,116.382-79.004,192.495-179.424,220.112
					c-209.238,57.539-437.383-7.729-488.061-23.853C1537.418,2699.989,1485.845,2747.796,1413.409,2747.796z M1254.122,2482.865
					c-24.854,52.646-12.544,99.38,2.158,129.316c24.6,50.078,74.526,89.922,127.197,101.514
					c90.581,19.922,152.588-57.588,155.186-60.899c4.063-5.18,10.986-7.217,17.197-5.068c2.549,0.884,257.168,87.754,479.771,26.543
					c88.75-24.409,141.572-89.707,157.002-194.092c7.573-51.201,3.936-99.941,0.264-128.745l-51.011,44.473
					c-2.314,2.017-5.181,3.296-8.228,3.672c-83.828,10.361-219.36-10.981-350.435-31.626
					c-117.202-18.457-227.91-35.913-292.305-29.717C1331.617,2353.51,1272.252,2444.467,1254.122,2482.865L1254.122,2482.865z" />
			</g>
		</g>
		<g>
			<g>
				<path style="fill:#390075;" d="M1539.456,2651.868c-0.032,0.093,0.393-0.374,0.688-0.681c0.308-0.295,0.654-0.737,0.994-1.133
					c0.691-0.774,1.367-1.641,2.034-2.551c1.387-1.731,2.607-3.73,3.872-5.657c2.361-4.004,4.648-8.179,6.355-12.644
					c3.628-8.848,5.864-18.398,6.931-28.232c0.671-9.858,0.513-19.983-1.208-30.083c-0.586-5.083-2.153-10.039-3.171-15.12
					c-1.44-4.983-3.169-9.922-4.736-14.932l-0.244-0.776c-1.306-4.167,1.016-8.606,5.183-9.91c3.867-1.213,7.966,0.698,9.58,4.312
					c2.334,5.203,4.822,10.374,7.029,15.693c1.804,5.476,4.133,10.818,5.491,16.509c3.247,11.233,4.885,23.037,5.391,35.042
					c0.107,12.021-1.26,24.236-4.602,36.135c-1.56,5.977-3.853,11.787-6.428,17.529c-1.399,2.842-2.749,5.688-4.451,8.477
					c-0.801,1.396-1.653,2.798-2.615,4.204c-0.471,0.703-0.903,1.387-1.475,2.141c-0.564,0.757-0.974,1.372-1.919,2.483
					c-5.747,6.27-15.486,6.692-21.753,0.947C1534.133,2667.874,1533.708,2658.135,1539.456,2651.868z" />
			</g>
		</g>
		<g>
			<g>
				<path style="fill:#390075;" d="M1298.337,2672.766c7.8,0.322,16.995-0.027,25.559-0.671c8.711-0.669,17.415-1.755,26.045-3.225
					c17.271-2.917,34.197-7.615,50.303-14.187c16.008-6.716,31.177-15.459,44.199-26.821c13.105-11.272,23.782-25.256,31.577-40.95
					l0.049-0.103c1.545-3.108,5.317-4.375,8.425-2.832c2.939,1.462,4.224,4.939,3.047,7.939
					c-7.048,17.827-17.676,34.507-31.311,48.362c-13.547,13.958-29.702,25.142-46.814,34.045
					c-17.2,8.757-35.356,15.435-53.928,20.186c-9.29,2.39-18.679,4.365-28.164,5.891c-9.634,1.499-18.735,2.693-29.27,3.154
					c-8.503,0.374-15.701-6.221-16.074-14.727s6.221-15.701,14.727-16.074c0.43-0.02,0.857-0.02,1.282-0.005L1298.337,2672.766z" />
			</g>
		</g>
		<g>
			<g>
				<path style="fill:#390075;" d="M1230.552,2567.82c8.726,0.879,18.877,1.121,28.428,1.016c9.695-0.151,19.412-0.715,29.08-1.709
					c19.346-1.956,38.486-5.767,56.929-11.628c18.386-5.955,36.089-14.067,51.948-24.985c15.935-10.818,29.771-24.595,40.889-40.515
					l0.066-0.093c2.102-3.008,6.243-3.743,9.248-1.643c2.866,2.002,3.657,5.876,1.907,8.838
					c-10.764,18.113-24.905,34.417-41.577,47.585c-16.594,13.284-35.386,23.589-54.954,31.523
					c-19.624,7.842-40.049,13.447-60.764,17.07c-10.361,1.831-20.796,3.196-31.299,4.121c-10.649,0.854-20.754,1.431-32.224,1.123
					c-8.508-0.227-15.22-7.31-14.993-15.818s7.31-15.222,15.818-14.993c0.369,0.01,0.735,0.032,1.096,0.066L1230.552,2567.82z" />
			</g>
		</g>
		<g>
			<g>
				<path style="fill:#FA9B27;" d="M1395.648,2549.764c-2.684,42.053-399.469,129.2-496.041-32.747
					c-8.947-14.972-15.33-32.091-18.551-51.596c-1.849-11.215-3.042-22.071-3.579-32.629
					c-9.484-182.406,166.659-277.785,209.189-298.066c5.786-2.804,9.126-4.176,9.126-4.176l-8.41,86.312l-12.049,123.295
					l-65.435,29.108c18.014-5.308,36.028-7.933,51-9.186c21.891-1.789,37.4-0.715,37.4-0.715
					c1.133-11.75,6.203-22.428,12.824-31.674c6.562-9.186,14.614-16.94,21.832-22.786c10.379-8.529,19.028-13.302,19.028-13.302
					c72.831-25.47,135.224-34.119,169.761-26.842c14.018,2.923,23.383,8.47,27.081,16.583
					c12.824,28.154-35.789,89.533-35.789,89.533s3.639,0.537,9.424,1.969c14.376,3.4,41.993,11.93,59.888,29.526
					c5.667,5.607,10.319,12.109,13.302,19.625c16.105,40.859-55.772,85-55.772,85S1398.034,2512.722,1395.648,2549.764z" />
			</g>
		</g>
		<g style="opacity:0.6;">
			<g>
				<path style="fill:#FFFFFF;" d="M1089.052,2135.622c-20.042,28.154-51,51.536-74.322,77.603
					c-24.337,27.14-47.063,55.831-66.091,86.968c-39.667,64.659-63.049,142.621-48.375,217.063c-0.239-0.06-0.418-0.179-0.656-0.239
					c-8.947-14.972-15.33-32.091-18.551-51.596c-1.849-11.215-3.042-22.071-3.579-32.629
					c-9.484-182.406,166.659-277.785,209.189-298.066C1087.502,2134.965,1088.277,2135.263,1089.052,2135.622z" />
			</g>
		</g>
		<g style="opacity:0.6;">
			<g>
				<path style="fill:#FFFFFF;" d="M1314.024,2317.475c-40.097,10.803-82.025,13.553-122.112,24.394
					c-40.087,10.84-80.122,31.798-100.325,68.078c-47.631-2.26-95.502,0.55-142.541,8.368
					c12.009-24.301,36.243-40.769,61.956-49.349c25.713-8.58,53.141-10.243,80.2-11.836c4.432-0.261,22.771-26.199,27.535-30.53
					c10.564-9.604,22.11-18.105,34.331-25.478c25.017-15.094,52.938-25.364,81.719-30.334c27.931-4.824,57.502-5.042,85.24,1.23
					C1362.669,2281.66,1350.168,2307.737,1314.024,2317.475z" />
			</g>
		</g>
		<g>
			<g>
				<path style="fill:#390075;" d="M1097.104,2133.772c-39.602,21.997-76.731,48.655-109.241,79.304
					c-32.346,30.728-60.256,66.206-77.615,106.494c-17.463,40.171-23.528,84.617-18.113,128.03
					c0.569,5.425,1.514,10.864,2.373,16.216c0.92,5.19,2.156,10.291,3.613,15.3c2.9,10.029,7.034,19.578,12.185,28.503
					c10.332,17.854,25.217,32.876,42.773,44.556c35.376,23.364,79.08,34.761,122.944,39.995
					c44.116,5.154,89.258,4.353,133.884-0.229c44.502-4.88,89.299-12.725,131.038-26.594c10.308-3.516,20.505-7.505,29.27-12.2
					c4.253-2.249,8.464-5.093,10.11-6.882c1.025-0.862,0.088-1.028-0.359,2.458c-0.01-1.543,0.054-3.025-0.308-4.268
					c-0.554-2.534-1.736-4.802-4.097-7.278c-2.292-2.446-5.723-4.836-9.717-6.843c-3.979-2.034-8.525-3.728-13.269-5.078
					c-2.371-0.679-4.8-1.277-7.241-1.785c-2.334-0.491-5.149-0.964-6.951-1.182l-0.313-0.037
					c-8.442-1.016-14.463-8.687-13.447-17.129c0.581-4.822,3.398-8.894,7.224-11.277l0.002-0.002
					c6.289-3.999,13.247-9.104,19.355-14.211c6.218-5.173,12.031-10.693,17.083-16.487c4.998-5.781,9.263-11.912,11.758-17.817
					c2.629-5.979,3.032-11.145,1.956-15.642c-0.564-2.034-2.002-5.232-3.586-7.798c-1.597-2.688-3.691-5.229-6.04-7.668
					c-4.68-4.902-10.747-9.177-17.356-12.893c-6.677-3.665-13.938-6.785-21.499-9.331c-3.777-1.274-7.625-2.427-11.504-3.428
					c-3.767-0.977-8.037-1.929-11.292-2.468c-8.45-1.406-14.163-9.397-12.756-17.849c0.432-2.585,1.528-4.976,3.015-6.921
					c7.073-9.189,14.116-19.634,20.017-29.883c5.903-10.276,11.082-21.091,13.474-30.911c1.152-4.771,1.406-9.375,0.72-11.589
					c-0.366-1.213-0.444-1.55-1.079-2.283c-0.61-0.725-1.733-1.685-3.354-2.607c-3.235-1.88-8.071-3.45-13.257-4.451
					c-5.225-1.021-10.894-1.563-16.67-1.799c-23.313-0.798-47.971,2.778-72.056,7.881c-24.172,5.183-48.13,12.212-71.687,20.437
					l2.346-1.047c-2.271,1.292-5.413,3.313-8.069,5.164c-2.759,1.914-5.452,3.943-8.059,6.047
					c-5.208,4.214-10.059,8.765-14.307,13.586c-4.25,4.819-7.847,9.932-10.535,15.154c-2.654,5.234-4.292,10.54-4.822,15.769
					l-0.723,3.069c-1.682,7.146-8.557,11.741-15.684,10.83c-4.692-0.618-10.403-1.033-15.703-1.289
					c-5.405-0.256-10.842-0.361-16.282-0.315c-10.881,0.09-21.775,0.776-32.556,2.175c-21.506,2.825-42.815,8.379-61.643,18.853
					l-0.081,0.044c-3.396,1.89-7.681,0.669-9.57-2.727c-1.746-3.14-0.833-7.041,2.002-9.104c19.446-14.197,42.07-23.13,64.99-29.07
					c11.504-2.961,23.169-5.154,34.932-6.707c5.881-0.776,11.787-1.392,17.732-1.843c6.047-0.437,11.697-0.764,18.337-0.732
					l-16.404,13.896c0.945-9.639,3.928-18.752,8.027-26.809c4.136-8.049,9.26-15.164,14.861-21.531
					c5.613-6.365,11.694-12.034,18.074-17.2c3.196-2.578,6.462-5.037,9.829-7.373c3.474-2.39,6.575-4.456,10.786-6.853
					c0.684-0.388,1.387-0.71,2.102-0.967l0.244-0.083c24.604-8.586,49.695-15.967,75.415-21.482
					c25.759-5.398,51.985-9.431,79.741-8.54c6.96,0.293,14.031,0.928,21.333,2.346c7.29,1.477,14.875,3.545,22.744,8
					c3.901,2.251,7.92,5.222,11.445,9.363c3.606,4.075,6.252,9.685,7.446,14.634c2.48,10.234,1.038,18.708-0.615,26.277
					c-3.755,15.002-10.037,27.295-16.733,39.133c-6.86,11.838-14.082,22.612-22.563,33.64l-9.741-24.771
					c5.376,0.898,9.644,1.902,14.348,3.098c4.592,1.187,9.133,2.544,13.645,4.065c9.016,3.044,17.913,6.819,26.575,11.577
					c8.616,4.851,17.087,10.664,24.546,18.403c3.713,3.853,7.217,8.113,10.127,12.932c2.935,4.915,5.315,9.661,7.136,16.062
					c3.301,12.539,1.062,25.625-3.391,35.588c-4.39,10.22-10.444,18.494-16.838,25.945c-6.455,7.397-13.398,13.936-20.623,19.956
					c-7.339,6.082-14.48,11.404-22.954,16.797l-0.01,0.005l-6.536-28.442c3.896,0.425,6.738,0.923,10.024,1.555
					c3.176,0.625,6.326,1.367,9.473,2.231c6.294,1.736,12.585,3.948,18.857,7.053c6.238,3.101,12.568,7.073,18.252,12.883
					c5.676,5.652,10.53,13.699,12.322,22.4c1.04,4.343,1.128,8.655,0.991,12.825c-0.029,0.693-0.215,2.141-0.403,3.162
					c-0.205,1.096-0.496,2.012-0.803,3.01c-0.623,1.819-1.404,3.486-2.185,4.795c-1.597,2.747-3.264,4.724-4.841,6.377
					c-6.377,6.448-12.119,9.624-17.881,12.878c-11.46,6.14-22.727,10.459-34.087,14.39c-22.69,7.703-45.542,13.306-68.567,17.896
					c-23.013,4.604-46.216,7.864-69.519,10.132c-46.592,4.438-93.726,4.998-140.723-0.818c-23.477-2.961-46.917-7.593-69.875-14.819
					c-22.915-7.234-45.439-17.2-65.803-31.375c-20.357-14.019-38.374-32.656-50.654-54.783c-6.13-11.03-10.942-22.778-14.214-34.836
					c-1.648-6.023-3.001-12.109-3.982-18.225c-0.867-5.979-1.773-11.863-2.31-17.854c-5.178-47.695,2.427-97.178,22.358-140.847
					c19.746-43.821,50.371-81.653,86.179-112.024c17.886-15.273,37.117-28.779,57.229-40.596
					c20.144-11.814,41.003-22.085,63.174-29.746c1.826-0.63,3.816,0.337,4.448,2.163c0.564,1.631-0.149,3.394-1.606,4.202
					L1097.104,2133.772z" />
			</g>
		</g>
		<g>
			<g>
				<path style="fill:#390075;" d="M1112.883,2364.343c-0.208,0.398-0.747,1.965-1.089,3.14c-0.415,1.228-0.737,2.605-1.094,3.94
					c-0.667,2.698-1.294,5.498-1.75,8.345c-1.011,5.681-1.614,11.55-1.895,17.466c-0.605,11.846,0.149,23.914,1.819,35.95
					c1.907,12.004,4.648,24.004,8.501,35.759c1.721,5.945,4.226,11.636,6.309,17.507c2.393,5.745,5.051,11.396,7.573,17.136
					l0.21,0.476c1.548,3.518-0.051,7.627-3.572,9.172c-3.279,1.443-7.07,0.151-8.821-2.881c-3.289-5.667-6.719-11.287-9.905-17.061
					c-2.881-5.923-6.184-11.687-8.73-17.817c-5.488-12.097-9.917-24.746-13.464-37.756c-3.318-13.069-5.679-26.516-6.497-40.283
					c-0.427-6.882-0.491-13.833-0.034-20.869c0.181-3.518,0.554-7.053,1.033-10.647c0.269-1.804,0.491-3.584,0.876-5.457
					c0.374-1.946,0.652-3.474,1.411-6.13l0.405-1.418c2.358-8.247,10.957-13.02,19.202-10.659
					c8.247,2.358,13.02,10.955,10.662,19.202C1113.75,2362.446,1113.335,2363.459,1112.883,2364.343z" />
			</g>
		</g>
		<g style="opacity:0.2;">
			<g>
				<path style="fill:#510000;" d="M2530.589,2949.651c0,40.263-74.74,11.512-166.779,74.74
					c-92.038,63.288-109.277,103.551-212.828,103.551c0,0,78.856,69.013,94.067,155.325c15.21,86.253-38.176,178.292,0,253.031
					c0,0-295.382,28.81-358.669-431.381c0,0,18.551,5.07,42.888,5.905c14.316,131.228,114.049,280.649,178.231,254.104
					c81.242-33.523-39.905-288.403-39.905-288.403c98.838-3.699,96.75-72.951,200.838-122.281
					c68.954-32.628,179.066-25.709,257.862-20.46C2529.098,2939.391,2530.589,2944.759,2530.589,2949.651z" />
			</g>
		</g>
		<g style="opacity:0.3;">
			<g>
				<path style="fill:#390075;" d="M2033.773,2680.113c-230.125,63.287-488.942-26.842-488.942-26.842
					s-69.014,88.817-170.656,66.448c-51.775-11.392-100.926-47.48-129.617-95.02c122.131,6.009,198.597-54.992,237.162-98.429
					c25.627-28.865,63.123-44.674,101.697-43.274c125.37,4.548,188.521,49.075,371.739,57.777
					c120.551,5.786,202.568-70.922,251.361-139.28C2207.649,2496.513,2183.074,2639.014,2033.773,2680.113z" />
			</g>
		</g>
		<g>
			<g>
				<path style="fill:none;" d="M1252.491,2350.597c1.133-10.26,9.305-18.133,17-25.053c17.06-15.329,34.597-37.46,52.252-60.782
					c14.018,2.923,23.383,8.47,27.081,16.583c12.824,28.154-35.789,89.533-35.789,89.533s3.639,0.537,9.424,1.969
					c-10.2,2.923-20.34,6.263-30.898,7.038C1273.01,2381.315,1250.582,2369.087,1252.491,2350.597z" />
			</g>
		</g>
		<g style="opacity:0.2;">
			<g>
				<path style="fill:#510000;" d="M1395.648,2549.764c-2.923,45.93-476.297,145.723-514.592-84.343
					c-1.849-11.215-3.042-22.071-3.579-32.629c11.751-23.263,26.365-45.273,42.708-65.554
					c39.189-48.733,87.923-88.698,136.298-128.365c9.782-7.993,19.803-16.165,30.898-22.011c4.533-2.445,9.186-4.474,14.137-5.965
					c17.06-5.189,37.818-2.445,49.151,11.334c15.747,19.087,6.502,48.256-7.337,68.775c-3.221,4.772-6.681,9.424-10.379,13.898
					c-6.621,8.173-13.958,15.808-21.832,22.786c-14.972,13.242-31.972,24.277-50.224,32.389c-4.951,2.208-9.961,4.176-15.091,5.965
					c-35.968,12.527-82.614,20.579-93.052,57.204c-9.305,32.449,23.323,66.21,57.084,66.21c33.761,0,63.287-25.41,78.319-55.652
					c15.032-30.242,18.312-64.78,21.414-98.421c-3.996,62.691,12.288,130.035,58.396,172.684
					c46.168,42.649,126.038,50.582,170.417,6.144c-26.424-7.038-52.849-14.077-79.274-21.116
					c34.358-23.262,68.776-46.467,103.193-69.669c8.172-5.548,16.94-11.99,20.042-21.056c5.667,5.607,10.319,12.109,13.302,19.625
					c16.105,40.859-55.772,85-55.772,85S1398.034,2512.722,1395.648,2549.764z" />
			</g>
		</g>
		<g style="opacity:0.2;">
			<g>
				<path style="fill:#510000;" d="M2402.642,1735.019c-94.672,26.391-173.174,43.201-230.839,54.034
					c-51.976,9.765-89.117,15.068-134.147,16.493c-9.979,0.316-54.359,1.517-114.115-5.092
					c-43.846-4.85-101.915-14.562-168.747-35.253c257.564,47.123,496.995-79.929,614.682-115.241
					c79.691-23.919,90.368-100.747,85.596-160.336c2.446,3.4,4.593,6.978,6.442,10.797c0.537,1.073,1.014,2.206,1.551,3.4
					c0.068,0.164,0.171,0.413,0.298,0.716c8.999,21.42,21.007,33.754,25.812,39.934c11.095,14.267,11.67,31.57,12.299,50.474
					c1.223,36.79-15.143,64.015-22.737,76.28C2454.09,1711.032,2417.972,1728.63,2402.642,1735.019z" />
			</g>
		</g>
		<g>
			<g>
				<path style="fill:#390075;" d="M1134.429,2091.864c-6.646,0-12.271-5.132-12.778-11.87c-0.532-7.065,4.766-13.223,11.831-13.755
					l147.793-11.128c7.061-0.547,13.223,4.766,13.755,11.831s-4.766,13.223-11.831,13.755l-147.793,11.128
					C1135.079,2091.849,1134.752,2091.864,1134.429,2091.864z" />
			</g>
		</g>
		<g>
			<g>
				<path style="fill:#390075;" d="M1285.137,1705.228c-0.61,0-1.226-0.044-1.846-0.134l-152.642-22.021
					c-7.012-1.011-11.88-7.517-10.869-14.529c1.011-7.012,7.554-11.868,14.531-10.867l152.642,22.021
					c7.012,1.011,11.88,7.517,10.869,14.529C1296.9,1700.619,1291.412,1705.228,1285.137,1705.228z" />
			</g>
		</g>
		<g>
			<g>
				<path style="fill:#390075;" d="M1410.05,1233.099c-1.875,0-3.774-0.413-5.576-1.282l-124.937-60.434
					c-6.377-3.086-9.048-10.759-5.962-17.136c3.081-6.382,10.752-9.045,17.134-5.964l124.936,60.435
					c6.377,3.086,9.048,10.759,5.962,17.136C1419.395,1230.433,1414.815,1233.099,1410.05,1233.099z" />
			</g>
		</g>
		<g>
			<g>
				<path style="fill:#390075;" d="M1673.995,883.612c-3.628,0-7.231-1.528-9.766-4.507l-78.472-92.043
					c-4.599-5.391-3.955-13.489,1.436-18.086c5.396-4.592,13.496-3.955,18.086,1.44l78.472,92.043
					c4.6,5.391,3.955,13.489-1.436,18.086C1679.898,882.604,1676.939,883.612,1673.995,883.612z" />
			</g>
		</g>
		<g>
			<g>
				<path style="fill:#390075;" d="M1994.063,670.397c-5.107,0-9.932-3.066-11.929-8.101l-39.375-99.26
					c-2.612-6.587,0.605-14.045,7.192-16.658c6.597-2.612,14.043,0.61,16.655,7.195l39.375,99.26
					c2.612,6.587-0.605,14.045-7.192,16.658C1997.237,670.106,1995.635,670.397,1994.063,670.397z" />
			</g>
		</g>
		<g>
			<g>
				<path style="fill:#390075;" d="M2451.607,530.621c-7.085,0-12.832-5.745-12.832-12.83v-66.953
					c0-7.085,5.747-12.829,12.832-12.829s12.832,5.745,12.832,12.829v66.953C2464.439,524.877,2458.692,530.621,2451.607,530.621z" />
			</g>
		</g>
		<g>
			<g>
				<g>
					<g>
						<g>
							<path style="fill:#390075;" d="M1508.786,1500.234c36.629-33.897,105.155-12.865,153.055,46.973
								c47.901,59.839,57.038,135.827,20.408,169.724c-36.629,33.896-105.155,12.867-153.056-46.973
								C1481.294,1610.12,1472.157,1534.13,1508.786,1500.234z" />
						</g>
					</g>
				</g>
			</g>
			<g>
				<g>
					<g>
						<g>
							<path style="fill:#FFFFFF;" d="M1529.328,1524.946c16.504-3.516,36.368,14.208,44.367,39.587
								c8,25.38,1.106,48.803-15.399,52.319c-16.503,3.516-36.367-14.208-44.366-39.587
								C1505.931,1551.886,1512.823,1528.462,1529.328,1524.946z" />
						</g>
					</g>
				</g>
			</g>
			<g>
				<g>
					<g>
						<g>
							<path style="fill:#B199C5;" d="M1662.945,1630.839c9.235,0.478,17.917,11.934,19.394,25.588
								c1.477,13.654-4.812,24.335-14.045,23.856c-9.233-0.477-17.917-11.934-19.392-25.587
								C1647.423,1641.043,1653.713,1630.362,1662.945,1630.839z" />
						</g>
					</g>
				</g>
			</g>
		</g>
		<g>
			<g>
				<g>
					<path style="fill:#FC5520;" d="M1917.919,2709.592h-0.716v-0.059C1917.203,2709.532,1917.441,2709.532,1917.919,2709.592z" />
				</g>
			</g>
		</g>
		<g>
			<g>
				<path style="fill:#FA9B27;" d="M1917.203,2709.532c0,0,0.239,0,0.716,0.059h-0.716V2709.532z" />
			</g>
		</g>
		<g>
			<g>
				<path style="fill:#FA9B27;" d="M2231.016,3467.193c0.716,20.102,4.533,39.488,13.958,57.86c0,0-1.67,0.179-4.832,0.238
					C2232.925,3506.8,2230.658,3487.295,2231.016,3467.193z" />
			</g>
		</g>
		<g>
			<g>
				<path style="fill:#FA9B27;" d="M2244.974,3272.022c2.326,13.123,3.042,26.365,2.744,39.666
					c-0.179-9.544-1.014-18.968-2.684-28.393c-15.21-86.312-94.067-155.326-94.067-155.326c3.937,0,7.755-0.06,11.453-0.179
					C2184.967,3150.636,2233.402,3206.348,2244.974,3272.022z" />
			</g>
		</g>
		<g>
			<g>
				<path style="fill:#FA9B27;" d="M2250.581,1069.007c-4.533,0-8.888,0.179-13.003,0.477
					C2241.813,1069.007,2245.63,1068.709,2250.581,1069.007z" />
			</g>
		</g>
		<g>
			<g>
				<path style="fill:#FA9B27;" d="M2452.969,1488.161c-10.498-5.547-57.979-20.579-123.354-33.165
					C2366.717,1454.698,2425.949,1458.574,2452.969,1488.161z" />
			</g>
		</g>
		<g>
			<g>
				<path style="fill:#FC5520;" d="M2250.581,1069.007c7.695,0,15.568,1.432,23.502,4.295
					C2266.448,1070.856,2258.574,1069.365,2250.581,1069.007z" />
			</g>
		</g>
		<g>
			<g>
				<path style="fill:#FC5520;" d="M2461.499,1500.448c-2.266-4.533-5.13-8.589-8.47-12.228c1.073,0.596,1.789,1.074,2.028,1.432
					c0.119,0.119,2.982,4.175,5.01,7.933C2460.545,1498.539,2461.022,1499.434,2461.499,1500.448z" />
			</g>
		</g>
		<g>
			<g>
				<path style="fill:#FFFFFF;" d="M1434.345,1063.34c12.288-21.831,26.543-41.635,42.291-59.41L1434.345,1063.34z" />
			</g>
		</g>
		<g>
			<g>
				<path style="fill:#FFFFFF;" d="M1515.527,965.993c4.533-3.937,9.126-7.635,13.779-11.095
					C1524.653,958.478,1520.06,962.176,1515.527,965.993z" />
			</g>
		</g>
		<g>
			<g>
				<path style="fill:#FFFFFF;" d="M1750.663,1162.596c7.814-11.274,114.526-167.733,49.389-241.578
					c-5.607-6.442-12.586-12.288-21.056-17.298c-7.575-4.474-15.688-8.112-24.337-10.856c13.481,3.34,24.695,8.351,33.105,14.793
					c4.772,3.698,9.066,7.576,12.824,11.632C1875.09,999.516,1759.491,1151.323,1750.663,1162.596z" />
			</g>
		</g>
		<g>
			<g>
				<path style="fill:#FC5520;" d="M2247.718,3311.688c1.372,52.312-15.748,105.818-16.702,155.505
					c-0.776-22.965,2.505-46.824,6.382-71.102C2241.872,3368.236,2247.062,3339.843,2247.718,3311.688z" />
			</g>
		</g>
		<g>
			<g>
				<path style="fill:#FA9B27;" d="M1917.919,2709.592h-0.716v-0.059C1917.203,2709.532,1917.441,2709.532,1917.919,2709.592z" />
			</g>
		</g>
	</g>
</g>
</svg>
