<svg width="500" height="500" viewBox="0 0 500 500" fill="none" xmlns="http://www.w3.org/2000/svg">
  <g clip-path="url(#clip0_16_2)">
    <path d="M500 0H0V500H500V0Z" fill="#97D6F1" />
    <path d="M108.215 115.249C108.215 115.249 100.876 125.13 86.208 125.13C71.542 125.13 59.654 115.249 59.654 115.249C59.654 115.249 71.542 105.368 86.208 105.368C100.876 105.368 108.215 115.249 108.215 115.249Z" fill="#FFD43A" />
    <path d="M97.224 107.438V123.062C104.538 120.166 108.215 115.249 108.215 115.249C108.215 115.249 104.539 110.334 97.224 107.438Z" fill="#FFFFFC" />
    <path d="M63.501 115.518L53 109.453V121.582L63.501 115.518L53 109.453V121.582L63.501 115.518Z" fill="#FFD43A" />
    <path d="M83.206 113.285C82.471 113.021 81.614 112.857 80.675 112.857C78.052 112.857 75.923 114.047 75.923 115.517C75.923 116.987 78.052 118.178 80.675 118.178C81.614 118.178 82.471 118.013 83.206 117.749V113.285Z" fill="#FFFFFC" />
    <path d="M244.215 175.249C244.215 175.249 236.876 185.13 222.208 185.13C207.542 185.13 195.654 175.249 195.654 175.249C195.654 175.249 207.542 165.368 222.208 165.368C236.876 165.368 244.215 175.249 244.215 175.249Z" fill="#FFD43A" />
    <path d="M233.224 167.438V183.062C240.538 180.166 244.215 175.249 244.215 175.249C244.215 175.249 240.539 170.334 233.224 167.438Z" fill="#FFFFFC" />
    <path d="M199.501 175.518L189 169.453V181.582L199.501 175.518L189 169.453V181.582L199.501 175.518Z" fill="#FFD43A" />
    <path d="M219.206 173.285C218.471 173.021 217.614 172.857 216.675 172.857C214.051 172.857 211.923 174.047 211.923 175.517C211.923 176.987 214.051 178.178 216.675 178.178C217.614 178.178 218.471 178.013 219.206 177.749V173.285Z" fill="#FFFFFC" />
    <path d="M246.09 95.776C246.09 95.776 238.751 105.659 224.083 105.659C209.418 105.659 197.529 95.776 197.529 95.776C197.529 95.776 209.418 85.895 224.083 85.895C238.751 85.896 246.09 95.776 246.09 95.776Z" fill="#FFD43A" />
    <path d="M235.1 87.964V103.588C242.414 100.692 246.091 95.776 246.091 95.776C246.091 95.776 242.414 90.86 235.1 87.964Z" fill="#FFFFFC" />
    <path d="M202.502 96.046L192 89.981V102.11L202.502 96.046L192 89.981V102.11L202.502 96.046Z" fill="#FFD43A" />
    <path d="M232.006 89.189C231.547 89.025 231.013 88.922 230.427 88.922C228.79 88.922 227.462 89.665 227.462 90.582C227.462 91.5 228.79 92.242 230.427 92.242C231.013 92.242 231.546 92.139 232.006 91.975V89.189Z" fill="#FFFFFC" />
    <path d="M232.006 93.964C231.547 93.802 231.013 93.699 230.427 93.699C228.79 93.699 227.462 94.441 227.462 95.359C227.462 96.274 228.79 97.019 230.427 97.019C231.013 97.019 231.546 96.916 232.006 96.75V93.964Z" fill="#FFFFFC" />
    <path d="M226.818 91.673C226.36 91.51 225.825 91.407 225.239 91.407C223.601 91.407 222.273 92.15 222.273 93.068C222.273 93.982 223.602 94.728 225.239 94.728C225.825 94.728 226.36 94.625 226.818 94.459V91.673Z" fill="#FFFFFC" />
    <path d="M232.006 99.578C231.547 99.413 231.013 99.31 230.427 99.31C228.79 99.31 227.462 100.053 227.462 100.971C227.462 101.887 228.79 102.631 230.427 102.631C231.013 102.631 231.546 102.527 232.006 102.364V99.578Z" fill="#FFFFFC" />
    <path d="M220.621 89.189C220.161 89.025 219.628 88.922 219.041 88.922C217.403 88.922 216.075 89.665 216.075 90.582C216.075 91.5 217.404 92.242 219.041 92.242C219.627 92.242 220.16 92.139 220.621 91.975V89.189Z" fill="#FFFFFC" />
    <path d="M220.621 93.964C220.161 93.802 219.628 93.699 219.041 93.699C217.403 93.699 216.075 94.441 216.075 95.359C216.075 96.274 217.404 97.019 219.041 97.019C219.627 97.019 220.16 96.916 220.621 96.75V93.964Z" fill="#FFFFFC" />
    <path d="M220.621 99.578C220.161 99.413 219.628 99.31 219.041 99.31C217.403 99.31 216.075 100.053 216.075 100.971C216.075 101.887 217.404 102.631 219.041 102.631C219.627 102.631 220.16 102.527 220.621 102.364V99.578Z" fill="#FFFFFC" />
    <path d="M226.818 97.285C226.36 97.122 225.825 97.019 225.239 97.019C223.601 97.019 222.273 97.762 222.273 98.679C222.273 99.595 223.602 100.339 225.239 100.339C225.825 100.339 226.36 100.236 226.818 100.072V97.285Z" fill="#FFFFFC" />
    <path d="M213.736 91.673C213.278 91.51 212.743 91.407 212.156 91.407C210.518 91.407 209.19 92.15 209.19 93.068C209.19 93.982 210.518 94.728 212.156 94.728C212.743 94.728 213.278 94.625 213.736 94.459V91.673Z" fill="#FFFFFC" />
    <path d="M213.736 97.285C213.278 97.122 212.743 97.019 212.156 97.019C210.518 97.019 209.19 97.762 209.19 98.679C209.19 99.595 210.518 100.339 212.156 100.339C212.743 100.339 213.278 100.236 213.736 100.072V97.285Z" fill="#FFFFFC" />
    <path d="M207.969 94.439C207.511 94.275 206.975 94.172 206.389 94.172C204.752 94.172 203.424 94.914 203.424 95.832C203.424 96.748 204.753 97.492 206.389 97.492C206.975 97.492 207.511 97.389 207.969 97.224V94.439Z" fill="#FFFFFC" />
    <path d="M177.181 115.249C177.181 115.249 169.842 125.13 155.175 125.13C140.51 125.13 128.62 115.249 128.62 115.249C128.62 115.249 140.51 105.368 155.175 105.368C169.842 105.368 177.181 115.249 177.181 115.249Z" fill="#A14D95" />
    <path d="M166.19 107.438V123.062C173.504 120.166 177.181 115.249 177.181 115.249C177.181 115.249 173.505 110.334 166.19 107.438Z" fill="#FFFFFC" />
    <path d="M133.502 115.518L123 109.453V121.582L133.502 115.518L123 109.453V121.582L133.502 115.518Z" fill="#A14D95" />
    <path d="M152.173 113.285C151.437 113.021 150.581 112.857 149.64 112.857C147.016 112.857 144.889 114.047 144.889 115.517C144.889 116.987 147.016 118.178 149.64 118.178C150.581 118.178 151.437 118.013 152.173 117.749V113.285Z" fill="#FFFFFC" />
    <path d="M105.92 150.879C105.92 150.879 98.581 160.762 83.914 160.762C69.248 160.762 57.359 150.879 57.359 150.879C57.359 150.879 69.248 140.999 83.914 140.999C98.581 140.999 105.92 150.879 105.92 150.879Z" fill="#327DDE" />
    <path d="M94.929 143.067V158.692C102.244 155.796 105.92 150.879 105.92 150.879C105.92 150.879 102.244 145.963 94.929 143.067Z" fill="#FFFFFC" />
    <path d="M62.502 151.148L52 145.084V157.213L62.502 151.148L52 145.084V157.213L62.502 151.148Z" fill="#327DDE" />
    <path d="M80.912 148.916C80.178 148.652 79.32 148.487 78.38 148.487C75.756 148.487 73.629 149.679 73.629 151.148C73.629 152.618 75.757 153.809 78.38 153.809C79.319 153.809 80.177 153.644 80.912 153.381V148.916Z" fill="#FFFFFC" />
    <path d="M311.959 133.839C311.959 133.839 304.619 143.722 289.951 143.722C275.285 143.722 263.396 133.839 263.396 133.839C263.396 133.839 275.285 123.958 289.951 123.958C304.619 123.958 311.959 133.839 311.959 133.839Z" fill="#A14D95" />
    <path d="M300.967 126.026V141.652C308.281 138.755 311.959 133.839 311.959 133.839C311.959 133.839 308.281 128.923 300.967 126.026Z" fill="#FFFFFC" />
    <path d="M268.502 134.108L258 128.044V140.173L268.502 134.108L258 128.044V140.173L268.502 134.108Z" fill="#A14D95" />
    <path d="M286.949 131.874C286.215 131.611 285.357 131.447 284.416 131.447C281.793 131.447 279.666 132.638 279.666 134.108C279.666 135.576 281.793 136.769 284.416 136.769C285.357 136.769 286.215 136.602 286.949 136.34V131.874Z" fill="#FFFFFC" />
    <path d="M177.181 77.186C177.181 77.186 169.842 87.068 155.175 87.068C140.51 87.068 128.62 77.186 128.62 77.186C128.62 77.186 140.51 67.306 155.175 67.306C169.842 67.306 177.181 77.186 177.181 77.186Z" fill="#903497" />
    <path d="M166.19 69.375V84.999C173.504 82.103 177.181 77.186 177.181 77.186C177.181 77.186 173.505 72.271 166.19 69.375Z" fill="#FFFFFC" />
    <path d="M133.502 77.455L123 71.39V83.52L133.502 77.455L123 71.39V83.52L133.502 77.455Z" fill="#903497" />
    <path d="M163.098 70.601C162.638 70.437 162.105 70.332 161.519 70.332C159.882 70.332 158.553 71.077 158.553 71.992C158.553 72.91 159.882 73.653 161.519 73.653C162.105 73.653 162.638 73.549 163.098 73.386V70.601Z" fill="#FFFFFC" />
    <path d="M163.098 75.375C162.638 75.212 162.105 75.108 161.519 75.108C159.882 75.108 158.553 75.85 158.553 76.768C158.553 77.684 159.882 78.429 161.519 78.429C162.105 78.429 162.638 78.325 163.098 78.161V75.375Z" fill="#FFFFFC" />
    <path d="M157.909 73.084C157.452 72.921 156.916 72.817 156.33 72.817C154.693 72.817 153.364 73.56 153.364 74.476C153.364 75.393 154.693 76.137 156.33 76.137C156.916 76.137 157.452 76.033 157.909 75.869V73.084Z" fill="#FFFFFC" />
    <path d="M163.098 80.987C162.638 80.824 162.105 80.72 161.519 80.72C159.882 80.72 158.553 81.463 158.553 82.381C158.553 83.297 159.882 84.041 161.519 84.041C162.105 84.041 162.638 83.937 163.098 83.772V80.987Z" fill="#FFFFFC" />
    <path d="M151.711 70.601C151.252 70.437 150.719 70.332 150.131 70.332C148.494 70.332 147.166 71.077 147.166 71.992C147.166 72.91 148.494 73.653 150.131 73.653C150.718 73.653 151.252 73.549 151.711 73.386V70.601Z" fill="#FFFFFC" />
    <path d="M151.711 75.375C151.252 75.212 150.719 75.108 150.131 75.108C148.494 75.108 147.166 75.85 147.166 76.768C147.166 77.684 148.494 78.429 150.131 78.429C150.718 78.429 151.252 78.325 151.711 78.161V75.375Z" fill="#FFFFFC" />
    <path d="M151.711 80.987C151.252 80.824 150.719 80.72 150.131 80.72C148.494 80.72 147.166 81.463 147.166 82.381C147.166 83.297 148.494 84.041 150.131 84.041C150.718 84.041 151.252 83.937 151.711 83.772V80.987Z" fill="#FFFFFC" />
    <path d="M157.909 78.696C157.452 78.533 156.916 78.429 156.33 78.429C154.693 78.429 153.364 79.172 153.364 80.089C153.364 81.006 154.693 81.75 156.33 81.75C156.916 81.75 157.452 81.646 157.909 81.481V78.696Z" fill="#FFFFFC" />
    <path d="M144.828 73.084C144.37 72.921 143.834 72.817 143.248 72.817C141.611 72.817 140.282 73.56 140.282 74.476C140.282 75.393 141.611 76.137 143.248 76.137C143.834 76.137 144.37 76.033 144.828 75.869V73.084Z" fill="#FFFFFC" />
    <path d="M144.828 78.696C144.37 78.533 143.834 78.429 143.248 78.429C141.611 78.429 140.282 79.172 140.282 80.089C140.282 81.006 141.611 81.75 143.248 81.75C143.834 81.75 144.37 81.646 144.828 81.481V78.696Z" fill="#FFFFFC" />
    <path d="M139.061 75.849C138.603 75.686 138.068 75.583 137.482 75.583C135.845 75.583 134.517 76.326 134.517 77.243C134.517 78.159 135.845 78.903 137.482 78.903C138.068 78.903 138.603 78.8 139.061 78.635V75.849Z" fill="#FFFFFC" />
    <path d="M177.181 150.879C177.181 150.879 169.842 160.762 155.175 160.762C140.51 160.762 128.62 150.879 128.62 150.879C128.62 150.879 140.51 140.999 155.175 140.999C169.842 140.999 177.181 150.879 177.181 150.879Z" fill="#FC6A33" />
    <path d="M166.19 143.067V158.691C173.504 155.795 177.181 150.878 177.181 150.878C177.181 150.878 173.505 145.963 166.19 143.067Z" fill="#FFFFFC" />
    <path d="M133.502 151.148L123 145.084V157.213L133.502 151.148L123 145.084V157.213L133.502 151.148Z" fill="#FC6A33" />
    <path d="M163.098 144.294C162.638 144.128 162.105 144.026 161.519 144.026C159.882 144.026 158.553 144.771 158.553 145.686C158.553 146.604 159.882 147.347 161.519 147.347C162.105 147.347 162.638 147.243 163.098 147.08V144.294Z" fill="#FFFFFC" />
    <path d="M163.098 149.068C162.638 148.905 162.105 148.801 161.519 148.801C159.882 148.801 158.553 149.543 158.553 150.461C158.553 151.377 159.882 152.122 161.519 152.122C162.105 152.122 162.638 152.018 163.098 151.854V149.068Z" fill="#FFFFFC" />
    <path d="M157.909 146.776C157.452 146.612 156.916 146.509 156.33 146.509C154.693 146.509 153.364 147.252 153.364 148.17C153.364 149.086 154.693 149.831 156.33 149.831C156.916 149.831 157.452 149.727 157.909 149.563V146.776Z" fill="#FFFFFC" />
    <path d="M163.098 154.681C162.638 154.517 162.105 154.413 161.519 154.413C159.882 154.413 158.553 155.157 158.553 156.075C158.553 156.99 159.882 157.735 161.519 157.735C162.105 157.735 162.638 157.631 163.098 157.466V154.681Z" fill="#FFFFFC" />
    <path d="M151.711 144.294C151.252 144.128 150.719 144.026 150.131 144.026C148.494 144.026 147.166 144.771 147.166 145.686C147.166 146.604 148.494 147.347 150.131 147.347C150.718 147.347 151.252 147.243 151.711 147.08V144.294Z" fill="#FFFFFC" />
    <path d="M151.711 149.068C151.252 148.905 150.719 148.801 150.131 148.801C148.494 148.801 147.166 149.543 147.166 150.461C147.166 151.377 148.494 152.122 150.131 152.122C150.718 152.122 151.252 152.018 151.711 151.854V149.068Z" fill="#FFFFFC" />
    <path d="M151.711 154.681C151.252 154.517 150.719 154.413 150.131 154.413C148.494 154.413 147.166 155.157 147.166 156.075C147.166 156.99 148.494 157.735 150.131 157.735C150.718 157.735 151.252 157.631 151.711 157.466V154.681Z" fill="#FFFFFC" />
    <path d="M157.909 152.39C157.452 152.226 156.916 152.123 156.33 152.123C154.693 152.123 153.364 152.866 153.364 153.783C153.364 154.7 154.693 155.443 156.33 155.443C156.916 155.443 157.452 155.34 157.909 155.175V152.39Z" fill="#FFFFFC" />
    <path d="M144.828 146.776C144.37 146.612 143.834 146.509 143.248 146.509C141.611 146.509 140.282 147.252 140.282 148.17C140.282 149.086 141.611 149.831 143.248 149.831C143.834 149.831 144.37 149.727 144.828 149.563V146.776Z" fill="#FFFFFC" />
    <path d="M144.828 152.39C144.37 152.226 143.834 152.123 143.248 152.123C141.611 152.123 140.282 152.866 140.282 153.783C140.282 154.7 141.611 155.443 143.248 155.443C143.834 155.443 144.37 155.34 144.828 155.175V152.39Z" fill="#FFFFFC" />
    <path d="M139.061 149.542C138.603 149.379 138.068 149.276 137.482 149.276C135.845 149.276 134.517 150.018 134.517 150.936C134.517 151.851 135.845 152.596 137.482 152.596C138.068 152.596 138.603 152.493 139.061 152.327V149.542Z" fill="#FFFFFC" />
    <path d="M244.167 134.505C244.167 134.505 236.829 144.387 222.161 144.387C207.496 144.387 195.606 134.505 195.606 134.505C195.606 134.505 207.495 124.625 222.161 124.625C236.829 124.625 244.167 134.505 244.167 134.505Z" fill="#903497" />
    <path d="M233.177 126.694V142.318C240.492 139.422 244.168 134.506 244.168 134.506C244.168 134.506 240.492 129.59 233.177 126.694Z" fill="#FFFFFC" />
    <path d="M200.502 134.774L190 128.709V140.839L200.502 134.774L190 128.709V140.839L200.502 134.774Z" fill="#903497" />
    <path d="M230.085 127.252C229.625 127.088 229.092 126.985 228.505 126.985C226.868 126.985 225.54 127.728 225.54 128.645C225.54 129.563 226.869 130.305 228.505 130.305C229.092 130.305 229.625 130.202 230.085 130.037V127.252Z" fill="#FFFFFC" />
    <path d="M230.085 132.026C229.625 131.864 229.092 131.761 228.505 131.761C226.868 131.761 225.54 132.503 225.54 133.421C225.54 134.337 226.869 135.081 228.505 135.081C229.092 135.081 229.625 134.979 230.085 134.813V132.026Z" fill="#FFFFFC" />
    <path d="M224.895 129.735C224.438 129.572 223.902 129.469 223.315 129.469C221.678 129.469 220.35 130.212 220.35 131.129C220.35 132.044 221.678 132.789 223.315 132.789C223.901 132.789 224.437 132.687 224.895 132.522V129.735Z" fill="#FFFFFC" />
    <path d="M230.085 137.641C229.625 137.476 229.092 137.373 228.505 137.373C226.868 137.373 225.54 138.116 225.54 139.033C225.54 139.95 226.869 140.693 228.505 140.693C229.092 140.693 229.625 140.59 230.085 140.426V137.641Z" fill="#FFFFFC" />
    <path d="M218.697 127.252C218.238 127.088 217.705 126.985 217.118 126.985C215.481 126.985 214.153 127.728 214.153 128.645C214.153 129.563 215.482 130.305 217.118 130.305C217.705 130.305 218.238 130.202 218.697 130.037V127.252Z" fill="#FFFFFC" />
    <path d="M218.697 132.026C218.238 131.864 217.705 131.761 217.118 131.761C215.481 131.761 214.153 132.503 214.153 133.421C214.153 134.337 215.482 135.081 217.118 135.081C217.705 135.081 218.238 134.979 218.697 134.813V132.026Z" fill="#FFFFFC" />
    <path d="M218.697 137.641C218.238 137.476 217.705 137.373 217.118 137.373C215.481 137.373 214.153 138.116 214.153 139.033C214.153 139.95 215.482 140.693 217.118 140.693C217.705 140.693 218.238 140.59 218.697 140.426V137.641Z" fill="#FFFFFC" />
    <path d="M224.895 135.35C224.438 135.185 223.902 135.082 223.315 135.082C221.678 135.082 220.35 135.825 220.35 136.742C220.35 137.658 221.678 138.402 223.315 138.402C223.901 138.402 224.437 138.3 224.895 138.135V135.35Z" fill="#FFFFFC" />
    <path d="M211.814 129.735C211.356 129.572 210.821 129.469 210.235 129.469C208.597 129.469 207.269 130.212 207.269 131.129C207.269 132.044 208.597 132.789 210.235 132.789C210.821 132.789 211.356 132.687 211.814 132.522V129.735Z" fill="#FFFFFC" />
    <path d="M211.814 135.35C211.356 135.185 210.821 135.082 210.235 135.082C208.597 135.082 207.269 135.825 207.269 136.742C207.269 137.658 208.597 138.402 210.235 138.402C210.821 138.402 211.356 138.3 211.814 138.135V135.35Z" fill="#FFFFFC" />
    <path d="M206.047 132.502C205.59 132.338 205.054 132.235 204.468 132.235C202.831 132.235 201.503 132.977 201.503 133.895C201.503 134.811 202.831 135.555 204.468 135.555C205.054 135.555 205.59 135.452 206.047 135.287V132.502Z" fill="#FFFFFC" />
    <path d="M176.378 191.824C176.378 191.824 169.039 201.706 154.371 201.706C139.706 201.706 127.817 191.824 127.817 191.824C127.817 191.824 139.706 181.944 154.371 181.944C169.039 181.944 176.378 191.824 176.378 191.824Z" fill="#FF6B73" />
    <path d="M165.387 184.013V199.637C172.701 196.74 176.378 191.824 176.378 191.824C176.378 191.824 172.702 186.908 165.387 184.013Z" fill="#FFFFFC" />
    <path d="M132.502 192.094L122 186.028V198.157L132.502 192.094L122 186.028V198.157L132.502 192.094Z" fill="#FF6B73" />
    <path d="M162.294 185.237C161.835 185.074 161.301 184.969 160.715 184.969C159.078 184.969 157.75 185.713 157.75 186.629C157.75 187.547 159.079 188.289 160.715 188.289C161.301 188.289 161.834 188.187 162.294 188.024V185.237Z" fill="#FFFFFC" />
    <path d="M162.294 190.013C161.835 189.849 161.301 189.746 160.715 189.746C159.078 189.746 157.75 190.488 157.75 191.406C157.75 192.323 159.079 193.066 160.715 193.066C161.301 193.066 161.834 192.963 162.294 192.798V190.013Z" fill="#FFFFFC" />
    <path d="M157.106 187.721C156.648 187.558 156.112 187.455 155.526 187.455C153.889 187.455 152.56 188.197 152.56 189.115C152.56 190.032 153.889 190.775 155.526 190.775C156.112 190.775 156.648 190.672 157.106 190.506V187.721Z" fill="#FFFFFC" />
    <path d="M162.294 195.625C161.835 195.461 161.301 195.357 160.715 195.357C159.078 195.357 157.75 196.1 157.75 197.018C157.75 197.935 159.079 198.678 160.715 198.678C161.301 198.678 161.834 198.574 162.294 198.41V195.625Z" fill="#FFFFFC" />
    <path d="M150.909 185.237C150.449 185.074 149.915 184.969 149.329 184.969C147.692 184.969 146.364 185.713 146.364 186.629C146.364 187.547 147.692 188.289 149.329 188.289C149.915 188.289 150.449 188.187 150.909 188.024V185.237Z" fill="#FFFFFC" />
    <path d="M150.909 190.013C150.449 189.849 149.915 189.746 149.329 189.746C147.692 189.746 146.364 190.488 146.364 191.406C146.364 192.323 147.692 193.066 149.329 193.066C149.915 193.066 150.449 192.963 150.909 192.798V190.013Z" fill="#FFFFFC" />
    <path d="M150.909 195.625C150.449 195.461 149.915 195.357 149.329 195.357C147.692 195.357 146.364 196.1 146.364 197.018C146.364 197.935 147.692 198.678 149.329 198.678C149.915 198.678 150.449 198.574 150.909 198.41V195.625Z" fill="#FFFFFC" />
    <path d="M157.106 193.334C156.648 193.171 156.112 193.066 155.526 193.066C153.889 193.066 152.56 193.809 152.56 194.726C152.56 195.643 153.889 196.388 155.526 196.388C156.112 196.388 156.648 196.283 157.106 196.119V193.334Z" fill="#FFFFFC" />
    <path d="M144.024 187.721C143.567 187.558 143.031 187.455 142.445 187.455C140.807 187.455 139.479 188.197 139.479 189.115C139.479 190.032 140.807 190.775 142.445 190.775C143.032 190.775 143.567 190.672 144.024 190.506V187.721Z" fill="#FFFFFC" />
    <path d="M144.024 193.334C143.567 193.171 143.031 193.066 142.445 193.066C140.807 193.066 139.479 193.809 139.479 194.726C139.479 195.643 140.807 196.388 142.445 196.388C143.032 196.388 143.567 196.283 144.024 196.119V193.334Z" fill="#FFFFFC" />
    <path d="M138.258 190.487C137.8 190.322 137.264 190.219 136.678 190.219C135.041 190.219 133.713 190.962 133.713 191.879C133.713 192.796 135.042 193.54 136.678 193.54C137.264 193.54 137.8 193.436 138.258 193.272V190.487Z" fill="#FFFFFC" />
    <path d="M244.215 216.249C244.215 216.249 236.876 226.13 222.208 226.13C207.542 226.13 195.654 216.249 195.654 216.249C195.654 216.249 207.542 206.368 222.208 206.368C236.876 206.368 244.215 216.249 244.215 216.249Z" fill="#FF6B73" />
    <path d="M233.224 208.438V224.062C240.538 221.166 244.215 216.249 244.215 216.249C244.215 216.249 240.539 211.334 233.224 208.438Z" fill="#FFFFFC" />
    <path d="M199.501 216.518L189 210.453V222.582L199.501 216.518L189 210.453V222.582L199.501 216.518Z" fill="#FF6B73" />
    <path d="M219.206 214.285C218.471 214.021 217.614 213.857 216.675 213.857C214.051 213.857 211.923 215.047 211.923 216.517C211.923 217.987 214.051 219.178 216.675 219.178C217.614 219.178 218.471 219.013 219.206 218.749V214.285Z" fill="#FFFFFC" />
    <path d="M380.215 276.249C380.215 276.249 372.877 286.13 358.209 286.13C343.543 286.13 331.654 276.249 331.654 276.249C331.654 276.249 343.543 266.368 358.209 266.368C372.877 266.368 380.215 276.249 380.215 276.249Z" fill="#FFD43A" />
    <path d="M369.225 268.438V284.062C376.54 281.166 380.215 276.249 380.215 276.249C380.215 276.249 376.539 271.334 369.225 268.438Z" fill="#FFFFFC" />
    <path d="M335.502 276.518L325 270.453V282.582L335.502 276.518L325 270.453V282.582L335.502 276.518Z" fill="#FFD43A" />
    <path d="M355.207 274.285C354.471 274.021 353.613 273.857 352.676 273.857C350.051 273.857 347.924 275.048 347.924 276.517C347.924 277.986 350.051 279.178 352.676 279.178C353.614 279.178 354.471 279.013 355.207 278.749V274.285Z" fill="#FFFFFC" />
    <path d="M382.09 196.776C382.09 196.776 374.75 206.659 360.082 206.659C345.418 206.659 333.529 196.776 333.529 196.776C333.529 196.776 345.418 186.895 360.082 186.895C374.75 186.895 382.09 196.776 382.09 196.776Z" fill="#FFD43A" />
    <path d="M371.1 188.964V204.588C378.415 201.692 382.09 196.776 382.09 196.776C382.09 196.776 378.414 191.86 371.1 188.964Z" fill="#FFFFFC" />
    <path d="M338.502 197.046L328 190.981V203.11L338.502 197.046L328 190.981V203.11L338.502 197.046Z" fill="#FFD43A" />
    <path d="M368.006 190.189C367.547 190.025 367.014 189.922 366.428 189.922C364.791 189.922 363.463 190.665 363.463 191.582C363.463 192.5 364.791 193.242 366.428 193.242C367.014 193.242 367.547 193.139 368.006 192.975V190.189Z" fill="#FFFFFC" />
    <path d="M368.006 194.964C367.547 194.802 367.014 194.699 366.428 194.699C364.791 194.699 363.463 195.441 363.463 196.359C363.463 197.274 364.791 198.019 366.428 198.019C367.014 198.019 367.547 197.917 368.006 197.751V194.964Z" fill="#FFFFFC" />
    <path d="M362.818 192.673C362.359 192.51 361.824 192.407 361.238 192.407C359.601 192.407 358.271 193.15 358.271 194.068C358.271 194.982 359.601 195.728 361.238 195.728C361.824 195.728 362.359 195.626 362.818 195.46V192.673Z" fill="#FFFFFC" />
    <path d="M368.006 200.578C367.547 200.413 367.014 200.31 366.428 200.31C364.791 200.31 363.463 201.053 363.463 201.971C363.463 202.887 364.791 203.631 366.428 203.631C367.014 203.631 367.547 203.527 368.006 203.363V200.578Z" fill="#FFFFFC" />
    <path d="M356.621 190.189C356.16 190.025 355.627 189.922 355.041 189.922C353.402 189.922 352.074 190.665 352.074 191.582C352.074 192.5 353.402 193.242 355.041 193.242C355.627 193.242 356.16 193.139 356.621 192.975V190.189Z" fill="#FFFFFC" />
    <path d="M356.621 194.964C356.16 194.802 355.627 194.699 355.041 194.699C353.402 194.699 352.074 195.441 352.074 196.359C352.074 197.274 353.402 198.019 355.041 198.019C355.627 198.019 356.16 197.917 356.621 197.751V194.964Z" fill="#FFFFFC" />
    <path d="M356.621 200.578C356.16 200.413 355.627 200.31 355.041 200.31C353.402 200.31 352.074 201.053 352.074 201.971C352.074 202.887 353.402 203.631 355.041 203.631C355.627 203.631 356.16 203.527 356.621 203.363V200.578Z" fill="#FFFFFC" />
    <path d="M362.818 198.285C362.359 198.122 361.824 198.019 361.238 198.019C359.601 198.019 358.271 198.762 358.271 199.679C358.271 200.595 359.601 201.339 361.238 201.339C361.824 201.339 362.359 201.237 362.818 201.072V198.285Z" fill="#FFFFFC" />
    <path d="M349.736 192.673C349.279 192.51 348.742 192.407 348.156 192.407C346.519 192.407 345.191 193.15 345.191 194.068C345.191 194.982 346.519 195.728 348.156 195.728C348.742 195.728 349.279 195.626 349.736 195.46V192.673Z" fill="#FFFFFC" />
    <path d="M349.736 198.285C349.279 198.122 348.742 198.019 348.156 198.019C346.519 198.019 345.191 198.762 345.191 199.679C345.191 200.595 346.519 201.339 348.156 201.339C348.742 201.339 349.279 201.237 349.736 201.072V198.285Z" fill="#FFFFFC" />
    <path d="M343.969 195.439C343.512 195.275 342.975 195.172 342.389 195.172C340.752 195.172 339.424 195.914 339.424 196.832C339.424 197.748 340.752 198.492 342.389 198.492C342.975 198.492 343.512 198.389 343.969 198.224V195.439Z" fill="#FFFFFC" />
    <path d="M313.182 216.249C313.182 216.249 305.842 226.13 291.174 226.13C276.51 226.13 264.619 216.249 264.619 216.249C264.619 216.249 276.51 206.368 291.174 206.368C305.842 206.368 313.182 216.249 313.182 216.249Z" fill="#327DDE" />
    <path d="M302.189 208.438V224.062C309.503 221.166 313.181 216.249 313.181 216.249C313.181 216.249 309.504 211.334 302.189 208.438Z" fill="#FFFFFC" />
    <path d="M269.502 216.518L259 210.453V222.582L269.502 216.518L259 210.453V222.582L269.502 216.518Z" fill="#327DDE" />
    <path d="M288.174 214.285C287.438 214.021 286.58 213.857 285.641 213.857C283.018 213.857 280.891 215.047 280.891 216.517C280.891 217.987 283.018 219.178 285.641 219.178C286.58 219.178 287.438 219.013 288.174 218.749V214.285Z" fill="#FFFFFC" />
    <path d="M241.92 251.879C241.92 251.879 234.581 261.762 219.914 261.762C205.248 261.762 193.359 251.879 193.359 251.879C193.359 251.879 205.248 241.999 219.914 241.999C234.581 241.999 241.92 251.879 241.92 251.879Z" fill="#A14D95" />
    <path d="M230.929 244.067V259.692C238.244 256.795 241.92 251.878 241.92 251.878C241.92 251.878 238.244 246.963 230.929 244.067Z" fill="#FFFFFC" />
    <path d="M198.502 252.148L188 246.084V258.213L198.502 252.148L188 246.084V258.213L198.502 252.148Z" fill="#A14D95" />
    <path d="M216.912 249.916C216.178 249.652 215.32 249.487 214.38 249.487C211.756 249.487 209.628 250.679 209.628 252.148C209.628 253.618 211.756 254.809 214.38 254.809C215.319 254.809 216.177 254.644 216.912 254.381V249.916Z" fill="#FFFFFC" />
    <path d="M447.959 234.839C447.959 234.839 440.619 244.722 425.951 244.722C411.285 244.722 399.396 234.839 399.396 234.839C399.396 234.839 411.285 224.958 425.951 224.958C440.619 224.958 447.959 234.839 447.959 234.839Z" fill="#A14D95" />
    <path d="M436.967 227.026V242.652C444.281 239.755 447.959 234.839 447.959 234.839C447.959 234.839 444.281 229.923 436.967 227.026Z" fill="#FFFFFC" />
    <path d="M404.502 235.108L394 229.044V241.173L404.502 235.108L394 229.044V241.173L404.502 235.108Z" fill="#A14D95" />
    <path d="M422.949 232.874C422.215 232.611 421.357 232.447 420.416 232.447C417.793 232.447 415.666 233.638 415.666 235.108C415.666 236.576 417.793 237.769 420.416 237.769C421.357 237.769 422.215 237.602 422.949 237.34V232.874Z" fill="#FFFFFC" />
    <path d="M313.182 178.186C313.182 178.186 305.842 188.068 291.174 188.068C276.51 188.068 264.619 178.186 264.619 178.186C264.619 178.186 276.51 168.306 291.174 168.306C305.842 168.306 313.182 178.186 313.182 178.186Z" fill="#FF6B73" />
    <path d="M302.189 170.375V185.999C309.503 183.103 313.181 178.186 313.181 178.186C313.181 178.186 309.504 173.27 302.189 170.375Z" fill="#FFFFFC" />
    <path d="M269.502 178.455L259 172.39V184.52L269.502 178.455L259 172.39V184.52L269.502 178.455Z" fill="#FF6B73" />
    <path d="M299.098 171.601C298.637 171.437 298.106 171.332 297.518 171.332C295.881 171.332 294.553 172.077 294.553 172.992C294.553 173.91 295.881 174.653 297.518 174.653C298.106 174.653 298.637 174.549 299.098 174.386V171.601Z" fill="#FFFFFC" />
    <path d="M299.098 176.375C298.637 176.212 298.106 176.108 297.518 176.108C295.881 176.108 294.553 176.85 294.553 177.768C294.553 178.684 295.881 179.429 297.518 179.429C298.106 179.429 298.637 179.325 299.098 179.161V176.375Z" fill="#FFFFFC" />
    <path d="M293.908 174.084C293.451 173.921 292.916 173.817 292.33 173.817C290.691 173.817 289.363 174.56 289.363 175.476C289.363 176.393 290.691 177.137 292.33 177.137C292.916 177.137 293.451 177.033 293.908 176.869V174.084Z" fill="#FFFFFC" />
    <path d="M299.098 181.987C298.637 181.824 298.106 181.72 297.518 181.72C295.881 181.72 294.553 182.463 294.553 183.381C294.553 184.297 295.881 185.041 297.518 185.041C298.106 185.041 298.637 184.937 299.098 184.772V181.987Z" fill="#FFFFFC" />
    <path d="M287.711 171.601C287.252 171.437 286.719 171.332 286.131 171.332C284.494 171.332 283.166 172.077 283.166 172.992C283.166 173.91 284.494 174.653 286.131 174.653C286.719 174.653 287.252 174.549 287.711 174.386V171.601Z" fill="#FFFFFC" />
    <path d="M287.711 176.375C287.252 176.212 286.719 176.108 286.131 176.108C284.494 176.108 283.166 176.85 283.166 177.768C283.166 178.684 284.494 179.429 286.131 179.429C286.719 179.429 287.252 179.325 287.711 179.161V176.375Z" fill="#FFFFFC" />
    <path d="M287.711 181.987C287.252 181.824 286.719 181.72 286.131 181.72C284.494 181.72 283.166 182.463 283.166 183.381C283.166 184.297 284.494 185.041 286.131 185.041C286.719 185.041 287.252 184.937 287.711 184.772V181.987Z" fill="#FFFFFC" />
    <path d="M293.908 179.696C293.451 179.533 292.916 179.429 292.33 179.429C290.691 179.429 289.363 180.172 289.363 181.089C289.363 182.006 290.691 182.75 292.33 182.75C292.916 182.75 293.451 182.646 293.908 182.481V179.696Z" fill="#FFFFFC" />
    <path d="M280.828 174.084C280.369 173.921 279.834 173.817 279.248 173.817C277.609 173.817 276.281 174.56 276.281 175.476C276.281 176.393 277.609 177.137 279.248 177.137C279.834 177.137 280.369 177.033 280.828 176.869V174.084Z" fill="#FFFFFC" />
    <path d="M280.828 179.696C280.369 179.533 279.834 179.429 279.248 179.429C277.609 179.429 276.281 180.172 276.281 181.089C276.281 182.006 277.609 182.75 279.248 182.75C279.834 182.75 280.369 182.646 280.828 182.481V179.696Z" fill="#FFFFFC" />
    <path d="M275.06 176.849C274.601 176.686 274.066 176.583 273.48 176.583C271.843 176.583 270.515 177.326 270.515 178.243C270.515 179.159 271.843 179.903 273.48 179.903C274.066 179.903 274.601 179.8 275.06 179.635V176.849Z" fill="#FFFFFC" />
    <path d="M313.182 251.879C313.182 251.879 305.842 261.762 291.174 261.762C276.51 261.762 264.619 251.879 264.619 251.879C264.619 251.879 276.51 241.999 291.174 241.999C305.842 241.999 313.182 251.879 313.182 251.879Z" fill="#FC6A33" />
    <path d="M302.189 244.067V259.691C309.503 256.795 313.181 251.878 313.181 251.878C313.181 251.878 309.504 246.963 302.189 244.067Z" fill="#FFFFFC" />
    <path d="M269.502 252.148L259 246.084V258.213L269.502 252.148L259 246.084V258.213L269.502 252.148Z" fill="#FC6A33" />
    <path d="M299.098 245.294C298.637 245.128 298.106 245.026 297.518 245.026C295.881 245.026 294.553 245.771 294.553 246.686C294.553 247.604 295.881 248.347 297.518 248.347C298.106 248.347 298.637 248.243 299.098 248.08V245.294Z" fill="#FFFFFC" />
    <path d="M299.098 250.068C298.637 249.905 298.106 249.801 297.518 249.801C295.881 249.801 294.553 250.543 294.553 251.461C294.553 252.377 295.881 253.122 297.518 253.122C298.106 253.122 298.637 253.018 299.098 252.854V250.068Z" fill="#FFFFFC" />
    <path d="M293.908 247.776C293.451 247.612 292.916 247.509 292.33 247.509C290.691 247.509 289.363 248.252 289.363 249.17C289.363 250.086 290.691 250.831 292.33 250.831C292.916 250.831 293.451 250.727 293.908 250.563V247.776Z" fill="#FFFFFC" />
    <path d="M299.098 255.681C298.637 255.517 298.106 255.413 297.518 255.413C295.881 255.413 294.553 256.157 294.553 257.075C294.553 257.99 295.881 258.735 297.518 258.735C298.106 258.735 298.637 258.631 299.098 258.466V255.681Z" fill="#FFFFFC" />
    <path d="M287.711 245.294C287.252 245.128 286.719 245.026 286.131 245.026C284.494 245.026 283.166 245.771 283.166 246.686C283.166 247.604 284.494 248.347 286.131 248.347C286.719 248.347 287.252 248.243 287.711 248.08V245.294Z" fill="#FFFFFC" />
    <path d="M287.711 250.068C287.252 249.905 286.719 249.801 286.131 249.801C284.494 249.801 283.166 250.543 283.166 251.461C283.166 252.377 284.494 253.122 286.131 253.122C286.719 253.122 287.252 253.018 287.711 252.854V250.068Z" fill="#FFFFFC" />
    <path d="M287.711 255.681C287.252 255.517 286.719 255.413 286.131 255.413C284.494 255.413 283.166 256.157 283.166 257.075C283.166 257.99 284.494 258.735 286.131 258.735C286.719 258.735 287.252 258.631 287.711 258.466V255.681Z" fill="#FFFFFC" />
    <path d="M293.908 253.39C293.451 253.226 292.916 253.123 292.33 253.123C290.691 253.123 289.363 253.866 289.363 254.783C289.363 255.7 290.691 256.443 292.33 256.443C292.916 256.443 293.451 256.34 293.908 256.175V253.39Z" fill="#FFFFFC" />
    <path d="M280.828 247.776C280.369 247.612 279.834 247.509 279.248 247.509C277.609 247.509 276.281 248.252 276.281 249.17C276.281 250.086 277.609 250.831 279.248 250.831C279.834 250.831 280.369 250.727 280.828 250.563V247.776Z" fill="#FFFFFC" />
    <path d="M280.828 253.39C280.369 253.226 279.834 253.123 279.248 253.123C277.609 253.123 276.281 253.866 276.281 254.783C276.281 255.7 277.609 256.443 279.248 256.443C279.834 256.443 280.369 256.34 280.828 256.175V253.39Z" fill="#FFFFFC" />
    <path d="M275.06 250.542C274.601 250.379 274.066 250.276 273.48 250.276C271.843 250.276 270.515 251.018 270.515 251.936C270.515 252.851 271.843 253.596 273.48 253.596C274.066 253.596 274.601 253.493 275.06 253.327V250.542Z" fill="#FFFFFC" />
    <path d="M380.168 235.505C380.168 235.505 372.828 245.387 358.162 245.387C343.496 245.387 331.607 235.505 331.607 235.505C331.607 235.505 343.496 225.625 358.162 225.625C372.828 225.625 380.168 235.505 380.168 235.505Z" fill="#903497" />
    <path d="M369.176 227.694V243.318C376.492 240.422 380.168 235.506 380.168 235.506C380.168 235.506 376.492 230.59 369.176 227.694Z" fill="#FFFFFC" />
    <path d="M336.502 235.774L326 229.709V241.839L336.502 235.774L326 229.709V241.839L336.502 235.774Z" fill="#903497" />
    <path d="M366.084 228.252C365.625 228.088 365.092 227.985 364.504 227.985C362.867 227.985 361.539 228.728 361.539 229.645C361.539 230.563 362.867 231.305 364.504 231.305C365.092 231.305 365.625 231.202 366.084 231.037V228.252Z" fill="#FFFFFC" />
    <path d="M366.084 233.026C365.625 232.864 365.092 232.761 364.504 232.761C362.867 232.761 361.539 233.503 361.539 234.421C361.539 235.337 362.867 236.081 364.504 236.081C365.092 236.081 365.625 235.979 366.084 235.813V233.026Z" fill="#FFFFFC" />
    <path d="M360.895 230.735C360.438 230.572 359.903 230.469 359.317 230.469C357.678 230.469 356.35 231.212 356.35 232.129C356.35 233.044 357.678 233.789 359.317 233.789C359.903 233.789 360.438 233.687 360.895 233.522V230.735Z" fill="#FFFFFC" />
    <path d="M366.084 238.641C365.625 238.476 365.092 238.373 364.504 238.373C362.867 238.373 361.539 239.116 361.539 240.033C361.539 240.95 362.867 241.693 364.504 241.693C365.092 241.693 365.625 241.59 366.084 241.426V238.641Z" fill="#FFFFFC" />
    <path d="M354.697 228.252C354.238 228.088 353.705 227.985 353.117 227.985C351.48 227.985 350.152 228.728 350.152 229.645C350.152 230.563 351.48 231.305 353.117 231.305C353.705 231.305 354.238 231.202 354.697 231.037V228.252Z" fill="#FFFFFC" />
    <path d="M354.697 233.026C354.238 232.864 353.705 232.761 353.117 232.761C351.48 232.761 350.152 233.503 350.152 234.421C350.152 235.337 351.48 236.081 353.117 236.081C353.705 236.081 354.238 235.979 354.697 235.813V233.026Z" fill="#FFFFFC" />
    <path d="M354.697 238.641C354.238 238.476 353.705 238.373 353.117 238.373C351.48 238.373 350.152 239.116 350.152 240.033C350.152 240.95 351.48 241.693 353.117 241.693C353.705 241.693 354.238 241.59 354.697 241.426V238.641Z" fill="#FFFFFC" />
    <path d="M360.895 236.35C360.438 236.185 359.903 236.082 359.317 236.082C357.678 236.082 356.35 236.825 356.35 237.742C356.35 238.658 357.678 239.402 359.317 239.402C359.903 239.402 360.438 239.3 360.895 239.135V236.35Z" fill="#FFFFFC" />
    <path d="M347.814 230.735C347.355 230.572 346.82 230.469 346.234 230.469C344.595 230.469 343.267 231.212 343.267 232.129C343.267 233.044 344.595 233.789 346.234 233.789C346.82 233.789 347.355 233.687 347.814 233.522V230.735Z" fill="#FFFFFC" />
    <path d="M347.814 236.35C347.355 236.185 346.82 236.082 346.234 236.082C344.595 236.082 343.267 236.825 343.267 237.742C343.267 238.658 344.595 239.402 346.234 239.402C346.82 239.402 347.355 239.3 347.814 239.135V236.35Z" fill="#FFFFFC" />
    <path d="M342.047 233.502C341.59 233.338 341.055 233.235 340.467 233.235C338.83 233.235 337.502 233.977 337.502 234.895C337.502 235.811 338.83 236.555 340.467 236.555C341.055 236.555 341.59 236.452 342.047 236.287V233.502Z" fill="#FFFFFC" />
    <path d="M312.379 292.824C312.379 292.824 305.039 302.706 290.371 302.706C275.705 302.706 263.816 292.824 263.816 292.824C263.816 292.824 275.705 282.944 290.371 282.944C305.039 282.944 312.379 292.824 312.379 292.824Z" fill="#903497" />
    <path d="M301.387 285.013V300.637C308.702 297.74 312.379 292.824 312.379 292.824C312.379 292.824 308.701 287.908 301.387 285.013Z" fill="#FFFFFC" />
    <path d="M268.502 293.094L258 287.028V299.157L268.502 293.094L258 287.028V299.157L268.502 293.094Z" fill="#903497" />
    <path d="M298.295 286.237C297.834 286.074 297.301 285.969 296.715 285.969C295.078 285.969 293.75 286.713 293.75 287.629C293.75 288.547 295.078 289.289 296.715 289.289C297.301 289.289 297.834 289.186 298.295 289.024V286.237Z" fill="#FFFFFC" />
    <path d="M298.295 291.013C297.834 290.849 297.301 290.746 296.715 290.746C295.078 290.746 293.75 291.488 293.75 292.406C293.75 293.323 295.078 294.066 296.715 294.066C297.301 294.066 297.834 293.963 298.295 293.798V291.013Z" fill="#FFFFFC" />
    <path d="M293.105 288.721C292.648 288.558 292.111 288.455 291.525 288.455C289.888 288.455 288.56 289.197 288.56 290.115C288.56 291.032 289.888 291.775 291.525 291.775C292.111 291.775 292.648 291.673 293.105 291.506V288.721Z" fill="#FFFFFC" />
    <path d="M298.295 296.625C297.834 296.461 297.301 296.357 296.715 296.357C295.078 296.357 293.75 297.1 293.75 298.018C293.75 298.935 295.078 299.678 296.715 299.678C297.301 299.678 297.834 299.574 298.295 299.41V296.625Z" fill="#FFFFFC" />
    <path d="M286.908 286.237C286.449 286.074 285.914 285.969 285.328 285.969C283.691 285.969 282.363 286.713 282.363 287.629C282.363 288.547 283.691 289.289 285.328 289.289C285.914 289.289 286.449 289.186 286.908 289.024V286.237Z" fill="#FFFFFC" />
    <path d="M286.908 291.013C286.449 290.849 285.914 290.746 285.328 290.746C283.691 290.746 282.363 291.488 282.363 292.406C282.363 293.323 283.691 294.066 285.328 294.066C285.914 294.066 286.449 293.963 286.908 293.798V291.013Z" fill="#FFFFFC" />
    <path d="M286.908 296.625C286.449 296.461 285.914 296.357 285.328 296.357C283.691 296.357 282.363 297.1 282.363 298.018C282.363 298.935 283.691 299.678 285.328 299.678C285.914 299.678 286.449 299.574 286.908 299.41V296.625Z" fill="#FFFFFC" />
    <path d="M293.105 294.334C292.648 294.171 292.111 294.066 291.525 294.066C289.888 294.066 288.56 294.809 288.56 295.726C288.56 296.643 289.888 297.388 291.525 297.388C292.111 297.388 292.648 297.284 293.105 297.119V294.334Z" fill="#FFFFFC" />
    <path d="M280.023 288.721C279.566 288.558 279.031 288.455 278.445 288.455C276.806 288.455 275.478 289.197 275.478 290.115C275.478 291.032 276.806 291.775 278.445 291.775C279.031 291.775 279.566 291.673 280.023 291.506V288.721Z" fill="#FFFFFC" />
    <path d="M280.023 294.334C279.566 294.171 279.031 294.066 278.445 294.066C276.806 294.066 275.478 294.809 275.478 295.726C275.478 296.643 276.806 297.388 278.445 297.388C279.031 297.388 279.566 297.284 280.023 297.119V294.334Z" fill="#FFFFFC" />
    <path d="M274.258 291.487C273.799 291.322 273.264 291.219 272.678 291.219C271.041 291.219 269.713 291.962 269.713 292.879C269.713 293.796 271.041 294.54 272.678 294.54C273.264 294.54 273.799 294.437 274.258 294.272V291.487Z" fill="#FFFFFC" />
    <path d="M108.215 311.249C108.215 311.249 100.876 321.13 86.208 321.13C71.542 321.13 59.654 311.249 59.654 311.249C59.654 311.249 71.542 301.368 86.208 301.368C100.876 301.368 108.215 311.249 108.215 311.249Z" fill="#FFD43A" />
    <path d="M97.224 303.438V319.062C104.538 316.166 108.215 311.249 108.215 311.249C108.215 311.249 104.539 306.334 97.224 303.438Z" fill="#FFFFFC" />
    <path d="M63.501 311.518L53 305.453V317.582L63.501 311.518L53 305.453V317.582L63.501 311.518Z" fill="#FFD43A" />
    <path d="M83.206 309.285C82.471 309.021 81.614 308.857 80.675 308.857C78.052 308.857 75.923 310.048 75.923 311.517C75.923 312.986 78.052 314.178 80.675 314.178C81.614 314.178 82.471 314.013 83.206 313.749V309.285Z" fill="#FFFFFC" />
    <path d="M244.215 371.249C244.215 371.249 236.876 381.13 222.208 381.13C207.542 381.13 195.654 371.249 195.654 371.249C195.654 371.249 207.542 361.368 222.208 361.368C236.876 361.368 244.215 371.249 244.215 371.249Z" fill="#903497" />
    <path d="M233.224 363.438V379.062C240.538 376.166 244.215 371.249 244.215 371.249C244.215 371.249 240.539 366.334 233.224 363.438Z" fill="#FFFFFC" />
    <path d="M199.502 371.518L189 365.453V377.582L199.502 371.518L189 365.453V377.582L199.502 371.518Z" fill="#903497" />
    <path d="M219.206 369.285C218.471 369.021 217.613 368.857 216.675 368.857C214.051 368.857 211.923 370.048 211.923 371.517C211.923 372.986 214.051 374.178 216.675 374.178C217.614 374.178 218.471 374.013 219.206 373.749V369.285Z" fill="#FFFFFC" />
    <path d="M246.09 291.776C246.09 291.776 238.75 301.659 224.082 301.659C209.417 301.659 197.528 291.776 197.528 291.776C197.528 291.776 209.417 281.895 224.082 281.895C238.75 281.896 246.09 291.776 246.09 291.776Z" fill="#FFD43A" />
    <path d="M235.1 283.964V299.588C242.413 296.693 246.09 291.777 246.09 291.777C246.09 291.777 242.414 286.86 235.1 283.964Z" fill="#FFFFFC" />
    <path d="M202.502 292.046L192 285.981V298.11L202.502 292.046L192 285.981V298.11L202.502 292.046Z" fill="#FFD43A" />
    <path d="M232.006 285.19C231.547 285.026 231.014 284.923 230.428 284.923C228.79 284.923 227.462 285.666 227.462 286.583C227.462 287.501 228.79 288.243 230.428 288.243C231.014 288.243 231.547 288.14 232.006 287.976V285.19Z" fill="#FFFFFC" />
    <path d="M232.006 289.964C231.547 289.802 231.014 289.699 230.428 289.699C228.79 289.699 227.462 290.441 227.462 291.359C227.462 292.274 228.79 293.019 230.428 293.019C231.014 293.019 231.547 292.916 232.006 292.751V289.964Z" fill="#FFFFFC" />
    <path d="M226.818 287.673C226.36 287.51 225.825 287.407 225.239 287.407C223.601 287.407 222.272 288.15 222.272 289.068C222.272 289.982 223.601 290.728 225.239 290.728C225.825 290.728 226.36 290.626 226.818 290.46V287.673Z" fill="#FFFFFC" />
    <path d="M232.006 295.578C231.547 295.413 231.014 295.31 230.428 295.31C228.79 295.31 227.462 296.053 227.462 296.971C227.462 297.887 228.79 298.631 230.428 298.631C231.014 298.631 231.547 298.527 232.006 298.363V295.578Z" fill="#FFFFFC" />
    <path d="M220.621 285.19C220.161 285.026 219.628 284.923 219.042 284.923C217.403 284.923 216.075 285.666 216.075 286.583C216.075 287.501 217.403 288.243 219.042 288.243C219.628 288.243 220.161 288.14 220.621 287.976V285.19Z" fill="#FFFFFC" />
    <path d="M220.621 289.964C220.161 289.802 219.628 289.699 219.042 289.699C217.403 289.699 216.075 290.441 216.075 291.359C216.075 292.274 217.403 293.019 219.042 293.019C219.628 293.019 220.161 292.916 220.621 292.751V289.964Z" fill="#FFFFFC" />
    <path d="M220.621 295.578C220.161 295.413 219.628 295.31 219.042 295.31C217.403 295.31 216.075 296.053 216.075 296.971C216.075 297.887 217.403 298.631 219.042 298.631C219.628 298.631 220.161 298.527 220.621 298.363V295.578Z" fill="#FFFFFC" />
    <path d="M226.818 293.285C226.36 293.122 225.825 293.019 225.239 293.019C223.601 293.019 222.272 293.762 222.272 294.679C222.272 295.595 223.601 296.339 225.239 296.339C225.825 296.339 226.36 296.236 226.818 296.072V293.285Z" fill="#FFFFFC" />
    <path d="M213.737 287.673C213.279 287.51 212.743 287.407 212.157 287.407C210.519 287.407 209.191 288.15 209.191 289.068C209.191 289.982 210.519 290.728 212.157 290.728C212.743 290.728 213.279 290.626 213.737 290.46V287.673Z" fill="#FFFFFC" />
    <path d="M213.737 293.285C213.279 293.122 212.743 293.019 212.157 293.019C210.519 293.019 209.191 293.762 209.191 294.679C209.191 295.595 210.519 296.339 212.157 296.339C212.743 296.339 213.279 296.236 213.737 296.072V293.285Z" fill="#FFFFFC" />
    <path d="M207.969 290.44C207.512 290.276 206.975 290.173 206.389 290.173C204.752 290.173 203.424 290.915 203.424 291.833C203.424 292.749 204.752 293.493 206.389 293.493C206.975 293.493 207.512 293.39 207.969 293.225V290.44Z" fill="#FFFFFC" />
    <path d="M177.181 311.249C177.181 311.249 169.842 321.13 155.174 321.13C140.509 321.13 128.619 311.249 128.619 311.249C128.619 311.249 140.509 301.368 155.174 301.368C169.842 301.368 177.181 311.249 177.181 311.249Z" fill="#A14D95" />
    <path d="M166.19 303.438V319.062C173.504 316.166 177.181 311.249 177.181 311.249C177.181 311.249 173.504 306.334 166.19 303.438Z" fill="#FFFFFC" />
    <path d="M133.502 311.518L123 305.453V317.582L133.502 311.518L123 305.453V317.582L133.502 311.518Z" fill="#A14D95" />
    <path d="M152.173 309.285C151.438 309.021 150.58 308.857 149.641 308.857C147.017 308.857 144.89 310.048 144.89 311.517C144.89 312.986 147.017 314.178 149.641 314.178C150.58 314.178 151.438 314.013 152.173 313.749V309.285Z" fill="#FFFFFC" />
    <path d="M105.92 346.879C105.92 346.879 98.581 356.762 83.914 356.762C69.248 356.762 57.359 346.879 57.359 346.879C57.359 346.879 69.248 336.999 83.914 336.999C98.581 336.999 105.92 346.879 105.92 346.879Z" fill="#327DDE" />
    <path d="M94.929 339.067V354.692C102.244 351.795 105.92 346.878 105.92 346.878C105.92 346.878 102.244 341.963 94.929 339.067Z" fill="#FFFFFC" />
    <path d="M62.502 347.148L52 341.084V353.213L62.502 347.148L52 341.084V353.213L62.502 347.148Z" fill="#327DDE" />
    <path d="M80.912 344.916C80.178 344.652 79.32 344.487 78.38 344.487C75.756 344.487 73.629 345.679 73.629 347.148C73.629 348.618 75.757 349.809 78.38 349.809C79.319 349.809 80.177 349.644 80.912 349.381V344.916Z" fill="#FFFFFC" />
    <path d="M311.959 329.839C311.959 329.839 304.619 339.722 289.951 339.722C275.285 339.722 263.396 329.839 263.396 329.839C263.396 329.839 275.285 319.958 289.951 319.958C304.619 319.958 311.959 329.839 311.959 329.839Z" fill="#A14D95" />
    <path d="M300.967 322.026V337.652C308.281 334.755 311.959 329.839 311.959 329.839C311.959 329.839 308.281 324.923 300.967 322.026Z" fill="#FFFFFC" />
    <path d="M268.502 330.108L258 324.044V336.173L268.502 330.108L258 324.044V336.173L268.502 330.108Z" fill="#A14D95" />
    <path d="M286.949 327.874C286.215 327.611 285.357 327.447 284.416 327.447C281.793 327.447 279.666 328.638 279.666 330.108C279.666 331.576 281.793 332.769 284.416 332.769C285.357 332.769 286.215 332.602 286.949 332.34V327.874Z" fill="#FFFFFC" />
    <path d="M177.181 273.185C177.181 273.185 169.842 283.067 155.174 283.067C140.509 283.067 128.619 273.185 128.619 273.185C128.619 273.185 140.509 263.305 155.174 263.305C169.842 263.306 177.181 273.185 177.181 273.185Z" fill="#903497" />
    <path d="M166.19 265.375V280.999C173.504 278.103 177.181 273.185 177.181 273.185C177.181 273.185 173.504 268.271 166.19 265.375Z" fill="#FFFFFC" />
    <path d="M133.502 273.455L123 267.39V279.52L133.502 273.455L123 267.39V279.52L133.502 273.455Z" fill="#903497" />
    <path d="M163.098 266.601C162.637 266.437 162.105 266.332 161.518 266.332C159.881 266.332 158.553 267.077 158.553 267.992C158.553 268.91 159.881 269.653 161.518 269.653C162.105 269.653 162.637 269.55 163.098 269.386V266.601Z" fill="#FFFFFC" />
    <path d="M163.098 271.375C162.637 271.212 162.105 271.108 161.518 271.108C159.881 271.108 158.553 271.85 158.553 272.768C158.553 273.684 159.881 274.429 161.518 274.429C162.105 274.429 162.637 274.326 163.098 274.161V271.375Z" fill="#FFFFFC" />
    <path d="M157.909 269.084C157.452 268.921 156.917 268.817 156.33 268.817C154.692 268.817 153.364 269.56 153.364 270.476C153.364 271.393 154.692 272.137 156.33 272.137C156.917 272.137 157.452 272.034 157.909 271.869V269.084Z" fill="#FFFFFC" />
    <path d="M163.098 276.987C162.637 276.824 162.105 276.72 161.518 276.72C159.881 276.72 158.553 277.463 158.553 278.381C158.553 279.297 159.881 280.041 161.518 280.041C162.105 280.041 162.637 279.938 163.098 279.772V276.987Z" fill="#FFFFFC" />
    <path d="M151.711 266.601C151.252 266.437 150.719 266.332 150.131 266.332C148.494 266.332 147.166 267.077 147.166 267.992C147.166 268.91 148.494 269.653 150.131 269.653C150.719 269.653 151.252 269.55 151.711 269.386V266.601Z" fill="#FFFFFC" />
    <path d="M151.711 271.375C151.252 271.212 150.719 271.108 150.131 271.108C148.494 271.108 147.166 271.85 147.166 272.768C147.166 273.684 148.494 274.429 150.131 274.429C150.719 274.429 151.252 274.326 151.711 274.161V271.375Z" fill="#FFFFFC" />
    <path d="M151.711 276.987C151.252 276.824 150.719 276.72 150.131 276.72C148.494 276.72 147.166 277.463 147.166 278.381C147.166 279.297 148.494 280.041 150.131 280.041C150.719 280.041 151.252 279.938 151.711 279.772V276.987Z" fill="#FFFFFC" />
    <path d="M157.909 274.696C157.452 274.533 156.917 274.429 156.33 274.429C154.692 274.429 153.364 275.172 153.364 276.089C153.364 277.006 154.692 277.75 156.33 277.75C156.917 277.75 157.452 277.646 157.909 277.481V274.696Z" fill="#FFFFFC" />
    <path d="M144.828 269.084C144.37 268.921 143.835 268.817 143.248 268.817C141.61 268.817 140.282 269.56 140.282 270.476C140.282 271.393 141.61 272.137 143.248 272.137C143.835 272.137 144.37 272.034 144.828 271.869V269.084Z" fill="#FFFFFC" />
    <path d="M144.828 274.696C144.37 274.533 143.835 274.429 143.248 274.429C141.61 274.429 140.282 275.172 140.282 276.089C140.282 277.006 141.61 277.75 143.248 277.75C143.835 277.75 144.37 277.646 144.828 277.481V274.696Z" fill="#FFFFFC" />
    <path d="M139.061 271.849C138.602 271.686 138.067 271.583 137.481 271.583C135.844 271.583 134.516 272.326 134.516 273.243C134.516 274.159 135.844 274.903 137.481 274.903C138.067 274.903 138.602 274.801 139.061 274.635V271.849Z" fill="#FFFFFC" />
    <path d="M177.181 346.879C177.181 346.879 169.842 356.762 155.174 356.762C140.509 356.762 128.619 346.879 128.619 346.879C128.619 346.879 140.509 336.999 155.174 336.999C169.842 336.999 177.181 346.879 177.181 346.879Z" fill="#FC6A33" />
    <path d="M166.19 339.067V354.691C173.504 351.795 177.181 346.878 177.181 346.878C177.181 346.878 173.504 341.963 166.19 339.067Z" fill="#FFFFFC" />
    <path d="M133.502 347.148L123 341.084V353.213L133.502 347.148L123 341.084V353.213L133.502 347.148Z" fill="#FC6A33" />
    <path d="M163.098 340.294C162.637 340.128 162.105 340.025 161.518 340.025C159.881 340.025 158.553 340.77 158.553 341.685C158.553 342.603 159.881 343.346 161.518 343.346C162.105 343.346 162.637 343.242 163.098 343.079V340.294Z" fill="#FFFFFC" />
    <path d="M163.098 345.068C162.637 344.905 162.105 344.801 161.518 344.801C159.881 344.801 158.553 345.543 158.553 346.461C158.553 347.377 159.881 348.122 161.518 348.122C162.105 348.122 162.637 348.019 163.098 347.854V345.068Z" fill="#FFFFFC" />
    <path d="M157.909 342.776C157.452 342.612 156.917 342.509 156.33 342.509C154.692 342.509 153.364 343.252 153.364 344.17C153.364 345.086 154.692 345.831 156.33 345.831C156.917 345.831 157.452 345.727 157.909 345.563V342.776Z" fill="#FFFFFC" />
    <path d="M163.098 350.681C162.637 350.517 162.105 350.413 161.518 350.413C159.881 350.413 158.553 351.157 158.553 352.075C158.553 352.99 159.881 353.735 161.518 353.735C162.105 353.735 162.637 353.631 163.098 353.466V350.681Z" fill="#FFFFFC" />
    <path d="M151.711 340.294C151.252 340.128 150.719 340.025 150.131 340.025C148.494 340.025 147.166 340.77 147.166 341.685C147.166 342.603 148.494 343.346 150.131 343.346C150.719 343.346 151.252 343.242 151.711 343.079V340.294Z" fill="#FFFFFC" />
    <path d="M151.711 345.068C151.252 344.905 150.719 344.801 150.131 344.801C148.494 344.801 147.166 345.543 147.166 346.461C147.166 347.377 148.494 348.122 150.131 348.122C150.719 348.122 151.252 348.019 151.711 347.854V345.068Z" fill="#FFFFFC" />
    <path d="M151.711 350.681C151.252 350.517 150.719 350.413 150.131 350.413C148.494 350.413 147.166 351.157 147.166 352.075C147.166 352.99 148.494 353.735 150.131 353.735C150.719 353.735 151.252 353.631 151.711 353.466V350.681Z" fill="#FFFFFC" />
    <path d="M157.909 348.39C157.452 348.226 156.917 348.123 156.33 348.123C154.692 348.123 153.364 348.866 153.364 349.783C153.364 350.7 154.692 351.443 156.33 351.443C156.917 351.443 157.452 351.34 157.909 351.175V348.39Z" fill="#FFFFFC" />
    <path d="M144.828 342.776C144.37 342.612 143.835 342.509 143.248 342.509C141.61 342.509 140.282 343.252 140.282 344.17C140.282 345.086 141.61 345.831 143.248 345.831C143.835 345.831 144.37 345.727 144.828 345.563V342.776Z" fill="#FFFFFC" />
    <path d="M144.828 348.39C144.37 348.226 143.835 348.123 143.248 348.123C141.61 348.123 140.282 348.866 140.282 349.783C140.282 350.7 141.61 351.443 143.248 351.443C143.835 351.443 144.37 351.34 144.828 351.175V348.39Z" fill="#FFFFFC" />
    <path d="M139.061 345.542C138.602 345.379 138.067 345.276 137.481 345.276C135.844 345.276 134.516 346.018 134.516 346.936C134.516 347.851 135.844 348.596 137.481 348.596C138.067 348.596 138.602 348.493 139.061 348.327V345.542Z" fill="#FFFFFC" />
    <path d="M244.167 330.505C244.167 330.505 236.828 340.387 222.161 340.387C207.496 340.387 195.606 330.505 195.606 330.505C195.606 330.505 207.496 320.625 222.161 320.625C236.829 320.625 244.167 330.505 244.167 330.505Z" fill="#FF6B73" />
    <path d="M233.176 322.693V338.318C240.492 335.422 244.167 330.505 244.167 330.505C244.167 330.505 240.493 325.59 233.176 322.693Z" fill="#FFFFFC" />
    <path d="M200.502 330.774L190 324.709V336.839L200.502 330.774L190 324.709V336.839L200.502 330.774Z" fill="#FF6B73" />
    <path d="M230.084 323.252C229.625 323.088 229.092 322.985 228.504 322.985C226.867 322.985 225.539 323.728 225.539 324.645C225.539 325.563 226.867 326.305 228.504 326.305C229.092 326.305 229.625 326.202 230.084 326.037V323.252Z" fill="#FFFFFC" />
    <path d="M230.084 328.026C229.625 327.864 229.092 327.761 228.504 327.761C226.867 327.761 225.539 328.503 225.539 329.421C225.539 330.337 226.867 331.081 228.504 331.081C229.092 331.081 229.625 330.978 230.084 330.813V328.026Z" fill="#FFFFFC" />
    <path d="M224.895 325.735C224.438 325.572 223.903 325.469 223.316 325.469C221.678 325.469 220.35 326.212 220.35 327.129C220.35 328.044 221.678 328.789 223.316 328.789C223.903 328.789 224.438 328.686 224.895 328.521V325.735Z" fill="#FFFFFC" />
    <path d="M230.084 333.641C229.625 333.476 229.092 333.373 228.504 333.373C226.867 333.373 225.539 334.116 225.539 335.033C225.539 335.95 226.867 336.693 228.504 336.693C229.092 336.693 229.625 336.59 230.084 336.426V333.641Z" fill="#FFFFFC" />
    <path d="M218.698 323.252C218.239 323.088 217.706 322.985 217.118 322.985C215.481 322.985 214.153 323.728 214.153 324.645C214.153 325.563 215.481 326.305 217.118 326.305C217.706 326.305 218.239 326.202 218.698 326.037V323.252Z" fill="#FFFFFC" />
    <path d="M218.698 328.026C218.239 327.864 217.706 327.761 217.118 327.761C215.481 327.761 214.153 328.503 214.153 329.421C214.153 330.337 215.481 331.081 217.118 331.081C217.706 331.081 218.239 330.978 218.698 330.813V328.026Z" fill="#FFFFFC" />
    <path d="M218.698 333.641C218.239 333.476 217.706 333.373 217.118 333.373C215.481 333.373 214.153 334.116 214.153 335.033C214.153 335.95 215.481 336.693 217.118 336.693C217.706 336.693 218.239 336.59 218.698 336.426V333.641Z" fill="#FFFFFC" />
    <path d="M224.895 331.35C224.438 331.185 223.903 331.082 223.316 331.082C221.678 331.082 220.35 331.825 220.35 332.742C220.35 333.658 221.678 334.402 223.316 334.402C223.903 334.402 224.438 334.299 224.895 334.135V331.35Z" fill="#FFFFFC" />
    <path d="M211.814 325.735C211.356 325.572 210.821 325.469 210.235 325.469C208.596 325.469 207.268 326.212 207.268 327.129C207.268 328.044 208.596 328.789 210.235 328.789C210.821 328.789 211.356 328.686 211.814 328.521V325.735Z" fill="#FFFFFC" />
    <path d="M211.814 331.35C211.356 331.185 210.821 331.082 210.235 331.082C208.596 331.082 207.268 331.825 207.268 332.742C207.268 333.658 208.596 334.402 210.235 334.402C210.821 334.402 211.356 334.299 211.814 334.135V331.35Z" fill="#FFFFFC" />
    <path d="M206.047 328.502C205.59 328.338 205.054 328.235 204.467 328.235C202.83 328.235 201.502 328.977 201.502 329.895C201.502 330.811 202.83 331.555 204.467 331.555C205.054 331.555 205.59 331.452 206.047 331.287V328.502Z" fill="#FFFFFC" />
    <path d="M176.378 387.824C176.378 387.824 169.039 397.706 154.371 397.706C139.705 397.706 127.816 387.824 127.816 387.824C127.816 387.824 139.705 377.944 154.371 377.944C169.04 377.944 176.378 387.824 176.378 387.824Z" fill="#FFD43A" />
    <path d="M165.387 380.013V395.637C172.701 392.74 176.378 387.824 176.378 387.824C176.378 387.824 172.702 382.908 165.387 380.013Z" fill="#FFFFFC" />
    <path d="M132.502 388.094L122 382.028V394.157L132.502 388.094L122 382.028V394.157L132.502 388.094Z" fill="#FFD43A" />
    <path d="M162.294 381.237C161.834 381.074 161.301 380.969 160.715 380.969C159.078 380.969 157.75 381.713 157.75 382.629C157.75 383.547 159.078 384.289 160.715 384.289C161.301 384.289 161.834 384.186 162.294 384.024V381.237Z" fill="#FFFFFC" />
    <path d="M162.294 386.013C161.834 385.849 161.301 385.746 160.715 385.746C159.078 385.746 157.75 386.488 157.75 387.406C157.75 388.323 159.078 389.066 160.715 389.066C161.301 389.066 161.834 388.963 162.294 388.798V386.013Z" fill="#FFFFFC" />
    <path d="M157.106 383.721C156.649 383.558 156.112 383.455 155.526 383.455C153.889 383.455 152.561 384.197 152.561 385.115C152.561 386.032 153.889 386.775 155.526 386.775C156.112 386.775 156.649 386.673 157.106 386.506V383.721Z" fill="#FFFFFC" />
    <path d="M162.294 391.625C161.834 391.461 161.301 391.357 160.715 391.357C159.078 391.357 157.75 392.1 157.75 393.018C157.75 393.935 159.078 394.678 160.715 394.678C161.301 394.678 161.834 394.574 162.294 394.41V391.625Z" fill="#FFFFFC" />
    <path d="M150.909 381.237C150.449 381.074 149.915 380.969 149.329 380.969C147.692 380.969 146.364 381.713 146.364 382.629C146.364 383.547 147.692 384.289 149.329 384.289C149.915 384.289 150.449 384.186 150.909 384.024V381.237Z" fill="#FFFFFC" />
    <path d="M150.909 386.013C150.449 385.849 149.915 385.746 149.329 385.746C147.692 385.746 146.364 386.488 146.364 387.406C146.364 388.323 147.692 389.066 149.329 389.066C149.915 389.066 150.449 388.963 150.909 388.798V386.013Z" fill="#FFFFFC" />
    <path d="M150.909 391.625C150.449 391.461 149.915 391.357 149.329 391.357C147.692 391.357 146.364 392.1 146.364 393.018C146.364 393.935 147.692 394.678 149.329 394.678C149.915 394.678 150.449 394.574 150.909 394.41V391.625Z" fill="#FFFFFC" />
    <path d="M157.106 389.334C156.649 389.171 156.112 389.066 155.526 389.066C153.889 389.066 152.561 389.809 152.561 390.726C152.561 391.643 153.889 392.388 155.526 392.388C156.112 392.388 156.649 392.284 157.106 392.119V389.334Z" fill="#FFFFFC" />
    <path d="M144.024 383.721C143.567 383.558 143.032 383.455 142.445 383.455C140.807 383.455 139.479 384.197 139.479 385.115C139.479 386.032 140.807 386.775 142.445 386.775C143.032 386.775 143.567 386.673 144.024 386.506V383.721Z" fill="#FFFFFC" />
    <path d="M144.024 389.334C143.567 389.171 143.032 389.066 142.445 389.066C140.807 389.066 139.479 389.809 139.479 390.726C139.479 391.643 140.807 392.388 142.445 392.388C143.032 392.388 143.567 392.284 144.024 392.119V389.334Z" fill="#FFFFFC" />
    <path d="M138.258 386.487C137.799 386.322 137.264 386.219 136.678 386.219C135.041 386.219 133.712 386.962 133.712 387.879C133.712 388.796 135.041 389.54 136.678 389.54C137.264 389.54 137.799 389.437 138.258 389.272V386.487Z" fill="#FFFFFC" />
    <path d="M48 36.295C54.128 36.295 54.128 41.199 60.255 41.199C66.385 41.199 66.385 36.295 72.515 36.295C78.643 36.295 78.643 41.199 84.771 41.199C90.903 41.199 90.903 36.295 97.035 36.295C103.167 36.295 103.167 41.199 109.299 41.199" stroke="#327DDE" stroke-width="3" stroke-miterlimit="10" stroke-linecap="round" stroke-linejoin="round" />
    <path d="M48 46.067C54.128 46.067 54.128 50.971 60.255 50.971C66.385 50.971 66.385 46.067 72.515 46.067C78.643 46.067 78.643 50.971 84.771 50.971C90.903 50.971 90.903 46.067 97.035 46.067C103.167 46.067 103.167 50.971 109.299 50.971" stroke="#327DDE" stroke-width="3" stroke-miterlimit="10" stroke-linecap="round" stroke-linejoin="round" />
    <path d="M40.581 235.921C46.708 235.921 46.708 240.825 52.836 240.825C58.966 240.825 58.966 235.921 65.096 235.921C71.224 235.921 71.224 240.825 77.351 240.825C83.483 240.825 83.483 235.921 89.615 235.921C95.747 235.921 95.747 240.825 101.879 240.825" stroke="#327DDE" stroke-width="3" stroke-miterlimit="10" stroke-linecap="round" stroke-linejoin="round" />
    <path d="M360.17 318.96C366.298 318.96 366.298 323.864 372.426 323.864C378.556 323.864 378.556 318.96 384.686 318.96C390.814 318.96 390.814 323.864 396.942 323.864C403.074 323.864 403.074 318.96 409.206 318.96C415.339 318.96 415.339 323.864 421.471 323.864" stroke="#327DDE" stroke-width="3" stroke-miterlimit="10" stroke-linecap="round" stroke-linejoin="round" />
    <path d="M408.17 180.96C414.298 180.96 414.298 185.864 420.426 185.864C426.556 185.864 426.556 180.96 432.686 180.96C438.814 180.96 438.814 185.864 444.942 185.864C451.074 185.864 451.074 180.96 457.206 180.96C463.339 180.96 463.339 185.864 469.471 185.864" stroke="#327DDE" stroke-width="3" stroke-miterlimit="10" stroke-linecap="round" stroke-linejoin="round" />
    <path d="M38.861 425.801C44.988 425.801 44.988 430.705 51.116 430.705C57.246 430.705 57.246 425.801 63.376 425.801C69.504 425.801 69.504 430.705 75.632 430.705C81.764 430.705 81.764 425.801 87.896 425.801C94.028 425.801 94.028 430.705 100.16 430.705" stroke="#327DDE" stroke-width="3" stroke-miterlimit="10" stroke-linecap="round" stroke-linejoin="round" />
    <path d="M384.406 70.261C390.534 70.261 390.534 75.165 396.662 75.165C402.792 75.165 402.792 70.261 408.922 70.261C415.05 70.261 415.05 75.165 421.178 75.165C427.31 75.165 427.31 70.261 433.442 70.261C439.575 70.261 439.575 75.165 445.707 75.165" stroke="#327DDE" stroke-width="3" stroke-miterlimit="10" stroke-linecap="round" stroke-linejoin="round" />
    <path d="M384.406 79.145C390.534 79.145 390.534 84.049 396.662 84.049C402.792 84.049 402.792 79.145 408.922 79.145C415.05 79.145 415.05 84.049 421.178 84.049C427.31 84.049 427.31 79.145 433.442 79.145C439.575 79.145 439.575 84.049 445.707 84.049" stroke="#327DDE" stroke-width="3" stroke-miterlimit="10" stroke-linecap="round" stroke-linejoin="round" />
    <g opacity="0.2">
      <path d="M288.212 50.303C288.212 51.989 286.846 53.355 285.16 53.355C283.473 53.355 282.107 51.988 282.107 50.303C282.107 48.617 283.473 47.251 285.16 47.251C286.846 47.251 288.212 48.618 288.212 50.303Z" fill="#FFFFFC" />
      <path d="M295.212 60.303C295.212 61.989 293.846 63.355 292.16 63.355C290.473 63.355 289.107 61.988 289.107 60.303C289.107 58.617 290.473 57.251 292.16 57.251C293.846 57.251 295.212 58.618 295.212 60.303Z" fill="#FFFFFC" />
      <path d="M288.212 70.303C288.212 71.989 286.846 73.355 285.16 73.355C283.473 73.355 282.107 71.988 282.107 70.303C282.107 68.617 283.473 67.251 285.16 67.251C286.846 67.251 288.212 68.618 288.212 70.303Z" fill="#FFFFFC" />
    </g>
    <g opacity="0.2">
      <path d="M141.212 227.999C141.212 229.685 139.846 231.052 138.16 231.052C136.473 231.052 135.107 229.685 135.107 227.999C135.107 226.313 136.473 224.947 138.16 224.947C139.846 224.948 141.212 226.314 141.212 227.999Z" fill="#FFFFFC" />
      <path d="M148.212 237.999C148.212 239.685 146.846 241.052 145.16 241.052C143.473 241.052 142.107 239.685 142.107 237.999C142.107 236.313 143.473 234.947 145.16 234.947C146.846 234.948 148.212 236.314 148.212 237.999Z" fill="#FFFFFC" />
      <path d="M141.212 248C141.212 249.686 139.846 251.053 138.16 251.053C136.473 251.053 135.107 249.686 135.107 248C135.107 246.314 136.473 244.947 138.16 244.947C139.846 244.947 141.212 246.314 141.212 248Z" fill="#FFFFFC" />
    </g>
    <g opacity="0.2">
      <path d="M462.212 327.303C462.212 328.989 460.846 330.356 459.16 330.356C457.473 330.356 456.107 328.989 456.107 327.303C456.107 325.617 457.473 324.251 459.16 324.251C460.846 324.251 462.212 325.617 462.212 327.303Z" fill="#FFFFFC" />
      <path d="M469.212 337.303C469.212 338.989 467.846 340.356 466.16 340.356C464.473 340.356 463.107 338.989 463.107 337.303C463.107 335.617 464.473 334.251 466.16 334.251C467.846 334.251 469.212 335.617 469.212 337.303Z" fill="#FFFFFC" />
      <path d="M462.212 347.303C462.212 348.989 460.846 350.356 459.16 350.356C457.473 350.356 456.107 348.989 456.107 347.303C456.107 345.617 457.473 344.251 459.16 344.251C460.846 344.251 462.212 345.617 462.212 347.303Z" fill="#FFFFFC" />
    </g>
    <g opacity="0.2">
      <path d="M380.212 127.303C380.212 128.989 378.846 130.356 377.16 130.356C375.473 130.356 374.107 128.989 374.107 127.303C374.107 125.618 375.473 124.251 377.16 124.251C378.846 124.251 380.212 125.617 380.212 127.303Z" fill="#FFFFFC" />
      <path d="M387.212 137.303C387.212 138.989 385.846 140.356 384.16 140.356C382.473 140.356 381.107 138.989 381.107 137.303C381.107 135.617 382.473 134.251 384.16 134.251C385.846 134.251 387.212 135.617 387.212 137.303Z" fill="#FFFFFC" />
      <path d="M380.212 147.303C380.212 148.989 378.846 150.356 377.16 150.356C375.473 150.356 374.107 148.989 374.107 147.303C374.107 145.617 375.473 144.251 377.16 144.251C378.846 144.251 380.212 145.617 380.212 147.303Z" fill="#FFFFFC" />
    </g>
    <path d="M358.86 411.539C358.86 418.495 353.294 418.495 353.294 425.451C353.294 432.41 358.861 432.41 358.86 439.368C358.86 446.325 353.293 446.324 353.293 453.281C353.293 460.242 358.859 460.242 358.859 467.203C358.859 474.164 353.293 474.164 353.293 481.125" stroke="#FFFFFC" stroke-width="3" stroke-miterlimit="10" stroke-linecap="round" stroke-linejoin="round" />
    <path d="M367.942 411.539C367.942 418.495 362.376 418.495 362.376 425.451C362.375 432.409 367.941 432.41 367.941 439.368C367.941 446.325 362.375 446.324 362.375 453.281C362.375 460.242 367.941 460.242 367.94 467.203C367.94 474.164 362.374 474.164 362.374 481.125" stroke="#FFFFFC" stroke-width="3" stroke-miterlimit="10" stroke-linecap="round" stroke-linejoin="round" />
    <path d="M471.86 411.539C471.86 418.495 466.294 418.495 466.294 425.451C466.294 432.41 471.861 432.41 471.86 439.368C471.86 446.325 466.293 446.324 466.293 453.281C466.293 460.242 471.859 460.242 471.859 467.203C471.859 474.164 466.293 474.164 466.293 481.125" stroke="#FC6A33" stroke-width="3" stroke-miterlimit="10" stroke-linecap="round" stroke-linejoin="round" />
    <path d="M480.942 411.539C480.942 418.495 475.376 418.495 475.376 425.451C475.375 432.409 480.941 432.41 480.941 439.368C480.941 446.325 475.375 446.324 475.375 453.281C475.375 460.242 480.941 460.242 480.94 467.203C480.94 474.164 475.374 474.164 475.374 481.125" stroke="#FC6A33" stroke-width="3" stroke-miterlimit="10" stroke-linecap="round" stroke-linejoin="round" />
    <path d="M229.5 425V490" stroke="#9FA226" stroke-width="3" stroke-miterlimit="10" />
    <path d="M229.67 429.597C227.842 429.597 226.357 427.036 226.357 423.878C226.357 420.72 229.67 418.16 229.67 418.16C229.67 418.16 232.984 420.72 232.984 423.878C232.984 427.036 231.501 429.597 229.67 429.597Z" fill="#9FA226" />
    <path d="M230.167 440.408C228.874 439.115 229.635 436.256 231.869 434.023C234.101 431.789 238.254 432.321 238.254 432.321C238.254 432.321 238.787 436.473 236.554 438.708C234.32 440.941 231.462 441.704 230.167 440.408Z" fill="#9FA226" />
    <path d="M229.173 451.762C227.881 453.056 225.021 452.294 222.788 450.061C220.554 447.829 221.086 443.675 221.086 443.675C221.086 443.675 225.238 443.142 227.473 445.376C229.706 447.609 230.469 450.467 229.173 451.762Z" fill="#9FA226" />
    <path d="M230.167 464.246C228.874 462.954 229.635 460.094 231.869 457.861C234.101 455.627 238.254 456.159 238.254 456.159C238.254 456.159 238.787 460.312 236.554 462.546C234.321 464.78 231.462 465.542 230.167 464.246Z" fill="#9FA226" />
    <path d="M229.173 475.6C227.881 476.894 225.021 476.132 222.788 473.899C220.554 471.667 221.086 467.513 221.086 467.513C221.086 467.513 225.238 466.98 227.473 469.214C229.706 471.447 230.469 474.305 229.173 475.6Z" fill="#9FA226" />
    <path d="M230.167 488.084C228.874 486.792 229.635 483.932 231.869 481.699C234.101 479.466 238.254 479.997 238.254 479.997C238.254 479.997 238.787 484.15 236.554 486.384C234.321 488.618 231.462 489.38 230.167 488.084Z" fill="#FC9A02" />
    <path d="M229.173 499.439C227.881 500.732 225.021 499.97 222.788 497.737C220.554 495.505 221.086 491.352 221.086 491.352C221.086 491.352 225.238 490.819 227.473 493.052C229.706 495.285 230.469 498.144 229.173 499.439Z" fill="#FC9A02" />
    <path d="M398.5 370V489" stroke="#FFD43A" stroke-width="3" stroke-miterlimit="10" />
    <path d="M398.85 470.31L407.111 456H390.588L398.85 470.31L407.111 456H390.588L398.85 470.31Z" fill="#FFD43A" />
    <path d="M398.85 449.31L407.111 435H390.588L398.85 449.31L407.111 435H390.588L398.85 449.31Z" fill="#FFD43A" />
    <path d="M398.85 427.31L407.111 413H390.588L398.85 427.31L407.111 413H390.588L398.85 427.31Z" fill="#FFD43A" />
    <path d="M398.85 405.31L407.111 391H390.588L398.85 405.31L407.111 391H390.588L398.85 405.31Z" fill="#FFD43A" />
    <path d="M398.85 384.31L407.111 370H390.588L398.85 384.31L407.111 370H390.588L398.85 384.31Z" fill="#FFD43A" />
    <path d="M187 437H184V490.38H187V437Z" fill="#FC6A33" />
    <path d="M188.118 490.38L194.111 480H177.588L183.581 490.38H188.118Z" fill="#FC6A33" />
    <path d="M185.85 472.31L194.111 458H177.588L185.85 472.31L194.111 458H177.588L185.85 472.31Z" fill="#FC6A33" />
    <path d="M185.85 451.31L194.111 437H177.588L185.85 451.31L194.111 437H177.588L185.85 451.31Z" fill="#FC6A33" />
    <path d="M324.5 383V487" stroke="#FF675D" stroke-width="3" stroke-miterlimit="10" stroke-linecap="round" stroke-linejoin="round" />
    <path d="M317 466.5H330" stroke="#FF675D" stroke-width="3" stroke-miterlimit="10" stroke-linecap="round" stroke-linejoin="round" />
    <path d="M317 461.5H330" stroke="#FF675D" stroke-width="3" stroke-miterlimit="10" stroke-linecap="round" stroke-linejoin="round" />
    <path d="M317 455.5H330" stroke="#FF675D" stroke-width="3" stroke-miterlimit="10" stroke-linecap="round" stroke-linejoin="round" />
    <path d="M317 449.5H330" stroke="#FF675D" stroke-width="3" stroke-miterlimit="10" stroke-linecap="round" stroke-linejoin="round" />
    <path d="M317 444.5H330" stroke="#FF675D" stroke-width="3" stroke-miterlimit="10" stroke-linecap="round" stroke-linejoin="round" />
    <path d="M317 438.5H330" stroke="#FF675D" stroke-width="3" stroke-miterlimit="10" stroke-linecap="round" stroke-linejoin="round" />
    <path d="M317 432.5H330" stroke="#FF675D" stroke-width="3" stroke-miterlimit="10" stroke-linecap="round" stroke-linejoin="round" />
    <path d="M317 427.5H330" stroke="#FF675D" stroke-width="3" stroke-miterlimit="10" stroke-linecap="round" stroke-linejoin="round" />
    <path d="M317 421.5H330" stroke="#FF675D" stroke-width="3" stroke-miterlimit="10" stroke-linecap="round" stroke-linejoin="round" />
    <path d="M317 415.5H330" stroke="#FF675D" stroke-width="3" stroke-miterlimit="10" stroke-linecap="round" stroke-linejoin="round" />
    <path d="M317 410.5H330" stroke="#FF675D" stroke-width="3" stroke-miterlimit="10" stroke-linecap="round" stroke-linejoin="round" />
    <path d="M317 404.5H330" stroke="#FF675D" stroke-width="3" stroke-miterlimit="10" stroke-linecap="round" stroke-linejoin="round" />
    <path d="M317 398.5H330" stroke="#FF675D" stroke-width="3" stroke-miterlimit="10" stroke-linecap="round" stroke-linejoin="round" />
    <path d="M317 393.5H330" stroke="#FF675D" stroke-width="3" stroke-miterlimit="10" stroke-linecap="round" stroke-linejoin="round" />
    <path d="M317 387.5H330" stroke="#FF675D" stroke-width="3" stroke-miterlimit="10" stroke-linecap="round" stroke-linejoin="round" />
    <path d="M69.417 479.971C68.9 471.563 61.937 464.898 53.399 464.898C44.861 464.898 37.897 471.563 37.381 479.971H69.417Z" fill="#F6FEFF" />
    <path d="M159.005 483.511C158.159 469.749 146.762 458.841 132.787 458.841C118.812 458.841 107.415 469.749 106.569 483.511H159.005Z" fill="#F6FEFF" />
    <path d="M284 476.867C284 479.149 282.149 481 279.867 481H279.133C276.851 481 275 479.149 275 476.867V440.133C275 437.851 276.851 436 279.133 436H279.867C282.149 436 284 437.851 284 440.133V476.867Z" fill="#EBA93E" />
    <path d="M270 457.867C270 460.149 268.149 462 265.867 462H265.133C262.851 462 261 460.149 261 457.867V445.133C261 442.851 262.851 441 265.133 441H265.867C268.149 441 270 442.851 270 445.133V457.867Z" fill="#EBA93E" />
    <path d="M282 458.867C282 461.149 280.149 463 277.867 463H265.133C262.851 463 261 461.149 261 458.867V458.133C261 455.851 262.851 454 265.133 454H277.867C280.149 454 282 455.851 282 458.133V458.867Z" fill="#EBA93E" />
    <path d="M436 484.035C436 486.777 433.777 489 431.036 489H429.964C427.223 489 425 486.777 425 484.035V439.965C425 437.223 427.223 435 429.964 435H431.036C433.777 435 436 437.223 436 439.965V484.035Z" fill="#EBA93E" />
    <path d="M453 478.036C453 480.777 450.777 483 448.036 483H446.964C444.223 483 442 480.777 442 478.036V462.964C442 460.223 444.223 458 446.964 458H448.036C450.777 458 453 460.223 453 462.964V478.036Z" fill="#EBA93E" />
    <path d="M453 463.036C453 465.777 450.777 468 448.036 468H432.964C430.223 468 428 465.777 428 463.036V461.964C428 459.223 430.223 457 432.964 457H448.036C450.777 457 453 459.223 453 461.964V463.036Z" fill="#EBA93E" />
    <path d="M500 478H0V500H500V478Z" fill="#EBA93E" />
    <path d="M24.516 492.098C25.5703 492.098 26.425 491.243 26.425 490.189C26.425 489.135 25.5703 488.28 24.516 488.28C23.4617 488.28 22.607 489.135 22.607 490.189C22.607 491.243 23.4617 492.098 24.516 492.098Z" fill="#327DDE" />
    <path d="M30.771 483.901C31.825 483.901 32.68 484.756 32.68 485.81C32.68 486.865 31.825 487.719 30.771 487.719C29.717 487.719 28.861 486.865 28.861 485.81C28.861 484.757 29.716 483.901 30.771 483.901Z" fill="#327DDE" />
    <path d="M37.024 492.098C38.0783 492.098 38.933 491.243 38.933 490.189C38.933 489.135 38.0783 488.28 37.024 488.28C35.9697 488.28 35.115 489.135 35.115 490.189C35.115 491.243 35.9697 492.098 37.024 492.098Z" fill="#327DDE" />
    <path d="M95.024 487.72C93.97 487.72 93.115 486.865 93.115 485.811C93.115 484.756 93.97 483.902 95.024 483.902C96.078 483.902 96.933 484.756 96.933 485.811C96.933 486.864 96.078 487.72 95.024 487.72Z" fill="#327DDE" />
    <path d="M88.77 492.098C87.716 492.098 86.861 491.243 86.861 490.189C86.861 489.134 87.716 488.28 88.77 488.28C89.824 488.28 90.68 489.134 90.68 490.189C90.679 491.242 89.824 492.098 88.77 492.098Z" fill="#327DDE" />
    <path d="M82.516 487.72C81.462 487.72 80.607 486.865 80.607 485.811C80.607 484.756 81.462 483.902 82.516 483.902C83.57 483.902 84.425 484.756 84.425 485.811C84.425 486.864 83.57 487.72 82.516 487.72Z" fill="#327DDE" />
    <path d="M135.516 492.098C136.57 492.098 137.425 491.243 137.425 490.189C137.425 489.135 136.57 488.28 135.516 488.28C134.462 488.28 133.607 489.135 133.607 490.189C133.607 491.243 134.462 492.098 135.516 492.098Z" fill="#327DDE" />
    <path d="M141.77 483.901C142.824 483.901 143.679 484.756 143.679 485.81C143.679 486.865 142.824 487.719 141.77 487.719C140.716 487.719 139.86 486.865 139.86 485.81C139.861 484.757 140.716 483.901 141.77 483.901Z" fill="#327DDE" />
    <path d="M148.024 492.098C149.078 492.098 149.933 491.243 149.933 490.189C149.933 489.135 149.078 488.28 148.024 488.28C146.97 488.28 146.115 489.135 146.115 490.189C146.115 491.243 146.97 492.098 148.024 492.098Z" fill="#327DDE" />
    <path d="M206.024 487.72C204.97 487.72 204.115 486.865 204.115 485.811C204.115 484.756 204.97 483.902 206.024 483.902C207.078 483.902 207.933 484.756 207.933 485.811C207.933 486.864 207.078 487.72 206.024 487.72Z" fill="#327DDE" />
    <path d="M199.77 492.098C198.716 492.098 197.861 491.243 197.861 490.189C197.861 489.134 198.716 488.28 199.77 488.28C200.824 488.28 201.68 489.134 201.68 490.189C201.679 491.242 200.824 492.098 199.77 492.098Z" fill="#327DDE" />
    <path d="M193.516 487.72C192.462 487.72 191.607 486.865 191.607 485.811C191.607 484.756 192.462 483.902 193.516 483.902C194.57 483.902 195.425 484.756 195.425 485.811C195.425 486.864 194.57 487.72 193.516 487.72Z" fill="#327DDE" />
    <path d="M246.516 492.098C247.57 492.098 248.425 491.243 248.425 490.189C248.425 489.135 247.57 488.28 246.516 488.28C245.462 488.28 244.607 489.135 244.607 490.189C244.607 491.243 245.462 492.098 246.516 492.098Z" fill="#327DDE" />
    <path d="M252.77 483.901C253.824 483.901 254.679 484.756 254.679 485.81C254.679 486.865 253.824 487.719 252.77 487.719C251.716 487.719 250.86 486.865 250.86 485.81C250.861 484.757 251.717 483.901 252.77 483.901Z" fill="#327DDE" />
    <path d="M259.024 492.098C260.078 492.098 260.933 491.243 260.933 490.189C260.933 489.135 260.078 488.28 259.024 488.28C257.97 488.28 257.115 489.135 257.115 490.189C257.115 491.243 257.97 492.098 259.024 492.098Z" fill="#327DDE" />
    <path d="M317.023 487.72C315.969 487.72 315.115 486.865 315.115 485.811C315.115 484.756 315.969 483.902 317.023 483.902C318.078 483.902 318.933 484.756 318.933 485.811C318.934 486.864 318.078 487.72 317.023 487.72Z" fill="#327DDE" />
    <path d="M310.77 492.098C309.715 492.098 308.861 491.243 308.861 490.189C308.861 489.134 309.715 488.28 310.77 488.28C311.825 488.28 312.68 489.134 312.68 490.189C312.68 491.242 311.824 492.098 310.77 492.098Z" fill="#327DDE" />
    <path d="M304.516 487.72C303.461 487.72 302.607 486.865 302.607 485.811C302.607 484.756 303.462 483.902 304.516 483.902C305.57 483.902 306.425 484.756 306.425 485.811C306.425 486.864 305.57 487.72 304.516 487.72Z" fill="#327DDE" />
    <path d="M468.516 488.279C469.571 488.279 470.426 489.134 470.426 490.188C470.426 491.243 469.571 492.097 468.516 492.097C467.462 492.097 466.608 491.243 466.608 490.188C466.607 489.135 467.462 488.279 468.516 488.279Z" fill="#327DDE" />
    <path d="M474.77 483.901C475.824 483.901 476.679 484.756 476.679 485.81C476.679 486.865 475.824 487.719 474.77 487.719C473.716 487.719 472.861 486.865 472.861 485.81C472.861 484.757 473.717 483.901 474.77 483.901Z" fill="#327DDE" />
    <path d="M481.024 492.098C482.078 492.098 482.933 491.243 482.933 490.189C482.933 489.135 482.078 488.28 481.024 488.28C479.97 488.28 479.115 489.135 479.115 490.189C479.115 491.243 479.97 492.098 481.024 492.098Z" fill="#327DDE" />
    <path d="M357.516 488.279C358.571 488.279 359.426 489.134 359.426 490.188C359.426 491.243 358.571 492.097 357.516 492.097C356.462 492.097 355.608 491.243 355.608 490.188C355.607 489.135 356.462 488.279 357.516 488.279Z" fill="#327DDE" />
    <path d="M363.77 483.901C364.824 483.901 365.679 484.756 365.679 485.81C365.679 486.865 364.824 487.719 363.77 487.719C362.716 487.719 361.861 486.865 361.861 485.81C361.861 484.757 362.717 483.901 363.77 483.901Z" fill="#327DDE" />
    <path d="M370.024 492.098C371.078 492.098 371.933 491.243 371.933 490.189C371.933 489.135 371.078 488.28 370.024 488.28C368.97 488.28 368.115 489.135 368.115 490.189C368.115 491.243 368.97 492.098 370.024 492.098Z" fill="#327DDE" />
    <path d="M428.023 487.72C426.969 487.72 426.115 486.865 426.115 485.811C426.115 484.756 426.969 483.902 428.023 483.902C429.078 483.902 429.933 484.756 429.933 485.811C429.934 486.864 429.078 487.72 428.023 487.72Z" fill="#327DDE" />
    <path d="M421.77 492.098C420.715 492.098 419.861 491.243 419.861 490.189C419.861 489.134 420.715 488.28 421.77 488.28C422.825 488.28 423.68 489.134 423.68 490.189C423.68 491.242 422.824 492.098 421.77 492.098Z" fill="#327DDE" />
    <path d="M415.516 487.72C414.461 487.72 413.607 486.865 413.607 485.811C413.607 484.756 414.461 483.902 415.516 483.902C416.571 483.902 417.425 484.756 417.425 485.811C417.425 486.864 416.57 487.72 415.516 487.72Z" fill="#327DDE" />
  </g>
  <defs>
    <clipPath id="clip0_16_2">
      <rect width="500" height="500" fill="white" />
    </clipPath>
  </defs>
</svg>
