<?xml version="1.0" encoding="utf-8"?>
<!-- Generator: Adobe Illustrator 27.5.0, SVG Export Plug-In . SVG Version: 6.00 Build 0)  -->
<svg version="1.1" xmlns="http://www.w3.org/2000/svg" xmlns:xlink="http://www.w3.org/1999/xlink" x="0px" y="0px"
	 viewBox="0 0 500 500" style="enable-background:new 0 0 500 500;" xml:space="preserve">
<g id="Background">
	<rect style="fill:#1C1F4F;" width="500" height="500"/>
</g>
<g id="Objects">
	<g>
		<g>
			<g>
				<path style="fill:#FFD43A;" d="M108.215,115.249c0,0-7.339,9.881-22.007,9.881c-14.666,0-26.554-9.881-26.554-9.881
					s11.888-9.881,26.554-9.881C100.876,105.368,108.215,115.249,108.215,115.249z"/>
				<path style="fill:#FFFFFC;" d="M97.224,107.438v15.624c7.314-2.896,10.991-7.813,10.991-7.813S104.539,110.334,97.224,107.438z"
					/>
				<polygon style="fill:#FFD43A;" points="63.501,115.518 53,109.453 53,121.582 63.501,115.518 53,109.453 53,121.582 				"/>
				<path style="fill:#FFFFFC;" d="M83.206,113.285c-0.735-0.264-1.592-0.428-2.531-0.428c-2.623,0-4.752,1.19-4.752,2.66
					c0,1.47,2.129,2.661,4.752,2.661c0.939,0,1.796-0.165,2.531-0.429V113.285z"/>
			</g>
			<g>
				<path style="fill:#FFD43A;" d="M244.215,175.249c0,0-7.339,9.881-22.007,9.881c-14.666,0-26.554-9.881-26.554-9.881
					s11.888-9.881,26.554-9.881C236.876,165.368,244.215,175.249,244.215,175.249z"/>
				<path style="fill:#FFFFFC;" d="M233.224,167.438v15.624c7.314-2.896,10.991-7.813,10.991-7.813S240.539,170.334,233.224,167.438
					z"/>
				<polygon style="fill:#FFD43A;" points="199.501,175.518 189,169.453 189,181.582 199.501,175.518 189,169.453 189,181.582 				
					"/>
				<path style="fill:#FFFFFC;" d="M219.206,173.285c-0.735-0.264-1.592-0.428-2.531-0.428c-2.624,0-4.752,1.19-4.752,2.66
					c0,1.47,2.128,2.661,4.752,2.661c0.939,0,1.796-0.165,2.531-0.429V173.285z"/>
			</g>
			<g>
				<path style="fill:#FFD43A;" d="M246.09,95.776c0,0-7.339,9.883-22.007,9.883c-14.665,0-26.554-9.883-26.554-9.883
					s11.889-9.881,26.554-9.881C238.751,85.896,246.09,95.776,246.09,95.776z"/>
				<path style="fill:#FFFFFC;" d="M235.1,87.964v15.624c7.314-2.896,10.991-7.812,10.991-7.812S242.414,90.86,235.1,87.964z"/>
				<polygon style="fill:#FFD43A;" points="202.502,96.046 192,89.981 192,102.11 202.502,96.046 192,89.981 192,102.11 				"/>
				<g>
					<path style="fill:#FFFFFC;" d="M232.006,89.189c-0.459-0.164-0.993-0.267-1.579-0.267c-1.637,0-2.965,0.743-2.965,1.66
						c0,0.918,1.328,1.66,2.965,1.66c0.586,0,1.119-0.103,1.579-0.267V89.189z"/>
					<path style="fill:#FFFFFC;" d="M232.006,93.964c-0.459-0.162-0.993-0.265-1.579-0.265c-1.637,0-2.965,0.742-2.965,1.66
						c0,0.915,1.328,1.66,2.965,1.66c0.586,0,1.119-0.103,1.579-0.269V93.964z"/>
					<path style="fill:#FFFFFC;" d="M226.818,91.673c-0.458-0.163-0.993-0.266-1.579-0.266c-1.638,0-2.966,0.743-2.966,1.661
						c0,0.914,1.329,1.66,2.966,1.66c0.586,0,1.121-0.103,1.579-0.269V91.673z"/>
					<path style="fill:#FFFFFC;" d="M232.006,99.578c-0.459-0.165-0.993-0.268-1.579-0.268c-1.637,0-2.965,0.743-2.965,1.661
						c0,0.916,1.328,1.66,2.965,1.66c0.586,0,1.119-0.104,1.579-0.267V99.578z"/>
					<path style="fill:#FFFFFC;" d="M220.621,89.189c-0.46-0.164-0.993-0.267-1.58-0.267c-1.638,0-2.966,0.743-2.966,1.66
						c0,0.918,1.329,1.66,2.966,1.66c0.586,0,1.119-0.103,1.58-0.267V89.189z"/>
					<path style="fill:#FFFFFC;" d="M220.621,93.964c-0.46-0.162-0.993-0.265-1.58-0.265c-1.638,0-2.966,0.742-2.966,1.66
						c0,0.915,1.329,1.66,2.966,1.66c0.586,0,1.119-0.103,1.58-0.269V93.964z"/>
					<path style="fill:#FFFFFC;" d="M220.621,99.578c-0.46-0.165-0.993-0.268-1.58-0.268c-1.638,0-2.966,0.743-2.966,1.661
						c0,0.916,1.329,1.66,2.966,1.66c0.586,0,1.119-0.104,1.58-0.267V99.578z"/>
					<path style="fill:#FFFFFC;" d="M226.818,97.285c-0.458-0.163-0.993-0.266-1.579-0.266c-1.638,0-2.966,0.743-2.966,1.66
						c0,0.916,1.329,1.66,2.966,1.66c0.586,0,1.121-0.103,1.579-0.267V97.285z"/>
					<path style="fill:#FFFFFC;" d="M213.736,91.673c-0.458-0.163-0.993-0.266-1.58-0.266c-1.638,0-2.966,0.743-2.966,1.661
						c0,0.914,1.328,1.66,2.966,1.66c0.587,0,1.122-0.103,1.58-0.269V91.673z"/>
					<path style="fill:#FFFFFC;" d="M213.736,97.285c-0.458-0.163-0.993-0.266-1.58-0.266c-1.638,0-2.966,0.743-2.966,1.66
						c0,0.916,1.328,1.66,2.966,1.66c0.587,0,1.122-0.103,1.58-0.267V97.285z"/>
					<path style="fill:#FFFFFC;" d="M207.969,94.439c-0.458-0.164-0.994-0.267-1.58-0.267c-1.637,0-2.965,0.742-2.965,1.66
						c0,0.916,1.329,1.66,2.965,1.66c0.586,0,1.122-0.103,1.58-0.268V94.439z"/>
				</g>
			</g>
			<g>
				<path style="fill:#8ADAE1;" d="M177.181,115.249c0,0-7.339,9.881-22.006,9.881c-14.665,0-26.555-9.881-26.555-9.881
					s11.89-9.881,26.555-9.881C169.842,105.368,177.181,115.249,177.181,115.249z"/>
				<path style="fill:#FFFFFC;" d="M166.19,107.438v15.624c7.314-2.896,10.991-7.813,10.991-7.813S173.505,110.334,166.19,107.438z"
					/>
				<polygon style="fill:#8ADAE1;" points="133.502,115.518 123,109.453 123,121.582 133.502,115.518 123,109.453 123,121.582 				
					"/>
				<path style="fill:#FFFFFC;" d="M152.173,113.285c-0.736-0.264-1.592-0.428-2.533-0.428c-2.624,0-4.751,1.19-4.751,2.66
					c0,1.47,2.127,2.661,4.751,2.661c0.941,0,1.797-0.165,2.533-0.429V113.285z"/>
			</g>
			<g>
				<path style="fill:#1E61B8;" d="M105.92,150.879c0,0-7.339,9.883-22.006,9.883c-14.666,0-26.555-9.883-26.555-9.883
					s11.889-9.88,26.555-9.88C98.581,140.999,105.92,150.879,105.92,150.879z"/>
				<path style="fill:#FFFFFC;" d="M94.929,143.067v15.625c7.315-2.896,10.991-7.813,10.991-7.813S102.244,145.963,94.929,143.067z"
					/>
				<polygon style="fill:#1E61B8;" points="62.502,151.148 52,145.084 52,157.213 62.502,151.148 52,145.084 52,157.213 				"/>
				<path style="fill:#FFFFFC;" d="M80.912,148.916c-0.734-0.264-1.592-0.429-2.532-0.429c-2.624,0-4.751,1.192-4.751,2.661
					c0,1.47,2.128,2.661,4.751,2.661c0.939,0,1.797-0.165,2.532-0.428V148.916z"/>
			</g>
			<g>
				<path style="fill:#8ADAE1;" d="M311.959,133.839c0,0-7.34,9.883-22.008,9.883c-14.666,0-26.555-9.883-26.555-9.883
					s11.889-9.881,26.555-9.881C304.619,123.958,311.959,133.839,311.959,133.839z"/>
				<path style="fill:#FFFFFC;" d="M300.967,126.026v15.626c7.314-2.897,10.992-7.813,10.992-7.813S308.281,128.923,300.967,126.026
					z"/>
				<polygon style="fill:#8ADAE1;" points="268.502,134.108 258,128.044 258,140.173 268.502,134.108 258,128.044 258,140.173 				
					"/>
				<path style="fill:#FFFFFC;" d="M286.949,131.874c-0.734-0.263-1.592-0.427-2.533-0.427c-2.623,0-4.75,1.191-4.75,2.661
					c0,1.468,2.127,2.661,4.75,2.661c0.941,0,1.799-0.167,2.533-0.429V131.874z"/>
			</g>
			<g>
				<path style="fill:#903497;" d="M177.181,77.186c0,0-7.339,9.882-22.006,9.882c-14.665,0-26.555-9.882-26.555-9.882
					s11.89-9.88,26.555-9.88C169.842,67.306,177.181,77.186,177.181,77.186z"/>
				<path style="fill:#FFFFFC;" d="M166.19,69.375v15.624c7.314-2.896,10.991-7.813,10.991-7.813S173.505,72.271,166.19,69.375z"/>
				<polygon style="fill:#903497;" points="133.502,77.455 123,71.39 123,83.52 133.502,77.455 123,71.39 123,83.52 				"/>
				<g>
					<path style="fill:#FFFFFC;" d="M163.098,70.601c-0.46-0.164-0.993-0.269-1.579-0.269c-1.637,0-2.966,0.745-2.966,1.66
						c0,0.918,1.329,1.661,2.966,1.661c0.586,0,1.119-0.104,1.579-0.267V70.601z"/>
					<path style="fill:#FFFFFC;" d="M163.098,75.375c-0.46-0.163-0.993-0.267-1.579-0.267c-1.637,0-2.966,0.742-2.966,1.66
						c0,0.916,1.329,1.661,2.966,1.661c0.586,0,1.119-0.104,1.579-0.268V75.375z"/>
					<path style="fill:#FFFFFC;" d="M157.909,73.084c-0.457-0.163-0.993-0.267-1.579-0.267c-1.637,0-2.966,0.743-2.966,1.659
						c0,0.917,1.329,1.661,2.966,1.661c0.586,0,1.122-0.104,1.579-0.268V73.084z"/>
					<path style="fill:#FFFFFC;" d="M163.098,80.987c-0.46-0.163-0.993-0.267-1.579-0.267c-1.637,0-2.966,0.743-2.966,1.661
						c0,0.916,1.329,1.66,2.966,1.66c0.586,0,1.119-0.104,1.579-0.269V80.987z"/>
					<path style="fill:#FFFFFC;" d="M151.711,70.601c-0.459-0.164-0.992-0.269-1.58-0.269c-1.637,0-2.965,0.745-2.965,1.66
						c0,0.918,1.328,1.661,2.965,1.661c0.587,0,1.121-0.104,1.58-0.267V70.601z"/>
					<path style="fill:#FFFFFC;" d="M151.711,75.375c-0.459-0.163-0.992-0.267-1.58-0.267c-1.637,0-2.965,0.742-2.965,1.66
						c0,0.916,1.328,1.661,2.965,1.661c0.587,0,1.121-0.104,1.58-0.268V75.375z"/>
					<path style="fill:#FFFFFC;" d="M151.711,80.987c-0.459-0.163-0.992-0.267-1.58-0.267c-1.637,0-2.965,0.743-2.965,1.661
						c0,0.916,1.328,1.66,2.965,1.66c0.587,0,1.121-0.104,1.58-0.269V80.987z"/>
					<path style="fill:#FFFFFC;" d="M157.909,78.696c-0.457-0.163-0.993-0.267-1.579-0.267c-1.637,0-2.966,0.743-2.966,1.66
						c0,0.917,1.329,1.661,2.966,1.661c0.586,0,1.122-0.104,1.579-0.269V78.696z"/>
					<path style="fill:#FFFFFC;" d="M144.828,73.084c-0.458-0.163-0.994-0.267-1.58-0.267c-1.637,0-2.966,0.743-2.966,1.659
						c0,0.917,1.329,1.661,2.966,1.661c0.586,0,1.122-0.104,1.58-0.268V73.084z"/>
					<path style="fill:#FFFFFC;" d="M144.828,78.696c-0.458-0.163-0.994-0.267-1.58-0.267c-1.637,0-2.966,0.743-2.966,1.66
						c0,0.917,1.329,1.661,2.966,1.661c0.586,0,1.122-0.104,1.58-0.269V78.696z"/>
					<path style="fill:#FFFFFC;" d="M139.061,75.849c-0.458-0.163-0.993-0.266-1.579-0.266c-1.637,0-2.965,0.743-2.965,1.66
						c0,0.916,1.328,1.66,2.965,1.66c0.586,0,1.121-0.103,1.579-0.268V75.849z"/>
				</g>
			</g>
			<g>
				<path style="fill:#FC6A33;" d="M177.181,150.879c0,0-7.339,9.883-22.006,9.883c-14.665,0-26.555-9.883-26.555-9.883
					s11.89-9.88,26.555-9.88C169.842,140.999,177.181,150.879,177.181,150.879z"/>
				<path style="fill:#FFFFFC;" d="M166.19,143.067v15.624c7.314-2.896,10.991-7.813,10.991-7.813S173.505,145.963,166.19,143.067z"
					/>
				<polygon style="fill:#FC6A33;" points="133.502,151.148 123,145.084 123,157.213 133.502,151.148 123,145.084 123,157.213 				
					"/>
				<g>
					<path style="fill:#FFFFFC;" d="M163.098,144.294c-0.46-0.166-0.993-0.268-1.579-0.268c-1.637,0-2.966,0.745-2.966,1.66
						c0,0.918,1.329,1.661,2.966,1.661c0.586,0,1.119-0.104,1.579-0.267V144.294z"/>
					<path style="fill:#FFFFFC;" d="M163.098,149.068c-0.46-0.163-0.993-0.267-1.579-0.267c-1.637,0-2.966,0.742-2.966,1.66
						c0,0.916,1.329,1.661,2.966,1.661c0.586,0,1.119-0.104,1.579-0.268V149.068z"/>
					<path style="fill:#FFFFFC;" d="M157.909,146.776c-0.457-0.164-0.993-0.267-1.579-0.267c-1.637,0-2.966,0.743-2.966,1.661
						c0,0.916,1.329,1.661,2.966,1.661c0.586,0,1.122-0.104,1.579-0.268V146.776z"/>
					<path style="fill:#FFFFFC;" d="M163.098,154.681c-0.46-0.164-0.993-0.268-1.579-0.268c-1.637,0-2.966,0.744-2.966,1.662
						c0,0.915,1.329,1.66,2.966,1.66c0.586,0,1.119-0.104,1.579-0.269V154.681z"/>
					<path style="fill:#FFFFFC;" d="M151.711,144.294c-0.459-0.166-0.992-0.268-1.58-0.268c-1.637,0-2.965,0.745-2.965,1.66
						c0,0.918,1.328,1.661,2.965,1.661c0.587,0,1.121-0.104,1.58-0.267V144.294z"/>
					<path style="fill:#FFFFFC;" d="M151.711,149.068c-0.459-0.163-0.992-0.267-1.58-0.267c-1.637,0-2.965,0.742-2.965,1.66
						c0,0.916,1.328,1.661,2.965,1.661c0.587,0,1.121-0.104,1.58-0.268V149.068z"/>
					<path style="fill:#FFFFFC;" d="M151.711,154.681c-0.459-0.164-0.992-0.268-1.58-0.268c-1.637,0-2.965,0.744-2.965,1.662
						c0,0.915,1.328,1.66,2.965,1.66c0.587,0,1.121-0.104,1.58-0.269V154.681z"/>
					<path style="fill:#FFFFFC;" d="M157.909,152.39c-0.457-0.164-0.993-0.267-1.579-0.267c-1.637,0-2.966,0.743-2.966,1.66
						c0,0.917,1.329,1.66,2.966,1.66c0.586,0,1.122-0.103,1.579-0.268V152.39z"/>
					<path style="fill:#FFFFFC;" d="M144.828,146.776c-0.458-0.164-0.994-0.267-1.58-0.267c-1.637,0-2.966,0.743-2.966,1.661
						c0,0.916,1.329,1.661,2.966,1.661c0.586,0,1.122-0.104,1.58-0.268V146.776z"/>
					<path style="fill:#FFFFFC;" d="M144.828,152.39c-0.458-0.164-0.994-0.267-1.58-0.267c-1.637,0-2.966,0.743-2.966,1.66
						c0,0.917,1.329,1.66,2.966,1.66c0.586,0,1.122-0.103,1.58-0.268V152.39z"/>
					<path style="fill:#FFFFFC;" d="M139.061,149.542c-0.458-0.163-0.993-0.266-1.579-0.266c-1.637,0-2.965,0.742-2.965,1.66
						c0,0.915,1.328,1.66,2.965,1.66c0.586,0,1.121-0.103,1.579-0.269V149.542z"/>
				</g>
			</g>
			<g>
				<path style="fill:#903497;" d="M244.167,134.505c0,0-7.338,9.882-22.006,9.882c-14.665,0-26.555-9.882-26.555-9.882
					s11.889-9.88,26.555-9.88C236.829,124.625,244.167,134.505,244.167,134.505z"/>
				<path style="fill:#FFFFFC;" d="M233.177,126.694v15.624c7.315-2.896,10.991-7.812,10.991-7.812S240.492,129.59,233.177,126.694z
					"/>
				<polygon style="fill:#903497;" points="200.502,134.774 190,128.709 190,140.839 200.502,134.774 190,128.709 190,140.839 				
					"/>
				<g>
					<path style="fill:#FFFFFC;" d="M230.085,127.252c-0.46-0.164-0.993-0.267-1.58-0.267c-1.637,0-2.965,0.743-2.965,1.66
						c0,0.918,1.329,1.66,2.965,1.66c0.587,0,1.12-0.103,1.58-0.268V127.252z"/>
					<path style="fill:#FFFFFC;" d="M230.085,132.026c-0.46-0.162-0.993-0.265-1.58-0.265c-1.637,0-2.965,0.742-2.965,1.66
						c0,0.916,1.329,1.66,2.965,1.66c0.587,0,1.12-0.102,1.58-0.268V132.026z"/>
					<path style="fill:#FFFFFC;" d="M224.895,129.735c-0.457-0.163-0.993-0.266-1.58-0.266c-1.637,0-2.965,0.743-2.965,1.66
						c0,0.915,1.328,1.66,2.965,1.66c0.586,0,1.122-0.102,1.58-0.267V129.735z"/>
					<path style="fill:#FFFFFC;" d="M230.085,137.641c-0.46-0.165-0.993-0.268-1.58-0.268c-1.637,0-2.965,0.743-2.965,1.66
						c0,0.917,1.329,1.66,2.965,1.66c0.587,0,1.12-0.103,1.58-0.267V137.641z"/>
					<path style="fill:#FFFFFC;" d="M218.697,127.252c-0.459-0.164-0.992-0.267-1.579-0.267c-1.637,0-2.965,0.743-2.965,1.66
						c0,0.918,1.329,1.66,2.965,1.66c0.587,0,1.12-0.103,1.579-0.268V127.252z"/>
					<path style="fill:#FFFFFC;" d="M218.697,132.026c-0.459-0.162-0.992-0.265-1.579-0.265c-1.637,0-2.965,0.742-2.965,1.66
						c0,0.916,1.329,1.66,2.965,1.66c0.587,0,1.12-0.102,1.579-0.268V132.026z"/>
					<path style="fill:#FFFFFC;" d="M218.697,137.641c-0.459-0.165-0.992-0.268-1.579-0.268c-1.637,0-2.965,0.743-2.965,1.66
						c0,0.917,1.329,1.66,2.965,1.66c0.587,0,1.12-0.103,1.579-0.267V137.641z"/>
					<path style="fill:#FFFFFC;" d="M224.895,135.35c-0.457-0.165-0.993-0.268-1.58-0.268c-1.637,0-2.965,0.743-2.965,1.66
						c0,0.916,1.328,1.66,2.965,1.66c0.586,0,1.122-0.102,1.58-0.267V135.35z"/>
					<path style="fill:#FFFFFC;" d="M211.814,129.735c-0.458-0.163-0.993-0.266-1.579-0.266c-1.638,0-2.966,0.743-2.966,1.66
						c0,0.915,1.328,1.66,2.966,1.66c0.586,0,1.121-0.102,1.579-0.267V129.735z"/>
					<path style="fill:#FFFFFC;" d="M211.814,135.35c-0.458-0.165-0.993-0.268-1.579-0.268c-1.638,0-2.966,0.743-2.966,1.66
						c0,0.916,1.328,1.66,2.966,1.66c0.586,0,1.121-0.102,1.579-0.267V135.35z"/>
					<path style="fill:#FFFFFC;" d="M206.047,132.502c-0.457-0.164-0.993-0.267-1.579-0.267c-1.637,0-2.965,0.742-2.965,1.66
						c0,0.916,1.328,1.66,2.965,1.66c0.586,0,1.122-0.103,1.579-0.268V132.502z"/>
				</g>
			</g>
			<g>
				<path style="fill:#FF6B73;" d="M176.378,191.824c0,0-7.339,9.882-22.007,9.882c-14.665,0-26.554-9.882-26.554-9.882
					s11.889-9.88,26.554-9.88C169.039,181.944,176.378,191.824,176.378,191.824z"/>
				<path style="fill:#FFFFFC;" d="M165.387,184.013v15.624c7.314-2.897,10.991-7.813,10.991-7.813S172.702,186.908,165.387,184.013
					z"/>
				<polygon style="fill:#FF6B73;" points="132.502,192.094 122,186.028 122,198.157 132.502,192.094 122,186.028 122,198.157 				
					"/>
				<g>
					<path style="fill:#FFFFFC;" d="M162.294,185.237c-0.459-0.163-0.993-0.268-1.579-0.268c-1.637,0-2.965,0.744-2.965,1.66
						c0,0.918,1.329,1.66,2.965,1.66c0.586,0,1.119-0.102,1.579-0.265V185.237z"/>
					<path style="fill:#FFFFFC;" d="M162.294,190.013c-0.459-0.164-0.993-0.267-1.579-0.267c-1.637,0-2.965,0.742-2.965,1.66
						c0,0.917,1.329,1.66,2.965,1.66c0.586,0,1.119-0.103,1.579-0.268V190.013z"/>
					<path style="fill:#FFFFFC;" d="M157.106,187.721c-0.458-0.163-0.994-0.266-1.58-0.266c-1.637,0-2.966,0.742-2.966,1.66
						c0,0.917,1.329,1.66,2.966,1.66c0.586,0,1.122-0.103,1.58-0.269V187.721z"/>
					<path style="fill:#FFFFFC;" d="M162.294,195.625c-0.459-0.164-0.993-0.268-1.579-0.268c-1.637,0-2.965,0.743-2.965,1.661
						c0,0.917,1.329,1.66,2.965,1.66c0.586,0,1.119-0.104,1.579-0.268V195.625z"/>
					<path style="fill:#FFFFFC;" d="M150.909,185.237c-0.46-0.163-0.994-0.268-1.58-0.268c-1.637,0-2.965,0.744-2.965,1.66
						c0,0.918,1.328,1.66,2.965,1.66c0.586,0,1.12-0.102,1.58-0.265V185.237z"/>
					<path style="fill:#FFFFFC;" d="M150.909,190.013c-0.46-0.164-0.994-0.267-1.58-0.267c-1.637,0-2.965,0.742-2.965,1.66
						c0,0.917,1.328,1.66,2.965,1.66c0.586,0,1.12-0.103,1.58-0.268V190.013z"/>
					<path style="fill:#FFFFFC;" d="M150.909,195.625c-0.46-0.164-0.994-0.268-1.58-0.268c-1.637,0-2.965,0.743-2.965,1.661
						c0,0.917,1.328,1.66,2.965,1.66c0.586,0,1.12-0.104,1.58-0.268V195.625z"/>
					<path style="fill:#FFFFFC;" d="M157.106,193.334c-0.458-0.163-0.994-0.268-1.58-0.268c-1.637,0-2.966,0.743-2.966,1.66
						c0,0.917,1.329,1.662,2.966,1.662c0.586,0,1.122-0.105,1.58-0.269V193.334z"/>
					<path style="fill:#FFFFFC;" d="M144.024,187.721c-0.457-0.163-0.993-0.266-1.579-0.266c-1.638,0-2.966,0.742-2.966,1.66
						c0,0.917,1.328,1.66,2.966,1.66c0.587,0,1.122-0.103,1.579-0.269V187.721z"/>
					<path style="fill:#FFFFFC;" d="M144.024,193.334c-0.457-0.163-0.993-0.268-1.579-0.268c-1.638,0-2.966,0.743-2.966,1.66
						c0,0.917,1.328,1.662,2.966,1.662c0.587,0,1.122-0.105,1.579-0.269V193.334z"/>
					<path style="fill:#FFFFFC;" d="M138.258,190.487c-0.458-0.165-0.994-0.268-1.58-0.268c-1.637,0-2.965,0.743-2.965,1.66
						c0,0.917,1.329,1.661,2.965,1.661c0.586,0,1.122-0.104,1.58-0.268V190.487z"/>
				</g>
			</g>
		</g>
		<g>
			<g>
				<path style="fill:#FF6B73;" d="M244.215,216.249c0,0-7.339,9.881-22.007,9.881c-14.666,0-26.554-9.881-26.554-9.881
					s11.888-9.881,26.554-9.881C236.876,206.368,244.215,216.249,244.215,216.249z"/>
				<path style="fill:#FFFFFC;" d="M233.224,208.438v15.624c7.314-2.896,10.991-7.813,10.991-7.813S240.539,211.334,233.224,208.438
					z"/>
				<polygon style="fill:#FF6B73;" points="199.501,216.518 189,210.453 189,222.582 199.501,216.518 189,210.453 189,222.582 				
					"/>
				<path style="fill:#FFFFFC;" d="M219.206,214.285c-0.735-0.264-1.592-0.428-2.531-0.428c-2.624,0-4.752,1.19-4.752,2.66
					c0,1.47,2.128,2.661,4.752,2.661c0.939,0,1.796-0.165,2.531-0.429V214.285z"/>
			</g>
			<g>
				<path style="fill:#FFD43A;" d="M380.215,276.249c0,0-7.338,9.881-22.006,9.881c-14.666,0-26.555-9.881-26.555-9.881
					s11.889-9.881,26.555-9.881C372.877,266.368,380.215,276.249,380.215,276.249z"/>
				<path style="fill:#FFFFFC;" d="M369.225,268.438v15.624c7.315-2.896,10.99-7.813,10.99-7.813S376.539,271.334,369.225,268.438z"
					/>
				<polygon style="fill:#FFD43A;" points="335.502,276.518 325,270.453 325,282.582 335.502,276.518 325,270.453 325,282.582 				
					"/>
				<path style="fill:#FFFFFC;" d="M355.207,274.285c-0.736-0.264-1.594-0.428-2.531-0.428c-2.625,0-4.752,1.191-4.752,2.66
					s2.127,2.661,4.752,2.661c0.938,0,1.795-0.165,2.531-0.429V274.285z"/>
			</g>
			<g>
				<path style="fill:#FFD43A;" d="M382.09,196.776c0,0-7.34,9.883-22.008,9.883c-14.664,0-26.553-9.883-26.553-9.883
					s11.889-9.881,26.553-9.881C374.75,186.895,382.09,196.776,382.09,196.776z"/>
				<path style="fill:#FFFFFC;" d="M371.1,188.964v15.624c7.315-2.896,10.99-7.812,10.99-7.812S378.414,191.86,371.1,188.964z"/>
				<polygon style="fill:#FFD43A;" points="338.502,197.046 328,190.981 328,203.11 338.502,197.046 328,190.981 328,203.11 				"/>
				<g>
					<path style="fill:#FFFFFC;" d="M368.006,190.189c-0.459-0.164-0.992-0.267-1.578-0.267c-1.637,0-2.965,0.743-2.965,1.66
						c0,0.918,1.328,1.66,2.965,1.66c0.586,0,1.119-0.103,1.578-0.267V190.189z"/>
					<path style="fill:#FFFFFC;" d="M368.006,194.964c-0.459-0.162-0.992-0.265-1.578-0.265c-1.637,0-2.965,0.742-2.965,1.66
						c0,0.915,1.328,1.66,2.965,1.66c0.586,0,1.119-0.102,1.578-0.268V194.964z"/>
					<path style="fill:#FFFFFC;" d="M362.818,192.673c-0.459-0.163-0.994-0.266-1.58-0.266c-1.637,0-2.967,0.743-2.967,1.661
						c0,0.914,1.33,1.66,2.967,1.66c0.586,0,1.121-0.102,1.58-0.268V192.673z"/>
					<path style="fill:#FFFFFC;" d="M368.006,200.578c-0.459-0.165-0.992-0.268-1.578-0.268c-1.637,0-2.965,0.743-2.965,1.661
						c0,0.916,1.328,1.66,2.965,1.66c0.586,0,1.119-0.104,1.578-0.268V200.578z"/>
					<path style="fill:#FFFFFC;" d="M356.621,190.189c-0.461-0.164-0.994-0.267-1.58-0.267c-1.639,0-2.967,0.743-2.967,1.66
						c0,0.918,1.328,1.66,2.967,1.66c0.586,0,1.119-0.103,1.58-0.267V190.189z"/>
					<path style="fill:#FFFFFC;" d="M356.621,194.964c-0.461-0.162-0.994-0.265-1.58-0.265c-1.639,0-2.967,0.742-2.967,1.66
						c0,0.915,1.328,1.66,2.967,1.66c0.586,0,1.119-0.102,1.58-0.268V194.964z"/>
					<path style="fill:#FFFFFC;" d="M356.621,200.578c-0.461-0.165-0.994-0.268-1.58-0.268c-1.639,0-2.967,0.743-2.967,1.661
						c0,0.916,1.328,1.66,2.967,1.66c0.586,0,1.119-0.104,1.58-0.268V200.578z"/>
					<path style="fill:#FFFFFC;" d="M362.818,198.285c-0.459-0.163-0.994-0.266-1.58-0.266c-1.637,0-2.967,0.743-2.967,1.66
						c0,0.916,1.33,1.66,2.967,1.66c0.586,0,1.121-0.102,1.58-0.267V198.285z"/>
					<path style="fill:#FFFFFC;" d="M349.736,192.673c-0.457-0.163-0.994-0.266-1.58-0.266c-1.637,0-2.965,0.743-2.965,1.661
						c0,0.914,1.328,1.66,2.965,1.66c0.586,0,1.123-0.102,1.58-0.268V192.673z"/>
					<path style="fill:#FFFFFC;" d="M349.736,198.285c-0.457-0.163-0.994-0.266-1.58-0.266c-1.637,0-2.965,0.743-2.965,1.66
						c0,0.916,1.328,1.66,2.965,1.66c0.586,0,1.123-0.102,1.58-0.267V198.285z"/>
					<path style="fill:#FFFFFC;" d="M343.969,195.439c-0.457-0.164-0.994-0.267-1.58-0.267c-1.637,0-2.965,0.742-2.965,1.66
						c0,0.916,1.328,1.66,2.965,1.66c0.586,0,1.123-0.103,1.58-0.268V195.439z"/>
				</g>
			</g>
			<g>
				<path style="fill:#1E61B8;" d="M313.182,216.249c0,0-7.34,9.881-22.008,9.881c-14.664,0-26.555-9.881-26.555-9.881
					s11.891-9.881,26.555-9.881C305.842,206.368,313.182,216.249,313.182,216.249z"/>
				<path style="fill:#FFFFFC;" d="M302.189,208.438v15.624c7.314-2.896,10.992-7.813,10.992-7.813S309.504,211.334,302.189,208.438
					z"/>
				<polygon style="fill:#1E61B8;" points="269.502,216.518 259,210.453 259,222.582 269.502,216.518 259,210.453 259,222.582 				
					"/>
				<path style="fill:#FFFFFC;" d="M288.174,214.285c-0.736-0.264-1.594-0.428-2.533-0.428c-2.623,0-4.75,1.19-4.75,2.66
					c0,1.47,2.127,2.661,4.75,2.661c0.939,0,1.797-0.165,2.533-0.429V214.285z"/>
			</g>
			<g>
				<path style="fill:#8ADAE1;" d="M241.92,251.879c0,0-7.339,9.883-22.006,9.883c-14.666,0-26.555-9.883-26.555-9.883
					s11.889-9.88,26.555-9.88C234.581,241.999,241.92,251.879,241.92,251.879z"/>
				<path style="fill:#FFFFFC;" d="M230.929,244.067v15.625c7.315-2.897,10.991-7.814,10.991-7.814S238.244,246.963,230.929,244.067
					z"/>
				<polygon style="fill:#8ADAE1;" points="198.502,252.148 188,246.084 188,258.213 198.502,252.148 188,246.084 188,258.213 				
					"/>
				<path style="fill:#FFFFFC;" d="M216.912,249.916c-0.734-0.264-1.592-0.429-2.532-0.429c-2.624,0-4.752,1.192-4.752,2.661
					c0,1.47,2.128,2.661,4.752,2.661c0.939,0,1.797-0.165,2.532-0.428V249.916z"/>
			</g>
			<g>
				<path style="fill:#8ADAE1;" d="M447.959,234.839c0,0-7.34,9.883-22.008,9.883c-14.666,0-26.555-9.883-26.555-9.883
					s11.889-9.881,26.555-9.881C440.619,224.958,447.959,234.839,447.959,234.839z"/>
				<path style="fill:#FFFFFC;" d="M436.967,227.026v15.626c7.314-2.897,10.992-7.813,10.992-7.813S444.281,229.923,436.967,227.026
					z"/>
				<polygon style="fill:#8ADAE1;" points="404.502,235.108 394,229.044 394,241.173 404.502,235.108 394,229.044 394,241.173 				
					"/>
				<path style="fill:#FFFFFC;" d="M422.949,232.874c-0.734-0.263-1.592-0.427-2.533-0.427c-2.623,0-4.75,1.191-4.75,2.661
					c0,1.468,2.127,2.661,4.75,2.661c0.941,0,1.799-0.167,2.533-0.429V232.874z"/>
			</g>
			<g>
				<path style="fill:#FF6B73;" d="M313.182,178.186c0,0-7.34,9.882-22.008,9.882c-14.664,0-26.555-9.882-26.555-9.882
					s11.891-9.88,26.555-9.88C305.842,168.306,313.182,178.186,313.182,178.186z"/>
				<path style="fill:#FFFFFC;" d="M302.189,170.375v15.624c7.314-2.896,10.992-7.813,10.992-7.813S309.504,173.27,302.189,170.375z
					"/>
				<polygon style="fill:#FF6B73;" points="269.502,178.455 259,172.39 259,184.52 269.502,178.455 259,172.39 259,184.52 				"/>
				<g>
					<path style="fill:#FFFFFC;" d="M299.098,171.601c-0.461-0.164-0.992-0.269-1.58-0.269c-1.637,0-2.965,0.745-2.965,1.66
						c0,0.918,1.328,1.661,2.965,1.661c0.588,0,1.119-0.104,1.58-0.267V171.601z"/>
					<path style="fill:#FFFFFC;" d="M299.098,176.375c-0.461-0.163-0.992-0.267-1.58-0.267c-1.637,0-2.965,0.742-2.965,1.66
						c0,0.916,1.328,1.661,2.965,1.661c0.588,0,1.119-0.104,1.58-0.268V176.375z"/>
					<path style="fill:#FFFFFC;" d="M293.908,174.084c-0.457-0.163-0.992-0.267-1.578-0.267c-1.639,0-2.967,0.743-2.967,1.659
						c0,0.917,1.328,1.661,2.967,1.661c0.586,0,1.121-0.104,1.578-0.268V174.084z"/>
					<path style="fill:#FFFFFC;" d="M299.098,181.987c-0.461-0.163-0.992-0.267-1.58-0.267c-1.637,0-2.965,0.743-2.965,1.661
						c0,0.916,1.328,1.66,2.965,1.66c0.588,0,1.119-0.104,1.58-0.269V181.987z"/>
					<path style="fill:#FFFFFC;" d="M287.711,171.601c-0.459-0.164-0.992-0.269-1.58-0.269c-1.637,0-2.965,0.745-2.965,1.66
						c0,0.918,1.328,1.661,2.965,1.661c0.588,0,1.121-0.104,1.58-0.267V171.601z"/>
					<path style="fill:#FFFFFC;" d="M287.711,176.375c-0.459-0.163-0.992-0.267-1.58-0.267c-1.637,0-2.965,0.742-2.965,1.66
						c0,0.916,1.328,1.661,2.965,1.661c0.588,0,1.121-0.104,1.58-0.268V176.375z"/>
					<path style="fill:#FFFFFC;" d="M287.711,181.987c-0.459-0.163-0.992-0.267-1.58-0.267c-1.637,0-2.965,0.743-2.965,1.661
						c0,0.916,1.328,1.66,2.965,1.66c0.588,0,1.121-0.104,1.58-0.269V181.987z"/>
					<path style="fill:#FFFFFC;" d="M293.908,179.696c-0.457-0.163-0.992-0.267-1.578-0.267c-1.639,0-2.967,0.743-2.967,1.66
						c0,0.917,1.328,1.661,2.967,1.661c0.586,0,1.121-0.104,1.578-0.269V179.696z"/>
					<path style="fill:#FFFFFC;" d="M280.828,174.084c-0.459-0.163-0.994-0.267-1.58-0.267c-1.639,0-2.967,0.743-2.967,1.659
						c0,0.917,1.328,1.661,2.967,1.661c0.586,0,1.121-0.104,1.58-0.268V174.084z"/>
					<path style="fill:#FFFFFC;" d="M280.828,179.696c-0.459-0.163-0.994-0.267-1.58-0.267c-1.639,0-2.967,0.743-2.967,1.66
						c0,0.917,1.328,1.661,2.967,1.661c0.586,0,1.121-0.104,1.58-0.269V179.696z"/>
					<path style="fill:#FFFFFC;" d="M275.06,176.849c-0.459-0.163-0.994-0.266-1.58-0.266c-1.637,0-2.965,0.743-2.965,1.66
						c0,0.916,1.328,1.66,2.965,1.66c0.586,0,1.121-0.103,1.58-0.268V176.849z"/>
				</g>
			</g>
			<g>
				<path style="fill:#FC6A33;" d="M313.182,251.879c0,0-7.34,9.883-22.008,9.883c-14.664,0-26.555-9.883-26.555-9.883
					s11.891-9.88,26.555-9.88C305.842,241.999,313.182,251.879,313.182,251.879z"/>
				<path style="fill:#FFFFFC;" d="M302.189,244.067v15.624c7.314-2.896,10.992-7.813,10.992-7.813S309.504,246.963,302.189,244.067
					z"/>
				<polygon style="fill:#FC6A33;" points="269.502,252.148 259,246.084 259,258.213 269.502,252.148 259,246.084 259,258.213 				
					"/>
				<g>
					<path style="fill:#FFFFFC;" d="M299.098,245.294c-0.461-0.166-0.992-0.268-1.58-0.268c-1.637,0-2.965,0.745-2.965,1.66
						c0,0.918,1.328,1.661,2.965,1.661c0.588,0,1.119-0.104,1.58-0.267V245.294z"/>
					<path style="fill:#FFFFFC;" d="M299.098,250.068c-0.461-0.163-0.992-0.267-1.58-0.267c-1.637,0-2.965,0.742-2.965,1.66
						c0,0.916,1.328,1.661,2.965,1.661c0.588,0,1.119-0.104,1.58-0.268V250.068z"/>
					<path style="fill:#FFFFFC;" d="M293.908,247.776c-0.457-0.164-0.992-0.267-1.578-0.267c-1.639,0-2.967,0.743-2.967,1.661
						c0,0.916,1.328,1.661,2.967,1.661c0.586,0,1.121-0.104,1.578-0.268V247.776z"/>
					<path style="fill:#FFFFFC;" d="M299.098,255.681c-0.461-0.164-0.992-0.268-1.58-0.268c-1.637,0-2.965,0.744-2.965,1.662
						c0,0.915,1.328,1.66,2.965,1.66c0.588,0,1.119-0.104,1.58-0.269V255.681z"/>
					<path style="fill:#FFFFFC;" d="M287.711,245.294c-0.459-0.166-0.992-0.268-1.58-0.268c-1.637,0-2.965,0.745-2.965,1.66
						c0,0.918,1.328,1.661,2.965,1.661c0.588,0,1.121-0.104,1.58-0.267V245.294z"/>
					<path style="fill:#FFFFFC;" d="M287.711,250.068c-0.459-0.163-0.992-0.267-1.58-0.267c-1.637,0-2.965,0.742-2.965,1.66
						c0,0.916,1.328,1.661,2.965,1.661c0.588,0,1.121-0.104,1.58-0.268V250.068z"/>
					<path style="fill:#FFFFFC;" d="M287.711,255.681c-0.459-0.164-0.992-0.268-1.58-0.268c-1.637,0-2.965,0.744-2.965,1.662
						c0,0.915,1.328,1.66,2.965,1.66c0.588,0,1.121-0.104,1.58-0.269V255.681z"/>
					<path style="fill:#FFFFFC;" d="M293.908,253.39c-0.457-0.164-0.992-0.267-1.578-0.267c-1.639,0-2.967,0.743-2.967,1.66
						c0,0.917,1.328,1.66,2.967,1.66c0.586,0,1.121-0.103,1.578-0.268V253.39z"/>
					<path style="fill:#FFFFFC;" d="M280.828,247.776c-0.459-0.164-0.994-0.267-1.58-0.267c-1.639,0-2.967,0.743-2.967,1.661
						c0,0.916,1.328,1.661,2.967,1.661c0.586,0,1.121-0.104,1.58-0.268V247.776z"/>
					<path style="fill:#FFFFFC;" d="M280.828,253.39c-0.459-0.164-0.994-0.267-1.58-0.267c-1.639,0-2.967,0.743-2.967,1.66
						c0,0.917,1.328,1.66,2.967,1.66c0.586,0,1.121-0.103,1.58-0.268V253.39z"/>
					<path style="fill:#FFFFFC;" d="M275.06,250.542c-0.459-0.163-0.994-0.266-1.58-0.266c-1.637,0-2.965,0.742-2.965,1.66
						c0,0.915,1.328,1.66,2.965,1.66c0.586,0,1.121-0.103,1.58-0.269V250.542z"/>
				</g>
			</g>
			<g>
				<path style="fill:#903497;" d="M380.168,235.505c0,0-7.34,9.882-22.006,9.882c-14.666,0-26.555-9.882-26.555-9.882
					s11.889-9.88,26.555-9.88C372.828,225.625,380.168,235.505,380.168,235.505z"/>
				<path style="fill:#FFFFFC;" d="M369.176,227.694v15.624c7.316-2.896,10.992-7.812,10.992-7.812S376.492,230.59,369.176,227.694z
					"/>
				<polygon style="fill:#903497;" points="336.502,235.774 326,229.709 326,241.839 336.502,235.774 326,229.709 326,241.839 				
					"/>
				<g>
					<path style="fill:#FFFFFC;" d="M366.084,228.252c-0.459-0.164-0.992-0.267-1.58-0.267c-1.637,0-2.965,0.743-2.965,1.66
						c0,0.918,1.328,1.66,2.965,1.66c0.588,0,1.121-0.103,1.58-0.268V228.252z"/>
					<path style="fill:#FFFFFC;" d="M366.084,233.026c-0.459-0.162-0.992-0.265-1.58-0.265c-1.637,0-2.965,0.742-2.965,1.66
						c0,0.916,1.328,1.66,2.965,1.66c0.588,0,1.121-0.102,1.58-0.268V233.026z"/>
					<path style="fill:#FFFFFC;" d="M360.895,230.735c-0.457-0.163-0.992-0.266-1.578-0.266c-1.639,0-2.967,0.743-2.967,1.66
						c0,0.915,1.328,1.66,2.967,1.66c0.586,0,1.121-0.102,1.578-0.267V230.735z"/>
					<path style="fill:#FFFFFC;" d="M366.084,238.641c-0.459-0.165-0.992-0.268-1.58-0.268c-1.637,0-2.965,0.743-2.965,1.66
						c0,0.917,1.328,1.66,2.965,1.66c0.588,0,1.121-0.103,1.58-0.267V238.641z"/>
					<path style="fill:#FFFFFC;" d="M354.697,228.252c-0.459-0.164-0.992-0.267-1.58-0.267c-1.637,0-2.965,0.743-2.965,1.66
						c0,0.918,1.328,1.66,2.965,1.66c0.588,0,1.121-0.103,1.58-0.268V228.252z"/>
					<path style="fill:#FFFFFC;" d="M354.697,233.026c-0.459-0.162-0.992-0.265-1.58-0.265c-1.637,0-2.965,0.742-2.965,1.66
						c0,0.916,1.328,1.66,2.965,1.66c0.588,0,1.121-0.102,1.58-0.268V233.026z"/>
					<path style="fill:#FFFFFC;" d="M354.697,238.641c-0.459-0.165-0.992-0.268-1.58-0.268c-1.637,0-2.965,0.743-2.965,1.66
						c0,0.917,1.328,1.66,2.965,1.66c0.588,0,1.121-0.103,1.58-0.267V238.641z"/>
					<path style="fill:#FFFFFC;" d="M360.895,236.35c-0.457-0.165-0.992-0.268-1.578-0.268c-1.639,0-2.967,0.743-2.967,1.66
						c0,0.916,1.328,1.66,2.967,1.66c0.586,0,1.121-0.102,1.578-0.267V236.35z"/>
					<path style="fill:#FFFFFC;" d="M347.814,230.735c-0.459-0.163-0.994-0.266-1.58-0.266c-1.639,0-2.967,0.743-2.967,1.66
						c0,0.915,1.328,1.66,2.967,1.66c0.586,0,1.121-0.102,1.58-0.267V230.735z"/>
					<path style="fill:#FFFFFC;" d="M347.814,236.35c-0.459-0.165-0.994-0.268-1.58-0.268c-1.639,0-2.967,0.743-2.967,1.66
						c0,0.916,1.328,1.66,2.967,1.66c0.586,0,1.121-0.102,1.58-0.267V236.35z"/>
					<path style="fill:#FFFFFC;" d="M342.047,233.502c-0.457-0.164-0.992-0.267-1.58-0.267c-1.637,0-2.965,0.742-2.965,1.66
						c0,0.916,1.328,1.66,2.965,1.66c0.588,0,1.123-0.103,1.58-0.268V233.502z"/>
				</g>
			</g>
			<g>
				<path style="fill:#903497;" d="M312.379,292.824c0,0-7.34,9.882-22.008,9.882c-14.666,0-26.555-9.882-26.555-9.882
					s11.889-9.88,26.555-9.88C305.039,282.944,312.379,292.824,312.379,292.824z"/>
				<path style="fill:#FFFFFC;" d="M301.387,285.013v15.624c7.315-2.897,10.992-7.813,10.992-7.813S308.701,287.908,301.387,285.013
					z"/>
				<polygon style="fill:#903497;" points="268.502,293.094 258,287.028 258,299.157 268.502,293.094 258,287.028 258,299.157 				
					"/>
				<g>
					<path style="fill:#FFFFFC;" d="M298.295,286.237c-0.461-0.163-0.994-0.268-1.58-0.268c-1.637,0-2.965,0.744-2.965,1.66
						c0,0.918,1.328,1.66,2.965,1.66c0.586,0,1.119-0.103,1.58-0.265V286.237z"/>
					<path style="fill:#FFFFFC;" d="M298.295,291.013c-0.461-0.164-0.994-0.267-1.58-0.267c-1.637,0-2.965,0.742-2.965,1.66
						c0,0.917,1.328,1.66,2.965,1.66c0.586,0,1.119-0.103,1.58-0.268V291.013z"/>
					<path style="fill:#FFFFFC;" d="M293.105,288.721c-0.457-0.163-0.994-0.266-1.58-0.266c-1.637,0-2.965,0.742-2.965,1.66
						c0,0.917,1.328,1.66,2.965,1.66c0.586,0,1.123-0.102,1.58-0.269V288.721z"/>
					<path style="fill:#FFFFFC;" d="M298.295,296.625c-0.461-0.164-0.994-0.268-1.58-0.268c-1.637,0-2.965,0.743-2.965,1.661
						c0,0.917,1.328,1.66,2.965,1.66c0.586,0,1.119-0.104,1.58-0.268V296.625z"/>
					<path style="fill:#FFFFFC;" d="M286.908,286.237c-0.459-0.163-0.994-0.268-1.58-0.268c-1.637,0-2.965,0.744-2.965,1.66
						c0,0.918,1.328,1.66,2.965,1.66c0.586,0,1.121-0.103,1.58-0.265V286.237z"/>
					<path style="fill:#FFFFFC;" d="M286.908,291.013c-0.459-0.164-0.994-0.267-1.58-0.267c-1.637,0-2.965,0.742-2.965,1.66
						c0,0.917,1.328,1.66,2.965,1.66c0.586,0,1.121-0.103,1.58-0.268V291.013z"/>
					<path style="fill:#FFFFFC;" d="M286.908,296.625c-0.459-0.164-0.994-0.268-1.58-0.268c-1.637,0-2.965,0.743-2.965,1.661
						c0,0.917,1.328,1.66,2.965,1.66c0.586,0,1.121-0.104,1.58-0.268V296.625z"/>
					<path style="fill:#FFFFFC;" d="M293.105,294.334c-0.457-0.163-0.994-0.268-1.58-0.268c-1.637,0-2.965,0.743-2.965,1.66
						s1.328,1.662,2.965,1.662c0.586,0,1.123-0.104,1.58-0.269V294.334z"/>
					<path style="fill:#FFFFFC;" d="M280.023,288.721c-0.457-0.163-0.992-0.266-1.578-0.266c-1.639,0-2.967,0.742-2.967,1.66
						c0,0.917,1.328,1.66,2.967,1.66c0.586,0,1.121-0.102,1.578-0.269V288.721z"/>
					<path style="fill:#FFFFFC;" d="M280.023,294.334c-0.457-0.163-0.992-0.268-1.578-0.268c-1.639,0-2.967,0.743-2.967,1.66
						s1.328,1.662,2.967,1.662c0.586,0,1.121-0.104,1.578-0.269V294.334z"/>
					<path style="fill:#FFFFFC;" d="M274.258,291.487c-0.459-0.165-0.994-0.268-1.58-0.268c-1.637,0-2.965,0.743-2.965,1.66
						c0,0.917,1.328,1.661,2.965,1.661c0.586,0,1.121-0.103,1.58-0.268V291.487z"/>
				</g>
			</g>
		</g>
		<g>
			<g>
				<path style="fill:#FFD43A;" d="M108.215,311.249c0,0-7.339,9.881-22.007,9.881c-14.666,0-26.554-9.881-26.554-9.881
					s11.888-9.881,26.554-9.881C100.876,301.368,108.215,311.249,108.215,311.249z"/>
				<path style="fill:#FFFFFC;" d="M97.224,303.438v15.624c7.314-2.896,10.991-7.813,10.991-7.813S104.539,306.334,97.224,303.438z"
					/>
				<polygon style="fill:#FFD43A;" points="63.501,311.518 53,305.453 53,317.582 63.501,311.518 53,305.453 53,317.582 				"/>
				<path style="fill:#FFFFFC;" d="M83.206,309.285c-0.735-0.264-1.592-0.428-2.531-0.428c-2.623,0-4.752,1.191-4.752,2.66
					s2.129,2.661,4.752,2.661c0.939,0,1.796-0.165,2.531-0.429V309.285z"/>
			</g>
			<g>
				<path style="fill:#903497;" d="M244.215,371.249c0,0-7.339,9.881-22.007,9.881c-14.666,0-26.554-9.881-26.554-9.881
					s11.888-9.881,26.554-9.881C236.876,361.368,244.215,371.249,244.215,371.249z"/>
				<path style="fill:#FFFFFC;" d="M233.224,363.438v15.624c7.314-2.896,10.991-7.813,10.991-7.813S240.539,366.334,233.224,363.438
					z"/>
				<polygon style="fill:#903497;" points="199.502,371.518 189,365.453 189,377.582 199.502,371.518 189,365.453 189,377.582 				
					"/>
				<path style="fill:#FFFFFC;" d="M219.206,369.285c-0.735-0.264-1.593-0.428-2.531-0.428c-2.624,0-4.752,1.191-4.752,2.66
					s2.128,2.661,4.752,2.661c0.939,0,1.796-0.165,2.531-0.429V369.285z"/>
			</g>
			<g>
				<path style="fill:#FFD43A;" d="M246.09,291.776c0,0-7.34,9.883-22.008,9.883c-14.665,0-26.554-9.883-26.554-9.883
					s11.889-9.881,26.554-9.881C238.75,281.896,246.09,291.776,246.09,291.776z"/>
				<path style="fill:#FFFFFC;" d="M235.1,283.964v15.624c7.313-2.895,10.99-7.811,10.99-7.811S242.414,286.86,235.1,283.964z"/>
				<polygon style="fill:#FFD43A;" points="202.502,292.046 192,285.981 192,298.11 202.502,292.046 192,285.981 192,298.11 				"/>
				<g>
					<path style="fill:#FFFFFC;" d="M232.006,285.19c-0.459-0.164-0.992-0.267-1.578-0.267c-1.638,0-2.966,0.743-2.966,1.66
						c0,0.918,1.328,1.66,2.966,1.66c0.586,0,1.119-0.103,1.578-0.267V285.19z"/>
					<path style="fill:#FFFFFC;" d="M232.006,289.964c-0.459-0.162-0.992-0.265-1.578-0.265c-1.638,0-2.966,0.742-2.966,1.66
						c0,0.915,1.328,1.66,2.966,1.66c0.586,0,1.119-0.103,1.578-0.268V289.964z"/>
					<path style="fill:#FFFFFC;" d="M226.818,287.673c-0.458-0.163-0.993-0.266-1.579-0.266c-1.638,0-2.967,0.743-2.967,1.661
						c0,0.914,1.329,1.66,2.967,1.66c0.586,0,1.121-0.102,1.579-0.268V287.673z"/>
					<path style="fill:#FFFFFC;" d="M232.006,295.578c-0.459-0.165-0.992-0.268-1.578-0.268c-1.638,0-2.966,0.743-2.966,1.661
						c0,0.916,1.328,1.66,2.966,1.66c0.586,0,1.119-0.104,1.578-0.268V295.578z"/>
					<path style="fill:#FFFFFC;" d="M220.621,285.19c-0.46-0.164-0.993-0.267-1.579-0.267c-1.639,0-2.967,0.743-2.967,1.66
						c0,0.918,1.328,1.66,2.967,1.66c0.586,0,1.119-0.103,1.579-0.267V285.19z"/>
					<path style="fill:#FFFFFC;" d="M220.621,289.964c-0.46-0.162-0.993-0.265-1.579-0.265c-1.639,0-2.967,0.742-2.967,1.66
						c0,0.915,1.328,1.66,2.967,1.66c0.586,0,1.119-0.103,1.579-0.268V289.964z"/>
					<path style="fill:#FFFFFC;" d="M220.621,295.578c-0.46-0.165-0.993-0.268-1.579-0.268c-1.639,0-2.967,0.743-2.967,1.661
						c0,0.916,1.328,1.66,2.967,1.66c0.586,0,1.119-0.104,1.579-0.268V295.578z"/>
					<path style="fill:#FFFFFC;" d="M226.818,293.285c-0.458-0.163-0.993-0.266-1.579-0.266c-1.638,0-2.967,0.743-2.967,1.66
						c0,0.916,1.329,1.66,2.967,1.66c0.586,0,1.121-0.103,1.579-0.267V293.285z"/>
					<path style="fill:#FFFFFC;" d="M213.737,287.673c-0.458-0.163-0.994-0.266-1.58-0.266c-1.638,0-2.966,0.743-2.966,1.661
						c0,0.914,1.328,1.66,2.966,1.66c0.586,0,1.122-0.102,1.58-0.268V287.673z"/>
					<path style="fill:#FFFFFC;" d="M213.737,293.285c-0.458-0.163-0.994-0.266-1.58-0.266c-1.638,0-2.966,0.743-2.966,1.66
						c0,0.916,1.328,1.66,2.966,1.66c0.586,0,1.122-0.103,1.58-0.267V293.285z"/>
					<path style="fill:#FFFFFC;" d="M207.969,290.44c-0.457-0.164-0.994-0.267-1.58-0.267c-1.637,0-2.965,0.742-2.965,1.66
						c0,0.916,1.328,1.66,2.965,1.66c0.586,0,1.123-0.103,1.58-0.268V290.44z"/>
				</g>
			</g>
			<g>
				<path style="fill:#8ADAE1;" d="M177.181,311.249c0,0-7.339,9.881-22.007,9.881c-14.665,0-26.555-9.881-26.555-9.881
					s11.89-9.881,26.555-9.881C169.842,301.368,177.181,311.249,177.181,311.249z"/>
				<path style="fill:#FFFFFC;" d="M166.19,303.438v15.624c7.314-2.896,10.991-7.813,10.991-7.813S173.504,306.334,166.19,303.438z"
					/>
				<polygon style="fill:#8ADAE1;" points="133.502,311.518 123,305.453 123,317.582 133.502,311.518 123,305.453 123,317.582 				
					"/>
				<path style="fill:#FFFFFC;" d="M152.173,309.285c-0.735-0.264-1.593-0.428-2.532-0.428c-2.624,0-4.751,1.191-4.751,2.66
					s2.127,2.661,4.751,2.661c0.939,0,1.797-0.165,2.532-0.429V309.285z"/>
			</g>
			<g>
				<path style="fill:#1E61B8;" d="M105.92,346.879c0,0-7.339,9.883-22.006,9.883c-14.666,0-26.555-9.883-26.555-9.883
					s11.889-9.88,26.555-9.88C98.581,336.999,105.92,346.879,105.92,346.879z"/>
				<path style="fill:#FFFFFC;" d="M94.929,339.067v15.625c7.315-2.897,10.991-7.814,10.991-7.814S102.244,341.963,94.929,339.067z"
					/>
				<polygon style="fill:#1E61B8;" points="62.502,347.148 52,341.084 52,353.213 62.502,347.148 52,341.084 52,353.213 				"/>
				<path style="fill:#FFFFFC;" d="M80.912,344.916c-0.734-0.264-1.592-0.429-2.532-0.429c-2.624,0-4.751,1.192-4.751,2.661
					c0,1.47,2.128,2.661,4.751,2.661c0.939,0,1.797-0.165,2.532-0.428V344.916z"/>
			</g>
			<g>
				<path style="fill:#8ADAE1;" d="M311.959,329.839c0,0-7.34,9.883-22.008,9.883c-14.666,0-26.555-9.883-26.555-9.883
					s11.889-9.881,26.555-9.881C304.619,319.958,311.959,329.839,311.959,329.839z"/>
				<path style="fill:#FFFFFC;" d="M300.967,322.026v15.626c7.314-2.897,10.992-7.813,10.992-7.813S308.281,324.923,300.967,322.026
					z"/>
				<polygon style="fill:#8ADAE1;" points="268.502,330.108 258,324.044 258,336.173 268.502,330.108 258,324.044 258,336.173 				
					"/>
				<path style="fill:#FFFFFC;" d="M286.949,327.874c-0.734-0.263-1.592-0.427-2.533-0.427c-2.623,0-4.75,1.191-4.75,2.661
					c0,1.468,2.127,2.661,4.75,2.661c0.941,0,1.799-0.167,2.533-0.429V327.874z"/>
			</g>
			<g>
				<path style="fill:#903497;" d="M177.181,273.185c0,0-7.339,9.882-22.007,9.882c-14.665,0-26.555-9.882-26.555-9.882
					s11.89-9.88,26.555-9.88C169.842,263.306,177.181,273.185,177.181,273.185z"/>
				<path style="fill:#FFFFFC;" d="M166.19,265.375v15.624c7.314-2.896,10.991-7.814,10.991-7.814S173.504,268.271,166.19,265.375z"
					/>
				<polygon style="fill:#903497;" points="133.502,273.455 123,267.39 123,279.52 133.502,273.455 123,267.39 123,279.52 				"/>
				<g>
					<path style="fill:#FFFFFC;" d="M163.098,266.601c-0.461-0.164-0.993-0.269-1.58-0.269c-1.637,0-2.965,0.745-2.965,1.66
						c0,0.918,1.328,1.661,2.965,1.661c0.587,0,1.119-0.103,1.58-0.267V266.601z"/>
					<path style="fill:#FFFFFC;" d="M163.098,271.375c-0.461-0.163-0.993-0.267-1.58-0.267c-1.637,0-2.965,0.742-2.965,1.66
						c0,0.916,1.328,1.661,2.965,1.661c0.587,0,1.119-0.103,1.58-0.268V271.375z"/>
					<path style="fill:#FFFFFC;" d="M157.909,269.084c-0.457-0.163-0.992-0.267-1.579-0.267c-1.638,0-2.966,0.743-2.966,1.659
						c0,0.917,1.328,1.661,2.966,1.661c0.587,0,1.122-0.103,1.579-0.268V269.084z"/>
					<path style="fill:#FFFFFC;" d="M163.098,276.987c-0.461-0.163-0.993-0.267-1.58-0.267c-1.637,0-2.965,0.743-2.965,1.661
						c0,0.916,1.328,1.66,2.965,1.66c0.587,0,1.119-0.103,1.58-0.269V276.987z"/>
					<path style="fill:#FFFFFC;" d="M151.711,266.601c-0.459-0.164-0.992-0.269-1.58-0.269c-1.637,0-2.965,0.745-2.965,1.66
						c0,0.918,1.328,1.661,2.965,1.661c0.588,0,1.121-0.103,1.58-0.267V266.601z"/>
					<path style="fill:#FFFFFC;" d="M151.711,271.375c-0.459-0.163-0.992-0.267-1.58-0.267c-1.637,0-2.965,0.742-2.965,1.66
						c0,0.916,1.328,1.661,2.965,1.661c0.588,0,1.121-0.103,1.58-0.268V271.375z"/>
					<path style="fill:#FFFFFC;" d="M151.711,276.987c-0.459-0.163-0.992-0.267-1.58-0.267c-1.637,0-2.965,0.743-2.965,1.661
						c0,0.916,1.328,1.66,2.965,1.66c0.588,0,1.121-0.103,1.58-0.269V276.987z"/>
					<path style="fill:#FFFFFC;" d="M157.909,274.696c-0.457-0.163-0.992-0.267-1.579-0.267c-1.638,0-2.966,0.743-2.966,1.66
						c0,0.917,1.328,1.661,2.966,1.661c0.587,0,1.122-0.104,1.579-0.269V274.696z"/>
					<path style="fill:#FFFFFC;" d="M144.828,269.084c-0.458-0.163-0.993-0.267-1.58-0.267c-1.638,0-2.966,0.743-2.966,1.659
						c0,0.917,1.328,1.661,2.966,1.661c0.587,0,1.122-0.103,1.58-0.268V269.084z"/>
					<path style="fill:#FFFFFC;" d="M144.828,274.696c-0.458-0.163-0.993-0.267-1.58-0.267c-1.638,0-2.966,0.743-2.966,1.66
						c0,0.917,1.328,1.661,2.966,1.661c0.587,0,1.122-0.104,1.58-0.269V274.696z"/>
					<path style="fill:#FFFFFC;" d="M139.061,271.849c-0.459-0.163-0.994-0.266-1.58-0.266c-1.637,0-2.965,0.743-2.965,1.66
						c0,0.916,1.328,1.66,2.965,1.66c0.586,0,1.121-0.102,1.58-0.268V271.849z"/>
				</g>
			</g>
			<g>
				<path style="fill:#FC6A33;" d="M177.181,346.879c0,0-7.339,9.883-22.007,9.883c-14.665,0-26.555-9.883-26.555-9.883
					s11.89-9.88,26.555-9.88C169.842,336.999,177.181,346.879,177.181,346.879z"/>
				<path style="fill:#FFFFFC;" d="M166.19,339.067v15.624c7.314-2.896,10.991-7.813,10.991-7.813S173.504,341.963,166.19,339.067z"
					/>
				<polygon style="fill:#FC6A33;" points="133.502,347.148 123,341.084 123,353.213 133.502,347.148 123,341.084 123,353.213 				
					"/>
				<g>
					<path style="fill:#FFFFFC;" d="M163.098,340.294c-0.461-0.166-0.993-0.269-1.58-0.269c-1.637,0-2.965,0.745-2.965,1.66
						c0,0.918,1.328,1.661,2.965,1.661c0.587,0,1.119-0.104,1.58-0.267V340.294z"/>
					<path style="fill:#FFFFFC;" d="M163.098,345.068c-0.461-0.163-0.993-0.267-1.58-0.267c-1.637,0-2.965,0.742-2.965,1.66
						c0,0.916,1.328,1.661,2.965,1.661c0.587,0,1.119-0.103,1.58-0.268V345.068z"/>
					<path style="fill:#FFFFFC;" d="M157.909,342.776c-0.457-0.164-0.992-0.267-1.579-0.267c-1.638,0-2.966,0.743-2.966,1.661
						c0,0.916,1.328,1.661,2.966,1.661c0.587,0,1.122-0.104,1.579-0.268V342.776z"/>
					<path style="fill:#FFFFFC;" d="M163.098,350.681c-0.461-0.164-0.993-0.268-1.58-0.268c-1.637,0-2.965,0.744-2.965,1.662
						c0,0.915,1.328,1.66,2.965,1.66c0.587,0,1.119-0.104,1.58-0.269V350.681z"/>
					<path style="fill:#FFFFFC;" d="M151.711,340.294c-0.459-0.166-0.992-0.269-1.58-0.269c-1.637,0-2.965,0.745-2.965,1.66
						c0,0.918,1.328,1.661,2.965,1.661c0.588,0,1.121-0.104,1.58-0.267V340.294z"/>
					<path style="fill:#FFFFFC;" d="M151.711,345.068c-0.459-0.163-0.992-0.267-1.58-0.267c-1.637,0-2.965,0.742-2.965,1.66
						c0,0.916,1.328,1.661,2.965,1.661c0.588,0,1.121-0.103,1.58-0.268V345.068z"/>
					<path style="fill:#FFFFFC;" d="M151.711,350.681c-0.459-0.164-0.992-0.268-1.58-0.268c-1.637,0-2.965,0.744-2.965,1.662
						c0,0.915,1.328,1.66,2.965,1.66c0.588,0,1.121-0.104,1.58-0.269V350.681z"/>
					<path style="fill:#FFFFFC;" d="M157.909,348.39c-0.457-0.164-0.992-0.267-1.579-0.267c-1.638,0-2.966,0.743-2.966,1.66
						s1.328,1.66,2.966,1.66c0.587,0,1.122-0.103,1.579-0.268V348.39z"/>
					<path style="fill:#FFFFFC;" d="M144.828,342.776c-0.458-0.164-0.993-0.267-1.58-0.267c-1.638,0-2.966,0.743-2.966,1.661
						c0,0.916,1.328,1.661,2.966,1.661c0.587,0,1.122-0.104,1.58-0.268V342.776z"/>
					<path style="fill:#FFFFFC;" d="M144.828,348.39c-0.458-0.164-0.993-0.267-1.58-0.267c-1.638,0-2.966,0.743-2.966,1.66
						s1.328,1.66,2.966,1.66c0.587,0,1.122-0.103,1.58-0.268V348.39z"/>
					<path style="fill:#FFFFFC;" d="M139.061,345.542c-0.459-0.163-0.994-0.266-1.58-0.266c-1.637,0-2.965,0.742-2.965,1.66
						c0,0.915,1.328,1.66,2.965,1.66c0.586,0,1.121-0.103,1.58-0.269V345.542z"/>
				</g>
			</g>
			<g>
				<path style="fill:#FF6B73;" d="M244.167,330.505c0,0-7.339,9.882-22.006,9.882c-14.665,0-26.555-9.882-26.555-9.882
					s11.89-9.88,26.555-9.88C236.829,320.625,244.167,330.505,244.167,330.505z"/>
				<path style="fill:#FFFFFC;" d="M233.176,322.693v15.625c7.316-2.896,10.991-7.813,10.991-7.813S240.493,325.59,233.176,322.693z
					"/>
				<polygon style="fill:#FF6B73;" points="200.502,330.774 190,324.709 190,336.839 200.502,330.774 190,324.709 190,336.839 				
					"/>
				<g>
					<path style="fill:#FFFFFC;" d="M230.084,323.252c-0.459-0.164-0.992-0.267-1.58-0.267c-1.637,0-2.965,0.743-2.965,1.66
						c0,0.918,1.328,1.66,2.965,1.66c0.588,0,1.121-0.103,1.58-0.268V323.252z"/>
					<path style="fill:#FFFFFC;" d="M230.084,328.026c-0.459-0.162-0.992-0.265-1.58-0.265c-1.637,0-2.965,0.742-2.965,1.66
						c0,0.916,1.328,1.66,2.965,1.66c0.588,0,1.121-0.103,1.58-0.268V328.026z"/>
					<path style="fill:#FFFFFC;" d="M224.895,325.735c-0.457-0.163-0.992-0.266-1.579-0.266c-1.638,0-2.966,0.743-2.966,1.66
						c0,0.915,1.328,1.66,2.966,1.66c0.587,0,1.122-0.103,1.579-0.268V325.735z"/>
					<path style="fill:#FFFFFC;" d="M230.084,333.641c-0.459-0.165-0.992-0.268-1.58-0.268c-1.637,0-2.965,0.743-2.965,1.66
						s1.328,1.66,2.965,1.66c0.588,0,1.121-0.103,1.58-0.267V333.641z"/>
					<path style="fill:#FFFFFC;" d="M218.698,323.252c-0.459-0.164-0.992-0.267-1.58-0.267c-1.637,0-2.965,0.743-2.965,1.66
						c0,0.918,1.328,1.66,2.965,1.66c0.588,0,1.121-0.103,1.58-0.268V323.252z"/>
					<path style="fill:#FFFFFC;" d="M218.698,328.026c-0.459-0.162-0.992-0.265-1.58-0.265c-1.637,0-2.965,0.742-2.965,1.66
						c0,0.916,1.328,1.66,2.965,1.66c0.588,0,1.121-0.103,1.58-0.268V328.026z"/>
					<path style="fill:#FFFFFC;" d="M218.698,333.641c-0.459-0.165-0.992-0.268-1.58-0.268c-1.637,0-2.965,0.743-2.965,1.66
						s1.328,1.66,2.965,1.66c0.588,0,1.121-0.103,1.58-0.267V333.641z"/>
					<path style="fill:#FFFFFC;" d="M224.895,331.35c-0.457-0.165-0.992-0.268-1.579-0.268c-1.638,0-2.966,0.743-2.966,1.66
						c0,0.916,1.328,1.66,2.966,1.66c0.587,0,1.122-0.103,1.579-0.267V331.35z"/>
					<path style="fill:#FFFFFC;" d="M211.814,325.735c-0.458-0.163-0.993-0.266-1.579-0.266c-1.639,0-2.967,0.743-2.967,1.66
						c0,0.915,1.328,1.66,2.967,1.66c0.586,0,1.121-0.103,1.579-0.268V325.735z"/>
					<path style="fill:#FFFFFC;" d="M211.814,331.35c-0.458-0.165-0.993-0.268-1.579-0.268c-1.639,0-2.967,0.743-2.967,1.66
						c0,0.916,1.328,1.66,2.967,1.66c0.586,0,1.121-0.103,1.579-0.267V331.35z"/>
					<path style="fill:#FFFFFC;" d="M206.047,328.502c-0.457-0.164-0.993-0.267-1.58-0.267c-1.637,0-2.965,0.742-2.965,1.66
						c0,0.916,1.328,1.66,2.965,1.66c0.587,0,1.123-0.103,1.58-0.268V328.502z"/>
				</g>
			</g>
			<g>
				<path style="fill:#FFD43A;" d="M176.378,387.824c0,0-7.339,9.882-22.007,9.882c-14.666,0-26.555-9.882-26.555-9.882
					s11.889-9.88,26.555-9.88C169.04,377.944,176.378,387.824,176.378,387.824z"/>
				<path style="fill:#FFFFFC;" d="M165.387,380.013v15.624c7.314-2.897,10.991-7.813,10.991-7.813S172.702,382.908,165.387,380.013
					z"/>
				<polygon style="fill:#FFD43A;" points="132.502,388.094 122,382.028 122,394.157 132.502,388.094 122,382.028 122,394.157 				
					"/>
				<g>
					<path style="fill:#FFFFFC;" d="M162.294,381.237c-0.46-0.163-0.993-0.268-1.579-0.268c-1.637,0-2.965,0.744-2.965,1.66
						c0,0.918,1.328,1.66,2.965,1.66c0.586,0,1.119-0.103,1.579-0.265V381.237z"/>
					<path style="fill:#FFFFFC;" d="M162.294,386.013c-0.46-0.164-0.993-0.267-1.579-0.267c-1.637,0-2.965,0.742-2.965,1.66
						c0,0.917,1.328,1.66,2.965,1.66c0.586,0,1.119-0.103,1.579-0.268V386.013z"/>
					<path style="fill:#FFFFFC;" d="M157.106,383.721c-0.457-0.163-0.994-0.266-1.58-0.266c-1.637,0-2.965,0.742-2.965,1.66
						c0,0.917,1.328,1.66,2.965,1.66c0.586,0,1.123-0.102,1.58-0.269V383.721z"/>
					<path style="fill:#FFFFFC;" d="M162.294,391.625c-0.46-0.164-0.993-0.268-1.579-0.268c-1.637,0-2.965,0.743-2.965,1.661
						c0,0.917,1.328,1.66,2.965,1.66c0.586,0,1.119-0.104,1.579-0.268V391.625z"/>
					<path style="fill:#FFFFFC;" d="M150.909,381.237c-0.46-0.163-0.994-0.268-1.58-0.268c-1.637,0-2.965,0.744-2.965,1.66
						c0,0.918,1.328,1.66,2.965,1.66c0.586,0,1.12-0.103,1.58-0.265V381.237z"/>
					<path style="fill:#FFFFFC;" d="M150.909,386.013c-0.46-0.164-0.994-0.267-1.58-0.267c-1.637,0-2.965,0.742-2.965,1.66
						c0,0.917,1.328,1.66,2.965,1.66c0.586,0,1.12-0.103,1.58-0.268V386.013z"/>
					<path style="fill:#FFFFFC;" d="M150.909,391.625c-0.46-0.164-0.994-0.268-1.58-0.268c-1.637,0-2.965,0.743-2.965,1.661
						c0,0.917,1.328,1.66,2.965,1.66c0.586,0,1.12-0.104,1.58-0.268V391.625z"/>
					<path style="fill:#FFFFFC;" d="M157.106,389.334c-0.457-0.163-0.994-0.268-1.58-0.268c-1.637,0-2.965,0.743-2.965,1.66
						s1.328,1.662,2.965,1.662c0.586,0,1.123-0.104,1.58-0.269V389.334z"/>
					<path style="fill:#FFFFFC;" d="M144.024,383.721c-0.457-0.163-0.992-0.266-1.579-0.266c-1.638,0-2.966,0.742-2.966,1.66
						c0,0.917,1.328,1.66,2.966,1.66c0.587,0,1.122-0.102,1.579-0.269V383.721z"/>
					<path style="fill:#FFFFFC;" d="M144.024,389.334c-0.457-0.163-0.992-0.268-1.579-0.268c-1.638,0-2.966,0.743-2.966,1.66
						s1.328,1.662,2.966,1.662c0.587,0,1.122-0.104,1.579-0.269V389.334z"/>
					<path style="fill:#FFFFFC;" d="M138.258,386.487c-0.459-0.165-0.994-0.268-1.58-0.268c-1.637,0-2.966,0.743-2.966,1.66
						c0,0.917,1.329,1.661,2.966,1.661c0.586,0,1.121-0.103,1.58-0.268V386.487z"/>
				</g>
			</g>
		</g>
	</g>
	<g>
		<g>
			<g>
				<path style="fill:none;stroke:#1E61B8;stroke-width:3;stroke-linecap:round;stroke-linejoin:round;stroke-miterlimit:10;" d="
					M48,36.295c6.128,0,6.128,4.904,12.255,4.904c6.13,0,6.13-4.904,12.26-4.904c6.128,0,6.128,4.904,12.256,4.904
					c6.132,0,6.132-4.904,12.264-4.904c6.132,0,6.132,4.904,12.264,4.904"/>
			</g>
			<g>
				<path style="fill:none;stroke:#1E61B8;stroke-width:3;stroke-linecap:round;stroke-linejoin:round;stroke-miterlimit:10;" d="
					M48,46.067c6.128,0,6.128,4.904,12.255,4.904c6.13,0,6.13-4.904,12.26-4.904c6.128,0,6.128,4.904,12.256,4.904
					c6.132,0,6.132-4.904,12.264-4.904c6.132,0,6.132,4.904,12.264,4.904"/>
			</g>
		</g>
		<g>
			<path style="fill:none;stroke:#1E61B8;stroke-width:3;stroke-linecap:round;stroke-linejoin:round;stroke-miterlimit:10;" d="
				M40.581,235.921c6.127,0,6.127,4.904,12.255,4.904c6.13,0,6.13-4.904,12.26-4.904c6.128,0,6.128,4.904,12.255,4.904
				c6.132,0,6.132-4.904,12.264-4.904c6.132,0,6.132,4.904,12.264,4.904"/>
		</g>
		<g>
			<path style="fill:none;stroke:#1E61B8;stroke-width:3;stroke-linecap:round;stroke-linejoin:round;stroke-miterlimit:10;" d="
				M360.17,318.96c6.128,0,6.128,4.904,12.256,4.904c6.13,0,6.13-4.904,12.26-4.904c6.128,0,6.128,4.904,12.256,4.904
				c6.132,0,6.132-4.904,12.264-4.904c6.133,0,6.133,4.904,12.265,4.904"/>
		</g>
		<g>
			<path style="fill:none;stroke:#1E61B8;stroke-width:3;stroke-linecap:round;stroke-linejoin:round;stroke-miterlimit:10;" d="
				M408.17,180.96c6.128,0,6.128,4.904,12.256,4.904c6.13,0,6.13-4.904,12.26-4.904c6.128,0,6.128,4.904,12.256,4.904
				c6.132,0,6.132-4.904,12.264-4.904c6.133,0,6.133,4.904,12.265,4.904"/>
		</g>
		<g>
			<path style="fill:none;stroke:#1E61B8;stroke-width:3;stroke-linecap:round;stroke-linejoin:round;stroke-miterlimit:10;" d="
				M38.861,425.801c6.127,0,6.127,4.904,12.255,4.904c6.13,0,6.13-4.904,12.26-4.904c6.128,0,6.128,4.904,12.256,4.904
				c6.132,0,6.132-4.904,12.264-4.904c6.132,0,6.132,4.904,12.264,4.904"/>
		</g>
		<g>
			<g>
				<path style="fill:none;stroke:#1E61B8;stroke-width:3;stroke-linecap:round;stroke-linejoin:round;stroke-miterlimit:10;" d="
					M384.406,70.261c6.128,0,6.128,4.904,12.256,4.904c6.13,0,6.13-4.904,12.26-4.904c6.128,0,6.128,4.904,12.256,4.904
					c6.132,0,6.132-4.904,12.264-4.904c6.133,0,6.133,4.904,12.265,4.904"/>
			</g>
			<g>
				<path style="fill:none;stroke:#1E61B8;stroke-width:3;stroke-linecap:round;stroke-linejoin:round;stroke-miterlimit:10;" d="
					M384.406,79.145c6.128,0,6.128,4.904,12.256,4.904c6.13,0,6.13-4.904,12.26-4.904c6.128,0,6.128,4.904,12.256,4.904
					c6.132,0,6.132-4.904,12.264-4.904c6.133,0,6.133,4.904,12.265,4.904"/>
			</g>
		</g>
		<g style="opacity:0.2;">
			<path style="fill:#FFFFFC;" d="M288.212,50.303c0,1.686-1.366,3.052-3.052,3.052c-1.687,0-3.053-1.367-3.053-3.052
				c0-1.686,1.366-3.052,3.053-3.052C286.846,47.251,288.212,48.618,288.212,50.303z"/>
			<path style="fill:#FFFFFC;" d="M295.212,60.303c0,1.686-1.366,3.052-3.052,3.052c-1.687,0-3.053-1.367-3.053-3.052
				c0-1.686,1.366-3.052,3.053-3.052C293.846,57.251,295.212,58.618,295.212,60.303z"/>
			<path style="fill:#FFFFFC;" d="M288.212,70.303c0,1.686-1.366,3.052-3.052,3.052c-1.687,0-3.053-1.367-3.053-3.052
				c0-1.686,1.366-3.052,3.053-3.052C286.846,67.251,288.212,68.618,288.212,70.303z"/>
		</g>
		<g style="opacity:0.2;">
			<path style="fill:#FFFFFC;" d="M141.212,227.999c0,1.686-1.366,3.053-3.052,3.053c-1.687,0-3.053-1.367-3.053-3.053
				c0-1.686,1.366-3.052,3.053-3.052C139.846,224.948,141.212,226.314,141.212,227.999z"/>
			<path style="fill:#FFFFFC;" d="M148.212,237.999c0,1.686-1.366,3.053-3.052,3.053c-1.687,0-3.053-1.367-3.053-3.053
				c0-1.686,1.366-3.052,3.053-3.052C146.846,234.948,148.212,236.314,148.212,237.999z"/>
			<path style="fill:#FFFFFC;" d="M141.212,248c0,1.686-1.366,3.053-3.052,3.053c-1.687,0-3.053-1.367-3.053-3.053
				s1.366-3.053,3.053-3.053C139.846,244.947,141.212,246.314,141.212,248z"/>
		</g>
		<g style="opacity:0.2;">
			<path style="fill:#FFFFFC;" d="M462.212,327.303c0,1.686-1.366,3.053-3.052,3.053c-1.687,0-3.053-1.367-3.053-3.053
				c0-1.686,1.366-3.052,3.053-3.052C460.846,324.251,462.212,325.617,462.212,327.303z"/>
			<path style="fill:#FFFFFC;" d="M469.212,337.303c0,1.686-1.366,3.053-3.052,3.053c-1.687,0-3.053-1.367-3.053-3.053
				c0-1.686,1.366-3.052,3.053-3.052C467.846,334.251,469.212,335.617,469.212,337.303z"/>
			<path style="fill:#FFFFFC;" d="M462.212,347.303c0,1.686-1.366,3.053-3.052,3.053c-1.687,0-3.053-1.367-3.053-3.053
				c0-1.686,1.366-3.052,3.053-3.052C460.846,344.251,462.212,345.617,462.212,347.303z"/>
		</g>
		<g style="opacity:0.2;">
			<path style="fill:#FFFFFC;" d="M380.212,127.303c0,1.686-1.366,3.053-3.052,3.053c-1.687,0-3.053-1.367-3.053-3.053
				c0-1.685,1.366-3.052,3.053-3.052C378.846,124.251,380.212,125.617,380.212,127.303z"/>
			<path style="fill:#FFFFFC;" d="M387.212,137.303c0,1.686-1.366,3.053-3.052,3.053c-1.687,0-3.053-1.367-3.053-3.053
				c0-1.686,1.366-3.052,3.053-3.052C385.846,134.251,387.212,135.617,387.212,137.303z"/>
			<path style="fill:#FFFFFC;" d="M380.212,147.303c0,1.686-1.366,3.053-3.052,3.053c-1.687,0-3.053-1.367-3.053-3.053
				c0-1.686,1.366-3.052,3.053-3.052C378.846,144.251,380.212,145.617,380.212,147.303z"/>
		</g>
	</g>
	<g>
		<g>
			<g>
				<g>
					<path style="fill:none;stroke:#FFFFFC;stroke-width:3;stroke-linecap:round;stroke-linejoin:round;stroke-miterlimit:10;" d="
						M358.86,411.539c0,6.956-5.566,6.956-5.566,13.912c0,6.959,5.567,6.959,5.566,13.917c0,6.957-5.567,6.956-5.567,13.913
						c0,6.961,5.566,6.961,5.566,13.922c0,6.961-5.566,6.961-5.566,13.922"/>
				</g>
				<g>
					<path style="fill:none;stroke:#FFFFFC;stroke-width:3;stroke-linecap:round;stroke-linejoin:round;stroke-miterlimit:10;" d="
						M367.942,411.539c0,6.956-5.566,6.956-5.566,13.912c-0.001,6.958,5.565,6.959,5.565,13.917c0,6.957-5.566,6.956-5.566,13.913
						c0,6.961,5.566,6.961,5.565,13.922c0,6.961-5.566,6.961-5.566,13.922"/>
				</g>
			</g>
			<g>
				<g>
					<path style="fill:none;stroke:#FC6A33;stroke-width:3;stroke-linecap:round;stroke-linejoin:round;stroke-miterlimit:10;" d="
						M471.86,411.539c0,6.956-5.566,6.956-5.566,13.912c0,6.959,5.567,6.959,5.566,13.917c0,6.957-5.567,6.956-5.567,13.913
						c0,6.961,5.566,6.961,5.566,13.922c0,6.961-5.566,6.961-5.566,13.922"/>
				</g>
				<g>
					<path style="fill:none;stroke:#FC6A33;stroke-width:3;stroke-linecap:round;stroke-linejoin:round;stroke-miterlimit:10;" d="
						M480.942,411.539c0,6.956-5.566,6.956-5.566,13.912c-0.001,6.958,5.565,6.959,5.565,13.917c0,6.957-5.566,6.956-5.566,13.913
						c0,6.961,5.566,6.961,5.565,13.922c0,6.961-5.566,6.961-5.566,13.922"/>
				</g>
			</g>
			<g>
				<line style="fill:none;stroke:#9FA226;stroke-width:3;stroke-miterlimit:10;" x1="229.5" y1="425" x2="229.5" y2="490"/>
				<path style="fill:#9FA226;" d="M229.67,429.597c-1.828,0-3.313-2.561-3.313-5.719s3.313-5.718,3.313-5.718
					s3.314,2.56,3.314,5.718S231.501,429.597,229.67,429.597z"/>
				<path style="fill:#9FA226;" d="M230.167,440.408c-1.293-1.293-0.532-4.152,1.702-6.385c2.232-2.234,6.385-1.702,6.385-1.702
					s0.533,4.152-1.7,6.387C234.32,440.941,231.462,441.704,230.167,440.408z"/>
				<path style="fill:#9FA226;" d="M229.173,451.762c-1.292,1.294-4.152,0.532-6.385-1.701c-2.234-2.232-1.702-6.386-1.702-6.386
					s4.152-0.533,6.387,1.701C229.706,447.609,230.469,450.467,229.173,451.762z"/>
				<path style="fill:#9FA226;" d="M230.167,464.246c-1.293-1.292-0.532-4.152,1.702-6.385c2.232-2.234,6.385-1.702,6.385-1.702
					s0.533,4.153-1.7,6.387S231.462,465.542,230.167,464.246z"/>
				<path style="fill:#9FA226;" d="M229.173,475.6c-1.292,1.294-4.152,0.532-6.385-1.701c-2.234-2.232-1.702-6.386-1.702-6.386
					s4.152-0.533,6.387,1.701C229.706,471.447,230.469,474.305,229.173,475.6z"/>
				<path style="fill:#FC9A02;" d="M230.167,488.084c-1.293-1.292-0.532-4.152,1.702-6.385c2.232-2.233,6.385-1.702,6.385-1.702
					s0.533,4.153-1.7,6.387S231.462,489.38,230.167,488.084z"/>
				<path style="fill:#FC9A02;" d="M229.173,499.439c-1.292,1.293-4.152,0.531-6.385-1.702c-2.234-2.232-1.702-6.385-1.702-6.385
					s4.152-0.533,6.387,1.7C229.706,495.285,230.469,498.144,229.173,499.439z"/>
			</g>
			<g>
				<line style="fill:none;stroke:#FFD43A;stroke-width:3;stroke-miterlimit:10;" x1="398.5" y1="370" x2="398.5" y2="489"/>
				<polygon style="fill:#FFD43A;" points="398.85,470.31 407.111,456 390.588,456 398.85,470.31 407.111,456 390.588,456 				"/>
				<polygon style="fill:#FFD43A;" points="398.85,449.31 407.111,435 390.588,435 398.85,449.31 407.111,435 390.588,435 				"/>
				<polygon style="fill:#FFD43A;" points="398.85,427.31 407.111,413 390.588,413 398.85,427.31 407.111,413 390.588,413 				"/>
				<polygon style="fill:#FFD43A;" points="398.85,405.31 407.111,391 390.588,391 398.85,405.31 407.111,391 390.588,391 				"/>
				<polygon style="fill:#FFD43A;" points="398.85,384.31 407.111,370 390.588,370 398.85,384.31 407.111,370 390.588,370 				"/>
			</g>
			<g>
				<g>
					<rect x="184" y="437" style="fill:#FC6A33;" width="3" height="53.38"/>
				</g>
				<g>
					<polygon style="fill:#FC6A33;" points="188.118,490.38 194.111,480 177.588,480 183.581,490.38 					"/>
				</g>
				<g>
					<polygon style="fill:#FC6A33;" points="185.85,472.31 194.111,458 177.588,458 185.85,472.31 194.111,458 177.588,458 					"/>
				</g>
				<g>
					<polygon style="fill:#FC6A33;" points="185.85,451.31 194.111,437 177.588,437 185.85,451.31 194.111,437 177.588,437 					"/>
				</g>
			</g>
			<g>
				
					<line style="fill:#FF675D;stroke:#FF675D;stroke-width:3;stroke-linecap:round;stroke-linejoin:round;stroke-miterlimit:10;" x1="324.5" y1="383" x2="324.5" y2="487"/>
				
					<line style="fill:none;stroke:#FF675D;stroke-width:3;stroke-linecap:round;stroke-linejoin:round;stroke-miterlimit:10;" x1="317" y1="466.5" x2="330" y2="466.5"/>
				
					<line style="fill:none;stroke:#FF675D;stroke-width:3;stroke-linecap:round;stroke-linejoin:round;stroke-miterlimit:10;" x1="317" y1="461.5" x2="330" y2="461.5"/>
				
					<line style="fill:none;stroke:#FF675D;stroke-width:3;stroke-linecap:round;stroke-linejoin:round;stroke-miterlimit:10;" x1="317" y1="455.5" x2="330" y2="455.5"/>
				
					<line style="fill:none;stroke:#FF675D;stroke-width:3;stroke-linecap:round;stroke-linejoin:round;stroke-miterlimit:10;" x1="317" y1="449.5" x2="330" y2="449.5"/>
				
					<line style="fill:none;stroke:#FF675D;stroke-width:3;stroke-linecap:round;stroke-linejoin:round;stroke-miterlimit:10;" x1="317" y1="444.5" x2="330" y2="444.5"/>
				
					<line style="fill:none;stroke:#FF675D;stroke-width:3;stroke-linecap:round;stroke-linejoin:round;stroke-miterlimit:10;" x1="317" y1="438.5" x2="330" y2="438.5"/>
				
					<line style="fill:none;stroke:#FF675D;stroke-width:3;stroke-linecap:round;stroke-linejoin:round;stroke-miterlimit:10;" x1="317" y1="432.5" x2="330" y2="432.5"/>
				
					<line style="fill:none;stroke:#FF675D;stroke-width:3;stroke-linecap:round;stroke-linejoin:round;stroke-miterlimit:10;" x1="317" y1="427.5" x2="330" y2="427.5"/>
				
					<line style="fill:none;stroke:#FF675D;stroke-width:3;stroke-linecap:round;stroke-linejoin:round;stroke-miterlimit:10;" x1="317" y1="421.5" x2="330" y2="421.5"/>
				
					<line style="fill:none;stroke:#FF675D;stroke-width:3;stroke-linecap:round;stroke-linejoin:round;stroke-miterlimit:10;" x1="317" y1="415.5" x2="330" y2="415.5"/>
				
					<line style="fill:none;stroke:#FF675D;stroke-width:3;stroke-linecap:round;stroke-linejoin:round;stroke-miterlimit:10;" x1="317" y1="410.5" x2="330" y2="410.5"/>
				
					<line style="fill:none;stroke:#FF675D;stroke-width:3;stroke-linecap:round;stroke-linejoin:round;stroke-miterlimit:10;" x1="317" y1="404.5" x2="330" y2="404.5"/>
				
					<line style="fill:none;stroke:#FF675D;stroke-width:3;stroke-linecap:round;stroke-linejoin:round;stroke-miterlimit:10;" x1="317" y1="398.5" x2="330" y2="398.5"/>
				
					<line style="fill:none;stroke:#FF675D;stroke-width:3;stroke-linecap:round;stroke-linejoin:round;stroke-miterlimit:10;" x1="317" y1="393.5" x2="330" y2="393.5"/>
				
					<line style="fill:none;stroke:#FF675D;stroke-width:3;stroke-linecap:round;stroke-linejoin:round;stroke-miterlimit:10;" x1="317" y1="387.5" x2="330" y2="387.5"/>
			</g>
			<g>
				<path style="fill:#F6FEFF;" d="M69.417,479.971c-0.517-8.408-7.48-15.073-16.018-15.073c-8.538,0-15.502,6.665-16.018,15.073
					H69.417z"/>
				<path style="fill:#F6FEFF;" d="M159.005,483.511c-0.846-13.762-12.243-24.67-26.218-24.67c-13.975,0-25.372,10.908-26.218,24.67
					H159.005z"/>
			</g>
			<g>
				<path style="fill:#EBA93E;" d="M284,476.867c0,2.282-1.851,4.133-4.133,4.133h-0.734c-2.282,0-4.133-1.851-4.133-4.133v-36.734
					c0-2.282,1.851-4.133,4.133-4.133h0.734c2.282,0,4.133,1.851,4.133,4.133V476.867z"/>
				<g>
					<path style="fill:#EBA93E;" d="M270,457.867c0,2.282-1.851,4.133-4.133,4.133h-0.734c-2.282,0-4.133-1.851-4.133-4.133v-12.734
						c0-2.282,1.851-4.133,4.133-4.133h0.734c2.282,0,4.133,1.851,4.133,4.133V457.867z"/>
					<path style="fill:#EBA93E;" d="M282,458.867c0,2.282-1.851,4.133-4.133,4.133h-12.734c-2.282,0-4.133-1.851-4.133-4.133v-0.734
						c0-2.282,1.851-4.133,4.133-4.133h12.734c2.282,0,4.133,1.851,4.133,4.133V458.867z"/>
				</g>
			</g>
			<g>
				<path style="fill:#EBA93E;" d="M436,484.035c0,2.742-2.223,4.965-4.964,4.965h-1.072c-2.741,0-4.964-2.223-4.964-4.965v-44.07
					c0-2.742,2.223-4.965,4.964-4.965h1.072c2.741,0,4.964,2.223,4.964,4.965V484.035z"/>
				<g>
					<path style="fill:#EBA93E;" d="M453,478.036c0,2.741-2.223,4.964-4.964,4.964h-1.072c-2.741,0-4.964-2.223-4.964-4.964v-15.072
						c0-2.741,2.223-4.964,4.964-4.964h1.072c2.741,0,4.964,2.223,4.964,4.964V478.036z"/>
					<path style="fill:#EBA93E;" d="M453,463.036c0,2.741-2.223,4.964-4.964,4.964h-15.072c-2.741,0-4.964-2.223-4.964-4.964v-1.072
						c0-2.741,2.223-4.964,4.964-4.964h15.072c2.741,0,4.964,2.223,4.964,4.964V463.036z"/>
				</g>
			</g>
		</g>
		<g>
			<rect y="478" style="fill:#EBA93E;" width="500" height="22"/>
			<g>
				<g>
					<circle style="fill:#1E61B8;" cx="24.516" cy="490.189" r="1.909"/>
					<path style="fill:#1E61B8;" d="M30.771,483.901c1.054,0,1.909,0.855,1.909,1.909c0,1.055-0.855,1.909-1.909,1.909
						c-1.054,0-1.91-0.854-1.91-1.909C28.861,484.757,29.716,483.901,30.771,483.901z"/>
					<circle style="fill:#1E61B8;" cx="37.024" cy="490.189" r="1.909"/>
				</g>
				<g>
					<path style="fill:#1E61B8;" d="M95.024,487.72c-1.054,0-1.909-0.855-1.909-1.909c0-1.055,0.855-1.909,1.909-1.909
						s1.909,0.854,1.909,1.909C96.933,486.864,96.078,487.72,95.024,487.72z"/>
					<path style="fill:#1E61B8;" d="M88.77,492.098c-1.054,0-1.909-0.855-1.909-1.909c0-1.055,0.855-1.909,1.909-1.909
						s1.91,0.854,1.91,1.909C90.679,491.242,89.824,492.098,88.77,492.098z"/>
					<path style="fill:#1E61B8;" d="M82.516,487.72c-1.054,0-1.909-0.855-1.909-1.909c0-1.055,0.855-1.909,1.909-1.909
						s1.909,0.854,1.909,1.909C84.425,486.864,83.57,487.72,82.516,487.72z"/>
				</g>
			</g>
			<g>
				<g>
					<circle style="fill:#1E61B8;" cx="135.516" cy="490.189" r="1.909"/>
					<path style="fill:#1E61B8;" d="M141.77,483.901c1.054,0,1.909,0.855,1.909,1.909c0,1.055-0.855,1.909-1.909,1.909
						s-1.91-0.854-1.91-1.909C139.861,484.757,140.716,483.901,141.77,483.901z"/>
					<circle style="fill:#1E61B8;" cx="148.024" cy="490.189" r="1.909"/>
				</g>
				<g>
					<path style="fill:#1E61B8;" d="M206.024,487.72c-1.054,0-1.909-0.855-1.909-1.909c0-1.055,0.855-1.909,1.909-1.909
						s1.909,0.854,1.909,1.909C207.933,486.864,207.078,487.72,206.024,487.72z"/>
					<path style="fill:#1E61B8;" d="M199.77,492.098c-1.054,0-1.909-0.855-1.909-1.909c0-1.055,0.855-1.909,1.909-1.909
						s1.91,0.854,1.91,1.909C201.679,491.242,200.824,492.098,199.77,492.098z"/>
					<path style="fill:#1E61B8;" d="M193.516,487.72c-1.054,0-1.909-0.855-1.909-1.909c0-1.055,0.855-1.909,1.909-1.909
						s1.909,0.854,1.909,1.909C195.425,486.864,194.57,487.72,193.516,487.72z"/>
				</g>
			</g>
			<g>
				<g>
					<circle style="fill:#1E61B8;" cx="246.516" cy="490.189" r="1.909"/>
					<path style="fill:#1E61B8;" d="M252.77,483.901c1.054,0,1.909,0.855,1.909,1.909c0,1.055-0.855,1.909-1.909,1.909
						s-1.91-0.854-1.91-1.909C250.861,484.757,251.717,483.901,252.77,483.901z"/>
					<circle style="fill:#1E61B8;" cx="259.024" cy="490.189" r="1.909"/>
				</g>
				<g>
					<path style="fill:#1E61B8;" d="M317.023,487.72c-1.054,0-1.908-0.855-1.908-1.909c0-1.055,0.854-1.909,1.908-1.909
						c1.055,0,1.91,0.854,1.91,1.909C318.934,486.864,318.078,487.72,317.023,487.72z"/>
					<path style="fill:#1E61B8;" d="M310.77,492.098c-1.055,0-1.909-0.855-1.909-1.909c0-1.055,0.854-1.909,1.909-1.909
						c1.055,0,1.91,0.854,1.91,1.909C312.68,491.242,311.824,492.098,310.77,492.098z"/>
					<path style="fill:#1E61B8;" d="M304.516,487.72c-1.055,0-1.909-0.855-1.909-1.909c0-1.055,0.855-1.909,1.909-1.909
						s1.909,0.854,1.909,1.909C306.425,486.864,305.57,487.72,304.516,487.72z"/>
				</g>
			</g>
			<g>
				<g>
					<path style="fill:#1E61B8;" d="M468.516,488.279c1.055,0,1.91,0.855,1.91,1.909c0,1.055-0.855,1.909-1.91,1.909
						c-1.054,0-1.908-0.854-1.908-1.909C466.607,489.135,467.462,488.279,468.516,488.279z"/>
					<path style="fill:#1E61B8;" d="M474.77,483.901c1.054,0,1.909,0.855,1.909,1.909c0,1.055-0.855,1.909-1.909,1.909
						c-1.054,0-1.909-0.854-1.909-1.909C472.861,484.757,473.717,483.901,474.77,483.901z"/>
					<circle style="fill:#1E61B8;" cx="481.024" cy="490.189" r="1.909"/>
				</g>
			</g>
			<g>
				<g>
					<path style="fill:#1E61B8;" d="M357.516,488.279c1.055,0,1.91,0.855,1.91,1.909c0,1.055-0.855,1.909-1.91,1.909
						c-1.054,0-1.908-0.854-1.908-1.909C355.607,489.135,356.462,488.279,357.516,488.279z"/>
					<path style="fill:#1E61B8;" d="M363.77,483.901c1.054,0,1.909,0.855,1.909,1.909c0,1.055-0.855,1.909-1.909,1.909
						c-1.054,0-1.909-0.854-1.909-1.909C361.861,484.757,362.717,483.901,363.77,483.901z"/>
					<circle style="fill:#1E61B8;" cx="370.024" cy="490.189" r="1.909"/>
				</g>
				<g>
					<path style="fill:#1E61B8;" d="M428.023,487.72c-1.054,0-1.908-0.855-1.908-1.909c0-1.055,0.854-1.909,1.908-1.909
						c1.055,0,1.91,0.854,1.91,1.909C429.934,486.864,429.078,487.72,428.023,487.72z"/>
					<path style="fill:#1E61B8;" d="M421.77,492.098c-1.055,0-1.909-0.855-1.909-1.909c0-1.055,0.854-1.909,1.909-1.909
						c1.055,0,1.91,0.854,1.91,1.909C423.68,491.242,422.824,492.098,421.77,492.098z"/>
					<path style="fill:#1E61B8;" d="M415.516,487.72c-1.055,0-1.909-0.855-1.909-1.909c0-1.055,0.854-1.909,1.909-1.909
						c1.055,0,1.909,0.854,1.909,1.909C417.425,486.864,416.57,487.72,415.516,487.72z"/>
				</g>
			</g>
		</g>
	</g>
</g>
</svg>
